G04 MADE WITH FRITZING*
G04 WWW.FRITZING.ORG*
G04 DOUBLE SIDED*
G04 HOLES PLATED*
G04 CONTOUR ON CENTER OF CONTOUR VECTOR*
%ASAXBY*%
%FSLAX23Y23*%
%MOIN*%
%OFA0B0*%
%SFA1.0B1.0*%
%ADD10C,0.097500*%
%ADD11C,0.088000*%
%ADD12C,0.085000*%
%ADD13C,0.072992*%
%ADD14C,0.080000*%
%ADD15C,0.088477*%
%ADD16C,0.080866*%
%ADD17C,0.112677*%
%ADD18C,0.084000*%
%ADD19C,0.135984*%
%ADD20R,0.085000X0.085000*%
%ADD21R,0.072992X0.072992*%
%ADD22R,0.088478X0.097724*%
%ADD23R,0.080000X0.079972*%
%LNMASK0*%
G90*
G70*
G54D10*
X411Y1880D03*
X706Y1880D03*
G54D11*
X1469Y255D03*
X1569Y255D03*
X1669Y255D03*
X1769Y255D03*
X1869Y255D03*
X1969Y255D03*
X98Y1327D03*
X198Y1327D03*
X298Y1327D03*
X398Y1327D03*
X498Y1327D03*
X598Y1327D03*
X698Y1327D03*
G54D12*
X836Y1549D03*
X836Y1849D03*
X936Y1549D03*
X936Y1849D03*
X1036Y1549D03*
X1036Y1849D03*
X1136Y1549D03*
X1136Y1849D03*
G54D13*
X1534Y1431D03*
X1633Y1431D03*
G54D12*
X897Y2042D03*
X597Y2042D03*
G54D14*
X835Y1334D03*
X1035Y1334D03*
G54D12*
X1645Y1682D03*
X1345Y1682D03*
X1263Y1882D03*
X1263Y1582D03*
X2000Y1352D03*
X1700Y1352D03*
X711Y1434D03*
X711Y1734D03*
X850Y1438D03*
X1150Y1438D03*
G54D15*
X102Y259D03*
X102Y865D03*
X102Y259D03*
X102Y865D03*
G54D16*
X1843Y1561D03*
X1941Y1561D03*
X2039Y1561D03*
G54D14*
X1842Y2132D03*
X2039Y2132D03*
G54D17*
X1723Y1856D03*
X2160Y1856D03*
G54D18*
X886Y2298D03*
X779Y2298D03*
X672Y2298D03*
X282Y207D03*
X389Y207D03*
X496Y207D03*
G54D12*
X766Y389D03*
X766Y289D03*
G54D19*
X1109Y2066D03*
X1109Y308D03*
G54D14*
X1552Y1183D03*
X1452Y1183D03*
X1352Y1183D03*
X1252Y1183D03*
X1152Y1183D03*
X1052Y1183D03*
X952Y1183D03*
X852Y1183D03*
X752Y1183D03*
X652Y1183D03*
X552Y1183D03*
X452Y1183D03*
X352Y1183D03*
X252Y1183D03*
X152Y1183D03*
X1552Y583D03*
X1452Y583D03*
X1352Y583D03*
X1252Y583D03*
X1152Y583D03*
X1052Y583D03*
X952Y583D03*
X852Y583D03*
X752Y583D03*
X652Y583D03*
X552Y583D03*
X452Y583D03*
X352Y583D03*
X252Y583D03*
X152Y583D03*
X1584Y429D03*
X1384Y429D03*
X268Y404D03*
X68Y404D03*
G54D20*
X836Y1549D03*
G54D21*
X1534Y1431D03*
G54D22*
X102Y864D03*
X102Y864D03*
G54D20*
X766Y389D03*
G54D23*
X1552Y1183D03*
G04 End of Mask0*
M02*