G04 MADE WITH FRITZING*
G04 WWW.FRITZING.ORG*
G04 DOUBLE SIDED*
G04 HOLES PLATED*
G04 CONTOUR ON CENTER OF CONTOUR VECTOR*
%ASAXBY*%
%FSLAX23Y23*%
%MOIN*%
%OFA0B0*%
%SFA1.0B1.0*%
%ADD10R,0.001000X0.001000*%
%LNSILK0*%
G90*
G70*
G54D10*
X37Y2401D02*
X2208Y2401D01*
X33Y2400D02*
X2212Y2400D01*
X30Y2399D02*
X2215Y2399D01*
X27Y2398D02*
X2218Y2398D01*
X25Y2397D02*
X2220Y2397D01*
X23Y2396D02*
X69Y2396D01*
X2176Y2396D02*
X2222Y2396D01*
X20Y2395D02*
X58Y2395D01*
X2187Y2395D02*
X2225Y2395D01*
X19Y2394D02*
X51Y2394D01*
X2194Y2394D02*
X2226Y2394D01*
X17Y2393D02*
X46Y2393D01*
X2199Y2393D02*
X2228Y2393D01*
X15Y2392D02*
X42Y2392D01*
X2203Y2392D02*
X2230Y2392D01*
X13Y2391D02*
X38Y2391D01*
X2207Y2391D02*
X2232Y2391D01*
X12Y2390D02*
X35Y2390D01*
X2210Y2390D02*
X2233Y2390D01*
X10Y2389D02*
X32Y2389D01*
X2213Y2389D02*
X2235Y2389D01*
X9Y2388D02*
X29Y2388D01*
X2216Y2388D02*
X2236Y2388D01*
X8Y2387D02*
X27Y2387D01*
X2218Y2387D02*
X2237Y2387D01*
X7Y2386D02*
X25Y2386D01*
X2220Y2386D02*
X2238Y2386D01*
X6Y2385D02*
X23Y2385D01*
X2222Y2385D02*
X2239Y2385D01*
X5Y2384D02*
X21Y2384D01*
X2224Y2384D02*
X2240Y2384D01*
X4Y2383D02*
X19Y2383D01*
X2226Y2383D02*
X2241Y2383D01*
X3Y2382D02*
X17Y2382D01*
X2228Y2382D02*
X2242Y2382D01*
X2Y2381D02*
X16Y2381D01*
X2229Y2381D02*
X2243Y2381D01*
X1Y2380D02*
X14Y2380D01*
X2231Y2380D02*
X2244Y2380D01*
X1Y2379D02*
X13Y2379D01*
X2232Y2379D02*
X2245Y2379D01*
X1Y2378D02*
X12Y2378D01*
X2233Y2378D02*
X2245Y2378D01*
X1Y2377D02*
X11Y2377D01*
X2234Y2377D02*
X2246Y2377D01*
X1Y2376D02*
X10Y2376D01*
X2235Y2376D02*
X2246Y2376D01*
X1Y2375D02*
X9Y2375D01*
X2236Y2375D02*
X2246Y2375D01*
X1Y2374D02*
X8Y2374D01*
X2237Y2374D02*
X2246Y2374D01*
X1Y2373D02*
X8Y2373D01*
X2237Y2373D02*
X2246Y2373D01*
X1Y2372D02*
X7Y2372D01*
X2238Y2372D02*
X2246Y2372D01*
X1Y2371D02*
X6Y2371D01*
X2239Y2371D02*
X2246Y2371D01*
X1Y2370D02*
X6Y2370D01*
X2239Y2370D02*
X2246Y2370D01*
X1Y2369D02*
X6Y2369D01*
X2239Y2369D02*
X2246Y2369D01*
X1Y2368D02*
X5Y2368D01*
X2240Y2368D02*
X2246Y2368D01*
X1Y2367D02*
X5Y2367D01*
X2240Y2367D02*
X2246Y2367D01*
X1Y2366D02*
X5Y2366D01*
X2240Y2366D02*
X2246Y2366D01*
X1Y2365D02*
X5Y2365D01*
X2240Y2365D02*
X2246Y2365D01*
X1Y2364D02*
X5Y2364D01*
X2240Y2364D02*
X2246Y2364D01*
X1Y2363D02*
X5Y2363D01*
X2240Y2363D02*
X2246Y2363D01*
X1Y2362D02*
X5Y2362D01*
X2240Y2362D02*
X2246Y2362D01*
X1Y2361D02*
X5Y2361D01*
X2240Y2361D02*
X2246Y2361D01*
X1Y2360D02*
X5Y2360D01*
X2240Y2360D02*
X2246Y2360D01*
X1Y2359D02*
X5Y2359D01*
X2240Y2359D02*
X2246Y2359D01*
X1Y2358D02*
X5Y2358D01*
X2240Y2358D02*
X2246Y2358D01*
X1Y2357D02*
X5Y2357D01*
X2240Y2357D02*
X2246Y2357D01*
X1Y2356D02*
X5Y2356D01*
X2240Y2356D02*
X2246Y2356D01*
X1Y2355D02*
X5Y2355D01*
X2240Y2355D02*
X2246Y2355D01*
X1Y2354D02*
X5Y2354D01*
X2240Y2354D02*
X2246Y2354D01*
X1Y2353D02*
X5Y2353D01*
X2240Y2353D02*
X2246Y2353D01*
X1Y2352D02*
X5Y2352D01*
X2240Y2352D02*
X2246Y2352D01*
X1Y2351D02*
X5Y2351D01*
X2240Y2351D02*
X2246Y2351D01*
X1Y2350D02*
X5Y2350D01*
X2240Y2350D02*
X2246Y2350D01*
X1Y2349D02*
X5Y2349D01*
X2240Y2349D02*
X2246Y2349D01*
X1Y2348D02*
X5Y2348D01*
X2240Y2348D02*
X2246Y2348D01*
X1Y2347D02*
X5Y2347D01*
X2240Y2347D02*
X2246Y2347D01*
X1Y2346D02*
X5Y2346D01*
X2240Y2346D02*
X2246Y2346D01*
X1Y2345D02*
X5Y2345D01*
X2240Y2345D02*
X2246Y2345D01*
X1Y2344D02*
X5Y2344D01*
X2240Y2344D02*
X2246Y2344D01*
X1Y2343D02*
X5Y2343D01*
X2240Y2343D02*
X2246Y2343D01*
X1Y2342D02*
X5Y2342D01*
X2240Y2342D02*
X2246Y2342D01*
X1Y2341D02*
X5Y2341D01*
X2240Y2341D02*
X2246Y2341D01*
X1Y2340D02*
X5Y2340D01*
X2240Y2340D02*
X2246Y2340D01*
X1Y2339D02*
X5Y2339D01*
X2240Y2339D02*
X2246Y2339D01*
X1Y2338D02*
X5Y2338D01*
X2240Y2338D02*
X2246Y2338D01*
X1Y2337D02*
X5Y2337D01*
X2240Y2337D02*
X2246Y2337D01*
X1Y2336D02*
X5Y2336D01*
X2240Y2336D02*
X2246Y2336D01*
X1Y2335D02*
X5Y2335D01*
X2240Y2335D02*
X2246Y2335D01*
X1Y2334D02*
X5Y2334D01*
X2240Y2334D02*
X2246Y2334D01*
X1Y2333D02*
X5Y2333D01*
X2240Y2333D02*
X2246Y2333D01*
X1Y2332D02*
X5Y2332D01*
X2240Y2332D02*
X2246Y2332D01*
X1Y2331D02*
X5Y2331D01*
X2240Y2331D02*
X2246Y2331D01*
X1Y2330D02*
X5Y2330D01*
X2240Y2330D02*
X2246Y2330D01*
X1Y2329D02*
X5Y2329D01*
X2240Y2329D02*
X2246Y2329D01*
X1Y2328D02*
X5Y2328D01*
X2240Y2328D02*
X2246Y2328D01*
X1Y2327D02*
X5Y2327D01*
X2240Y2327D02*
X2246Y2327D01*
X1Y2326D02*
X5Y2326D01*
X2240Y2326D02*
X2246Y2326D01*
X1Y2325D02*
X5Y2325D01*
X2240Y2325D02*
X2246Y2325D01*
X1Y2324D02*
X5Y2324D01*
X2240Y2324D02*
X2246Y2324D01*
X1Y2323D02*
X5Y2323D01*
X2240Y2323D02*
X2246Y2323D01*
X1Y2322D02*
X5Y2322D01*
X2240Y2322D02*
X2246Y2322D01*
X1Y2321D02*
X5Y2321D01*
X2240Y2321D02*
X2246Y2321D01*
X1Y2320D02*
X5Y2320D01*
X2240Y2320D02*
X2246Y2320D01*
X1Y2319D02*
X5Y2319D01*
X2240Y2319D02*
X2246Y2319D01*
X1Y2318D02*
X5Y2318D01*
X2240Y2318D02*
X2246Y2318D01*
X1Y2317D02*
X5Y2317D01*
X2240Y2317D02*
X2246Y2317D01*
X1Y2316D02*
X5Y2316D01*
X2240Y2316D02*
X2246Y2316D01*
X1Y2315D02*
X5Y2315D01*
X2240Y2315D02*
X2246Y2315D01*
X1Y2314D02*
X5Y2314D01*
X2240Y2314D02*
X2246Y2314D01*
X1Y2313D02*
X5Y2313D01*
X2240Y2313D02*
X2246Y2313D01*
X1Y2312D02*
X5Y2312D01*
X2240Y2312D02*
X2246Y2312D01*
X1Y2311D02*
X5Y2311D01*
X2240Y2311D02*
X2246Y2311D01*
X1Y2310D02*
X5Y2310D01*
X2240Y2310D02*
X2246Y2310D01*
X1Y2309D02*
X5Y2309D01*
X2240Y2309D02*
X2246Y2309D01*
X1Y2308D02*
X5Y2308D01*
X2240Y2308D02*
X2246Y2308D01*
X1Y2307D02*
X5Y2307D01*
X2240Y2307D02*
X2246Y2307D01*
X1Y2306D02*
X5Y2306D01*
X2240Y2306D02*
X2246Y2306D01*
X1Y2305D02*
X5Y2305D01*
X2240Y2305D02*
X2246Y2305D01*
X1Y2304D02*
X5Y2304D01*
X2240Y2304D02*
X2246Y2304D01*
X1Y2303D02*
X5Y2303D01*
X2240Y2303D02*
X2246Y2303D01*
X1Y2302D02*
X5Y2302D01*
X2240Y2302D02*
X2246Y2302D01*
X1Y2301D02*
X5Y2301D01*
X2240Y2301D02*
X2246Y2301D01*
X1Y2300D02*
X5Y2300D01*
X2240Y2300D02*
X2246Y2300D01*
X1Y2299D02*
X5Y2299D01*
X2240Y2299D02*
X2246Y2299D01*
X1Y2298D02*
X5Y2298D01*
X2240Y2298D02*
X2246Y2298D01*
X1Y2297D02*
X5Y2297D01*
X2240Y2297D02*
X2246Y2297D01*
X1Y2296D02*
X5Y2296D01*
X2240Y2296D02*
X2246Y2296D01*
X1Y2295D02*
X5Y2295D01*
X2240Y2295D02*
X2246Y2295D01*
X1Y2294D02*
X5Y2294D01*
X2240Y2294D02*
X2246Y2294D01*
X1Y2293D02*
X5Y2293D01*
X2240Y2293D02*
X2246Y2293D01*
X1Y2292D02*
X5Y2292D01*
X2240Y2292D02*
X2246Y2292D01*
X1Y2291D02*
X5Y2291D01*
X2240Y2291D02*
X2246Y2291D01*
X1Y2290D02*
X5Y2290D01*
X2240Y2290D02*
X2246Y2290D01*
X1Y2289D02*
X5Y2289D01*
X2240Y2289D02*
X2246Y2289D01*
X1Y2288D02*
X5Y2288D01*
X2240Y2288D02*
X2246Y2288D01*
X1Y2287D02*
X5Y2287D01*
X2240Y2287D02*
X2246Y2287D01*
X1Y2286D02*
X5Y2286D01*
X2240Y2286D02*
X2246Y2286D01*
X1Y2285D02*
X5Y2285D01*
X2240Y2285D02*
X2246Y2285D01*
X1Y2284D02*
X5Y2284D01*
X2240Y2284D02*
X2246Y2284D01*
X1Y2283D02*
X5Y2283D01*
X2240Y2283D02*
X2246Y2283D01*
X1Y2282D02*
X5Y2282D01*
X2240Y2282D02*
X2246Y2282D01*
X1Y2281D02*
X5Y2281D01*
X2240Y2281D02*
X2246Y2281D01*
X1Y2280D02*
X5Y2280D01*
X2240Y2280D02*
X2246Y2280D01*
X1Y2279D02*
X5Y2279D01*
X2240Y2279D02*
X2246Y2279D01*
X1Y2278D02*
X5Y2278D01*
X2240Y2278D02*
X2246Y2278D01*
X1Y2277D02*
X5Y2277D01*
X2240Y2277D02*
X2246Y2277D01*
X1Y2276D02*
X5Y2276D01*
X2240Y2276D02*
X2246Y2276D01*
X1Y2275D02*
X5Y2275D01*
X2240Y2275D02*
X2246Y2275D01*
X1Y2274D02*
X5Y2274D01*
X2240Y2274D02*
X2246Y2274D01*
X1Y2273D02*
X5Y2273D01*
X2240Y2273D02*
X2246Y2273D01*
X1Y2272D02*
X5Y2272D01*
X2240Y2272D02*
X2246Y2272D01*
X1Y2271D02*
X5Y2271D01*
X2240Y2271D02*
X2246Y2271D01*
X1Y2270D02*
X5Y2270D01*
X2240Y2270D02*
X2246Y2270D01*
X1Y2269D02*
X5Y2269D01*
X2240Y2269D02*
X2246Y2269D01*
X1Y2268D02*
X5Y2268D01*
X2240Y2268D02*
X2246Y2268D01*
X1Y2267D02*
X5Y2267D01*
X2240Y2267D02*
X2246Y2267D01*
X1Y2266D02*
X5Y2266D01*
X2240Y2266D02*
X2246Y2266D01*
X1Y2265D02*
X5Y2265D01*
X2240Y2265D02*
X2246Y2265D01*
X1Y2264D02*
X5Y2264D01*
X2240Y2264D02*
X2246Y2264D01*
X1Y2263D02*
X5Y2263D01*
X2240Y2263D02*
X2246Y2263D01*
X1Y2262D02*
X5Y2262D01*
X2240Y2262D02*
X2246Y2262D01*
X1Y2261D02*
X5Y2261D01*
X2240Y2261D02*
X2246Y2261D01*
X1Y2260D02*
X5Y2260D01*
X2240Y2260D02*
X2246Y2260D01*
X1Y2259D02*
X5Y2259D01*
X2240Y2259D02*
X2246Y2259D01*
X1Y2258D02*
X5Y2258D01*
X2240Y2258D02*
X2246Y2258D01*
X1Y2257D02*
X5Y2257D01*
X2240Y2257D02*
X2246Y2257D01*
X1Y2256D02*
X5Y2256D01*
X2240Y2256D02*
X2246Y2256D01*
X1Y2255D02*
X5Y2255D01*
X2240Y2255D02*
X2246Y2255D01*
X1Y2254D02*
X5Y2254D01*
X2240Y2254D02*
X2246Y2254D01*
X1Y2253D02*
X5Y2253D01*
X2240Y2253D02*
X2246Y2253D01*
X1Y2252D02*
X5Y2252D01*
X2240Y2252D02*
X2246Y2252D01*
X1Y2251D02*
X5Y2251D01*
X2240Y2251D02*
X2246Y2251D01*
X1Y2250D02*
X5Y2250D01*
X2240Y2250D02*
X2246Y2250D01*
X1Y2249D02*
X5Y2249D01*
X2240Y2249D02*
X2246Y2249D01*
X1Y2248D02*
X5Y2248D01*
X2240Y2248D02*
X2246Y2248D01*
X1Y2247D02*
X5Y2247D01*
X2240Y2247D02*
X2246Y2247D01*
X1Y2246D02*
X5Y2246D01*
X2240Y2246D02*
X2246Y2246D01*
X1Y2245D02*
X5Y2245D01*
X2240Y2245D02*
X2246Y2245D01*
X1Y2244D02*
X5Y2244D01*
X2240Y2244D02*
X2246Y2244D01*
X1Y2243D02*
X5Y2243D01*
X2240Y2243D02*
X2246Y2243D01*
X1Y2242D02*
X5Y2242D01*
X2240Y2242D02*
X2246Y2242D01*
X1Y2241D02*
X5Y2241D01*
X2240Y2241D02*
X2246Y2241D01*
X1Y2240D02*
X5Y2240D01*
X2240Y2240D02*
X2246Y2240D01*
X1Y2239D02*
X5Y2239D01*
X2240Y2239D02*
X2246Y2239D01*
X1Y2238D02*
X5Y2238D01*
X2240Y2238D02*
X2246Y2238D01*
X1Y2237D02*
X5Y2237D01*
X2240Y2237D02*
X2246Y2237D01*
X1Y2236D02*
X5Y2236D01*
X2240Y2236D02*
X2246Y2236D01*
X1Y2235D02*
X5Y2235D01*
X2240Y2235D02*
X2246Y2235D01*
X1Y2234D02*
X5Y2234D01*
X2240Y2234D02*
X2246Y2234D01*
X1Y2233D02*
X5Y2233D01*
X2240Y2233D02*
X2246Y2233D01*
X1Y2232D02*
X5Y2232D01*
X2240Y2232D02*
X2246Y2232D01*
X1Y2231D02*
X5Y2231D01*
X2240Y2231D02*
X2246Y2231D01*
X1Y2230D02*
X5Y2230D01*
X2240Y2230D02*
X2246Y2230D01*
X1Y2229D02*
X5Y2229D01*
X2240Y2229D02*
X2246Y2229D01*
X1Y2228D02*
X5Y2228D01*
X2240Y2228D02*
X2246Y2228D01*
X1Y2227D02*
X5Y2227D01*
X2240Y2227D02*
X2246Y2227D01*
X1Y2226D02*
X5Y2226D01*
X2240Y2226D02*
X2246Y2226D01*
X1Y2225D02*
X5Y2225D01*
X2240Y2225D02*
X2246Y2225D01*
X1Y2224D02*
X5Y2224D01*
X2240Y2224D02*
X2246Y2224D01*
X1Y2223D02*
X5Y2223D01*
X2240Y2223D02*
X2246Y2223D01*
X1Y2222D02*
X5Y2222D01*
X2240Y2222D02*
X2246Y2222D01*
X1Y2221D02*
X5Y2221D01*
X2240Y2221D02*
X2246Y2221D01*
X1Y2220D02*
X5Y2220D01*
X2240Y2220D02*
X2246Y2220D01*
X1Y2219D02*
X5Y2219D01*
X2240Y2219D02*
X2246Y2219D01*
X1Y2218D02*
X5Y2218D01*
X2240Y2218D02*
X2246Y2218D01*
X1Y2217D02*
X5Y2217D01*
X2240Y2217D02*
X2246Y2217D01*
X1Y2216D02*
X5Y2216D01*
X2240Y2216D02*
X2246Y2216D01*
X1Y2215D02*
X5Y2215D01*
X2240Y2215D02*
X2246Y2215D01*
X1Y2214D02*
X5Y2214D01*
X2240Y2214D02*
X2246Y2214D01*
X1Y2213D02*
X5Y2213D01*
X2240Y2213D02*
X2246Y2213D01*
X1Y2212D02*
X5Y2212D01*
X2240Y2212D02*
X2246Y2212D01*
X1Y2211D02*
X5Y2211D01*
X2240Y2211D02*
X2246Y2211D01*
X1Y2210D02*
X5Y2210D01*
X2240Y2210D02*
X2246Y2210D01*
X1Y2209D02*
X5Y2209D01*
X2240Y2209D02*
X2246Y2209D01*
X1Y2208D02*
X5Y2208D01*
X2240Y2208D02*
X2246Y2208D01*
X1Y2207D02*
X5Y2207D01*
X2240Y2207D02*
X2246Y2207D01*
X1Y2206D02*
X5Y2206D01*
X2240Y2206D02*
X2246Y2206D01*
X1Y2205D02*
X5Y2205D01*
X2240Y2205D02*
X2246Y2205D01*
X1Y2204D02*
X5Y2204D01*
X2240Y2204D02*
X2246Y2204D01*
X1Y2203D02*
X5Y2203D01*
X2240Y2203D02*
X2246Y2203D01*
X1Y2202D02*
X5Y2202D01*
X2240Y2202D02*
X2246Y2202D01*
X1Y2201D02*
X5Y2201D01*
X2240Y2201D02*
X2246Y2201D01*
X1Y2200D02*
X5Y2200D01*
X2240Y2200D02*
X2246Y2200D01*
X1Y2199D02*
X5Y2199D01*
X2240Y2199D02*
X2246Y2199D01*
X1Y2198D02*
X5Y2198D01*
X2240Y2198D02*
X2246Y2198D01*
X1Y2197D02*
X5Y2197D01*
X2240Y2197D02*
X2246Y2197D01*
X1Y2196D02*
X5Y2196D01*
X2240Y2196D02*
X2246Y2196D01*
X1Y2195D02*
X5Y2195D01*
X2240Y2195D02*
X2246Y2195D01*
X1Y2194D02*
X5Y2194D01*
X2240Y2194D02*
X2246Y2194D01*
X1Y2193D02*
X5Y2193D01*
X2240Y2193D02*
X2246Y2193D01*
X1Y2192D02*
X5Y2192D01*
X2240Y2192D02*
X2246Y2192D01*
X1Y2191D02*
X5Y2191D01*
X2240Y2191D02*
X2246Y2191D01*
X1Y2190D02*
X5Y2190D01*
X2240Y2190D02*
X2246Y2190D01*
X1Y2189D02*
X5Y2189D01*
X2240Y2189D02*
X2246Y2189D01*
X1Y2188D02*
X5Y2188D01*
X2240Y2188D02*
X2246Y2188D01*
X1Y2187D02*
X5Y2187D01*
X2240Y2187D02*
X2246Y2187D01*
X1Y2186D02*
X5Y2186D01*
X2240Y2186D02*
X2246Y2186D01*
X1Y2185D02*
X5Y2185D01*
X2240Y2185D02*
X2246Y2185D01*
X1Y2184D02*
X5Y2184D01*
X2240Y2184D02*
X2246Y2184D01*
X1Y2183D02*
X5Y2183D01*
X2240Y2183D02*
X2246Y2183D01*
X1Y2182D02*
X5Y2182D01*
X2240Y2182D02*
X2246Y2182D01*
X1Y2181D02*
X5Y2181D01*
X2240Y2181D02*
X2246Y2181D01*
X1Y2180D02*
X5Y2180D01*
X2240Y2180D02*
X2246Y2180D01*
X1Y2179D02*
X5Y2179D01*
X2240Y2179D02*
X2246Y2179D01*
X1Y2178D02*
X5Y2178D01*
X2240Y2178D02*
X2246Y2178D01*
X1Y2177D02*
X5Y2177D01*
X2240Y2177D02*
X2246Y2177D01*
X1Y2176D02*
X5Y2176D01*
X2240Y2176D02*
X2246Y2176D01*
X1Y2175D02*
X5Y2175D01*
X2240Y2175D02*
X2246Y2175D01*
X1Y2174D02*
X5Y2174D01*
X2240Y2174D02*
X2246Y2174D01*
X1Y2173D02*
X5Y2173D01*
X2240Y2173D02*
X2246Y2173D01*
X1Y2172D02*
X5Y2172D01*
X2240Y2172D02*
X2246Y2172D01*
X1Y2171D02*
X5Y2171D01*
X2240Y2171D02*
X2246Y2171D01*
X1Y2170D02*
X5Y2170D01*
X2240Y2170D02*
X2246Y2170D01*
X1Y2169D02*
X5Y2169D01*
X2240Y2169D02*
X2246Y2169D01*
X1Y2168D02*
X5Y2168D01*
X2240Y2168D02*
X2246Y2168D01*
X1Y2167D02*
X5Y2167D01*
X2240Y2167D02*
X2246Y2167D01*
X1Y2166D02*
X5Y2166D01*
X2240Y2166D02*
X2246Y2166D01*
X1Y2165D02*
X5Y2165D01*
X2240Y2165D02*
X2246Y2165D01*
X1Y2164D02*
X5Y2164D01*
X2240Y2164D02*
X2246Y2164D01*
X1Y2163D02*
X5Y2163D01*
X2240Y2163D02*
X2246Y2163D01*
X1Y2162D02*
X5Y2162D01*
X2240Y2162D02*
X2246Y2162D01*
X1Y2161D02*
X5Y2161D01*
X2240Y2161D02*
X2246Y2161D01*
X1Y2160D02*
X5Y2160D01*
X2240Y2160D02*
X2246Y2160D01*
X1Y2159D02*
X5Y2159D01*
X2240Y2159D02*
X2246Y2159D01*
X1Y2158D02*
X5Y2158D01*
X2240Y2158D02*
X2246Y2158D01*
X1Y2157D02*
X5Y2157D01*
X2240Y2157D02*
X2246Y2157D01*
X1Y2156D02*
X5Y2156D01*
X2240Y2156D02*
X2246Y2156D01*
X1Y2155D02*
X5Y2155D01*
X2240Y2155D02*
X2246Y2155D01*
X1Y2154D02*
X5Y2154D01*
X2240Y2154D02*
X2246Y2154D01*
X1Y2153D02*
X5Y2153D01*
X2240Y2153D02*
X2246Y2153D01*
X1Y2152D02*
X5Y2152D01*
X2240Y2152D02*
X2246Y2152D01*
X1Y2151D02*
X5Y2151D01*
X2240Y2151D02*
X2246Y2151D01*
X1Y2150D02*
X5Y2150D01*
X2240Y2150D02*
X2246Y2150D01*
X1Y2149D02*
X5Y2149D01*
X2240Y2149D02*
X2246Y2149D01*
X1Y2148D02*
X5Y2148D01*
X2240Y2148D02*
X2246Y2148D01*
X1Y2147D02*
X5Y2147D01*
X2240Y2147D02*
X2246Y2147D01*
X1Y2146D02*
X5Y2146D01*
X2240Y2146D02*
X2246Y2146D01*
X1Y2145D02*
X5Y2145D01*
X2240Y2145D02*
X2246Y2145D01*
X1Y2144D02*
X5Y2144D01*
X2240Y2144D02*
X2246Y2144D01*
X1Y2143D02*
X5Y2143D01*
X2240Y2143D02*
X2246Y2143D01*
X1Y2142D02*
X5Y2142D01*
X2240Y2142D02*
X2246Y2142D01*
X1Y2141D02*
X5Y2141D01*
X2240Y2141D02*
X2246Y2141D01*
X1Y2140D02*
X5Y2140D01*
X2240Y2140D02*
X2246Y2140D01*
X1Y2139D02*
X5Y2139D01*
X2240Y2139D02*
X2246Y2139D01*
X1Y2138D02*
X5Y2138D01*
X2240Y2138D02*
X2246Y2138D01*
X1Y2137D02*
X5Y2137D01*
X2240Y2137D02*
X2246Y2137D01*
X1Y2136D02*
X5Y2136D01*
X2240Y2136D02*
X2246Y2136D01*
X1Y2135D02*
X5Y2135D01*
X2240Y2135D02*
X2246Y2135D01*
X1Y2134D02*
X5Y2134D01*
X2240Y2134D02*
X2246Y2134D01*
X1Y2133D02*
X5Y2133D01*
X2240Y2133D02*
X2246Y2133D01*
X1Y2132D02*
X5Y2132D01*
X2240Y2132D02*
X2246Y2132D01*
X1Y2131D02*
X5Y2131D01*
X2240Y2131D02*
X2246Y2131D01*
X1Y2130D02*
X5Y2130D01*
X2240Y2130D02*
X2246Y2130D01*
X1Y2129D02*
X5Y2129D01*
X2240Y2129D02*
X2246Y2129D01*
X1Y2128D02*
X5Y2128D01*
X2240Y2128D02*
X2246Y2128D01*
X1Y2127D02*
X5Y2127D01*
X2240Y2127D02*
X2246Y2127D01*
X1Y2126D02*
X5Y2126D01*
X2240Y2126D02*
X2246Y2126D01*
X1Y2125D02*
X5Y2125D01*
X2240Y2125D02*
X2246Y2125D01*
X1Y2124D02*
X5Y2124D01*
X2240Y2124D02*
X2246Y2124D01*
X1Y2123D02*
X5Y2123D01*
X2240Y2123D02*
X2246Y2123D01*
X1Y2122D02*
X5Y2122D01*
X2240Y2122D02*
X2246Y2122D01*
X1Y2121D02*
X5Y2121D01*
X2240Y2121D02*
X2246Y2121D01*
X1Y2120D02*
X5Y2120D01*
X2240Y2120D02*
X2246Y2120D01*
X1Y2119D02*
X5Y2119D01*
X2240Y2119D02*
X2246Y2119D01*
X1Y2118D02*
X5Y2118D01*
X2240Y2118D02*
X2246Y2118D01*
X1Y2117D02*
X5Y2117D01*
X2240Y2117D02*
X2246Y2117D01*
X1Y2116D02*
X5Y2116D01*
X2240Y2116D02*
X2246Y2116D01*
X1Y2115D02*
X5Y2115D01*
X2240Y2115D02*
X2246Y2115D01*
X1Y2114D02*
X5Y2114D01*
X2240Y2114D02*
X2246Y2114D01*
X1Y2113D02*
X5Y2113D01*
X2240Y2113D02*
X2246Y2113D01*
X1Y2112D02*
X5Y2112D01*
X2240Y2112D02*
X2246Y2112D01*
X1Y2111D02*
X5Y2111D01*
X2240Y2111D02*
X2246Y2111D01*
X1Y2110D02*
X5Y2110D01*
X2240Y2110D02*
X2246Y2110D01*
X1Y2109D02*
X5Y2109D01*
X2240Y2109D02*
X2246Y2109D01*
X1Y2108D02*
X5Y2108D01*
X2240Y2108D02*
X2246Y2108D01*
X1Y2107D02*
X5Y2107D01*
X2240Y2107D02*
X2246Y2107D01*
X1Y2106D02*
X5Y2106D01*
X2240Y2106D02*
X2246Y2106D01*
X1Y2105D02*
X5Y2105D01*
X2240Y2105D02*
X2246Y2105D01*
X1Y2104D02*
X5Y2104D01*
X2240Y2104D02*
X2246Y2104D01*
X1Y2103D02*
X5Y2103D01*
X2240Y2103D02*
X2246Y2103D01*
X1Y2102D02*
X5Y2102D01*
X2240Y2102D02*
X2246Y2102D01*
X1Y2101D02*
X5Y2101D01*
X2240Y2101D02*
X2246Y2101D01*
X1Y2100D02*
X5Y2100D01*
X2240Y2100D02*
X2246Y2100D01*
X1Y2099D02*
X5Y2099D01*
X2240Y2099D02*
X2246Y2099D01*
X1Y2098D02*
X5Y2098D01*
X2240Y2098D02*
X2246Y2098D01*
X1Y2097D02*
X5Y2097D01*
X2240Y2097D02*
X2246Y2097D01*
X1Y2096D02*
X5Y2096D01*
X2240Y2096D02*
X2246Y2096D01*
X1Y2095D02*
X5Y2095D01*
X2240Y2095D02*
X2246Y2095D01*
X1Y2094D02*
X5Y2094D01*
X2240Y2094D02*
X2246Y2094D01*
X1Y2093D02*
X5Y2093D01*
X2240Y2093D02*
X2246Y2093D01*
X1Y2092D02*
X5Y2092D01*
X2240Y2092D02*
X2246Y2092D01*
X1Y2091D02*
X5Y2091D01*
X2240Y2091D02*
X2246Y2091D01*
X1Y2090D02*
X5Y2090D01*
X2240Y2090D02*
X2246Y2090D01*
X1Y2089D02*
X5Y2089D01*
X2240Y2089D02*
X2246Y2089D01*
X1Y2088D02*
X5Y2088D01*
X2240Y2088D02*
X2246Y2088D01*
X1Y2087D02*
X5Y2087D01*
X2240Y2087D02*
X2246Y2087D01*
X1Y2086D02*
X5Y2086D01*
X2240Y2086D02*
X2246Y2086D01*
X1Y2085D02*
X5Y2085D01*
X2240Y2085D02*
X2246Y2085D01*
X1Y2084D02*
X5Y2084D01*
X2240Y2084D02*
X2246Y2084D01*
X1Y2083D02*
X5Y2083D01*
X2240Y2083D02*
X2246Y2083D01*
X1Y2082D02*
X5Y2082D01*
X2240Y2082D02*
X2246Y2082D01*
X1Y2081D02*
X5Y2081D01*
X2240Y2081D02*
X2246Y2081D01*
X1Y2080D02*
X5Y2080D01*
X2240Y2080D02*
X2246Y2080D01*
X1Y2079D02*
X5Y2079D01*
X2240Y2079D02*
X2246Y2079D01*
X1Y2078D02*
X5Y2078D01*
X2240Y2078D02*
X2246Y2078D01*
X1Y2077D02*
X5Y2077D01*
X2240Y2077D02*
X2246Y2077D01*
X1Y2076D02*
X5Y2076D01*
X2240Y2076D02*
X2246Y2076D01*
X1Y2075D02*
X5Y2075D01*
X2240Y2075D02*
X2246Y2075D01*
X1Y2074D02*
X5Y2074D01*
X2240Y2074D02*
X2246Y2074D01*
X1Y2073D02*
X5Y2073D01*
X2240Y2073D02*
X2246Y2073D01*
X1Y2072D02*
X5Y2072D01*
X2240Y2072D02*
X2246Y2072D01*
X1Y2071D02*
X5Y2071D01*
X2240Y2071D02*
X2246Y2071D01*
X1Y2070D02*
X5Y2070D01*
X2240Y2070D02*
X2246Y2070D01*
X1Y2069D02*
X5Y2069D01*
X2240Y2069D02*
X2246Y2069D01*
X1Y2068D02*
X5Y2068D01*
X2240Y2068D02*
X2246Y2068D01*
X1Y2067D02*
X5Y2067D01*
X2240Y2067D02*
X2246Y2067D01*
X1Y2066D02*
X5Y2066D01*
X2240Y2066D02*
X2246Y2066D01*
X1Y2065D02*
X5Y2065D01*
X2240Y2065D02*
X2246Y2065D01*
X1Y2064D02*
X5Y2064D01*
X2240Y2064D02*
X2246Y2064D01*
X1Y2063D02*
X5Y2063D01*
X2240Y2063D02*
X2246Y2063D01*
X1Y2062D02*
X5Y2062D01*
X2240Y2062D02*
X2246Y2062D01*
X1Y2061D02*
X5Y2061D01*
X2240Y2061D02*
X2246Y2061D01*
X1Y2060D02*
X5Y2060D01*
X2240Y2060D02*
X2246Y2060D01*
X1Y2059D02*
X5Y2059D01*
X2240Y2059D02*
X2246Y2059D01*
X1Y2058D02*
X5Y2058D01*
X2240Y2058D02*
X2246Y2058D01*
X1Y2057D02*
X5Y2057D01*
X2240Y2057D02*
X2246Y2057D01*
X1Y2056D02*
X5Y2056D01*
X2240Y2056D02*
X2246Y2056D01*
X1Y2055D02*
X5Y2055D01*
X2240Y2055D02*
X2246Y2055D01*
X1Y2054D02*
X5Y2054D01*
X2240Y2054D02*
X2246Y2054D01*
X1Y2053D02*
X5Y2053D01*
X2240Y2053D02*
X2246Y2053D01*
X1Y2052D02*
X5Y2052D01*
X2240Y2052D02*
X2246Y2052D01*
X1Y2051D02*
X5Y2051D01*
X2240Y2051D02*
X2246Y2051D01*
X1Y2050D02*
X5Y2050D01*
X2240Y2050D02*
X2246Y2050D01*
X1Y2049D02*
X5Y2049D01*
X2240Y2049D02*
X2246Y2049D01*
X1Y2048D02*
X5Y2048D01*
X2240Y2048D02*
X2246Y2048D01*
X1Y2047D02*
X5Y2047D01*
X2240Y2047D02*
X2246Y2047D01*
X1Y2046D02*
X5Y2046D01*
X2240Y2046D02*
X2246Y2046D01*
X1Y2045D02*
X5Y2045D01*
X2240Y2045D02*
X2246Y2045D01*
X1Y2044D02*
X5Y2044D01*
X2240Y2044D02*
X2246Y2044D01*
X1Y2043D02*
X5Y2043D01*
X2240Y2043D02*
X2246Y2043D01*
X1Y2042D02*
X5Y2042D01*
X2240Y2042D02*
X2246Y2042D01*
X1Y2041D02*
X5Y2041D01*
X2240Y2041D02*
X2246Y2041D01*
X1Y2040D02*
X5Y2040D01*
X2240Y2040D02*
X2246Y2040D01*
X1Y2039D02*
X5Y2039D01*
X2240Y2039D02*
X2246Y2039D01*
X1Y2038D02*
X5Y2038D01*
X2240Y2038D02*
X2246Y2038D01*
X1Y2037D02*
X5Y2037D01*
X2240Y2037D02*
X2246Y2037D01*
X1Y2036D02*
X5Y2036D01*
X2240Y2036D02*
X2246Y2036D01*
X1Y2035D02*
X5Y2035D01*
X2240Y2035D02*
X2246Y2035D01*
X1Y2034D02*
X5Y2034D01*
X2240Y2034D02*
X2246Y2034D01*
X1Y2033D02*
X5Y2033D01*
X2240Y2033D02*
X2246Y2033D01*
X1Y2032D02*
X5Y2032D01*
X2240Y2032D02*
X2246Y2032D01*
X1Y2031D02*
X5Y2031D01*
X2240Y2031D02*
X2246Y2031D01*
X1Y2030D02*
X5Y2030D01*
X2240Y2030D02*
X2246Y2030D01*
X1Y2029D02*
X5Y2029D01*
X2240Y2029D02*
X2246Y2029D01*
X1Y2028D02*
X5Y2028D01*
X2240Y2028D02*
X2246Y2028D01*
X1Y2027D02*
X5Y2027D01*
X2240Y2027D02*
X2246Y2027D01*
X1Y2026D02*
X5Y2026D01*
X2240Y2026D02*
X2246Y2026D01*
X1Y2025D02*
X5Y2025D01*
X2240Y2025D02*
X2246Y2025D01*
X1Y2024D02*
X5Y2024D01*
X2240Y2024D02*
X2246Y2024D01*
X1Y2023D02*
X5Y2023D01*
X2240Y2023D02*
X2246Y2023D01*
X1Y2022D02*
X5Y2022D01*
X2240Y2022D02*
X2246Y2022D01*
X1Y2021D02*
X5Y2021D01*
X2240Y2021D02*
X2246Y2021D01*
X1Y2020D02*
X5Y2020D01*
X2240Y2020D02*
X2246Y2020D01*
X1Y2019D02*
X5Y2019D01*
X2240Y2019D02*
X2246Y2019D01*
X1Y2018D02*
X5Y2018D01*
X2240Y2018D02*
X2246Y2018D01*
X1Y2017D02*
X5Y2017D01*
X2240Y2017D02*
X2246Y2017D01*
X1Y2016D02*
X5Y2016D01*
X2240Y2016D02*
X2246Y2016D01*
X1Y2015D02*
X5Y2015D01*
X2240Y2015D02*
X2246Y2015D01*
X1Y2014D02*
X5Y2014D01*
X2240Y2014D02*
X2246Y2014D01*
X1Y2013D02*
X5Y2013D01*
X2240Y2013D02*
X2246Y2013D01*
X1Y2012D02*
X5Y2012D01*
X2240Y2012D02*
X2246Y2012D01*
X1Y2011D02*
X5Y2011D01*
X2240Y2011D02*
X2246Y2011D01*
X1Y2010D02*
X5Y2010D01*
X2240Y2010D02*
X2246Y2010D01*
X1Y2009D02*
X5Y2009D01*
X2240Y2009D02*
X2246Y2009D01*
X1Y2008D02*
X5Y2008D01*
X2240Y2008D02*
X2246Y2008D01*
X1Y2007D02*
X5Y2007D01*
X2240Y2007D02*
X2246Y2007D01*
X1Y2006D02*
X5Y2006D01*
X2240Y2006D02*
X2246Y2006D01*
X1Y2005D02*
X5Y2005D01*
X2240Y2005D02*
X2246Y2005D01*
X1Y2004D02*
X5Y2004D01*
X2240Y2004D02*
X2246Y2004D01*
X1Y2003D02*
X5Y2003D01*
X2240Y2003D02*
X2246Y2003D01*
X1Y2002D02*
X5Y2002D01*
X2240Y2002D02*
X2246Y2002D01*
X1Y2001D02*
X5Y2001D01*
X2240Y2001D02*
X2246Y2001D01*
X1Y2000D02*
X5Y2000D01*
X2240Y2000D02*
X2246Y2000D01*
X1Y1999D02*
X5Y1999D01*
X2240Y1999D02*
X2246Y1999D01*
X1Y1998D02*
X5Y1998D01*
X2240Y1998D02*
X2246Y1998D01*
X1Y1997D02*
X5Y1997D01*
X2240Y1997D02*
X2246Y1997D01*
X1Y1996D02*
X5Y1996D01*
X2240Y1996D02*
X2246Y1996D01*
X1Y1995D02*
X5Y1995D01*
X2240Y1995D02*
X2246Y1995D01*
X1Y1994D02*
X5Y1994D01*
X2240Y1994D02*
X2246Y1994D01*
X1Y1993D02*
X5Y1993D01*
X2240Y1993D02*
X2246Y1993D01*
X1Y1992D02*
X5Y1992D01*
X2240Y1992D02*
X2246Y1992D01*
X1Y1991D02*
X5Y1991D01*
X2240Y1991D02*
X2246Y1991D01*
X1Y1990D02*
X5Y1990D01*
X2240Y1990D02*
X2246Y1990D01*
X1Y1989D02*
X5Y1989D01*
X2240Y1989D02*
X2246Y1989D01*
X1Y1988D02*
X5Y1988D01*
X2240Y1988D02*
X2246Y1988D01*
X1Y1987D02*
X5Y1987D01*
X2240Y1987D02*
X2246Y1987D01*
X1Y1986D02*
X5Y1986D01*
X2240Y1986D02*
X2246Y1986D01*
X1Y1985D02*
X5Y1985D01*
X2240Y1985D02*
X2246Y1985D01*
X1Y1984D02*
X5Y1984D01*
X2240Y1984D02*
X2246Y1984D01*
X1Y1983D02*
X5Y1983D01*
X2240Y1983D02*
X2246Y1983D01*
X1Y1982D02*
X5Y1982D01*
X2240Y1982D02*
X2246Y1982D01*
X1Y1981D02*
X5Y1981D01*
X2240Y1981D02*
X2246Y1981D01*
X1Y1980D02*
X5Y1980D01*
X2240Y1980D02*
X2246Y1980D01*
X1Y1979D02*
X5Y1979D01*
X2240Y1979D02*
X2246Y1979D01*
X1Y1978D02*
X5Y1978D01*
X2240Y1978D02*
X2246Y1978D01*
X1Y1977D02*
X5Y1977D01*
X2240Y1977D02*
X2246Y1977D01*
X1Y1976D02*
X5Y1976D01*
X2240Y1976D02*
X2246Y1976D01*
X1Y1975D02*
X5Y1975D01*
X2240Y1975D02*
X2246Y1975D01*
X1Y1974D02*
X5Y1974D01*
X2240Y1974D02*
X2246Y1974D01*
X1Y1973D02*
X5Y1973D01*
X2240Y1973D02*
X2246Y1973D01*
X1Y1972D02*
X5Y1972D01*
X2240Y1972D02*
X2246Y1972D01*
X1Y1971D02*
X5Y1971D01*
X2240Y1971D02*
X2246Y1971D01*
X1Y1970D02*
X5Y1970D01*
X2240Y1970D02*
X2246Y1970D01*
X1Y1969D02*
X5Y1969D01*
X2240Y1969D02*
X2246Y1969D01*
X1Y1968D02*
X5Y1968D01*
X2240Y1968D02*
X2246Y1968D01*
X1Y1967D02*
X5Y1967D01*
X2240Y1967D02*
X2246Y1967D01*
X1Y1966D02*
X5Y1966D01*
X2240Y1966D02*
X2246Y1966D01*
X1Y1965D02*
X5Y1965D01*
X2240Y1965D02*
X2246Y1965D01*
X1Y1964D02*
X5Y1964D01*
X2240Y1964D02*
X2246Y1964D01*
X1Y1963D02*
X5Y1963D01*
X2240Y1963D02*
X2246Y1963D01*
X1Y1962D02*
X5Y1962D01*
X2240Y1962D02*
X2246Y1962D01*
X1Y1961D02*
X5Y1961D01*
X2240Y1961D02*
X2246Y1961D01*
X1Y1960D02*
X5Y1960D01*
X2240Y1960D02*
X2246Y1960D01*
X1Y1959D02*
X5Y1959D01*
X2240Y1959D02*
X2246Y1959D01*
X1Y1958D02*
X5Y1958D01*
X2240Y1958D02*
X2246Y1958D01*
X1Y1957D02*
X5Y1957D01*
X2240Y1957D02*
X2246Y1957D01*
X1Y1956D02*
X5Y1956D01*
X2240Y1956D02*
X2246Y1956D01*
X1Y1955D02*
X5Y1955D01*
X2240Y1955D02*
X2246Y1955D01*
X1Y1954D02*
X5Y1954D01*
X2240Y1954D02*
X2246Y1954D01*
X1Y1953D02*
X5Y1953D01*
X2240Y1953D02*
X2246Y1953D01*
X1Y1952D02*
X5Y1952D01*
X2240Y1952D02*
X2246Y1952D01*
X1Y1951D02*
X5Y1951D01*
X2240Y1951D02*
X2246Y1951D01*
X1Y1950D02*
X5Y1950D01*
X2240Y1950D02*
X2246Y1950D01*
X1Y1949D02*
X5Y1949D01*
X2240Y1949D02*
X2246Y1949D01*
X1Y1948D02*
X5Y1948D01*
X2240Y1948D02*
X2246Y1948D01*
X1Y1947D02*
X5Y1947D01*
X2240Y1947D02*
X2246Y1947D01*
X1Y1946D02*
X5Y1946D01*
X2240Y1946D02*
X2246Y1946D01*
X1Y1945D02*
X5Y1945D01*
X2240Y1945D02*
X2246Y1945D01*
X1Y1944D02*
X5Y1944D01*
X2240Y1944D02*
X2246Y1944D01*
X1Y1943D02*
X5Y1943D01*
X2240Y1943D02*
X2246Y1943D01*
X1Y1942D02*
X5Y1942D01*
X2240Y1942D02*
X2246Y1942D01*
X1Y1941D02*
X5Y1941D01*
X2240Y1941D02*
X2246Y1941D01*
X1Y1940D02*
X5Y1940D01*
X2240Y1940D02*
X2246Y1940D01*
X1Y1939D02*
X5Y1939D01*
X2240Y1939D02*
X2246Y1939D01*
X1Y1938D02*
X5Y1938D01*
X2240Y1938D02*
X2246Y1938D01*
X1Y1937D02*
X5Y1937D01*
X2240Y1937D02*
X2246Y1937D01*
X1Y1936D02*
X5Y1936D01*
X2240Y1936D02*
X2246Y1936D01*
X1Y1935D02*
X5Y1935D01*
X2240Y1935D02*
X2246Y1935D01*
X1Y1934D02*
X5Y1934D01*
X2240Y1934D02*
X2246Y1934D01*
X1Y1933D02*
X5Y1933D01*
X2240Y1933D02*
X2246Y1933D01*
X1Y1932D02*
X5Y1932D01*
X2240Y1932D02*
X2246Y1932D01*
X1Y1931D02*
X5Y1931D01*
X2240Y1931D02*
X2246Y1931D01*
X1Y1930D02*
X5Y1930D01*
X2240Y1930D02*
X2246Y1930D01*
X1Y1929D02*
X5Y1929D01*
X2240Y1929D02*
X2246Y1929D01*
X1Y1928D02*
X5Y1928D01*
X2240Y1928D02*
X2246Y1928D01*
X1Y1927D02*
X5Y1927D01*
X2240Y1927D02*
X2246Y1927D01*
X1Y1926D02*
X5Y1926D01*
X2240Y1926D02*
X2246Y1926D01*
X1Y1925D02*
X5Y1925D01*
X2240Y1925D02*
X2246Y1925D01*
X1Y1924D02*
X5Y1924D01*
X2240Y1924D02*
X2246Y1924D01*
X1Y1923D02*
X5Y1923D01*
X2240Y1923D02*
X2246Y1923D01*
X1Y1922D02*
X5Y1922D01*
X2240Y1922D02*
X2246Y1922D01*
X1Y1921D02*
X5Y1921D01*
X2240Y1921D02*
X2246Y1921D01*
X1Y1920D02*
X5Y1920D01*
X2240Y1920D02*
X2246Y1920D01*
X1Y1919D02*
X5Y1919D01*
X2240Y1919D02*
X2246Y1919D01*
X1Y1918D02*
X5Y1918D01*
X2240Y1918D02*
X2246Y1918D01*
X1Y1917D02*
X5Y1917D01*
X2240Y1917D02*
X2246Y1917D01*
X1Y1916D02*
X5Y1916D01*
X2240Y1916D02*
X2246Y1916D01*
X1Y1915D02*
X5Y1915D01*
X2240Y1915D02*
X2246Y1915D01*
X1Y1914D02*
X5Y1914D01*
X2240Y1914D02*
X2246Y1914D01*
X1Y1913D02*
X5Y1913D01*
X2240Y1913D02*
X2246Y1913D01*
X1Y1912D02*
X5Y1912D01*
X2240Y1912D02*
X2246Y1912D01*
X1Y1911D02*
X5Y1911D01*
X2240Y1911D02*
X2246Y1911D01*
X1Y1910D02*
X5Y1910D01*
X2240Y1910D02*
X2246Y1910D01*
X1Y1909D02*
X5Y1909D01*
X2240Y1909D02*
X2246Y1909D01*
X1Y1908D02*
X5Y1908D01*
X2240Y1908D02*
X2246Y1908D01*
X1Y1907D02*
X5Y1907D01*
X2240Y1907D02*
X2246Y1907D01*
X1Y1906D02*
X5Y1906D01*
X2240Y1906D02*
X2246Y1906D01*
X1Y1905D02*
X5Y1905D01*
X2240Y1905D02*
X2246Y1905D01*
X1Y1904D02*
X5Y1904D01*
X2240Y1904D02*
X2246Y1904D01*
X1Y1903D02*
X5Y1903D01*
X2240Y1903D02*
X2246Y1903D01*
X1Y1902D02*
X5Y1902D01*
X2240Y1902D02*
X2246Y1902D01*
X1Y1901D02*
X5Y1901D01*
X2240Y1901D02*
X2246Y1901D01*
X1Y1900D02*
X5Y1900D01*
X2240Y1900D02*
X2246Y1900D01*
X1Y1899D02*
X5Y1899D01*
X2240Y1899D02*
X2246Y1899D01*
X1Y1898D02*
X5Y1898D01*
X2240Y1898D02*
X2246Y1898D01*
X1Y1897D02*
X5Y1897D01*
X2240Y1897D02*
X2246Y1897D01*
X1Y1896D02*
X5Y1896D01*
X2240Y1896D02*
X2246Y1896D01*
X1Y1895D02*
X5Y1895D01*
X2240Y1895D02*
X2246Y1895D01*
X1Y1894D02*
X5Y1894D01*
X2240Y1894D02*
X2246Y1894D01*
X1Y1893D02*
X5Y1893D01*
X2240Y1893D02*
X2246Y1893D01*
X1Y1892D02*
X5Y1892D01*
X2240Y1892D02*
X2246Y1892D01*
X1Y1891D02*
X5Y1891D01*
X2240Y1891D02*
X2246Y1891D01*
X1Y1890D02*
X5Y1890D01*
X2240Y1890D02*
X2246Y1890D01*
X1Y1889D02*
X5Y1889D01*
X2240Y1889D02*
X2246Y1889D01*
X1Y1888D02*
X5Y1888D01*
X2240Y1888D02*
X2246Y1888D01*
X1Y1887D02*
X5Y1887D01*
X2240Y1887D02*
X2246Y1887D01*
X1Y1886D02*
X5Y1886D01*
X2240Y1886D02*
X2246Y1886D01*
X1Y1885D02*
X5Y1885D01*
X2240Y1885D02*
X2246Y1885D01*
X1Y1884D02*
X5Y1884D01*
X2240Y1884D02*
X2246Y1884D01*
X1Y1883D02*
X5Y1883D01*
X2240Y1883D02*
X2246Y1883D01*
X1Y1882D02*
X5Y1882D01*
X2240Y1882D02*
X2246Y1882D01*
X1Y1881D02*
X5Y1881D01*
X2240Y1881D02*
X2246Y1881D01*
X1Y1880D02*
X5Y1880D01*
X2240Y1880D02*
X2246Y1880D01*
X1Y1879D02*
X5Y1879D01*
X2240Y1879D02*
X2246Y1879D01*
X1Y1878D02*
X5Y1878D01*
X2240Y1878D02*
X2246Y1878D01*
X1Y1877D02*
X5Y1877D01*
X2240Y1877D02*
X2246Y1877D01*
X1Y1876D02*
X5Y1876D01*
X2240Y1876D02*
X2246Y1876D01*
X1Y1875D02*
X5Y1875D01*
X2240Y1875D02*
X2246Y1875D01*
X1Y1874D02*
X5Y1874D01*
X2240Y1874D02*
X2246Y1874D01*
X1Y1873D02*
X5Y1873D01*
X2240Y1873D02*
X2246Y1873D01*
X1Y1872D02*
X5Y1872D01*
X2240Y1872D02*
X2246Y1872D01*
X1Y1871D02*
X5Y1871D01*
X2240Y1871D02*
X2246Y1871D01*
X1Y1870D02*
X5Y1870D01*
X2240Y1870D02*
X2246Y1870D01*
X1Y1869D02*
X5Y1869D01*
X2240Y1869D02*
X2246Y1869D01*
X1Y1868D02*
X5Y1868D01*
X2240Y1868D02*
X2246Y1868D01*
X1Y1867D02*
X5Y1867D01*
X2240Y1867D02*
X2246Y1867D01*
X1Y1866D02*
X5Y1866D01*
X2240Y1866D02*
X2246Y1866D01*
X1Y1865D02*
X5Y1865D01*
X2240Y1865D02*
X2246Y1865D01*
X1Y1864D02*
X5Y1864D01*
X2240Y1864D02*
X2246Y1864D01*
X1Y1863D02*
X5Y1863D01*
X2240Y1863D02*
X2246Y1863D01*
X1Y1862D02*
X5Y1862D01*
X2240Y1862D02*
X2246Y1862D01*
X1Y1861D02*
X5Y1861D01*
X2240Y1861D02*
X2246Y1861D01*
X1Y1860D02*
X5Y1860D01*
X2240Y1860D02*
X2246Y1860D01*
X1Y1859D02*
X5Y1859D01*
X2240Y1859D02*
X2246Y1859D01*
X1Y1858D02*
X5Y1858D01*
X2240Y1858D02*
X2246Y1858D01*
X1Y1857D02*
X5Y1857D01*
X2240Y1857D02*
X2246Y1857D01*
X1Y1856D02*
X5Y1856D01*
X2240Y1856D02*
X2246Y1856D01*
X1Y1855D02*
X5Y1855D01*
X2240Y1855D02*
X2246Y1855D01*
X1Y1854D02*
X5Y1854D01*
X2240Y1854D02*
X2246Y1854D01*
X1Y1853D02*
X5Y1853D01*
X2240Y1853D02*
X2246Y1853D01*
X1Y1852D02*
X5Y1852D01*
X2240Y1852D02*
X2246Y1852D01*
X1Y1851D02*
X5Y1851D01*
X2240Y1851D02*
X2246Y1851D01*
X1Y1850D02*
X5Y1850D01*
X2240Y1850D02*
X2246Y1850D01*
X1Y1849D02*
X5Y1849D01*
X2240Y1849D02*
X2246Y1849D01*
X1Y1848D02*
X5Y1848D01*
X2240Y1848D02*
X2246Y1848D01*
X1Y1847D02*
X5Y1847D01*
X2240Y1847D02*
X2246Y1847D01*
X1Y1846D02*
X5Y1846D01*
X2240Y1846D02*
X2246Y1846D01*
X1Y1845D02*
X5Y1845D01*
X2240Y1845D02*
X2246Y1845D01*
X1Y1844D02*
X5Y1844D01*
X2240Y1844D02*
X2246Y1844D01*
X1Y1843D02*
X5Y1843D01*
X2240Y1843D02*
X2246Y1843D01*
X1Y1842D02*
X5Y1842D01*
X2240Y1842D02*
X2246Y1842D01*
X1Y1841D02*
X5Y1841D01*
X2240Y1841D02*
X2246Y1841D01*
X1Y1840D02*
X5Y1840D01*
X2240Y1840D02*
X2246Y1840D01*
X1Y1839D02*
X5Y1839D01*
X2240Y1839D02*
X2246Y1839D01*
X1Y1838D02*
X5Y1838D01*
X2240Y1838D02*
X2246Y1838D01*
X1Y1837D02*
X5Y1837D01*
X2240Y1837D02*
X2246Y1837D01*
X1Y1836D02*
X5Y1836D01*
X2240Y1836D02*
X2246Y1836D01*
X1Y1835D02*
X5Y1835D01*
X2240Y1835D02*
X2246Y1835D01*
X1Y1834D02*
X5Y1834D01*
X2240Y1834D02*
X2246Y1834D01*
X1Y1833D02*
X5Y1833D01*
X2240Y1833D02*
X2246Y1833D01*
X1Y1832D02*
X5Y1832D01*
X2240Y1832D02*
X2246Y1832D01*
X1Y1831D02*
X5Y1831D01*
X2240Y1831D02*
X2246Y1831D01*
X1Y1830D02*
X5Y1830D01*
X2240Y1830D02*
X2246Y1830D01*
X1Y1829D02*
X5Y1829D01*
X2240Y1829D02*
X2246Y1829D01*
X1Y1828D02*
X5Y1828D01*
X2240Y1828D02*
X2246Y1828D01*
X1Y1827D02*
X5Y1827D01*
X2240Y1827D02*
X2246Y1827D01*
X1Y1826D02*
X5Y1826D01*
X2240Y1826D02*
X2246Y1826D01*
X1Y1825D02*
X5Y1825D01*
X2240Y1825D02*
X2246Y1825D01*
X1Y1824D02*
X5Y1824D01*
X2240Y1824D02*
X2246Y1824D01*
X1Y1823D02*
X5Y1823D01*
X2240Y1823D02*
X2246Y1823D01*
X1Y1822D02*
X5Y1822D01*
X2240Y1822D02*
X2246Y1822D01*
X1Y1821D02*
X5Y1821D01*
X2240Y1821D02*
X2246Y1821D01*
X1Y1820D02*
X5Y1820D01*
X2240Y1820D02*
X2246Y1820D01*
X1Y1819D02*
X5Y1819D01*
X2240Y1819D02*
X2246Y1819D01*
X1Y1818D02*
X5Y1818D01*
X2240Y1818D02*
X2246Y1818D01*
X1Y1817D02*
X5Y1817D01*
X2240Y1817D02*
X2246Y1817D01*
X1Y1816D02*
X5Y1816D01*
X2240Y1816D02*
X2246Y1816D01*
X1Y1815D02*
X5Y1815D01*
X2240Y1815D02*
X2246Y1815D01*
X1Y1814D02*
X5Y1814D01*
X2240Y1814D02*
X2246Y1814D01*
X1Y1813D02*
X5Y1813D01*
X2240Y1813D02*
X2246Y1813D01*
X1Y1812D02*
X5Y1812D01*
X2240Y1812D02*
X2246Y1812D01*
X1Y1811D02*
X5Y1811D01*
X2240Y1811D02*
X2246Y1811D01*
X1Y1810D02*
X5Y1810D01*
X2240Y1810D02*
X2246Y1810D01*
X1Y1809D02*
X5Y1809D01*
X2240Y1809D02*
X2246Y1809D01*
X1Y1808D02*
X5Y1808D01*
X2240Y1808D02*
X2246Y1808D01*
X1Y1807D02*
X5Y1807D01*
X2240Y1807D02*
X2246Y1807D01*
X1Y1806D02*
X5Y1806D01*
X2240Y1806D02*
X2246Y1806D01*
X1Y1805D02*
X5Y1805D01*
X2240Y1805D02*
X2246Y1805D01*
X1Y1804D02*
X5Y1804D01*
X2240Y1804D02*
X2246Y1804D01*
X1Y1803D02*
X5Y1803D01*
X2240Y1803D02*
X2246Y1803D01*
X1Y1802D02*
X5Y1802D01*
X2240Y1802D02*
X2246Y1802D01*
X1Y1801D02*
X5Y1801D01*
X2240Y1801D02*
X2246Y1801D01*
X1Y1800D02*
X5Y1800D01*
X2240Y1800D02*
X2246Y1800D01*
X1Y1799D02*
X5Y1799D01*
X2240Y1799D02*
X2246Y1799D01*
X1Y1798D02*
X5Y1798D01*
X2240Y1798D02*
X2246Y1798D01*
X1Y1797D02*
X5Y1797D01*
X2240Y1797D02*
X2246Y1797D01*
X1Y1796D02*
X5Y1796D01*
X2240Y1796D02*
X2246Y1796D01*
X1Y1795D02*
X5Y1795D01*
X2240Y1795D02*
X2246Y1795D01*
X1Y1794D02*
X5Y1794D01*
X2240Y1794D02*
X2246Y1794D01*
X1Y1793D02*
X5Y1793D01*
X2240Y1793D02*
X2246Y1793D01*
X1Y1792D02*
X5Y1792D01*
X2240Y1792D02*
X2246Y1792D01*
X1Y1791D02*
X5Y1791D01*
X2240Y1791D02*
X2246Y1791D01*
X1Y1790D02*
X5Y1790D01*
X2240Y1790D02*
X2246Y1790D01*
X1Y1789D02*
X5Y1789D01*
X2240Y1789D02*
X2246Y1789D01*
X1Y1788D02*
X5Y1788D01*
X2240Y1788D02*
X2246Y1788D01*
X1Y1787D02*
X5Y1787D01*
X2240Y1787D02*
X2246Y1787D01*
X1Y1786D02*
X5Y1786D01*
X2240Y1786D02*
X2246Y1786D01*
X1Y1785D02*
X5Y1785D01*
X2240Y1785D02*
X2246Y1785D01*
X1Y1784D02*
X5Y1784D01*
X2240Y1784D02*
X2246Y1784D01*
X1Y1783D02*
X5Y1783D01*
X2240Y1783D02*
X2246Y1783D01*
X1Y1782D02*
X5Y1782D01*
X2240Y1782D02*
X2246Y1782D01*
X1Y1781D02*
X5Y1781D01*
X2240Y1781D02*
X2246Y1781D01*
X1Y1780D02*
X5Y1780D01*
X2240Y1780D02*
X2246Y1780D01*
X1Y1779D02*
X5Y1779D01*
X2240Y1779D02*
X2246Y1779D01*
X1Y1778D02*
X5Y1778D01*
X2240Y1778D02*
X2246Y1778D01*
X1Y1777D02*
X5Y1777D01*
X2240Y1777D02*
X2246Y1777D01*
X1Y1776D02*
X5Y1776D01*
X2240Y1776D02*
X2246Y1776D01*
X1Y1775D02*
X5Y1775D01*
X2240Y1775D02*
X2246Y1775D01*
X1Y1774D02*
X5Y1774D01*
X2240Y1774D02*
X2246Y1774D01*
X1Y1773D02*
X5Y1773D01*
X2240Y1773D02*
X2246Y1773D01*
X1Y1772D02*
X5Y1772D01*
X2240Y1772D02*
X2246Y1772D01*
X1Y1771D02*
X5Y1771D01*
X2240Y1771D02*
X2246Y1771D01*
X1Y1770D02*
X5Y1770D01*
X2240Y1770D02*
X2246Y1770D01*
X1Y1769D02*
X5Y1769D01*
X2240Y1769D02*
X2246Y1769D01*
X1Y1768D02*
X5Y1768D01*
X2240Y1768D02*
X2246Y1768D01*
X1Y1767D02*
X5Y1767D01*
X2240Y1767D02*
X2246Y1767D01*
X1Y1766D02*
X5Y1766D01*
X2240Y1766D02*
X2246Y1766D01*
X1Y1765D02*
X5Y1765D01*
X2240Y1765D02*
X2246Y1765D01*
X1Y1764D02*
X5Y1764D01*
X2240Y1764D02*
X2246Y1764D01*
X1Y1763D02*
X5Y1763D01*
X2240Y1763D02*
X2246Y1763D01*
X1Y1762D02*
X5Y1762D01*
X2240Y1762D02*
X2246Y1762D01*
X1Y1761D02*
X5Y1761D01*
X2240Y1761D02*
X2246Y1761D01*
X1Y1760D02*
X5Y1760D01*
X2240Y1760D02*
X2246Y1760D01*
X1Y1759D02*
X5Y1759D01*
X2240Y1759D02*
X2246Y1759D01*
X1Y1758D02*
X5Y1758D01*
X2240Y1758D02*
X2246Y1758D01*
X1Y1757D02*
X5Y1757D01*
X2240Y1757D02*
X2246Y1757D01*
X1Y1756D02*
X5Y1756D01*
X2240Y1756D02*
X2246Y1756D01*
X1Y1755D02*
X5Y1755D01*
X2240Y1755D02*
X2246Y1755D01*
X1Y1754D02*
X5Y1754D01*
X2240Y1754D02*
X2246Y1754D01*
X1Y1753D02*
X5Y1753D01*
X2240Y1753D02*
X2246Y1753D01*
X1Y1752D02*
X5Y1752D01*
X2240Y1752D02*
X2246Y1752D01*
X1Y1751D02*
X5Y1751D01*
X2240Y1751D02*
X2246Y1751D01*
X1Y1750D02*
X5Y1750D01*
X2240Y1750D02*
X2246Y1750D01*
X1Y1749D02*
X5Y1749D01*
X2240Y1749D02*
X2246Y1749D01*
X1Y1748D02*
X5Y1748D01*
X2240Y1748D02*
X2246Y1748D01*
X1Y1747D02*
X5Y1747D01*
X2240Y1747D02*
X2246Y1747D01*
X1Y1746D02*
X5Y1746D01*
X2240Y1746D02*
X2246Y1746D01*
X1Y1745D02*
X5Y1745D01*
X2240Y1745D02*
X2246Y1745D01*
X1Y1744D02*
X5Y1744D01*
X2240Y1744D02*
X2246Y1744D01*
X1Y1743D02*
X5Y1743D01*
X2240Y1743D02*
X2246Y1743D01*
X1Y1742D02*
X5Y1742D01*
X2240Y1742D02*
X2246Y1742D01*
X1Y1741D02*
X5Y1741D01*
X2240Y1741D02*
X2246Y1741D01*
X1Y1740D02*
X5Y1740D01*
X2240Y1740D02*
X2246Y1740D01*
X1Y1739D02*
X5Y1739D01*
X2240Y1739D02*
X2246Y1739D01*
X1Y1738D02*
X5Y1738D01*
X2240Y1738D02*
X2246Y1738D01*
X1Y1737D02*
X5Y1737D01*
X2240Y1737D02*
X2246Y1737D01*
X1Y1736D02*
X5Y1736D01*
X2240Y1736D02*
X2246Y1736D01*
X1Y1735D02*
X5Y1735D01*
X2240Y1735D02*
X2246Y1735D01*
X1Y1734D02*
X5Y1734D01*
X2240Y1734D02*
X2246Y1734D01*
X1Y1733D02*
X5Y1733D01*
X2240Y1733D02*
X2246Y1733D01*
X1Y1732D02*
X5Y1732D01*
X2240Y1732D02*
X2246Y1732D01*
X1Y1731D02*
X5Y1731D01*
X2240Y1731D02*
X2246Y1731D01*
X1Y1730D02*
X5Y1730D01*
X2240Y1730D02*
X2246Y1730D01*
X1Y1729D02*
X5Y1729D01*
X2240Y1729D02*
X2246Y1729D01*
X1Y1728D02*
X5Y1728D01*
X2240Y1728D02*
X2246Y1728D01*
X1Y1727D02*
X5Y1727D01*
X2240Y1727D02*
X2246Y1727D01*
X1Y1726D02*
X5Y1726D01*
X2240Y1726D02*
X2246Y1726D01*
X1Y1725D02*
X5Y1725D01*
X2240Y1725D02*
X2246Y1725D01*
X1Y1724D02*
X5Y1724D01*
X2240Y1724D02*
X2246Y1724D01*
X1Y1723D02*
X5Y1723D01*
X2240Y1723D02*
X2246Y1723D01*
X1Y1722D02*
X5Y1722D01*
X2240Y1722D02*
X2246Y1722D01*
X1Y1721D02*
X5Y1721D01*
X2240Y1721D02*
X2246Y1721D01*
X1Y1720D02*
X5Y1720D01*
X2240Y1720D02*
X2246Y1720D01*
X1Y1719D02*
X5Y1719D01*
X2240Y1719D02*
X2246Y1719D01*
X1Y1718D02*
X5Y1718D01*
X2240Y1718D02*
X2246Y1718D01*
X1Y1717D02*
X5Y1717D01*
X2240Y1717D02*
X2246Y1717D01*
X1Y1716D02*
X5Y1716D01*
X2240Y1716D02*
X2246Y1716D01*
X1Y1715D02*
X5Y1715D01*
X2240Y1715D02*
X2246Y1715D01*
X1Y1714D02*
X5Y1714D01*
X2240Y1714D02*
X2246Y1714D01*
X1Y1713D02*
X5Y1713D01*
X2240Y1713D02*
X2246Y1713D01*
X1Y1712D02*
X5Y1712D01*
X2240Y1712D02*
X2246Y1712D01*
X1Y1711D02*
X5Y1711D01*
X2240Y1711D02*
X2246Y1711D01*
X1Y1710D02*
X5Y1710D01*
X2240Y1710D02*
X2246Y1710D01*
X1Y1709D02*
X5Y1709D01*
X2240Y1709D02*
X2246Y1709D01*
X1Y1708D02*
X5Y1708D01*
X2240Y1708D02*
X2246Y1708D01*
X1Y1707D02*
X5Y1707D01*
X2240Y1707D02*
X2246Y1707D01*
X1Y1706D02*
X5Y1706D01*
X2240Y1706D02*
X2246Y1706D01*
X1Y1705D02*
X5Y1705D01*
X2240Y1705D02*
X2246Y1705D01*
X1Y1704D02*
X5Y1704D01*
X2240Y1704D02*
X2246Y1704D01*
X1Y1703D02*
X5Y1703D01*
X2240Y1703D02*
X2246Y1703D01*
X1Y1702D02*
X5Y1702D01*
X2240Y1702D02*
X2246Y1702D01*
X1Y1701D02*
X5Y1701D01*
X2240Y1701D02*
X2246Y1701D01*
X1Y1700D02*
X5Y1700D01*
X2240Y1700D02*
X2246Y1700D01*
X1Y1699D02*
X5Y1699D01*
X2240Y1699D02*
X2246Y1699D01*
X1Y1698D02*
X5Y1698D01*
X2240Y1698D02*
X2246Y1698D01*
X1Y1697D02*
X5Y1697D01*
X2240Y1697D02*
X2246Y1697D01*
X1Y1696D02*
X5Y1696D01*
X2240Y1696D02*
X2246Y1696D01*
X1Y1695D02*
X5Y1695D01*
X2240Y1695D02*
X2246Y1695D01*
X1Y1694D02*
X5Y1694D01*
X2240Y1694D02*
X2246Y1694D01*
X1Y1693D02*
X5Y1693D01*
X2240Y1693D02*
X2246Y1693D01*
X1Y1692D02*
X5Y1692D01*
X2240Y1692D02*
X2246Y1692D01*
X1Y1691D02*
X5Y1691D01*
X2240Y1691D02*
X2246Y1691D01*
X1Y1690D02*
X5Y1690D01*
X2240Y1690D02*
X2246Y1690D01*
X1Y1689D02*
X5Y1689D01*
X2240Y1689D02*
X2246Y1689D01*
X1Y1688D02*
X5Y1688D01*
X2240Y1688D02*
X2246Y1688D01*
X1Y1687D02*
X5Y1687D01*
X2240Y1687D02*
X2246Y1687D01*
X1Y1686D02*
X5Y1686D01*
X2240Y1686D02*
X2246Y1686D01*
X1Y1685D02*
X5Y1685D01*
X2240Y1685D02*
X2246Y1685D01*
X1Y1684D02*
X5Y1684D01*
X2240Y1684D02*
X2246Y1684D01*
X1Y1683D02*
X5Y1683D01*
X2240Y1683D02*
X2246Y1683D01*
X1Y1682D02*
X5Y1682D01*
X2240Y1682D02*
X2246Y1682D01*
X1Y1681D02*
X5Y1681D01*
X2240Y1681D02*
X2246Y1681D01*
X1Y1680D02*
X5Y1680D01*
X2240Y1680D02*
X2246Y1680D01*
X1Y1679D02*
X5Y1679D01*
X2240Y1679D02*
X2246Y1679D01*
X1Y1678D02*
X5Y1678D01*
X2240Y1678D02*
X2246Y1678D01*
X1Y1677D02*
X5Y1677D01*
X2240Y1677D02*
X2246Y1677D01*
X1Y1676D02*
X5Y1676D01*
X2240Y1676D02*
X2246Y1676D01*
X1Y1675D02*
X5Y1675D01*
X2240Y1675D02*
X2246Y1675D01*
X1Y1674D02*
X5Y1674D01*
X2240Y1674D02*
X2246Y1674D01*
X1Y1673D02*
X5Y1673D01*
X2240Y1673D02*
X2246Y1673D01*
X1Y1672D02*
X5Y1672D01*
X2240Y1672D02*
X2246Y1672D01*
X1Y1671D02*
X5Y1671D01*
X2240Y1671D02*
X2246Y1671D01*
X1Y1670D02*
X5Y1670D01*
X2240Y1670D02*
X2246Y1670D01*
X1Y1669D02*
X5Y1669D01*
X2240Y1669D02*
X2246Y1669D01*
X1Y1668D02*
X5Y1668D01*
X2240Y1668D02*
X2246Y1668D01*
X1Y1667D02*
X5Y1667D01*
X2240Y1667D02*
X2246Y1667D01*
X1Y1666D02*
X5Y1666D01*
X2240Y1666D02*
X2246Y1666D01*
X1Y1665D02*
X5Y1665D01*
X2240Y1665D02*
X2246Y1665D01*
X1Y1664D02*
X5Y1664D01*
X2240Y1664D02*
X2246Y1664D01*
X1Y1663D02*
X5Y1663D01*
X2240Y1663D02*
X2246Y1663D01*
X1Y1662D02*
X5Y1662D01*
X2240Y1662D02*
X2246Y1662D01*
X1Y1661D02*
X5Y1661D01*
X2240Y1661D02*
X2246Y1661D01*
X1Y1660D02*
X5Y1660D01*
X2240Y1660D02*
X2246Y1660D01*
X1Y1659D02*
X5Y1659D01*
X2240Y1659D02*
X2246Y1659D01*
X1Y1658D02*
X5Y1658D01*
X2240Y1658D02*
X2246Y1658D01*
X1Y1657D02*
X5Y1657D01*
X2240Y1657D02*
X2246Y1657D01*
X1Y1656D02*
X5Y1656D01*
X2240Y1656D02*
X2246Y1656D01*
X1Y1655D02*
X5Y1655D01*
X2240Y1655D02*
X2246Y1655D01*
X1Y1654D02*
X5Y1654D01*
X2240Y1654D02*
X2246Y1654D01*
X1Y1653D02*
X5Y1653D01*
X2240Y1653D02*
X2246Y1653D01*
X1Y1652D02*
X5Y1652D01*
X2240Y1652D02*
X2246Y1652D01*
X1Y1651D02*
X5Y1651D01*
X2240Y1651D02*
X2246Y1651D01*
X1Y1650D02*
X5Y1650D01*
X2240Y1650D02*
X2246Y1650D01*
X1Y1649D02*
X5Y1649D01*
X2240Y1649D02*
X2246Y1649D01*
X1Y1648D02*
X5Y1648D01*
X2240Y1648D02*
X2246Y1648D01*
X1Y1647D02*
X5Y1647D01*
X2240Y1647D02*
X2246Y1647D01*
X1Y1646D02*
X5Y1646D01*
X2240Y1646D02*
X2246Y1646D01*
X1Y1645D02*
X5Y1645D01*
X2240Y1645D02*
X2246Y1645D01*
X1Y1644D02*
X5Y1644D01*
X2240Y1644D02*
X2246Y1644D01*
X1Y1643D02*
X5Y1643D01*
X2240Y1643D02*
X2246Y1643D01*
X1Y1642D02*
X5Y1642D01*
X2240Y1642D02*
X2246Y1642D01*
X1Y1641D02*
X5Y1641D01*
X2240Y1641D02*
X2246Y1641D01*
X1Y1640D02*
X5Y1640D01*
X2240Y1640D02*
X2246Y1640D01*
X1Y1639D02*
X5Y1639D01*
X2240Y1639D02*
X2246Y1639D01*
X1Y1638D02*
X5Y1638D01*
X2240Y1638D02*
X2246Y1638D01*
X1Y1637D02*
X5Y1637D01*
X2240Y1637D02*
X2246Y1637D01*
X1Y1636D02*
X5Y1636D01*
X2240Y1636D02*
X2246Y1636D01*
X1Y1635D02*
X5Y1635D01*
X2240Y1635D02*
X2246Y1635D01*
X1Y1634D02*
X5Y1634D01*
X2240Y1634D02*
X2246Y1634D01*
X1Y1633D02*
X5Y1633D01*
X2240Y1633D02*
X2246Y1633D01*
X1Y1632D02*
X5Y1632D01*
X2240Y1632D02*
X2246Y1632D01*
X1Y1631D02*
X5Y1631D01*
X2240Y1631D02*
X2246Y1631D01*
X1Y1630D02*
X5Y1630D01*
X2240Y1630D02*
X2246Y1630D01*
X1Y1629D02*
X5Y1629D01*
X2240Y1629D02*
X2246Y1629D01*
X1Y1628D02*
X5Y1628D01*
X2240Y1628D02*
X2246Y1628D01*
X1Y1627D02*
X5Y1627D01*
X2240Y1627D02*
X2246Y1627D01*
X1Y1626D02*
X5Y1626D01*
X2240Y1626D02*
X2246Y1626D01*
X1Y1625D02*
X5Y1625D01*
X2240Y1625D02*
X2246Y1625D01*
X1Y1624D02*
X5Y1624D01*
X2240Y1624D02*
X2246Y1624D01*
X1Y1623D02*
X5Y1623D01*
X2240Y1623D02*
X2246Y1623D01*
X1Y1622D02*
X5Y1622D01*
X2240Y1622D02*
X2246Y1622D01*
X1Y1621D02*
X5Y1621D01*
X2240Y1621D02*
X2246Y1621D01*
X1Y1620D02*
X5Y1620D01*
X2240Y1620D02*
X2246Y1620D01*
X1Y1619D02*
X5Y1619D01*
X2240Y1619D02*
X2246Y1619D01*
X1Y1618D02*
X5Y1618D01*
X2240Y1618D02*
X2246Y1618D01*
X1Y1617D02*
X5Y1617D01*
X2240Y1617D02*
X2246Y1617D01*
X1Y1616D02*
X5Y1616D01*
X2240Y1616D02*
X2246Y1616D01*
X1Y1615D02*
X5Y1615D01*
X2240Y1615D02*
X2246Y1615D01*
X1Y1614D02*
X5Y1614D01*
X2240Y1614D02*
X2246Y1614D01*
X1Y1613D02*
X5Y1613D01*
X2240Y1613D02*
X2246Y1613D01*
X1Y1612D02*
X5Y1612D01*
X2240Y1612D02*
X2246Y1612D01*
X1Y1611D02*
X5Y1611D01*
X2240Y1611D02*
X2246Y1611D01*
X1Y1610D02*
X5Y1610D01*
X2240Y1610D02*
X2246Y1610D01*
X1Y1609D02*
X5Y1609D01*
X2240Y1609D02*
X2246Y1609D01*
X1Y1608D02*
X5Y1608D01*
X2240Y1608D02*
X2246Y1608D01*
X1Y1607D02*
X5Y1607D01*
X2240Y1607D02*
X2246Y1607D01*
X1Y1606D02*
X5Y1606D01*
X2240Y1606D02*
X2246Y1606D01*
X1Y1605D02*
X5Y1605D01*
X2240Y1605D02*
X2246Y1605D01*
X1Y1604D02*
X5Y1604D01*
X2240Y1604D02*
X2246Y1604D01*
X1Y1603D02*
X5Y1603D01*
X2240Y1603D02*
X2246Y1603D01*
X1Y1602D02*
X5Y1602D01*
X2240Y1602D02*
X2246Y1602D01*
X1Y1601D02*
X5Y1601D01*
X2240Y1601D02*
X2246Y1601D01*
X1Y1600D02*
X5Y1600D01*
X2240Y1600D02*
X2246Y1600D01*
X1Y1599D02*
X5Y1599D01*
X2240Y1599D02*
X2246Y1599D01*
X1Y1598D02*
X5Y1598D01*
X2240Y1598D02*
X2246Y1598D01*
X1Y1597D02*
X5Y1597D01*
X2240Y1597D02*
X2246Y1597D01*
X1Y1596D02*
X5Y1596D01*
X2240Y1596D02*
X2246Y1596D01*
X1Y1595D02*
X5Y1595D01*
X2240Y1595D02*
X2246Y1595D01*
X1Y1594D02*
X5Y1594D01*
X2240Y1594D02*
X2246Y1594D01*
X1Y1593D02*
X5Y1593D01*
X2240Y1593D02*
X2246Y1593D01*
X1Y1592D02*
X5Y1592D01*
X2240Y1592D02*
X2246Y1592D01*
X1Y1591D02*
X5Y1591D01*
X2240Y1591D02*
X2246Y1591D01*
X1Y1590D02*
X5Y1590D01*
X2240Y1590D02*
X2246Y1590D01*
X1Y1589D02*
X5Y1589D01*
X2240Y1589D02*
X2246Y1589D01*
X1Y1588D02*
X5Y1588D01*
X2240Y1588D02*
X2246Y1588D01*
X1Y1587D02*
X5Y1587D01*
X2240Y1587D02*
X2246Y1587D01*
X1Y1586D02*
X5Y1586D01*
X2240Y1586D02*
X2246Y1586D01*
X1Y1585D02*
X5Y1585D01*
X2240Y1585D02*
X2246Y1585D01*
X1Y1584D02*
X5Y1584D01*
X2240Y1584D02*
X2246Y1584D01*
X1Y1583D02*
X5Y1583D01*
X2240Y1583D02*
X2246Y1583D01*
X1Y1582D02*
X5Y1582D01*
X2240Y1582D02*
X2246Y1582D01*
X1Y1581D02*
X5Y1581D01*
X2240Y1581D02*
X2246Y1581D01*
X1Y1580D02*
X5Y1580D01*
X2240Y1580D02*
X2246Y1580D01*
X1Y1579D02*
X5Y1579D01*
X2240Y1579D02*
X2246Y1579D01*
X1Y1578D02*
X5Y1578D01*
X2240Y1578D02*
X2246Y1578D01*
X1Y1577D02*
X5Y1577D01*
X2240Y1577D02*
X2246Y1577D01*
X1Y1576D02*
X5Y1576D01*
X2240Y1576D02*
X2246Y1576D01*
X1Y1575D02*
X5Y1575D01*
X2240Y1575D02*
X2246Y1575D01*
X1Y1574D02*
X5Y1574D01*
X2240Y1574D02*
X2246Y1574D01*
X1Y1573D02*
X5Y1573D01*
X2240Y1573D02*
X2246Y1573D01*
X1Y1572D02*
X5Y1572D01*
X2240Y1572D02*
X2246Y1572D01*
X1Y1571D02*
X5Y1571D01*
X2240Y1571D02*
X2246Y1571D01*
X1Y1570D02*
X5Y1570D01*
X2240Y1570D02*
X2246Y1570D01*
X1Y1569D02*
X5Y1569D01*
X2240Y1569D02*
X2246Y1569D01*
X1Y1568D02*
X5Y1568D01*
X2240Y1568D02*
X2246Y1568D01*
X1Y1567D02*
X5Y1567D01*
X2240Y1567D02*
X2246Y1567D01*
X1Y1566D02*
X5Y1566D01*
X2240Y1566D02*
X2246Y1566D01*
X1Y1565D02*
X5Y1565D01*
X2240Y1565D02*
X2246Y1565D01*
X1Y1564D02*
X5Y1564D01*
X2240Y1564D02*
X2246Y1564D01*
X1Y1563D02*
X5Y1563D01*
X2240Y1563D02*
X2246Y1563D01*
X1Y1562D02*
X5Y1562D01*
X2240Y1562D02*
X2246Y1562D01*
X1Y1561D02*
X5Y1561D01*
X2240Y1561D02*
X2246Y1561D01*
X1Y1560D02*
X5Y1560D01*
X2240Y1560D02*
X2246Y1560D01*
X1Y1559D02*
X5Y1559D01*
X2240Y1559D02*
X2246Y1559D01*
X1Y1558D02*
X5Y1558D01*
X2240Y1558D02*
X2246Y1558D01*
X1Y1557D02*
X5Y1557D01*
X2240Y1557D02*
X2246Y1557D01*
X1Y1556D02*
X5Y1556D01*
X2240Y1556D02*
X2246Y1556D01*
X1Y1555D02*
X5Y1555D01*
X2240Y1555D02*
X2246Y1555D01*
X1Y1554D02*
X5Y1554D01*
X2240Y1554D02*
X2246Y1554D01*
X1Y1553D02*
X5Y1553D01*
X2240Y1553D02*
X2246Y1553D01*
X1Y1552D02*
X5Y1552D01*
X2240Y1552D02*
X2246Y1552D01*
X1Y1551D02*
X5Y1551D01*
X2240Y1551D02*
X2246Y1551D01*
X1Y1550D02*
X5Y1550D01*
X2240Y1550D02*
X2246Y1550D01*
X1Y1549D02*
X5Y1549D01*
X2240Y1549D02*
X2246Y1549D01*
X1Y1548D02*
X5Y1548D01*
X2240Y1548D02*
X2246Y1548D01*
X1Y1547D02*
X5Y1547D01*
X2240Y1547D02*
X2246Y1547D01*
X1Y1546D02*
X5Y1546D01*
X2240Y1546D02*
X2246Y1546D01*
X1Y1545D02*
X5Y1545D01*
X2240Y1545D02*
X2246Y1545D01*
X1Y1544D02*
X5Y1544D01*
X2240Y1544D02*
X2246Y1544D01*
X1Y1543D02*
X5Y1543D01*
X2240Y1543D02*
X2246Y1543D01*
X1Y1542D02*
X5Y1542D01*
X2240Y1542D02*
X2246Y1542D01*
X1Y1541D02*
X5Y1541D01*
X2240Y1541D02*
X2246Y1541D01*
X1Y1540D02*
X5Y1540D01*
X2240Y1540D02*
X2246Y1540D01*
X1Y1539D02*
X5Y1539D01*
X2240Y1539D02*
X2246Y1539D01*
X1Y1538D02*
X5Y1538D01*
X2240Y1538D02*
X2246Y1538D01*
X1Y1537D02*
X5Y1537D01*
X2240Y1537D02*
X2246Y1537D01*
X1Y1536D02*
X5Y1536D01*
X2240Y1536D02*
X2246Y1536D01*
X1Y1535D02*
X5Y1535D01*
X2240Y1535D02*
X2246Y1535D01*
X1Y1534D02*
X5Y1534D01*
X2240Y1534D02*
X2246Y1534D01*
X1Y1533D02*
X5Y1533D01*
X2240Y1533D02*
X2246Y1533D01*
X1Y1532D02*
X5Y1532D01*
X2240Y1532D02*
X2246Y1532D01*
X1Y1531D02*
X5Y1531D01*
X2240Y1531D02*
X2246Y1531D01*
X1Y1530D02*
X5Y1530D01*
X2240Y1530D02*
X2246Y1530D01*
X1Y1529D02*
X5Y1529D01*
X2240Y1529D02*
X2246Y1529D01*
X1Y1528D02*
X5Y1528D01*
X2240Y1528D02*
X2246Y1528D01*
X1Y1527D02*
X5Y1527D01*
X2240Y1527D02*
X2246Y1527D01*
X1Y1526D02*
X5Y1526D01*
X2240Y1526D02*
X2246Y1526D01*
X1Y1525D02*
X5Y1525D01*
X2240Y1525D02*
X2246Y1525D01*
X1Y1524D02*
X5Y1524D01*
X2240Y1524D02*
X2246Y1524D01*
X1Y1523D02*
X5Y1523D01*
X2240Y1523D02*
X2246Y1523D01*
X1Y1522D02*
X5Y1522D01*
X2240Y1522D02*
X2246Y1522D01*
X1Y1521D02*
X5Y1521D01*
X2240Y1521D02*
X2246Y1521D01*
X1Y1520D02*
X5Y1520D01*
X2240Y1520D02*
X2246Y1520D01*
X1Y1519D02*
X5Y1519D01*
X2240Y1519D02*
X2246Y1519D01*
X1Y1518D02*
X5Y1518D01*
X2240Y1518D02*
X2246Y1518D01*
X1Y1517D02*
X5Y1517D01*
X2240Y1517D02*
X2246Y1517D01*
X1Y1516D02*
X5Y1516D01*
X2240Y1516D02*
X2246Y1516D01*
X1Y1515D02*
X5Y1515D01*
X2240Y1515D02*
X2246Y1515D01*
X1Y1514D02*
X5Y1514D01*
X2240Y1514D02*
X2246Y1514D01*
X1Y1513D02*
X5Y1513D01*
X2240Y1513D02*
X2246Y1513D01*
X1Y1512D02*
X5Y1512D01*
X2240Y1512D02*
X2246Y1512D01*
X1Y1511D02*
X5Y1511D01*
X2240Y1511D02*
X2246Y1511D01*
X1Y1510D02*
X5Y1510D01*
X2240Y1510D02*
X2246Y1510D01*
X1Y1509D02*
X5Y1509D01*
X2240Y1509D02*
X2246Y1509D01*
X1Y1508D02*
X5Y1508D01*
X2240Y1508D02*
X2246Y1508D01*
X1Y1507D02*
X5Y1507D01*
X2240Y1507D02*
X2246Y1507D01*
X1Y1506D02*
X5Y1506D01*
X2240Y1506D02*
X2246Y1506D01*
X1Y1505D02*
X5Y1505D01*
X2240Y1505D02*
X2246Y1505D01*
X1Y1504D02*
X5Y1504D01*
X2240Y1504D02*
X2246Y1504D01*
X1Y1503D02*
X5Y1503D01*
X2240Y1503D02*
X2246Y1503D01*
X1Y1502D02*
X5Y1502D01*
X2240Y1502D02*
X2246Y1502D01*
X1Y1501D02*
X5Y1501D01*
X2240Y1501D02*
X2246Y1501D01*
X1Y1500D02*
X5Y1500D01*
X2240Y1500D02*
X2246Y1500D01*
X1Y1499D02*
X5Y1499D01*
X2240Y1499D02*
X2246Y1499D01*
X1Y1498D02*
X5Y1498D01*
X2240Y1498D02*
X2246Y1498D01*
X1Y1497D02*
X5Y1497D01*
X2240Y1497D02*
X2246Y1497D01*
X1Y1496D02*
X5Y1496D01*
X2240Y1496D02*
X2246Y1496D01*
X1Y1495D02*
X5Y1495D01*
X2240Y1495D02*
X2246Y1495D01*
X1Y1494D02*
X5Y1494D01*
X2240Y1494D02*
X2246Y1494D01*
X1Y1493D02*
X5Y1493D01*
X2240Y1493D02*
X2246Y1493D01*
X1Y1492D02*
X5Y1492D01*
X2240Y1492D02*
X2246Y1492D01*
X1Y1491D02*
X5Y1491D01*
X2240Y1491D02*
X2246Y1491D01*
X1Y1490D02*
X5Y1490D01*
X2240Y1490D02*
X2246Y1490D01*
X1Y1489D02*
X5Y1489D01*
X2240Y1489D02*
X2246Y1489D01*
X1Y1488D02*
X5Y1488D01*
X2240Y1488D02*
X2246Y1488D01*
X1Y1487D02*
X5Y1487D01*
X2240Y1487D02*
X2246Y1487D01*
X1Y1486D02*
X5Y1486D01*
X2240Y1486D02*
X2246Y1486D01*
X1Y1485D02*
X5Y1485D01*
X2240Y1485D02*
X2246Y1485D01*
X1Y1484D02*
X5Y1484D01*
X2240Y1484D02*
X2246Y1484D01*
X1Y1483D02*
X5Y1483D01*
X2240Y1483D02*
X2246Y1483D01*
X1Y1482D02*
X5Y1482D01*
X2240Y1482D02*
X2246Y1482D01*
X1Y1481D02*
X5Y1481D01*
X2240Y1481D02*
X2246Y1481D01*
X1Y1480D02*
X5Y1480D01*
X2240Y1480D02*
X2246Y1480D01*
X1Y1479D02*
X5Y1479D01*
X2240Y1479D02*
X2246Y1479D01*
X1Y1478D02*
X5Y1478D01*
X2240Y1478D02*
X2246Y1478D01*
X1Y1477D02*
X5Y1477D01*
X2240Y1477D02*
X2246Y1477D01*
X1Y1476D02*
X5Y1476D01*
X2240Y1476D02*
X2246Y1476D01*
X1Y1475D02*
X5Y1475D01*
X2240Y1475D02*
X2246Y1475D01*
X1Y1474D02*
X5Y1474D01*
X2240Y1474D02*
X2246Y1474D01*
X1Y1473D02*
X5Y1473D01*
X2240Y1473D02*
X2246Y1473D01*
X1Y1472D02*
X5Y1472D01*
X2240Y1472D02*
X2246Y1472D01*
X1Y1471D02*
X5Y1471D01*
X2240Y1471D02*
X2246Y1471D01*
X1Y1470D02*
X5Y1470D01*
X2240Y1470D02*
X2246Y1470D01*
X1Y1469D02*
X5Y1469D01*
X2240Y1469D02*
X2246Y1469D01*
X1Y1468D02*
X5Y1468D01*
X2240Y1468D02*
X2246Y1468D01*
X1Y1467D02*
X5Y1467D01*
X2240Y1467D02*
X2246Y1467D01*
X1Y1466D02*
X5Y1466D01*
X2240Y1466D02*
X2246Y1466D01*
X1Y1465D02*
X5Y1465D01*
X2240Y1465D02*
X2246Y1465D01*
X1Y1464D02*
X5Y1464D01*
X2240Y1464D02*
X2246Y1464D01*
X1Y1463D02*
X5Y1463D01*
X2240Y1463D02*
X2246Y1463D01*
X1Y1462D02*
X5Y1462D01*
X2240Y1462D02*
X2246Y1462D01*
X1Y1461D02*
X5Y1461D01*
X2240Y1461D02*
X2246Y1461D01*
X1Y1460D02*
X5Y1460D01*
X2240Y1460D02*
X2246Y1460D01*
X1Y1459D02*
X5Y1459D01*
X2240Y1459D02*
X2246Y1459D01*
X1Y1458D02*
X5Y1458D01*
X2240Y1458D02*
X2246Y1458D01*
X1Y1457D02*
X5Y1457D01*
X2240Y1457D02*
X2246Y1457D01*
X1Y1456D02*
X5Y1456D01*
X2240Y1456D02*
X2246Y1456D01*
X1Y1455D02*
X5Y1455D01*
X2240Y1455D02*
X2246Y1455D01*
X1Y1454D02*
X5Y1454D01*
X2240Y1454D02*
X2246Y1454D01*
X1Y1453D02*
X5Y1453D01*
X2240Y1453D02*
X2246Y1453D01*
X1Y1452D02*
X5Y1452D01*
X2240Y1452D02*
X2246Y1452D01*
X1Y1451D02*
X5Y1451D01*
X2240Y1451D02*
X2246Y1451D01*
X1Y1450D02*
X5Y1450D01*
X2240Y1450D02*
X2246Y1450D01*
X1Y1449D02*
X5Y1449D01*
X2240Y1449D02*
X2246Y1449D01*
X1Y1448D02*
X5Y1448D01*
X2240Y1448D02*
X2246Y1448D01*
X1Y1447D02*
X5Y1447D01*
X2240Y1447D02*
X2246Y1447D01*
X1Y1446D02*
X5Y1446D01*
X2240Y1446D02*
X2246Y1446D01*
X1Y1445D02*
X5Y1445D01*
X2240Y1445D02*
X2246Y1445D01*
X1Y1444D02*
X5Y1444D01*
X2240Y1444D02*
X2246Y1444D01*
X1Y1443D02*
X5Y1443D01*
X2240Y1443D02*
X2246Y1443D01*
X1Y1442D02*
X5Y1442D01*
X2240Y1442D02*
X2246Y1442D01*
X1Y1441D02*
X5Y1441D01*
X2240Y1441D02*
X2246Y1441D01*
X1Y1440D02*
X5Y1440D01*
X2240Y1440D02*
X2246Y1440D01*
X1Y1439D02*
X5Y1439D01*
X2240Y1439D02*
X2246Y1439D01*
X1Y1438D02*
X5Y1438D01*
X2240Y1438D02*
X2246Y1438D01*
X1Y1437D02*
X5Y1437D01*
X2240Y1437D02*
X2246Y1437D01*
X1Y1436D02*
X5Y1436D01*
X2240Y1436D02*
X2246Y1436D01*
X1Y1435D02*
X5Y1435D01*
X2240Y1435D02*
X2246Y1435D01*
X1Y1434D02*
X5Y1434D01*
X2240Y1434D02*
X2246Y1434D01*
X1Y1433D02*
X5Y1433D01*
X2240Y1433D02*
X2246Y1433D01*
X1Y1432D02*
X5Y1432D01*
X2240Y1432D02*
X2246Y1432D01*
X1Y1431D02*
X5Y1431D01*
X2240Y1431D02*
X2246Y1431D01*
X1Y1430D02*
X5Y1430D01*
X2240Y1430D02*
X2246Y1430D01*
X1Y1429D02*
X5Y1429D01*
X2240Y1429D02*
X2246Y1429D01*
X1Y1428D02*
X5Y1428D01*
X2240Y1428D02*
X2246Y1428D01*
X1Y1427D02*
X5Y1427D01*
X2240Y1427D02*
X2246Y1427D01*
X1Y1426D02*
X5Y1426D01*
X2240Y1426D02*
X2246Y1426D01*
X1Y1425D02*
X5Y1425D01*
X2240Y1425D02*
X2246Y1425D01*
X1Y1424D02*
X5Y1424D01*
X2240Y1424D02*
X2246Y1424D01*
X1Y1423D02*
X5Y1423D01*
X2240Y1423D02*
X2246Y1423D01*
X1Y1422D02*
X5Y1422D01*
X2240Y1422D02*
X2246Y1422D01*
X1Y1421D02*
X5Y1421D01*
X2240Y1421D02*
X2246Y1421D01*
X1Y1420D02*
X5Y1420D01*
X2240Y1420D02*
X2246Y1420D01*
X1Y1419D02*
X5Y1419D01*
X2240Y1419D02*
X2246Y1419D01*
X1Y1418D02*
X5Y1418D01*
X2240Y1418D02*
X2246Y1418D01*
X1Y1417D02*
X5Y1417D01*
X2240Y1417D02*
X2246Y1417D01*
X1Y1416D02*
X5Y1416D01*
X2240Y1416D02*
X2246Y1416D01*
X1Y1415D02*
X5Y1415D01*
X2240Y1415D02*
X2246Y1415D01*
X1Y1414D02*
X5Y1414D01*
X2240Y1414D02*
X2246Y1414D01*
X1Y1413D02*
X5Y1413D01*
X2240Y1413D02*
X2246Y1413D01*
X1Y1412D02*
X5Y1412D01*
X2240Y1412D02*
X2246Y1412D01*
X1Y1411D02*
X5Y1411D01*
X2240Y1411D02*
X2246Y1411D01*
X1Y1410D02*
X5Y1410D01*
X2240Y1410D02*
X2246Y1410D01*
X1Y1409D02*
X5Y1409D01*
X2240Y1409D02*
X2246Y1409D01*
X1Y1408D02*
X5Y1408D01*
X2240Y1408D02*
X2246Y1408D01*
X1Y1407D02*
X5Y1407D01*
X2240Y1407D02*
X2246Y1407D01*
X1Y1406D02*
X5Y1406D01*
X2240Y1406D02*
X2246Y1406D01*
X1Y1405D02*
X5Y1405D01*
X2240Y1405D02*
X2246Y1405D01*
X1Y1404D02*
X5Y1404D01*
X2240Y1404D02*
X2246Y1404D01*
X1Y1403D02*
X5Y1403D01*
X2240Y1403D02*
X2246Y1403D01*
X1Y1402D02*
X5Y1402D01*
X2240Y1402D02*
X2246Y1402D01*
X1Y1401D02*
X5Y1401D01*
X2240Y1401D02*
X2246Y1401D01*
X1Y1400D02*
X5Y1400D01*
X2240Y1400D02*
X2246Y1400D01*
X1Y1399D02*
X5Y1399D01*
X2240Y1399D02*
X2246Y1399D01*
X1Y1398D02*
X5Y1398D01*
X2240Y1398D02*
X2246Y1398D01*
X1Y1397D02*
X5Y1397D01*
X2240Y1397D02*
X2246Y1397D01*
X1Y1396D02*
X5Y1396D01*
X2240Y1396D02*
X2246Y1396D01*
X1Y1395D02*
X5Y1395D01*
X2240Y1395D02*
X2246Y1395D01*
X1Y1394D02*
X5Y1394D01*
X2240Y1394D02*
X2246Y1394D01*
X1Y1393D02*
X5Y1393D01*
X2240Y1393D02*
X2246Y1393D01*
X1Y1392D02*
X5Y1392D01*
X2240Y1392D02*
X2246Y1392D01*
X1Y1391D02*
X5Y1391D01*
X2240Y1391D02*
X2246Y1391D01*
X1Y1390D02*
X5Y1390D01*
X2240Y1390D02*
X2246Y1390D01*
X1Y1389D02*
X5Y1389D01*
X2240Y1389D02*
X2246Y1389D01*
X1Y1388D02*
X5Y1388D01*
X2240Y1388D02*
X2246Y1388D01*
X1Y1387D02*
X5Y1387D01*
X2240Y1387D02*
X2246Y1387D01*
X1Y1386D02*
X5Y1386D01*
X2240Y1386D02*
X2246Y1386D01*
X1Y1385D02*
X5Y1385D01*
X2240Y1385D02*
X2246Y1385D01*
X1Y1384D02*
X5Y1384D01*
X2240Y1384D02*
X2246Y1384D01*
X1Y1383D02*
X5Y1383D01*
X2240Y1383D02*
X2246Y1383D01*
X1Y1382D02*
X5Y1382D01*
X2240Y1382D02*
X2246Y1382D01*
X1Y1381D02*
X5Y1381D01*
X2240Y1381D02*
X2246Y1381D01*
X1Y1380D02*
X5Y1380D01*
X2240Y1380D02*
X2246Y1380D01*
X1Y1379D02*
X5Y1379D01*
X2240Y1379D02*
X2246Y1379D01*
X1Y1378D02*
X5Y1378D01*
X2240Y1378D02*
X2246Y1378D01*
X1Y1377D02*
X5Y1377D01*
X2240Y1377D02*
X2246Y1377D01*
X1Y1376D02*
X5Y1376D01*
X2240Y1376D02*
X2246Y1376D01*
X1Y1375D02*
X5Y1375D01*
X2240Y1375D02*
X2246Y1375D01*
X1Y1374D02*
X5Y1374D01*
X2240Y1374D02*
X2246Y1374D01*
X1Y1373D02*
X5Y1373D01*
X2240Y1373D02*
X2246Y1373D01*
X1Y1372D02*
X5Y1372D01*
X2240Y1372D02*
X2246Y1372D01*
X1Y1371D02*
X5Y1371D01*
X2240Y1371D02*
X2246Y1371D01*
X1Y1370D02*
X5Y1370D01*
X2240Y1370D02*
X2246Y1370D01*
X1Y1369D02*
X5Y1369D01*
X2240Y1369D02*
X2246Y1369D01*
X1Y1368D02*
X5Y1368D01*
X2240Y1368D02*
X2246Y1368D01*
X1Y1367D02*
X5Y1367D01*
X2240Y1367D02*
X2246Y1367D01*
X1Y1366D02*
X5Y1366D01*
X2240Y1366D02*
X2246Y1366D01*
X1Y1365D02*
X5Y1365D01*
X2240Y1365D02*
X2246Y1365D01*
X1Y1364D02*
X5Y1364D01*
X2240Y1364D02*
X2246Y1364D01*
X1Y1363D02*
X5Y1363D01*
X2240Y1363D02*
X2246Y1363D01*
X1Y1362D02*
X5Y1362D01*
X2240Y1362D02*
X2246Y1362D01*
X1Y1361D02*
X5Y1361D01*
X2240Y1361D02*
X2246Y1361D01*
X1Y1360D02*
X5Y1360D01*
X2240Y1360D02*
X2246Y1360D01*
X1Y1359D02*
X5Y1359D01*
X2240Y1359D02*
X2246Y1359D01*
X1Y1358D02*
X5Y1358D01*
X2240Y1358D02*
X2246Y1358D01*
X1Y1357D02*
X5Y1357D01*
X2240Y1357D02*
X2246Y1357D01*
X1Y1356D02*
X5Y1356D01*
X2240Y1356D02*
X2246Y1356D01*
X1Y1355D02*
X5Y1355D01*
X2240Y1355D02*
X2246Y1355D01*
X1Y1354D02*
X5Y1354D01*
X2240Y1354D02*
X2246Y1354D01*
X1Y1353D02*
X5Y1353D01*
X2240Y1353D02*
X2246Y1353D01*
X1Y1352D02*
X5Y1352D01*
X2240Y1352D02*
X2246Y1352D01*
X1Y1351D02*
X5Y1351D01*
X2240Y1351D02*
X2246Y1351D01*
X1Y1350D02*
X5Y1350D01*
X2240Y1350D02*
X2246Y1350D01*
X1Y1349D02*
X5Y1349D01*
X2240Y1349D02*
X2246Y1349D01*
X1Y1348D02*
X5Y1348D01*
X2240Y1348D02*
X2246Y1348D01*
X1Y1347D02*
X5Y1347D01*
X2240Y1347D02*
X2246Y1347D01*
X1Y1346D02*
X5Y1346D01*
X2240Y1346D02*
X2246Y1346D01*
X1Y1345D02*
X5Y1345D01*
X2240Y1345D02*
X2246Y1345D01*
X1Y1344D02*
X5Y1344D01*
X2240Y1344D02*
X2246Y1344D01*
X1Y1343D02*
X5Y1343D01*
X2240Y1343D02*
X2246Y1343D01*
X1Y1342D02*
X5Y1342D01*
X2240Y1342D02*
X2246Y1342D01*
X1Y1341D02*
X5Y1341D01*
X2240Y1341D02*
X2246Y1341D01*
X1Y1340D02*
X5Y1340D01*
X2240Y1340D02*
X2246Y1340D01*
X1Y1339D02*
X5Y1339D01*
X2240Y1339D02*
X2246Y1339D01*
X1Y1338D02*
X5Y1338D01*
X2240Y1338D02*
X2246Y1338D01*
X1Y1337D02*
X5Y1337D01*
X2240Y1337D02*
X2246Y1337D01*
X1Y1336D02*
X5Y1336D01*
X2240Y1336D02*
X2246Y1336D01*
X1Y1335D02*
X5Y1335D01*
X2240Y1335D02*
X2246Y1335D01*
X1Y1334D02*
X5Y1334D01*
X2240Y1334D02*
X2246Y1334D01*
X1Y1333D02*
X5Y1333D01*
X2240Y1333D02*
X2246Y1333D01*
X1Y1332D02*
X5Y1332D01*
X2240Y1332D02*
X2246Y1332D01*
X1Y1331D02*
X5Y1331D01*
X2240Y1331D02*
X2246Y1331D01*
X1Y1330D02*
X5Y1330D01*
X2240Y1330D02*
X2246Y1330D01*
X1Y1329D02*
X5Y1329D01*
X2240Y1329D02*
X2246Y1329D01*
X1Y1328D02*
X5Y1328D01*
X2240Y1328D02*
X2246Y1328D01*
X1Y1327D02*
X5Y1327D01*
X2240Y1327D02*
X2246Y1327D01*
X1Y1326D02*
X5Y1326D01*
X2240Y1326D02*
X2246Y1326D01*
X1Y1325D02*
X5Y1325D01*
X2240Y1325D02*
X2246Y1325D01*
X1Y1324D02*
X5Y1324D01*
X2240Y1324D02*
X2246Y1324D01*
X1Y1323D02*
X5Y1323D01*
X2240Y1323D02*
X2246Y1323D01*
X1Y1322D02*
X5Y1322D01*
X2240Y1322D02*
X2246Y1322D01*
X1Y1321D02*
X5Y1321D01*
X2240Y1321D02*
X2246Y1321D01*
X1Y1320D02*
X5Y1320D01*
X2240Y1320D02*
X2246Y1320D01*
X1Y1319D02*
X5Y1319D01*
X2240Y1319D02*
X2246Y1319D01*
X1Y1318D02*
X5Y1318D01*
X2240Y1318D02*
X2246Y1318D01*
X1Y1317D02*
X5Y1317D01*
X2240Y1317D02*
X2246Y1317D01*
X1Y1316D02*
X5Y1316D01*
X2240Y1316D02*
X2246Y1316D01*
X1Y1315D02*
X5Y1315D01*
X2240Y1315D02*
X2246Y1315D01*
X1Y1314D02*
X5Y1314D01*
X2240Y1314D02*
X2246Y1314D01*
X1Y1313D02*
X5Y1313D01*
X2240Y1313D02*
X2246Y1313D01*
X1Y1312D02*
X5Y1312D01*
X2240Y1312D02*
X2246Y1312D01*
X1Y1311D02*
X5Y1311D01*
X2240Y1311D02*
X2246Y1311D01*
X1Y1310D02*
X5Y1310D01*
X2240Y1310D02*
X2246Y1310D01*
X1Y1309D02*
X5Y1309D01*
X2240Y1309D02*
X2246Y1309D01*
X1Y1308D02*
X5Y1308D01*
X2240Y1308D02*
X2246Y1308D01*
X1Y1307D02*
X5Y1307D01*
X2240Y1307D02*
X2246Y1307D01*
X1Y1306D02*
X5Y1306D01*
X2240Y1306D02*
X2246Y1306D01*
X1Y1305D02*
X5Y1305D01*
X2240Y1305D02*
X2246Y1305D01*
X1Y1304D02*
X5Y1304D01*
X2240Y1304D02*
X2246Y1304D01*
X1Y1303D02*
X5Y1303D01*
X2240Y1303D02*
X2246Y1303D01*
X1Y1302D02*
X5Y1302D01*
X2240Y1302D02*
X2246Y1302D01*
X1Y1301D02*
X5Y1301D01*
X2240Y1301D02*
X2246Y1301D01*
X1Y1300D02*
X5Y1300D01*
X2240Y1300D02*
X2246Y1300D01*
X1Y1299D02*
X5Y1299D01*
X2240Y1299D02*
X2246Y1299D01*
X1Y1298D02*
X5Y1298D01*
X2240Y1298D02*
X2246Y1298D01*
X1Y1297D02*
X5Y1297D01*
X2240Y1297D02*
X2246Y1297D01*
X1Y1296D02*
X5Y1296D01*
X2240Y1296D02*
X2246Y1296D01*
X1Y1295D02*
X5Y1295D01*
X2240Y1295D02*
X2246Y1295D01*
X1Y1294D02*
X5Y1294D01*
X2240Y1294D02*
X2246Y1294D01*
X1Y1293D02*
X5Y1293D01*
X2240Y1293D02*
X2246Y1293D01*
X1Y1292D02*
X5Y1292D01*
X2240Y1292D02*
X2246Y1292D01*
X1Y1291D02*
X5Y1291D01*
X2240Y1291D02*
X2246Y1291D01*
X1Y1290D02*
X5Y1290D01*
X2240Y1290D02*
X2246Y1290D01*
X1Y1289D02*
X5Y1289D01*
X2240Y1289D02*
X2246Y1289D01*
X1Y1288D02*
X5Y1288D01*
X2240Y1288D02*
X2246Y1288D01*
X1Y1287D02*
X5Y1287D01*
X2240Y1287D02*
X2246Y1287D01*
X1Y1286D02*
X5Y1286D01*
X2240Y1286D02*
X2246Y1286D01*
X1Y1285D02*
X5Y1285D01*
X2240Y1285D02*
X2246Y1285D01*
X1Y1284D02*
X5Y1284D01*
X2240Y1284D02*
X2246Y1284D01*
X1Y1283D02*
X5Y1283D01*
X2240Y1283D02*
X2246Y1283D01*
X1Y1282D02*
X5Y1282D01*
X2240Y1282D02*
X2246Y1282D01*
X1Y1281D02*
X5Y1281D01*
X2240Y1281D02*
X2246Y1281D01*
X1Y1280D02*
X5Y1280D01*
X2240Y1280D02*
X2246Y1280D01*
X1Y1279D02*
X5Y1279D01*
X2240Y1279D02*
X2246Y1279D01*
X1Y1278D02*
X5Y1278D01*
X2240Y1278D02*
X2246Y1278D01*
X1Y1277D02*
X5Y1277D01*
X2240Y1277D02*
X2246Y1277D01*
X1Y1276D02*
X5Y1276D01*
X2240Y1276D02*
X2246Y1276D01*
X1Y1275D02*
X5Y1275D01*
X2240Y1275D02*
X2246Y1275D01*
X1Y1274D02*
X5Y1274D01*
X2240Y1274D02*
X2246Y1274D01*
X1Y1273D02*
X5Y1273D01*
X2240Y1273D02*
X2246Y1273D01*
X1Y1272D02*
X5Y1272D01*
X2240Y1272D02*
X2246Y1272D01*
X1Y1271D02*
X5Y1271D01*
X2240Y1271D02*
X2246Y1271D01*
X1Y1270D02*
X5Y1270D01*
X2240Y1270D02*
X2246Y1270D01*
X1Y1269D02*
X5Y1269D01*
X2240Y1269D02*
X2246Y1269D01*
X1Y1268D02*
X5Y1268D01*
X2240Y1268D02*
X2246Y1268D01*
X1Y1267D02*
X5Y1267D01*
X2240Y1267D02*
X2246Y1267D01*
X1Y1266D02*
X5Y1266D01*
X2240Y1266D02*
X2246Y1266D01*
X1Y1265D02*
X5Y1265D01*
X2240Y1265D02*
X2246Y1265D01*
X1Y1264D02*
X5Y1264D01*
X2240Y1264D02*
X2246Y1264D01*
X1Y1263D02*
X5Y1263D01*
X2240Y1263D02*
X2246Y1263D01*
X1Y1262D02*
X5Y1262D01*
X2240Y1262D02*
X2246Y1262D01*
X1Y1261D02*
X5Y1261D01*
X2240Y1261D02*
X2246Y1261D01*
X1Y1260D02*
X5Y1260D01*
X2240Y1260D02*
X2246Y1260D01*
X1Y1259D02*
X5Y1259D01*
X2240Y1259D02*
X2246Y1259D01*
X1Y1258D02*
X5Y1258D01*
X2240Y1258D02*
X2246Y1258D01*
X1Y1257D02*
X5Y1257D01*
X2240Y1257D02*
X2246Y1257D01*
X1Y1256D02*
X5Y1256D01*
X2240Y1256D02*
X2246Y1256D01*
X1Y1255D02*
X5Y1255D01*
X2240Y1255D02*
X2246Y1255D01*
X1Y1254D02*
X5Y1254D01*
X2240Y1254D02*
X2246Y1254D01*
X1Y1253D02*
X5Y1253D01*
X2240Y1253D02*
X2246Y1253D01*
X1Y1252D02*
X5Y1252D01*
X2240Y1252D02*
X2246Y1252D01*
X1Y1251D02*
X5Y1251D01*
X2240Y1251D02*
X2246Y1251D01*
X1Y1250D02*
X5Y1250D01*
X2240Y1250D02*
X2246Y1250D01*
X1Y1249D02*
X5Y1249D01*
X2240Y1249D02*
X2246Y1249D01*
X1Y1248D02*
X5Y1248D01*
X2240Y1248D02*
X2246Y1248D01*
X1Y1247D02*
X5Y1247D01*
X2240Y1247D02*
X2246Y1247D01*
X1Y1246D02*
X5Y1246D01*
X2240Y1246D02*
X2246Y1246D01*
X1Y1245D02*
X5Y1245D01*
X2240Y1245D02*
X2246Y1245D01*
X1Y1244D02*
X5Y1244D01*
X2240Y1244D02*
X2246Y1244D01*
X1Y1243D02*
X5Y1243D01*
X2240Y1243D02*
X2246Y1243D01*
X1Y1242D02*
X5Y1242D01*
X2240Y1242D02*
X2246Y1242D01*
X1Y1241D02*
X5Y1241D01*
X2240Y1241D02*
X2246Y1241D01*
X1Y1240D02*
X5Y1240D01*
X2240Y1240D02*
X2246Y1240D01*
X1Y1239D02*
X5Y1239D01*
X2240Y1239D02*
X2246Y1239D01*
X1Y1238D02*
X5Y1238D01*
X2240Y1238D02*
X2246Y1238D01*
X1Y1237D02*
X5Y1237D01*
X2240Y1237D02*
X2246Y1237D01*
X1Y1236D02*
X5Y1236D01*
X2240Y1236D02*
X2246Y1236D01*
X1Y1235D02*
X5Y1235D01*
X2240Y1235D02*
X2246Y1235D01*
X1Y1234D02*
X5Y1234D01*
X2240Y1234D02*
X2246Y1234D01*
X1Y1233D02*
X5Y1233D01*
X2240Y1233D02*
X2246Y1233D01*
X1Y1232D02*
X5Y1232D01*
X2240Y1232D02*
X2246Y1232D01*
X1Y1231D02*
X5Y1231D01*
X2240Y1231D02*
X2246Y1231D01*
X1Y1230D02*
X5Y1230D01*
X2240Y1230D02*
X2246Y1230D01*
X1Y1229D02*
X5Y1229D01*
X2240Y1229D02*
X2246Y1229D01*
X1Y1228D02*
X5Y1228D01*
X2240Y1228D02*
X2246Y1228D01*
X1Y1227D02*
X5Y1227D01*
X2240Y1227D02*
X2246Y1227D01*
X1Y1226D02*
X5Y1226D01*
X2240Y1226D02*
X2246Y1226D01*
X1Y1225D02*
X5Y1225D01*
X2240Y1225D02*
X2246Y1225D01*
X1Y1224D02*
X5Y1224D01*
X2240Y1224D02*
X2246Y1224D01*
X1Y1223D02*
X5Y1223D01*
X2240Y1223D02*
X2246Y1223D01*
X1Y1222D02*
X5Y1222D01*
X2240Y1222D02*
X2246Y1222D01*
X1Y1221D02*
X5Y1221D01*
X2240Y1221D02*
X2246Y1221D01*
X1Y1220D02*
X5Y1220D01*
X2240Y1220D02*
X2246Y1220D01*
X1Y1219D02*
X5Y1219D01*
X2240Y1219D02*
X2246Y1219D01*
X1Y1218D02*
X5Y1218D01*
X2240Y1218D02*
X2246Y1218D01*
X1Y1217D02*
X5Y1217D01*
X2240Y1217D02*
X2246Y1217D01*
X1Y1216D02*
X5Y1216D01*
X2240Y1216D02*
X2246Y1216D01*
X1Y1215D02*
X5Y1215D01*
X2240Y1215D02*
X2246Y1215D01*
X1Y1214D02*
X5Y1214D01*
X2240Y1214D02*
X2246Y1214D01*
X1Y1213D02*
X5Y1213D01*
X2240Y1213D02*
X2246Y1213D01*
X1Y1212D02*
X5Y1212D01*
X2240Y1212D02*
X2246Y1212D01*
X1Y1211D02*
X5Y1211D01*
X2240Y1211D02*
X2246Y1211D01*
X1Y1210D02*
X5Y1210D01*
X2240Y1210D02*
X2246Y1210D01*
X1Y1209D02*
X5Y1209D01*
X2240Y1209D02*
X2246Y1209D01*
X1Y1208D02*
X5Y1208D01*
X2240Y1208D02*
X2246Y1208D01*
X1Y1207D02*
X5Y1207D01*
X2240Y1207D02*
X2246Y1207D01*
X1Y1206D02*
X5Y1206D01*
X2240Y1206D02*
X2246Y1206D01*
X1Y1205D02*
X5Y1205D01*
X2240Y1205D02*
X2246Y1205D01*
X1Y1204D02*
X5Y1204D01*
X2240Y1204D02*
X2246Y1204D01*
X1Y1203D02*
X5Y1203D01*
X2240Y1203D02*
X2246Y1203D01*
X1Y1202D02*
X5Y1202D01*
X2240Y1202D02*
X2246Y1202D01*
X1Y1201D02*
X5Y1201D01*
X2240Y1201D02*
X2246Y1201D01*
X1Y1200D02*
X5Y1200D01*
X2240Y1200D02*
X2246Y1200D01*
X1Y1199D02*
X5Y1199D01*
X2240Y1199D02*
X2246Y1199D01*
X1Y1198D02*
X5Y1198D01*
X2240Y1198D02*
X2246Y1198D01*
X1Y1197D02*
X5Y1197D01*
X2240Y1197D02*
X2246Y1197D01*
X1Y1196D02*
X5Y1196D01*
X2240Y1196D02*
X2246Y1196D01*
X1Y1195D02*
X5Y1195D01*
X2240Y1195D02*
X2246Y1195D01*
X1Y1194D02*
X5Y1194D01*
X2240Y1194D02*
X2246Y1194D01*
X1Y1193D02*
X5Y1193D01*
X2240Y1193D02*
X2246Y1193D01*
X1Y1192D02*
X5Y1192D01*
X2240Y1192D02*
X2246Y1192D01*
X1Y1191D02*
X5Y1191D01*
X2240Y1191D02*
X2246Y1191D01*
X1Y1190D02*
X5Y1190D01*
X2240Y1190D02*
X2246Y1190D01*
X1Y1189D02*
X5Y1189D01*
X2240Y1189D02*
X2246Y1189D01*
X1Y1188D02*
X5Y1188D01*
X2240Y1188D02*
X2246Y1188D01*
X1Y1187D02*
X5Y1187D01*
X2240Y1187D02*
X2246Y1187D01*
X1Y1186D02*
X5Y1186D01*
X2240Y1186D02*
X2246Y1186D01*
X1Y1185D02*
X5Y1185D01*
X2240Y1185D02*
X2246Y1185D01*
X1Y1184D02*
X5Y1184D01*
X2240Y1184D02*
X2246Y1184D01*
X1Y1183D02*
X5Y1183D01*
X2240Y1183D02*
X2246Y1183D01*
X1Y1182D02*
X5Y1182D01*
X2240Y1182D02*
X2246Y1182D01*
X1Y1181D02*
X5Y1181D01*
X2240Y1181D02*
X2246Y1181D01*
X1Y1180D02*
X5Y1180D01*
X2240Y1180D02*
X2246Y1180D01*
X1Y1179D02*
X5Y1179D01*
X2240Y1179D02*
X2246Y1179D01*
X1Y1178D02*
X5Y1178D01*
X2240Y1178D02*
X2246Y1178D01*
X1Y1177D02*
X5Y1177D01*
X2240Y1177D02*
X2246Y1177D01*
X1Y1176D02*
X5Y1176D01*
X2240Y1176D02*
X2246Y1176D01*
X1Y1175D02*
X5Y1175D01*
X2240Y1175D02*
X2246Y1175D01*
X1Y1174D02*
X5Y1174D01*
X2240Y1174D02*
X2246Y1174D01*
X1Y1173D02*
X5Y1173D01*
X2240Y1173D02*
X2246Y1173D01*
X1Y1172D02*
X5Y1172D01*
X2240Y1172D02*
X2246Y1172D01*
X1Y1171D02*
X5Y1171D01*
X2240Y1171D02*
X2246Y1171D01*
X1Y1170D02*
X5Y1170D01*
X2240Y1170D02*
X2246Y1170D01*
X1Y1169D02*
X5Y1169D01*
X2240Y1169D02*
X2246Y1169D01*
X1Y1168D02*
X5Y1168D01*
X2240Y1168D02*
X2246Y1168D01*
X1Y1167D02*
X5Y1167D01*
X2240Y1167D02*
X2246Y1167D01*
X1Y1166D02*
X5Y1166D01*
X2240Y1166D02*
X2246Y1166D01*
X1Y1165D02*
X5Y1165D01*
X2240Y1165D02*
X2246Y1165D01*
X1Y1164D02*
X5Y1164D01*
X2240Y1164D02*
X2246Y1164D01*
X1Y1163D02*
X5Y1163D01*
X2240Y1163D02*
X2246Y1163D01*
X1Y1162D02*
X5Y1162D01*
X2240Y1162D02*
X2246Y1162D01*
X1Y1161D02*
X5Y1161D01*
X2240Y1161D02*
X2246Y1161D01*
X1Y1160D02*
X5Y1160D01*
X2240Y1160D02*
X2246Y1160D01*
X1Y1159D02*
X5Y1159D01*
X2240Y1159D02*
X2246Y1159D01*
X1Y1158D02*
X5Y1158D01*
X2240Y1158D02*
X2246Y1158D01*
X1Y1157D02*
X5Y1157D01*
X2240Y1157D02*
X2246Y1157D01*
X1Y1156D02*
X5Y1156D01*
X2240Y1156D02*
X2246Y1156D01*
X1Y1155D02*
X5Y1155D01*
X2240Y1155D02*
X2246Y1155D01*
X1Y1154D02*
X5Y1154D01*
X2240Y1154D02*
X2246Y1154D01*
X1Y1153D02*
X5Y1153D01*
X2240Y1153D02*
X2246Y1153D01*
X1Y1152D02*
X5Y1152D01*
X2240Y1152D02*
X2246Y1152D01*
X1Y1151D02*
X5Y1151D01*
X2240Y1151D02*
X2246Y1151D01*
X1Y1150D02*
X5Y1150D01*
X2240Y1150D02*
X2246Y1150D01*
X1Y1149D02*
X5Y1149D01*
X2240Y1149D02*
X2246Y1149D01*
X1Y1148D02*
X5Y1148D01*
X2240Y1148D02*
X2246Y1148D01*
X1Y1147D02*
X5Y1147D01*
X2240Y1147D02*
X2246Y1147D01*
X1Y1146D02*
X5Y1146D01*
X2240Y1146D02*
X2246Y1146D01*
X1Y1145D02*
X5Y1145D01*
X2240Y1145D02*
X2246Y1145D01*
X1Y1144D02*
X5Y1144D01*
X2240Y1144D02*
X2246Y1144D01*
X1Y1143D02*
X5Y1143D01*
X2240Y1143D02*
X2246Y1143D01*
X1Y1142D02*
X5Y1142D01*
X2240Y1142D02*
X2246Y1142D01*
X1Y1141D02*
X5Y1141D01*
X2240Y1141D02*
X2246Y1141D01*
X1Y1140D02*
X5Y1140D01*
X2240Y1140D02*
X2246Y1140D01*
X1Y1139D02*
X5Y1139D01*
X2240Y1139D02*
X2246Y1139D01*
X1Y1138D02*
X5Y1138D01*
X2240Y1138D02*
X2246Y1138D01*
X1Y1137D02*
X5Y1137D01*
X2240Y1137D02*
X2246Y1137D01*
X1Y1136D02*
X5Y1136D01*
X2240Y1136D02*
X2246Y1136D01*
X1Y1135D02*
X5Y1135D01*
X2240Y1135D02*
X2246Y1135D01*
X1Y1134D02*
X5Y1134D01*
X2240Y1134D02*
X2246Y1134D01*
X1Y1133D02*
X5Y1133D01*
X2240Y1133D02*
X2246Y1133D01*
X1Y1132D02*
X5Y1132D01*
X2240Y1132D02*
X2246Y1132D01*
X1Y1131D02*
X5Y1131D01*
X2240Y1131D02*
X2246Y1131D01*
X1Y1130D02*
X5Y1130D01*
X2240Y1130D02*
X2246Y1130D01*
X1Y1129D02*
X5Y1129D01*
X2240Y1129D02*
X2246Y1129D01*
X1Y1128D02*
X5Y1128D01*
X2240Y1128D02*
X2246Y1128D01*
X1Y1127D02*
X5Y1127D01*
X2240Y1127D02*
X2246Y1127D01*
X1Y1126D02*
X5Y1126D01*
X2240Y1126D02*
X2246Y1126D01*
X1Y1125D02*
X5Y1125D01*
X2240Y1125D02*
X2246Y1125D01*
X1Y1124D02*
X5Y1124D01*
X2240Y1124D02*
X2246Y1124D01*
X1Y1123D02*
X5Y1123D01*
X2240Y1123D02*
X2246Y1123D01*
X1Y1122D02*
X5Y1122D01*
X2240Y1122D02*
X2246Y1122D01*
X1Y1121D02*
X5Y1121D01*
X2240Y1121D02*
X2246Y1121D01*
X1Y1120D02*
X5Y1120D01*
X2240Y1120D02*
X2246Y1120D01*
X1Y1119D02*
X5Y1119D01*
X2240Y1119D02*
X2246Y1119D01*
X1Y1118D02*
X5Y1118D01*
X2240Y1118D02*
X2246Y1118D01*
X1Y1117D02*
X5Y1117D01*
X2240Y1117D02*
X2246Y1117D01*
X1Y1116D02*
X5Y1116D01*
X2240Y1116D02*
X2246Y1116D01*
X1Y1115D02*
X5Y1115D01*
X2240Y1115D02*
X2246Y1115D01*
X1Y1114D02*
X5Y1114D01*
X2240Y1114D02*
X2246Y1114D01*
X1Y1113D02*
X5Y1113D01*
X2240Y1113D02*
X2246Y1113D01*
X1Y1112D02*
X5Y1112D01*
X2240Y1112D02*
X2246Y1112D01*
X1Y1111D02*
X5Y1111D01*
X2240Y1111D02*
X2246Y1111D01*
X1Y1110D02*
X5Y1110D01*
X2240Y1110D02*
X2246Y1110D01*
X1Y1109D02*
X5Y1109D01*
X2240Y1109D02*
X2246Y1109D01*
X1Y1108D02*
X5Y1108D01*
X2240Y1108D02*
X2246Y1108D01*
X1Y1107D02*
X5Y1107D01*
X2240Y1107D02*
X2246Y1107D01*
X1Y1106D02*
X5Y1106D01*
X2240Y1106D02*
X2246Y1106D01*
X1Y1105D02*
X5Y1105D01*
X2240Y1105D02*
X2246Y1105D01*
X1Y1104D02*
X5Y1104D01*
X2240Y1104D02*
X2246Y1104D01*
X1Y1103D02*
X5Y1103D01*
X2240Y1103D02*
X2246Y1103D01*
X1Y1102D02*
X5Y1102D01*
X2240Y1102D02*
X2246Y1102D01*
X1Y1101D02*
X5Y1101D01*
X2240Y1101D02*
X2246Y1101D01*
X1Y1100D02*
X5Y1100D01*
X2240Y1100D02*
X2246Y1100D01*
X1Y1099D02*
X5Y1099D01*
X2240Y1099D02*
X2246Y1099D01*
X1Y1098D02*
X5Y1098D01*
X2240Y1098D02*
X2246Y1098D01*
X1Y1097D02*
X5Y1097D01*
X2240Y1097D02*
X2246Y1097D01*
X1Y1096D02*
X5Y1096D01*
X2240Y1096D02*
X2246Y1096D01*
X1Y1095D02*
X5Y1095D01*
X2240Y1095D02*
X2246Y1095D01*
X1Y1094D02*
X5Y1094D01*
X2240Y1094D02*
X2246Y1094D01*
X1Y1093D02*
X5Y1093D01*
X2240Y1093D02*
X2246Y1093D01*
X1Y1092D02*
X5Y1092D01*
X2240Y1092D02*
X2246Y1092D01*
X1Y1091D02*
X5Y1091D01*
X2240Y1091D02*
X2246Y1091D01*
X1Y1090D02*
X5Y1090D01*
X2240Y1090D02*
X2246Y1090D01*
X1Y1089D02*
X5Y1089D01*
X2240Y1089D02*
X2246Y1089D01*
X1Y1088D02*
X5Y1088D01*
X2240Y1088D02*
X2246Y1088D01*
X1Y1087D02*
X5Y1087D01*
X2240Y1087D02*
X2246Y1087D01*
X1Y1086D02*
X5Y1086D01*
X2240Y1086D02*
X2246Y1086D01*
X1Y1085D02*
X5Y1085D01*
X2240Y1085D02*
X2246Y1085D01*
X1Y1084D02*
X5Y1084D01*
X2240Y1084D02*
X2246Y1084D01*
X1Y1083D02*
X5Y1083D01*
X2240Y1083D02*
X2246Y1083D01*
X1Y1082D02*
X5Y1082D01*
X2240Y1082D02*
X2246Y1082D01*
X1Y1081D02*
X5Y1081D01*
X2240Y1081D02*
X2246Y1081D01*
X1Y1080D02*
X5Y1080D01*
X2240Y1080D02*
X2246Y1080D01*
X1Y1079D02*
X5Y1079D01*
X2240Y1079D02*
X2246Y1079D01*
X1Y1078D02*
X5Y1078D01*
X2240Y1078D02*
X2246Y1078D01*
X1Y1077D02*
X5Y1077D01*
X2240Y1077D02*
X2246Y1077D01*
X1Y1076D02*
X5Y1076D01*
X2240Y1076D02*
X2246Y1076D01*
X1Y1075D02*
X5Y1075D01*
X2240Y1075D02*
X2246Y1075D01*
X1Y1074D02*
X5Y1074D01*
X2240Y1074D02*
X2246Y1074D01*
X1Y1073D02*
X5Y1073D01*
X2240Y1073D02*
X2246Y1073D01*
X1Y1072D02*
X5Y1072D01*
X2240Y1072D02*
X2246Y1072D01*
X1Y1071D02*
X5Y1071D01*
X2240Y1071D02*
X2246Y1071D01*
X1Y1070D02*
X5Y1070D01*
X2240Y1070D02*
X2246Y1070D01*
X1Y1069D02*
X5Y1069D01*
X2240Y1069D02*
X2246Y1069D01*
X1Y1068D02*
X5Y1068D01*
X2240Y1068D02*
X2246Y1068D01*
X1Y1067D02*
X5Y1067D01*
X2240Y1067D02*
X2246Y1067D01*
X1Y1066D02*
X5Y1066D01*
X2240Y1066D02*
X2246Y1066D01*
X1Y1065D02*
X5Y1065D01*
X2240Y1065D02*
X2246Y1065D01*
X1Y1064D02*
X5Y1064D01*
X2240Y1064D02*
X2246Y1064D01*
X1Y1063D02*
X5Y1063D01*
X2240Y1063D02*
X2246Y1063D01*
X1Y1062D02*
X5Y1062D01*
X2240Y1062D02*
X2246Y1062D01*
X1Y1061D02*
X5Y1061D01*
X2240Y1061D02*
X2246Y1061D01*
X1Y1060D02*
X5Y1060D01*
X2240Y1060D02*
X2246Y1060D01*
X1Y1059D02*
X5Y1059D01*
X2240Y1059D02*
X2246Y1059D01*
X1Y1058D02*
X5Y1058D01*
X2240Y1058D02*
X2246Y1058D01*
X1Y1057D02*
X5Y1057D01*
X2240Y1057D02*
X2246Y1057D01*
X1Y1056D02*
X5Y1056D01*
X2240Y1056D02*
X2246Y1056D01*
X1Y1055D02*
X5Y1055D01*
X2240Y1055D02*
X2246Y1055D01*
X1Y1054D02*
X5Y1054D01*
X2240Y1054D02*
X2246Y1054D01*
X1Y1053D02*
X5Y1053D01*
X2240Y1053D02*
X2246Y1053D01*
X1Y1052D02*
X5Y1052D01*
X2240Y1052D02*
X2246Y1052D01*
X1Y1051D02*
X5Y1051D01*
X2240Y1051D02*
X2246Y1051D01*
X1Y1050D02*
X5Y1050D01*
X2240Y1050D02*
X2246Y1050D01*
X1Y1049D02*
X5Y1049D01*
X2240Y1049D02*
X2246Y1049D01*
X1Y1048D02*
X5Y1048D01*
X2240Y1048D02*
X2246Y1048D01*
X1Y1047D02*
X5Y1047D01*
X2240Y1047D02*
X2246Y1047D01*
X1Y1046D02*
X5Y1046D01*
X2240Y1046D02*
X2246Y1046D01*
X1Y1045D02*
X5Y1045D01*
X2240Y1045D02*
X2246Y1045D01*
X1Y1044D02*
X5Y1044D01*
X2240Y1044D02*
X2246Y1044D01*
X1Y1043D02*
X5Y1043D01*
X2240Y1043D02*
X2246Y1043D01*
X1Y1042D02*
X5Y1042D01*
X2240Y1042D02*
X2246Y1042D01*
X1Y1041D02*
X5Y1041D01*
X2240Y1041D02*
X2246Y1041D01*
X1Y1040D02*
X5Y1040D01*
X2240Y1040D02*
X2246Y1040D01*
X1Y1039D02*
X5Y1039D01*
X2240Y1039D02*
X2246Y1039D01*
X1Y1038D02*
X5Y1038D01*
X2240Y1038D02*
X2246Y1038D01*
X1Y1037D02*
X5Y1037D01*
X2240Y1037D02*
X2246Y1037D01*
X1Y1036D02*
X5Y1036D01*
X2240Y1036D02*
X2246Y1036D01*
X1Y1035D02*
X5Y1035D01*
X2240Y1035D02*
X2246Y1035D01*
X1Y1034D02*
X5Y1034D01*
X2240Y1034D02*
X2246Y1034D01*
X1Y1033D02*
X5Y1033D01*
X2240Y1033D02*
X2246Y1033D01*
X1Y1032D02*
X5Y1032D01*
X2240Y1032D02*
X2246Y1032D01*
X1Y1031D02*
X5Y1031D01*
X2240Y1031D02*
X2246Y1031D01*
X1Y1030D02*
X5Y1030D01*
X2240Y1030D02*
X2246Y1030D01*
X1Y1029D02*
X5Y1029D01*
X2240Y1029D02*
X2246Y1029D01*
X1Y1028D02*
X5Y1028D01*
X2240Y1028D02*
X2246Y1028D01*
X1Y1027D02*
X5Y1027D01*
X2240Y1027D02*
X2246Y1027D01*
X1Y1026D02*
X5Y1026D01*
X2240Y1026D02*
X2246Y1026D01*
X1Y1025D02*
X5Y1025D01*
X2240Y1025D02*
X2246Y1025D01*
X1Y1024D02*
X5Y1024D01*
X2240Y1024D02*
X2246Y1024D01*
X1Y1023D02*
X5Y1023D01*
X2240Y1023D02*
X2246Y1023D01*
X1Y1022D02*
X5Y1022D01*
X2240Y1022D02*
X2246Y1022D01*
X1Y1021D02*
X5Y1021D01*
X2240Y1021D02*
X2246Y1021D01*
X1Y1020D02*
X5Y1020D01*
X2240Y1020D02*
X2246Y1020D01*
X1Y1019D02*
X5Y1019D01*
X2240Y1019D02*
X2246Y1019D01*
X1Y1018D02*
X5Y1018D01*
X2240Y1018D02*
X2246Y1018D01*
X1Y1017D02*
X5Y1017D01*
X2240Y1017D02*
X2246Y1017D01*
X1Y1016D02*
X5Y1016D01*
X2240Y1016D02*
X2246Y1016D01*
X1Y1015D02*
X5Y1015D01*
X2240Y1015D02*
X2246Y1015D01*
X1Y1014D02*
X5Y1014D01*
X2240Y1014D02*
X2246Y1014D01*
X1Y1013D02*
X5Y1013D01*
X2240Y1013D02*
X2246Y1013D01*
X1Y1012D02*
X5Y1012D01*
X2240Y1012D02*
X2246Y1012D01*
X1Y1011D02*
X5Y1011D01*
X2240Y1011D02*
X2246Y1011D01*
X1Y1010D02*
X5Y1010D01*
X2240Y1010D02*
X2246Y1010D01*
X1Y1009D02*
X5Y1009D01*
X2240Y1009D02*
X2246Y1009D01*
X1Y1008D02*
X5Y1008D01*
X2240Y1008D02*
X2246Y1008D01*
X1Y1007D02*
X5Y1007D01*
X2240Y1007D02*
X2246Y1007D01*
X1Y1006D02*
X5Y1006D01*
X2240Y1006D02*
X2246Y1006D01*
X1Y1005D02*
X5Y1005D01*
X2240Y1005D02*
X2246Y1005D01*
X1Y1004D02*
X5Y1004D01*
X2240Y1004D02*
X2246Y1004D01*
X1Y1003D02*
X5Y1003D01*
X2240Y1003D02*
X2246Y1003D01*
X1Y1002D02*
X5Y1002D01*
X2240Y1002D02*
X2246Y1002D01*
X1Y1001D02*
X5Y1001D01*
X2240Y1001D02*
X2246Y1001D01*
X1Y1000D02*
X5Y1000D01*
X2240Y1000D02*
X2246Y1000D01*
X1Y999D02*
X5Y999D01*
X2240Y999D02*
X2246Y999D01*
X1Y998D02*
X5Y998D01*
X2240Y998D02*
X2246Y998D01*
X1Y997D02*
X5Y997D01*
X2240Y997D02*
X2246Y997D01*
X1Y996D02*
X5Y996D01*
X2240Y996D02*
X2246Y996D01*
X1Y995D02*
X5Y995D01*
X2240Y995D02*
X2246Y995D01*
X1Y994D02*
X5Y994D01*
X2240Y994D02*
X2246Y994D01*
X1Y993D02*
X5Y993D01*
X2240Y993D02*
X2246Y993D01*
X1Y992D02*
X5Y992D01*
X2240Y992D02*
X2246Y992D01*
X1Y991D02*
X5Y991D01*
X2240Y991D02*
X2246Y991D01*
X1Y990D02*
X5Y990D01*
X2240Y990D02*
X2246Y990D01*
X1Y989D02*
X5Y989D01*
X2240Y989D02*
X2246Y989D01*
X1Y988D02*
X5Y988D01*
X2240Y988D02*
X2246Y988D01*
X1Y987D02*
X5Y987D01*
X2240Y987D02*
X2246Y987D01*
X1Y986D02*
X5Y986D01*
X2240Y986D02*
X2246Y986D01*
X1Y985D02*
X5Y985D01*
X2240Y985D02*
X2246Y985D01*
X1Y984D02*
X5Y984D01*
X2240Y984D02*
X2246Y984D01*
X1Y983D02*
X5Y983D01*
X2240Y983D02*
X2246Y983D01*
X1Y982D02*
X5Y982D01*
X2240Y982D02*
X2246Y982D01*
X1Y981D02*
X5Y981D01*
X2240Y981D02*
X2246Y981D01*
X1Y980D02*
X5Y980D01*
X2240Y980D02*
X2246Y980D01*
X1Y979D02*
X5Y979D01*
X2240Y979D02*
X2246Y979D01*
X1Y978D02*
X5Y978D01*
X2240Y978D02*
X2246Y978D01*
X1Y977D02*
X5Y977D01*
X2240Y977D02*
X2246Y977D01*
X1Y976D02*
X5Y976D01*
X2240Y976D02*
X2246Y976D01*
X1Y975D02*
X5Y975D01*
X2240Y975D02*
X2246Y975D01*
X1Y974D02*
X5Y974D01*
X2240Y974D02*
X2246Y974D01*
X1Y973D02*
X5Y973D01*
X2240Y973D02*
X2246Y973D01*
X1Y972D02*
X5Y972D01*
X2240Y972D02*
X2246Y972D01*
X1Y971D02*
X5Y971D01*
X2240Y971D02*
X2246Y971D01*
X1Y970D02*
X5Y970D01*
X2240Y970D02*
X2246Y970D01*
X1Y969D02*
X5Y969D01*
X2240Y969D02*
X2246Y969D01*
X1Y968D02*
X5Y968D01*
X2240Y968D02*
X2246Y968D01*
X1Y967D02*
X5Y967D01*
X2240Y967D02*
X2246Y967D01*
X1Y966D02*
X5Y966D01*
X2240Y966D02*
X2246Y966D01*
X1Y965D02*
X5Y965D01*
X2240Y965D02*
X2246Y965D01*
X1Y964D02*
X5Y964D01*
X2240Y964D02*
X2246Y964D01*
X1Y963D02*
X5Y963D01*
X2240Y963D02*
X2246Y963D01*
X1Y962D02*
X5Y962D01*
X2240Y962D02*
X2246Y962D01*
X1Y961D02*
X5Y961D01*
X2240Y961D02*
X2246Y961D01*
X1Y960D02*
X5Y960D01*
X2240Y960D02*
X2246Y960D01*
X1Y959D02*
X5Y959D01*
X2240Y959D02*
X2246Y959D01*
X1Y958D02*
X5Y958D01*
X2240Y958D02*
X2246Y958D01*
X1Y957D02*
X5Y957D01*
X2240Y957D02*
X2246Y957D01*
X1Y956D02*
X5Y956D01*
X2240Y956D02*
X2246Y956D01*
X1Y955D02*
X5Y955D01*
X2240Y955D02*
X2246Y955D01*
X1Y954D02*
X5Y954D01*
X2240Y954D02*
X2246Y954D01*
X1Y953D02*
X5Y953D01*
X2240Y953D02*
X2246Y953D01*
X1Y952D02*
X5Y952D01*
X2240Y952D02*
X2246Y952D01*
X1Y951D02*
X5Y951D01*
X2240Y951D02*
X2246Y951D01*
X1Y950D02*
X5Y950D01*
X2240Y950D02*
X2246Y950D01*
X1Y949D02*
X5Y949D01*
X2240Y949D02*
X2246Y949D01*
X1Y948D02*
X5Y948D01*
X2240Y948D02*
X2246Y948D01*
X1Y947D02*
X5Y947D01*
X2240Y947D02*
X2246Y947D01*
X1Y946D02*
X5Y946D01*
X2240Y946D02*
X2246Y946D01*
X1Y945D02*
X5Y945D01*
X2240Y945D02*
X2246Y945D01*
X1Y944D02*
X5Y944D01*
X2240Y944D02*
X2246Y944D01*
X1Y943D02*
X5Y943D01*
X2240Y943D02*
X2246Y943D01*
X1Y942D02*
X5Y942D01*
X2240Y942D02*
X2246Y942D01*
X1Y941D02*
X5Y941D01*
X2240Y941D02*
X2246Y941D01*
X1Y940D02*
X5Y940D01*
X2240Y940D02*
X2246Y940D01*
X1Y939D02*
X5Y939D01*
X2240Y939D02*
X2246Y939D01*
X1Y938D02*
X5Y938D01*
X2240Y938D02*
X2246Y938D01*
X1Y937D02*
X5Y937D01*
X2240Y937D02*
X2246Y937D01*
X1Y936D02*
X5Y936D01*
X2240Y936D02*
X2246Y936D01*
X1Y935D02*
X5Y935D01*
X2240Y935D02*
X2246Y935D01*
X1Y934D02*
X5Y934D01*
X2240Y934D02*
X2246Y934D01*
X1Y933D02*
X5Y933D01*
X2240Y933D02*
X2246Y933D01*
X1Y932D02*
X5Y932D01*
X2240Y932D02*
X2246Y932D01*
X1Y931D02*
X5Y931D01*
X2240Y931D02*
X2246Y931D01*
X1Y930D02*
X5Y930D01*
X2240Y930D02*
X2246Y930D01*
X1Y929D02*
X5Y929D01*
X2240Y929D02*
X2246Y929D01*
X1Y928D02*
X5Y928D01*
X2240Y928D02*
X2246Y928D01*
X1Y927D02*
X5Y927D01*
X2240Y927D02*
X2246Y927D01*
X1Y926D02*
X5Y926D01*
X2240Y926D02*
X2246Y926D01*
X1Y925D02*
X5Y925D01*
X2240Y925D02*
X2246Y925D01*
X1Y924D02*
X5Y924D01*
X2240Y924D02*
X2246Y924D01*
X1Y923D02*
X5Y923D01*
X2240Y923D02*
X2246Y923D01*
X1Y922D02*
X5Y922D01*
X2240Y922D02*
X2246Y922D01*
X1Y921D02*
X5Y921D01*
X2240Y921D02*
X2246Y921D01*
X1Y920D02*
X5Y920D01*
X2240Y920D02*
X2246Y920D01*
X1Y919D02*
X5Y919D01*
X2240Y919D02*
X2246Y919D01*
X1Y918D02*
X5Y918D01*
X2240Y918D02*
X2246Y918D01*
X1Y917D02*
X5Y917D01*
X2240Y917D02*
X2246Y917D01*
X1Y916D02*
X5Y916D01*
X2240Y916D02*
X2246Y916D01*
X1Y915D02*
X5Y915D01*
X2240Y915D02*
X2246Y915D01*
X1Y914D02*
X5Y914D01*
X2240Y914D02*
X2246Y914D01*
X1Y913D02*
X5Y913D01*
X2240Y913D02*
X2246Y913D01*
X1Y912D02*
X5Y912D01*
X2240Y912D02*
X2246Y912D01*
X1Y911D02*
X5Y911D01*
X2240Y911D02*
X2246Y911D01*
X1Y910D02*
X5Y910D01*
X2240Y910D02*
X2246Y910D01*
X1Y909D02*
X5Y909D01*
X2240Y909D02*
X2246Y909D01*
X1Y908D02*
X5Y908D01*
X2240Y908D02*
X2246Y908D01*
X1Y907D02*
X5Y907D01*
X2240Y907D02*
X2246Y907D01*
X1Y906D02*
X5Y906D01*
X2240Y906D02*
X2246Y906D01*
X1Y905D02*
X5Y905D01*
X2240Y905D02*
X2246Y905D01*
X1Y904D02*
X5Y904D01*
X2240Y904D02*
X2246Y904D01*
X1Y903D02*
X5Y903D01*
X2240Y903D02*
X2246Y903D01*
X1Y902D02*
X5Y902D01*
X2240Y902D02*
X2246Y902D01*
X1Y901D02*
X5Y901D01*
X2240Y901D02*
X2246Y901D01*
X1Y900D02*
X5Y900D01*
X2240Y900D02*
X2246Y900D01*
X1Y899D02*
X5Y899D01*
X1297Y899D02*
X1303Y899D01*
X2240Y899D02*
X2246Y899D01*
X1Y898D02*
X5Y898D01*
X1296Y898D02*
X1304Y898D01*
X2240Y898D02*
X2246Y898D01*
X1Y897D02*
X5Y897D01*
X1295Y897D02*
X1305Y897D01*
X2240Y897D02*
X2246Y897D01*
X1Y896D02*
X5Y896D01*
X232Y896D02*
X258Y896D01*
X286Y896D02*
X314Y896D01*
X338Y896D02*
X364Y896D01*
X391Y896D02*
X419Y896D01*
X546Y896D02*
X548Y896D01*
X1132Y896D02*
X1148Y896D01*
X1295Y896D02*
X1305Y896D01*
X1560Y896D02*
X1573Y896D01*
X1627Y896D02*
X1629Y896D01*
X2240Y896D02*
X2246Y896D01*
X1Y895D02*
X5Y895D01*
X231Y895D02*
X258Y895D01*
X284Y895D02*
X315Y895D01*
X337Y895D02*
X366Y895D01*
X389Y895D02*
X421Y895D01*
X545Y895D02*
X550Y895D01*
X1129Y895D02*
X1151Y895D01*
X1295Y895D02*
X1305Y895D01*
X1559Y895D02*
X1574Y895D01*
X1626Y895D02*
X1630Y895D01*
X2240Y895D02*
X2246Y895D01*
X1Y894D02*
X5Y894D01*
X230Y894D02*
X258Y894D01*
X283Y894D02*
X316Y894D01*
X335Y894D02*
X367Y894D01*
X388Y894D02*
X421Y894D01*
X544Y894D02*
X550Y894D01*
X1128Y894D02*
X1152Y894D01*
X1295Y894D02*
X1305Y894D01*
X1558Y894D02*
X1575Y894D01*
X1625Y894D02*
X1631Y894D01*
X2240Y894D02*
X2246Y894D01*
X1Y893D02*
X5Y893D01*
X230Y893D02*
X258Y893D01*
X282Y893D02*
X316Y893D01*
X335Y893D02*
X368Y893D01*
X387Y893D02*
X421Y893D01*
X544Y893D02*
X550Y893D01*
X778Y893D02*
X780Y893D01*
X936Y893D02*
X938Y893D01*
X1127Y893D02*
X1154Y893D01*
X1199Y893D02*
X1201Y893D01*
X1295Y893D02*
X1305Y893D01*
X1558Y893D02*
X1575Y893D01*
X1625Y893D02*
X1631Y893D01*
X2240Y893D02*
X2246Y893D01*
X1Y892D02*
X5Y892D01*
X230Y892D02*
X258Y892D01*
X282Y892D02*
X316Y892D01*
X334Y892D02*
X368Y892D01*
X387Y892D02*
X421Y892D01*
X544Y892D02*
X550Y892D01*
X777Y892D02*
X782Y892D01*
X935Y892D02*
X939Y892D01*
X1126Y892D02*
X1155Y892D01*
X1198Y892D02*
X1202Y892D01*
X1295Y892D02*
X1305Y892D01*
X1558Y892D02*
X1575Y892D01*
X1625Y892D02*
X1631Y892D01*
X2240Y892D02*
X2246Y892D01*
X1Y891D02*
X5Y891D01*
X230Y891D02*
X258Y891D01*
X281Y891D02*
X316Y891D01*
X334Y891D02*
X369Y891D01*
X386Y891D02*
X421Y891D01*
X544Y891D02*
X550Y891D01*
X776Y891D02*
X782Y891D01*
X934Y891D02*
X940Y891D01*
X1125Y891D02*
X1156Y891D01*
X1197Y891D02*
X1203Y891D01*
X1295Y891D02*
X1304Y891D01*
X1558Y891D02*
X1574Y891D01*
X1625Y891D02*
X1631Y891D01*
X2240Y891D02*
X2246Y891D01*
X1Y890D02*
X5Y890D01*
X231Y890D02*
X258Y890D01*
X281Y890D02*
X315Y890D01*
X334Y890D02*
X369Y890D01*
X386Y890D02*
X420Y890D01*
X544Y890D02*
X550Y890D01*
X776Y890D02*
X782Y890D01*
X934Y890D02*
X940Y890D01*
X1124Y890D02*
X1156Y890D01*
X1197Y890D02*
X1203Y890D01*
X1296Y890D02*
X1303Y890D01*
X1558Y890D02*
X1573Y890D01*
X1625Y890D02*
X1631Y890D01*
X2240Y890D02*
X2246Y890D01*
X1Y889D02*
X5Y889D01*
X251Y889D02*
X258Y889D01*
X281Y889D02*
X288Y889D01*
X334Y889D02*
X340Y889D01*
X362Y889D02*
X369Y889D01*
X386Y889D02*
X393Y889D01*
X544Y889D02*
X550Y889D01*
X776Y889D02*
X782Y889D01*
X934Y889D02*
X940Y889D01*
X1124Y889D02*
X1133Y889D01*
X1147Y889D02*
X1157Y889D01*
X1197Y889D02*
X1203Y889D01*
X1558Y889D02*
X1564Y889D01*
X1625Y889D02*
X1631Y889D01*
X2240Y889D02*
X2246Y889D01*
X1Y888D02*
X5Y888D01*
X251Y888D02*
X258Y888D01*
X281Y888D02*
X287Y888D01*
X334Y888D02*
X340Y888D01*
X362Y888D02*
X369Y888D01*
X386Y888D02*
X392Y888D01*
X544Y888D02*
X550Y888D01*
X776Y888D02*
X782Y888D01*
X934Y888D02*
X940Y888D01*
X1123Y888D02*
X1131Y888D01*
X1149Y888D02*
X1157Y888D01*
X1197Y888D02*
X1203Y888D01*
X1558Y888D02*
X1564Y888D01*
X1625Y888D02*
X1631Y888D01*
X2240Y888D02*
X2246Y888D01*
X1Y887D02*
X5Y887D01*
X251Y887D02*
X258Y887D01*
X281Y887D02*
X287Y887D01*
X334Y887D02*
X340Y887D01*
X362Y887D02*
X369Y887D01*
X386Y887D02*
X392Y887D01*
X544Y887D02*
X550Y887D01*
X776Y887D02*
X782Y887D01*
X934Y887D02*
X940Y887D01*
X1123Y887D02*
X1130Y887D01*
X1150Y887D02*
X1158Y887D01*
X1197Y887D02*
X1203Y887D01*
X1558Y887D02*
X1564Y887D01*
X1625Y887D02*
X1631Y887D01*
X2240Y887D02*
X2246Y887D01*
X1Y886D02*
X5Y886D01*
X251Y886D02*
X258Y886D01*
X281Y886D02*
X287Y886D01*
X334Y886D02*
X340Y886D01*
X362Y886D02*
X369Y886D01*
X386Y886D02*
X392Y886D01*
X544Y886D02*
X550Y886D01*
X776Y886D02*
X782Y886D01*
X934Y886D02*
X940Y886D01*
X1123Y886D02*
X1129Y886D01*
X1151Y886D02*
X1158Y886D01*
X1197Y886D02*
X1203Y886D01*
X1558Y886D02*
X1564Y886D01*
X1625Y886D02*
X1631Y886D01*
X2240Y886D02*
X2246Y886D01*
X1Y885D02*
X5Y885D01*
X251Y885D02*
X258Y885D01*
X281Y885D02*
X287Y885D01*
X334Y885D02*
X340Y885D01*
X362Y885D02*
X369Y885D01*
X386Y885D02*
X392Y885D01*
X544Y885D02*
X550Y885D01*
X776Y885D02*
X782Y885D01*
X934Y885D02*
X940Y885D01*
X1123Y885D02*
X1129Y885D01*
X1152Y885D02*
X1157Y885D01*
X1197Y885D02*
X1203Y885D01*
X1558Y885D02*
X1564Y885D01*
X1625Y885D02*
X1631Y885D01*
X2240Y885D02*
X2246Y885D01*
X1Y884D02*
X5Y884D01*
X251Y884D02*
X258Y884D01*
X281Y884D02*
X287Y884D01*
X334Y884D02*
X340Y884D01*
X362Y884D02*
X369Y884D01*
X386Y884D02*
X392Y884D01*
X544Y884D02*
X550Y884D01*
X776Y884D02*
X782Y884D01*
X934Y884D02*
X940Y884D01*
X1123Y884D02*
X1129Y884D01*
X1153Y884D02*
X1156Y884D01*
X1197Y884D02*
X1203Y884D01*
X1558Y884D02*
X1564Y884D01*
X1625Y884D02*
X1631Y884D01*
X2240Y884D02*
X2246Y884D01*
X1Y883D02*
X5Y883D01*
X251Y883D02*
X258Y883D01*
X281Y883D02*
X287Y883D01*
X334Y883D02*
X340Y883D01*
X362Y883D02*
X369Y883D01*
X386Y883D02*
X392Y883D01*
X544Y883D02*
X550Y883D01*
X776Y883D02*
X782Y883D01*
X934Y883D02*
X940Y883D01*
X1122Y883D02*
X1129Y883D01*
X1197Y883D02*
X1203Y883D01*
X1558Y883D02*
X1564Y883D01*
X1625Y883D02*
X1631Y883D01*
X2240Y883D02*
X2246Y883D01*
X1Y882D02*
X5Y882D01*
X251Y882D02*
X258Y882D01*
X281Y882D02*
X287Y882D01*
X334Y882D02*
X340Y882D01*
X362Y882D02*
X369Y882D01*
X386Y882D02*
X392Y882D01*
X544Y882D02*
X550Y882D01*
X776Y882D02*
X782Y882D01*
X934Y882D02*
X940Y882D01*
X1084Y882D02*
X1091Y882D01*
X1100Y882D02*
X1103Y882D01*
X1122Y882D02*
X1129Y882D01*
X1197Y882D02*
X1203Y882D01*
X1399Y882D02*
X1407Y882D01*
X1416Y882D02*
X1419Y882D01*
X1558Y882D02*
X1564Y882D01*
X1625Y882D02*
X1631Y882D01*
X2240Y882D02*
X2246Y882D01*
X1Y881D02*
X5Y881D01*
X251Y881D02*
X258Y881D01*
X281Y881D02*
X287Y881D01*
X334Y881D02*
X340Y881D01*
X362Y881D02*
X369Y881D01*
X386Y881D02*
X392Y881D01*
X504Y881D02*
X514Y881D01*
X544Y881D02*
X550Y881D01*
X560Y881D02*
X567Y881D01*
X659Y881D02*
X667Y881D01*
X681Y881D02*
X681Y881D01*
X714Y881D02*
X724Y881D01*
X763Y881D02*
X786Y881D01*
X817Y881D02*
X833Y881D01*
X870Y881D02*
X887Y881D01*
X921Y881D02*
X944Y881D01*
X977Y881D02*
X987Y881D01*
X1030Y881D02*
X1040Y881D01*
X1082Y881D02*
X1093Y881D01*
X1100Y881D02*
X1105Y881D01*
X1122Y881D02*
X1129Y881D01*
X1184Y881D02*
X1207Y881D01*
X1238Y881D02*
X1244Y881D01*
X1259Y881D02*
X1259Y881D01*
X1298Y881D02*
X1309Y881D01*
X1342Y881D02*
X1351Y881D01*
X1365Y881D02*
X1365Y881D01*
X1397Y881D02*
X1409Y881D01*
X1415Y881D02*
X1420Y881D01*
X1451Y881D02*
X1461Y881D01*
X1494Y881D02*
X1494Y881D01*
X1522Y881D02*
X1522Y881D01*
X1558Y881D02*
X1564Y881D01*
X1609Y881D02*
X1615Y881D01*
X1625Y881D02*
X1631Y881D01*
X2240Y881D02*
X2246Y881D01*
X1Y880D02*
X5Y880D01*
X251Y880D02*
X258Y880D01*
X281Y880D02*
X287Y880D01*
X334Y880D02*
X340Y880D01*
X362Y880D02*
X369Y880D01*
X386Y880D02*
X392Y880D01*
X500Y880D02*
X518Y880D01*
X544Y880D02*
X550Y880D01*
X557Y880D02*
X570Y880D01*
X655Y880D02*
X669Y880D01*
X679Y880D02*
X683Y880D01*
X711Y880D02*
X728Y880D01*
X761Y880D02*
X789Y880D01*
X813Y880D02*
X836Y880D01*
X866Y880D02*
X889Y880D01*
X919Y880D02*
X946Y880D01*
X974Y880D02*
X991Y880D01*
X1026Y880D02*
X1044Y880D01*
X1080Y880D02*
X1095Y880D01*
X1099Y880D02*
X1105Y880D01*
X1122Y880D02*
X1129Y880D01*
X1182Y880D02*
X1209Y880D01*
X1234Y880D02*
X1247Y880D01*
X1257Y880D02*
X1261Y880D01*
X1296Y880D02*
X1311Y880D01*
X1338Y880D02*
X1353Y880D01*
X1363Y880D02*
X1367Y880D01*
X1396Y880D02*
X1410Y880D01*
X1415Y880D02*
X1421Y880D01*
X1447Y880D02*
X1464Y880D01*
X1492Y880D02*
X1496Y880D01*
X1520Y880D02*
X1524Y880D01*
X1558Y880D02*
X1564Y880D01*
X1605Y880D02*
X1619Y880D01*
X1625Y880D02*
X1631Y880D01*
X2240Y880D02*
X2246Y880D01*
X1Y879D02*
X5Y879D01*
X251Y879D02*
X258Y879D01*
X281Y879D02*
X287Y879D01*
X334Y879D02*
X340Y879D01*
X362Y879D02*
X369Y879D01*
X386Y879D02*
X392Y879D01*
X498Y879D02*
X519Y879D01*
X544Y879D02*
X550Y879D01*
X555Y879D02*
X572Y879D01*
X653Y879D02*
X670Y879D01*
X679Y879D02*
X684Y879D01*
X709Y879D02*
X730Y879D01*
X761Y879D02*
X789Y879D01*
X811Y879D02*
X838Y879D01*
X865Y879D02*
X889Y879D01*
X918Y879D02*
X947Y879D01*
X972Y879D02*
X993Y879D01*
X1024Y879D02*
X1045Y879D01*
X1079Y879D02*
X1096Y879D01*
X1099Y879D02*
X1105Y879D01*
X1122Y879D02*
X1129Y879D01*
X1181Y879D02*
X1210Y879D01*
X1233Y879D02*
X1249Y879D01*
X1256Y879D02*
X1262Y879D01*
X1295Y879D02*
X1312Y879D01*
X1337Y879D02*
X1354Y879D01*
X1362Y879D02*
X1368Y879D01*
X1394Y879D02*
X1411Y879D01*
X1415Y879D02*
X1421Y879D01*
X1445Y879D02*
X1466Y879D01*
X1492Y879D02*
X1497Y879D01*
X1519Y879D02*
X1525Y879D01*
X1558Y879D02*
X1564Y879D01*
X1603Y879D02*
X1620Y879D01*
X1625Y879D02*
X1631Y879D01*
X2240Y879D02*
X2246Y879D01*
X1Y878D02*
X5Y878D01*
X251Y878D02*
X258Y878D01*
X281Y878D02*
X287Y878D01*
X334Y878D02*
X340Y878D01*
X362Y878D02*
X369Y878D01*
X386Y878D02*
X392Y878D01*
X497Y878D02*
X521Y878D01*
X544Y878D02*
X550Y878D01*
X554Y878D02*
X573Y878D01*
X652Y878D02*
X671Y878D01*
X678Y878D02*
X684Y878D01*
X707Y878D02*
X731Y878D01*
X760Y878D02*
X789Y878D01*
X810Y878D02*
X839Y878D01*
X863Y878D02*
X890Y878D01*
X918Y878D02*
X947Y878D01*
X970Y878D02*
X994Y878D01*
X1023Y878D02*
X1047Y878D01*
X1078Y878D02*
X1097Y878D01*
X1099Y878D02*
X1105Y878D01*
X1122Y878D02*
X1129Y878D01*
X1181Y878D02*
X1210Y878D01*
X1231Y878D02*
X1250Y878D01*
X1256Y878D02*
X1262Y878D01*
X1295Y878D02*
X1312Y878D01*
X1335Y878D02*
X1355Y878D01*
X1362Y878D02*
X1368Y878D01*
X1393Y878D02*
X1412Y878D01*
X1414Y878D02*
X1421Y878D01*
X1444Y878D02*
X1468Y878D01*
X1491Y878D02*
X1497Y878D01*
X1519Y878D02*
X1525Y878D01*
X1558Y878D02*
X1564Y878D01*
X1602Y878D02*
X1622Y878D01*
X1625Y878D02*
X1631Y878D01*
X2240Y878D02*
X2246Y878D01*
X1Y877D02*
X5Y877D01*
X251Y877D02*
X258Y877D01*
X281Y877D02*
X287Y877D01*
X334Y877D02*
X340Y877D01*
X362Y877D02*
X369Y877D01*
X386Y877D02*
X392Y877D01*
X496Y877D02*
X522Y877D01*
X544Y877D02*
X550Y877D01*
X552Y877D02*
X575Y877D01*
X651Y877D02*
X673Y877D01*
X678Y877D02*
X684Y877D01*
X706Y877D02*
X732Y877D01*
X760Y877D02*
X790Y877D01*
X809Y877D02*
X840Y877D01*
X862Y877D02*
X890Y877D01*
X918Y877D02*
X947Y877D01*
X969Y877D02*
X995Y877D01*
X1022Y877D02*
X1048Y877D01*
X1077Y877D02*
X1105Y877D01*
X1122Y877D02*
X1129Y877D01*
X1181Y877D02*
X1210Y877D01*
X1230Y877D02*
X1252Y877D01*
X1256Y877D02*
X1262Y877D01*
X1295Y877D02*
X1312Y877D01*
X1335Y877D02*
X1356Y877D01*
X1362Y877D02*
X1368Y877D01*
X1392Y877D02*
X1421Y877D01*
X1443Y877D02*
X1469Y877D01*
X1491Y877D02*
X1498Y877D01*
X1519Y877D02*
X1525Y877D01*
X1558Y877D02*
X1564Y877D01*
X1600Y877D02*
X1623Y877D01*
X1625Y877D02*
X1631Y877D01*
X2240Y877D02*
X2246Y877D01*
X1Y876D02*
X5Y876D01*
X251Y876D02*
X258Y876D01*
X281Y876D02*
X287Y876D01*
X334Y876D02*
X340Y876D01*
X362Y876D02*
X369Y876D01*
X386Y876D02*
X392Y876D01*
X495Y876D02*
X523Y876D01*
X544Y876D02*
X576Y876D01*
X650Y876D02*
X674Y876D01*
X678Y876D02*
X684Y876D01*
X705Y876D02*
X733Y876D01*
X761Y876D02*
X789Y876D01*
X808Y876D02*
X840Y876D01*
X861Y876D02*
X889Y876D01*
X918Y876D02*
X947Y876D01*
X968Y876D02*
X996Y876D01*
X1021Y876D02*
X1049Y876D01*
X1075Y876D02*
X1105Y876D01*
X1122Y876D02*
X1129Y876D01*
X1181Y876D02*
X1210Y876D01*
X1230Y876D02*
X1253Y876D01*
X1256Y876D02*
X1262Y876D01*
X1295Y876D02*
X1312Y876D01*
X1334Y876D02*
X1357Y876D01*
X1362Y876D02*
X1368Y876D01*
X1391Y876D02*
X1421Y876D01*
X1442Y876D02*
X1470Y876D01*
X1491Y876D02*
X1498Y876D01*
X1519Y876D02*
X1525Y876D01*
X1558Y876D02*
X1564Y876D01*
X1599Y876D02*
X1631Y876D01*
X2240Y876D02*
X2246Y876D01*
X1Y875D02*
X5Y875D01*
X251Y875D02*
X258Y875D01*
X281Y875D02*
X287Y875D01*
X334Y875D02*
X340Y875D01*
X362Y875D02*
X369Y875D01*
X386Y875D02*
X392Y875D01*
X494Y875D02*
X524Y875D01*
X544Y875D02*
X577Y875D01*
X650Y875D02*
X675Y875D01*
X678Y875D02*
X684Y875D01*
X704Y875D02*
X734Y875D01*
X761Y875D02*
X789Y875D01*
X808Y875D02*
X841Y875D01*
X861Y875D02*
X889Y875D01*
X919Y875D02*
X946Y875D01*
X967Y875D02*
X997Y875D01*
X1020Y875D02*
X1050Y875D01*
X1074Y875D02*
X1085Y875D01*
X1090Y875D02*
X1105Y875D01*
X1122Y875D02*
X1129Y875D01*
X1182Y875D02*
X1209Y875D01*
X1229Y875D02*
X1262Y875D01*
X1295Y875D02*
X1311Y875D01*
X1334Y875D02*
X1359Y875D01*
X1362Y875D02*
X1368Y875D01*
X1390Y875D02*
X1400Y875D01*
X1406Y875D02*
X1421Y875D01*
X1441Y875D02*
X1471Y875D01*
X1491Y875D02*
X1498Y875D01*
X1519Y875D02*
X1525Y875D01*
X1558Y875D02*
X1564Y875D01*
X1599Y875D02*
X1631Y875D01*
X2240Y875D02*
X2246Y875D01*
X1Y874D02*
X5Y874D01*
X251Y874D02*
X258Y874D01*
X281Y874D02*
X287Y874D01*
X334Y874D02*
X340Y874D01*
X362Y874D02*
X369Y874D01*
X386Y874D02*
X392Y874D01*
X493Y874D02*
X524Y874D01*
X544Y874D02*
X577Y874D01*
X650Y874D02*
X676Y874D01*
X678Y874D02*
X684Y874D01*
X704Y874D02*
X735Y874D01*
X763Y874D02*
X787Y874D01*
X808Y874D02*
X841Y874D01*
X860Y874D02*
X887Y874D01*
X920Y874D02*
X945Y874D01*
X967Y874D02*
X998Y874D01*
X1019Y874D02*
X1050Y874D01*
X1073Y874D02*
X1083Y874D01*
X1092Y874D02*
X1105Y874D01*
X1122Y874D02*
X1129Y874D01*
X1138Y874D02*
X1151Y874D01*
X1183Y874D02*
X1208Y874D01*
X1229Y874D02*
X1262Y874D01*
X1295Y874D02*
X1309Y874D01*
X1333Y874D02*
X1360Y874D01*
X1362Y874D02*
X1368Y874D01*
X1389Y874D02*
X1399Y874D01*
X1407Y874D02*
X1421Y874D01*
X1440Y874D02*
X1471Y874D01*
X1491Y874D02*
X1498Y874D01*
X1519Y874D02*
X1525Y874D01*
X1558Y874D02*
X1564Y874D01*
X1598Y874D02*
X1631Y874D01*
X2240Y874D02*
X2246Y874D01*
X1Y873D02*
X5Y873D01*
X251Y873D02*
X258Y873D01*
X281Y873D02*
X287Y873D01*
X334Y873D02*
X340Y873D01*
X362Y873D02*
X369Y873D01*
X386Y873D02*
X392Y873D01*
X493Y873D02*
X502Y873D01*
X516Y873D02*
X525Y873D01*
X544Y873D02*
X558Y873D01*
X569Y873D02*
X578Y873D01*
X649Y873D02*
X657Y873D01*
X667Y873D02*
X684Y873D01*
X703Y873D02*
X712Y873D01*
X727Y873D02*
X735Y873D01*
X776Y873D02*
X782Y873D01*
X808Y873D02*
X814Y873D01*
X834Y873D02*
X841Y873D01*
X860Y873D02*
X867Y873D01*
X934Y873D02*
X940Y873D01*
X966Y873D02*
X975Y873D01*
X990Y873D02*
X998Y873D01*
X1019Y873D02*
X1028Y873D01*
X1042Y873D02*
X1051Y873D01*
X1073Y873D02*
X1082Y873D01*
X1093Y873D02*
X1105Y873D01*
X1122Y873D02*
X1129Y873D01*
X1138Y873D02*
X1153Y873D01*
X1197Y873D02*
X1203Y873D01*
X1229Y873D02*
X1236Y873D01*
X1245Y873D02*
X1262Y873D01*
X1295Y873D02*
X1301Y873D01*
X1333Y873D02*
X1340Y873D01*
X1351Y873D02*
X1368Y873D01*
X1388Y873D02*
X1398Y873D01*
X1408Y873D02*
X1421Y873D01*
X1440Y873D02*
X1448Y873D01*
X1463Y873D02*
X1472Y873D01*
X1491Y873D02*
X1498Y873D01*
X1519Y873D02*
X1525Y873D01*
X1558Y873D02*
X1564Y873D01*
X1597Y873D02*
X1606Y873D01*
X1617Y873D02*
X1631Y873D01*
X2240Y873D02*
X2246Y873D01*
X1Y872D02*
X5Y872D01*
X251Y872D02*
X258Y872D01*
X281Y872D02*
X288Y872D01*
X334Y872D02*
X340Y872D01*
X362Y872D02*
X369Y872D01*
X386Y872D02*
X393Y872D01*
X492Y872D02*
X500Y872D01*
X518Y872D02*
X526Y872D01*
X544Y872D02*
X557Y872D01*
X570Y872D02*
X578Y872D01*
X649Y872D02*
X656Y872D01*
X668Y872D02*
X684Y872D01*
X703Y872D02*
X711Y872D01*
X728Y872D02*
X736Y872D01*
X776Y872D02*
X782Y872D01*
X809Y872D02*
X813Y872D01*
X835Y872D02*
X841Y872D01*
X860Y872D02*
X866Y872D01*
X934Y872D02*
X940Y872D01*
X966Y872D02*
X973Y872D01*
X991Y872D02*
X999Y872D01*
X1018Y872D02*
X1026Y872D01*
X1044Y872D02*
X1052Y872D01*
X1072Y872D02*
X1081Y872D01*
X1094Y872D02*
X1105Y872D01*
X1122Y872D02*
X1129Y872D01*
X1137Y872D02*
X1154Y872D01*
X1197Y872D02*
X1203Y872D01*
X1228Y872D02*
X1235Y872D01*
X1247Y872D02*
X1262Y872D01*
X1295Y872D02*
X1301Y872D01*
X1333Y872D02*
X1340Y872D01*
X1352Y872D02*
X1368Y872D01*
X1387Y872D02*
X1397Y872D01*
X1409Y872D02*
X1421Y872D01*
X1439Y872D02*
X1447Y872D01*
X1464Y872D02*
X1472Y872D01*
X1491Y872D02*
X1498Y872D01*
X1519Y872D02*
X1525Y872D01*
X1558Y872D02*
X1564Y872D01*
X1597Y872D02*
X1605Y872D01*
X1618Y872D02*
X1631Y872D01*
X2240Y872D02*
X2246Y872D01*
X1Y871D02*
X5Y871D01*
X234Y871D02*
X258Y871D01*
X281Y871D02*
X312Y871D01*
X334Y871D02*
X340Y871D01*
X362Y871D02*
X369Y871D01*
X386Y871D02*
X417Y871D01*
X492Y871D02*
X499Y871D01*
X519Y871D02*
X526Y871D01*
X544Y871D02*
X556Y871D01*
X571Y871D02*
X579Y871D01*
X649Y871D02*
X656Y871D01*
X669Y871D02*
X684Y871D01*
X702Y871D02*
X710Y871D01*
X729Y871D02*
X736Y871D01*
X776Y871D02*
X782Y871D01*
X810Y871D02*
X812Y871D01*
X835Y871D02*
X841Y871D01*
X860Y871D02*
X866Y871D01*
X934Y871D02*
X940Y871D01*
X965Y871D02*
X973Y871D01*
X992Y871D02*
X999Y871D01*
X1018Y871D02*
X1025Y871D01*
X1045Y871D02*
X1052Y871D01*
X1071Y871D02*
X1080Y871D01*
X1095Y871D02*
X1105Y871D01*
X1122Y871D02*
X1129Y871D01*
X1137Y871D02*
X1155Y871D01*
X1197Y871D02*
X1203Y871D01*
X1228Y871D02*
X1235Y871D01*
X1249Y871D02*
X1262Y871D01*
X1295Y871D02*
X1301Y871D01*
X1333Y871D02*
X1339Y871D01*
X1353Y871D02*
X1368Y871D01*
X1387Y871D02*
X1395Y871D01*
X1410Y871D02*
X1421Y871D01*
X1439Y871D02*
X1446Y871D01*
X1465Y871D02*
X1473Y871D01*
X1491Y871D02*
X1498Y871D01*
X1519Y871D02*
X1525Y871D01*
X1558Y871D02*
X1564Y871D01*
X1596Y871D02*
X1604Y871D01*
X1619Y871D02*
X1631Y871D01*
X2240Y871D02*
X2246Y871D01*
X1Y870D02*
X5Y870D01*
X232Y870D02*
X258Y870D01*
X281Y870D02*
X314Y870D01*
X334Y870D02*
X340Y870D01*
X362Y870D02*
X369Y870D01*
X386Y870D02*
X419Y870D01*
X492Y870D02*
X498Y870D01*
X519Y870D02*
X526Y870D01*
X544Y870D02*
X555Y870D01*
X572Y870D02*
X579Y870D01*
X649Y870D02*
X655Y870D01*
X670Y870D02*
X684Y870D01*
X702Y870D02*
X709Y870D01*
X730Y870D02*
X737Y870D01*
X776Y870D02*
X782Y870D01*
X834Y870D02*
X841Y870D01*
X859Y870D02*
X866Y870D01*
X934Y870D02*
X940Y870D01*
X965Y870D02*
X972Y870D01*
X993Y870D02*
X1000Y870D01*
X1018Y870D02*
X1024Y870D01*
X1045Y870D02*
X1052Y870D01*
X1071Y870D02*
X1079Y870D01*
X1095Y870D02*
X1105Y870D01*
X1122Y870D02*
X1129Y870D01*
X1137Y870D02*
X1156Y870D01*
X1197Y870D02*
X1203Y870D01*
X1228Y870D02*
X1235Y870D01*
X1250Y870D02*
X1262Y870D01*
X1295Y870D02*
X1301Y870D01*
X1333Y870D02*
X1339Y870D01*
X1354Y870D02*
X1368Y870D01*
X1386Y870D02*
X1394Y870D01*
X1411Y870D02*
X1421Y870D01*
X1438Y870D02*
X1445Y870D01*
X1466Y870D02*
X1473Y870D01*
X1491Y870D02*
X1498Y870D01*
X1519Y870D02*
X1525Y870D01*
X1558Y870D02*
X1564Y870D01*
X1596Y870D02*
X1603Y870D01*
X1621Y870D02*
X1631Y870D01*
X2240Y870D02*
X2246Y870D01*
X1Y869D02*
X5Y869D01*
X231Y869D02*
X258Y869D01*
X282Y869D02*
X315Y869D01*
X334Y869D02*
X340Y869D01*
X362Y869D02*
X369Y869D01*
X387Y869D02*
X420Y869D01*
X491Y869D02*
X498Y869D01*
X520Y869D02*
X526Y869D01*
X544Y869D02*
X553Y869D01*
X573Y869D02*
X579Y869D01*
X649Y869D02*
X655Y869D01*
X672Y869D02*
X684Y869D01*
X702Y869D02*
X708Y869D01*
X730Y869D02*
X737Y869D01*
X776Y869D02*
X782Y869D01*
X832Y869D02*
X841Y869D01*
X859Y869D02*
X866Y869D01*
X934Y869D02*
X940Y869D01*
X965Y869D02*
X971Y869D01*
X993Y869D02*
X1000Y869D01*
X1017Y869D02*
X1024Y869D01*
X1046Y869D02*
X1052Y869D01*
X1070Y869D02*
X1078Y869D01*
X1096Y869D02*
X1105Y869D01*
X1122Y869D02*
X1129Y869D01*
X1137Y869D02*
X1156Y869D01*
X1197Y869D02*
X1203Y869D01*
X1228Y869D02*
X1235Y869D01*
X1252Y869D02*
X1262Y869D01*
X1295Y869D02*
X1301Y869D01*
X1333Y869D02*
X1339Y869D01*
X1355Y869D02*
X1368Y869D01*
X1386Y869D02*
X1393Y869D01*
X1412Y869D02*
X1421Y869D01*
X1438Y869D02*
X1445Y869D01*
X1467Y869D02*
X1473Y869D01*
X1491Y869D02*
X1498Y869D01*
X1519Y869D02*
X1525Y869D01*
X1558Y869D02*
X1564Y869D01*
X1596Y869D02*
X1602Y869D01*
X1622Y869D02*
X1631Y869D01*
X2240Y869D02*
X2246Y869D01*
X1Y868D02*
X5Y868D01*
X231Y868D02*
X258Y868D01*
X282Y868D02*
X315Y868D01*
X334Y868D02*
X340Y868D01*
X362Y868D02*
X369Y868D01*
X387Y868D02*
X420Y868D01*
X491Y868D02*
X498Y868D01*
X520Y868D02*
X527Y868D01*
X544Y868D02*
X552Y868D01*
X573Y868D02*
X579Y868D01*
X649Y868D02*
X655Y868D01*
X673Y868D02*
X684Y868D01*
X702Y868D02*
X708Y868D01*
X731Y868D02*
X737Y868D01*
X776Y868D02*
X782Y868D01*
X829Y868D02*
X840Y868D01*
X859Y868D02*
X866Y868D01*
X934Y868D02*
X940Y868D01*
X965Y868D02*
X971Y868D01*
X994Y868D02*
X1000Y868D01*
X1017Y868D02*
X1024Y868D01*
X1046Y868D02*
X1053Y868D01*
X1070Y868D02*
X1077Y868D01*
X1097Y868D02*
X1105Y868D01*
X1122Y868D02*
X1129Y868D01*
X1137Y868D02*
X1157Y868D01*
X1197Y868D02*
X1203Y868D01*
X1228Y868D02*
X1235Y868D01*
X1253Y868D02*
X1262Y868D01*
X1295Y868D02*
X1301Y868D01*
X1333Y868D02*
X1339Y868D01*
X1356Y868D02*
X1368Y868D01*
X1386Y868D02*
X1392Y868D01*
X1413Y868D02*
X1421Y868D01*
X1438Y868D02*
X1444Y868D01*
X1467Y868D02*
X1473Y868D01*
X1491Y868D02*
X1498Y868D01*
X1519Y868D02*
X1525Y868D01*
X1558Y868D02*
X1564Y868D01*
X1596Y868D02*
X1602Y868D01*
X1623Y868D02*
X1631Y868D01*
X2240Y868D02*
X2246Y868D01*
X1Y867D02*
X5Y867D01*
X230Y867D02*
X258Y867D01*
X283Y867D02*
X316Y867D01*
X334Y867D02*
X340Y867D01*
X362Y867D02*
X369Y867D01*
X388Y867D02*
X421Y867D01*
X491Y867D02*
X498Y867D01*
X520Y867D02*
X527Y867D01*
X544Y867D02*
X551Y867D01*
X573Y867D02*
X579Y867D01*
X650Y867D02*
X655Y867D01*
X674Y867D02*
X684Y867D01*
X702Y867D02*
X708Y867D01*
X731Y867D02*
X737Y867D01*
X776Y867D02*
X782Y867D01*
X827Y867D02*
X840Y867D01*
X859Y867D02*
X866Y867D01*
X934Y867D02*
X940Y867D01*
X965Y867D02*
X971Y867D01*
X994Y867D02*
X1000Y867D01*
X1017Y867D02*
X1024Y867D01*
X1046Y867D02*
X1053Y867D01*
X1070Y867D02*
X1076Y867D01*
X1098Y867D02*
X1105Y867D01*
X1122Y867D02*
X1129Y867D01*
X1137Y867D02*
X1143Y867D01*
X1150Y867D02*
X1157Y867D01*
X1197Y867D02*
X1203Y867D01*
X1228Y867D02*
X1235Y867D01*
X1255Y867D02*
X1262Y867D01*
X1295Y867D02*
X1301Y867D01*
X1333Y867D02*
X1339Y867D01*
X1358Y867D02*
X1368Y867D01*
X1386Y867D02*
X1392Y867D01*
X1414Y867D02*
X1421Y867D01*
X1438Y867D02*
X1444Y867D01*
X1467Y867D02*
X1473Y867D01*
X1491Y867D02*
X1498Y867D01*
X1519Y867D02*
X1525Y867D01*
X1558Y867D02*
X1564Y867D01*
X1596Y867D02*
X1602Y867D01*
X1624Y867D02*
X1631Y867D01*
X2240Y867D02*
X2246Y867D01*
X1Y866D02*
X5Y866D01*
X230Y866D02*
X258Y866D01*
X284Y866D02*
X316Y866D01*
X334Y866D02*
X340Y866D01*
X362Y866D02*
X369Y866D01*
X389Y866D02*
X421Y866D01*
X491Y866D02*
X498Y866D01*
X520Y866D02*
X527Y866D01*
X544Y866D02*
X551Y866D01*
X573Y866D02*
X579Y866D01*
X650Y866D02*
X654Y866D01*
X675Y866D02*
X684Y866D01*
X702Y866D02*
X708Y866D01*
X731Y866D02*
X737Y866D01*
X776Y866D02*
X782Y866D01*
X825Y866D02*
X839Y866D01*
X859Y866D02*
X866Y866D01*
X934Y866D02*
X940Y866D01*
X965Y866D02*
X971Y866D01*
X994Y866D02*
X1000Y866D01*
X1017Y866D02*
X1024Y866D01*
X1046Y866D02*
X1053Y866D01*
X1070Y866D02*
X1076Y866D01*
X1099Y866D02*
X1105Y866D01*
X1122Y866D02*
X1129Y866D01*
X1137Y866D02*
X1143Y866D01*
X1151Y866D02*
X1158Y866D01*
X1197Y866D02*
X1203Y866D01*
X1228Y866D02*
X1235Y866D01*
X1256Y866D02*
X1262Y866D01*
X1295Y866D02*
X1301Y866D01*
X1334Y866D02*
X1338Y866D01*
X1359Y866D02*
X1368Y866D01*
X1386Y866D02*
X1392Y866D01*
X1414Y866D02*
X1421Y866D01*
X1438Y866D02*
X1444Y866D01*
X1467Y866D02*
X1473Y866D01*
X1491Y866D02*
X1498Y866D01*
X1519Y866D02*
X1525Y866D01*
X1558Y866D02*
X1564Y866D01*
X1596Y866D02*
X1602Y866D01*
X1625Y866D02*
X1631Y866D01*
X2240Y866D02*
X2246Y866D01*
X1Y865D02*
X5Y865D01*
X230Y865D02*
X258Y865D01*
X286Y865D02*
X316Y865D01*
X334Y865D02*
X340Y865D01*
X362Y865D02*
X369Y865D01*
X391Y865D02*
X421Y865D01*
X491Y865D02*
X498Y865D01*
X520Y865D02*
X527Y865D01*
X544Y865D02*
X550Y865D01*
X573Y865D02*
X579Y865D01*
X676Y865D02*
X684Y865D01*
X702Y865D02*
X708Y865D01*
X731Y865D02*
X737Y865D01*
X776Y865D02*
X782Y865D01*
X822Y865D02*
X838Y865D01*
X859Y865D02*
X887Y865D01*
X934Y865D02*
X940Y865D01*
X965Y865D02*
X971Y865D01*
X994Y865D02*
X1000Y865D01*
X1017Y865D02*
X1024Y865D01*
X1046Y865D02*
X1053Y865D01*
X1070Y865D02*
X1076Y865D01*
X1099Y865D02*
X1105Y865D01*
X1122Y865D02*
X1129Y865D01*
X1137Y865D02*
X1143Y865D01*
X1151Y865D02*
X1158Y865D01*
X1197Y865D02*
X1203Y865D01*
X1228Y865D02*
X1235Y865D01*
X1256Y865D02*
X1262Y865D01*
X1295Y865D02*
X1301Y865D01*
X1360Y865D02*
X1368Y865D01*
X1386Y865D02*
X1392Y865D01*
X1414Y865D02*
X1421Y865D01*
X1438Y865D02*
X1444Y865D01*
X1467Y865D02*
X1473Y865D01*
X1491Y865D02*
X1498Y865D01*
X1519Y865D02*
X1525Y865D01*
X1558Y865D02*
X1564Y865D01*
X1596Y865D02*
X1602Y865D01*
X1625Y865D02*
X1631Y865D01*
X2240Y865D02*
X2246Y865D01*
X1Y864D02*
X5Y864D01*
X230Y864D02*
X236Y864D01*
X310Y864D02*
X316Y864D01*
X334Y864D02*
X340Y864D01*
X362Y864D02*
X369Y864D01*
X415Y864D02*
X421Y864D01*
X491Y864D02*
X527Y864D01*
X544Y864D02*
X550Y864D01*
X573Y864D02*
X579Y864D01*
X677Y864D02*
X684Y864D01*
X702Y864D02*
X737Y864D01*
X776Y864D02*
X782Y864D01*
X820Y864D02*
X837Y864D01*
X859Y864D02*
X889Y864D01*
X934Y864D02*
X940Y864D01*
X965Y864D02*
X1000Y864D01*
X1017Y864D02*
X1024Y864D01*
X1046Y864D02*
X1053Y864D01*
X1070Y864D02*
X1076Y864D01*
X1099Y864D02*
X1105Y864D01*
X1122Y864D02*
X1129Y864D01*
X1137Y864D02*
X1143Y864D01*
X1151Y864D02*
X1158Y864D01*
X1197Y864D02*
X1203Y864D01*
X1228Y864D02*
X1235Y864D01*
X1256Y864D02*
X1262Y864D01*
X1295Y864D02*
X1301Y864D01*
X1361Y864D02*
X1368Y864D01*
X1386Y864D02*
X1392Y864D01*
X1414Y864D02*
X1421Y864D01*
X1438Y864D02*
X1473Y864D01*
X1491Y864D02*
X1498Y864D01*
X1519Y864D02*
X1525Y864D01*
X1558Y864D02*
X1564Y864D01*
X1596Y864D02*
X1602Y864D01*
X1625Y864D02*
X1631Y864D01*
X2240Y864D02*
X2246Y864D01*
X1Y863D02*
X5Y863D01*
X230Y863D02*
X236Y863D01*
X310Y863D02*
X316Y863D01*
X334Y863D02*
X340Y863D01*
X362Y863D02*
X369Y863D01*
X415Y863D02*
X421Y863D01*
X491Y863D02*
X527Y863D01*
X544Y863D02*
X550Y863D01*
X573Y863D02*
X579Y863D01*
X678Y863D02*
X684Y863D01*
X702Y863D02*
X737Y863D01*
X776Y863D02*
X782Y863D01*
X818Y863D02*
X835Y863D01*
X859Y863D02*
X891Y863D01*
X934Y863D02*
X940Y863D01*
X965Y863D02*
X1000Y863D01*
X1017Y863D02*
X1024Y863D01*
X1046Y863D02*
X1053Y863D01*
X1070Y863D02*
X1076Y863D01*
X1099Y863D02*
X1105Y863D01*
X1122Y863D02*
X1129Y863D01*
X1137Y863D02*
X1143Y863D01*
X1151Y863D02*
X1158Y863D01*
X1197Y863D02*
X1203Y863D01*
X1228Y863D02*
X1235Y863D01*
X1256Y863D02*
X1262Y863D01*
X1295Y863D02*
X1301Y863D01*
X1362Y863D02*
X1368Y863D01*
X1386Y863D02*
X1392Y863D01*
X1414Y863D02*
X1421Y863D01*
X1438Y863D02*
X1473Y863D01*
X1491Y863D02*
X1498Y863D01*
X1519Y863D02*
X1525Y863D01*
X1558Y863D02*
X1564Y863D01*
X1596Y863D02*
X1602Y863D01*
X1625Y863D02*
X1631Y863D01*
X2240Y863D02*
X2246Y863D01*
X1Y862D02*
X5Y862D01*
X230Y862D02*
X236Y862D01*
X310Y862D02*
X316Y862D01*
X334Y862D02*
X340Y862D01*
X362Y862D02*
X369Y862D01*
X415Y862D02*
X421Y862D01*
X491Y862D02*
X527Y862D01*
X544Y862D02*
X550Y862D01*
X573Y862D02*
X579Y862D01*
X678Y862D02*
X684Y862D01*
X702Y862D02*
X737Y862D01*
X776Y862D02*
X782Y862D01*
X815Y862D02*
X833Y862D01*
X859Y862D02*
X892Y862D01*
X934Y862D02*
X940Y862D01*
X965Y862D02*
X1000Y862D01*
X1017Y862D02*
X1024Y862D01*
X1046Y862D02*
X1053Y862D01*
X1070Y862D02*
X1076Y862D01*
X1099Y862D02*
X1105Y862D01*
X1122Y862D02*
X1129Y862D01*
X1137Y862D02*
X1143Y862D01*
X1151Y862D02*
X1158Y862D01*
X1197Y862D02*
X1203Y862D01*
X1228Y862D02*
X1235Y862D01*
X1256Y862D02*
X1262Y862D01*
X1295Y862D02*
X1301Y862D01*
X1362Y862D02*
X1368Y862D01*
X1386Y862D02*
X1392Y862D01*
X1414Y862D02*
X1421Y862D01*
X1438Y862D02*
X1473Y862D01*
X1491Y862D02*
X1498Y862D01*
X1519Y862D02*
X1525Y862D01*
X1558Y862D02*
X1564Y862D01*
X1596Y862D02*
X1602Y862D01*
X1625Y862D02*
X1631Y862D01*
X2240Y862D02*
X2246Y862D01*
X1Y861D02*
X5Y861D01*
X230Y861D02*
X236Y861D01*
X310Y861D02*
X316Y861D01*
X334Y861D02*
X340Y861D01*
X362Y861D02*
X369Y861D01*
X415Y861D02*
X421Y861D01*
X491Y861D02*
X527Y861D01*
X544Y861D02*
X550Y861D01*
X573Y861D02*
X579Y861D01*
X678Y861D02*
X684Y861D01*
X702Y861D02*
X737Y861D01*
X776Y861D02*
X782Y861D01*
X813Y861D02*
X831Y861D01*
X859Y861D02*
X893Y861D01*
X934Y861D02*
X940Y861D01*
X965Y861D02*
X1000Y861D01*
X1017Y861D02*
X1024Y861D01*
X1046Y861D02*
X1053Y861D01*
X1070Y861D02*
X1076Y861D01*
X1099Y861D02*
X1105Y861D01*
X1122Y861D02*
X1129Y861D01*
X1137Y861D02*
X1143Y861D01*
X1151Y861D02*
X1158Y861D01*
X1197Y861D02*
X1203Y861D01*
X1228Y861D02*
X1235Y861D01*
X1256Y861D02*
X1262Y861D01*
X1295Y861D02*
X1301Y861D01*
X1362Y861D02*
X1368Y861D01*
X1386Y861D02*
X1392Y861D01*
X1414Y861D02*
X1421Y861D01*
X1438Y861D02*
X1473Y861D01*
X1491Y861D02*
X1498Y861D01*
X1519Y861D02*
X1525Y861D01*
X1558Y861D02*
X1564Y861D01*
X1596Y861D02*
X1602Y861D01*
X1625Y861D02*
X1631Y861D01*
X2240Y861D02*
X2246Y861D01*
X1Y860D02*
X5Y860D01*
X230Y860D02*
X236Y860D01*
X310Y860D02*
X316Y860D01*
X334Y860D02*
X340Y860D01*
X362Y860D02*
X369Y860D01*
X415Y860D02*
X421Y860D01*
X491Y860D02*
X527Y860D01*
X544Y860D02*
X550Y860D01*
X573Y860D02*
X579Y860D01*
X678Y860D02*
X684Y860D01*
X702Y860D02*
X737Y860D01*
X776Y860D02*
X782Y860D01*
X812Y860D02*
X828Y860D01*
X859Y860D02*
X893Y860D01*
X934Y860D02*
X940Y860D01*
X965Y860D02*
X1000Y860D01*
X1017Y860D02*
X1024Y860D01*
X1046Y860D02*
X1053Y860D01*
X1070Y860D02*
X1076Y860D01*
X1099Y860D02*
X1105Y860D01*
X1122Y860D02*
X1129Y860D01*
X1137Y860D02*
X1143Y860D01*
X1151Y860D02*
X1158Y860D01*
X1197Y860D02*
X1203Y860D01*
X1228Y860D02*
X1235Y860D01*
X1256Y860D02*
X1262Y860D01*
X1295Y860D02*
X1301Y860D01*
X1362Y860D02*
X1368Y860D01*
X1386Y860D02*
X1392Y860D01*
X1414Y860D02*
X1421Y860D01*
X1438Y860D02*
X1473Y860D01*
X1491Y860D02*
X1498Y860D01*
X1519Y860D02*
X1525Y860D01*
X1558Y860D02*
X1564Y860D01*
X1596Y860D02*
X1602Y860D01*
X1625Y860D02*
X1631Y860D01*
X2240Y860D02*
X2246Y860D01*
X1Y859D02*
X5Y859D01*
X230Y859D02*
X236Y859D01*
X310Y859D02*
X316Y859D01*
X334Y859D02*
X340Y859D01*
X362Y859D02*
X369Y859D01*
X415Y859D02*
X421Y859D01*
X492Y859D02*
X527Y859D01*
X544Y859D02*
X550Y859D01*
X573Y859D02*
X579Y859D01*
X678Y859D02*
X684Y859D01*
X702Y859D02*
X737Y859D01*
X776Y859D02*
X782Y859D01*
X810Y859D02*
X826Y859D01*
X859Y859D02*
X894Y859D01*
X934Y859D02*
X940Y859D01*
X965Y859D02*
X1000Y859D01*
X1017Y859D02*
X1024Y859D01*
X1046Y859D02*
X1053Y859D01*
X1070Y859D02*
X1076Y859D01*
X1099Y859D02*
X1105Y859D01*
X1122Y859D02*
X1129Y859D01*
X1137Y859D02*
X1143Y859D01*
X1151Y859D02*
X1158Y859D01*
X1197Y859D02*
X1203Y859D01*
X1228Y859D02*
X1235Y859D01*
X1256Y859D02*
X1262Y859D01*
X1295Y859D02*
X1301Y859D01*
X1362Y859D02*
X1368Y859D01*
X1386Y859D02*
X1392Y859D01*
X1414Y859D02*
X1421Y859D01*
X1438Y859D02*
X1473Y859D01*
X1491Y859D02*
X1498Y859D01*
X1519Y859D02*
X1525Y859D01*
X1558Y859D02*
X1564Y859D01*
X1596Y859D02*
X1602Y859D01*
X1625Y859D02*
X1631Y859D01*
X2240Y859D02*
X2246Y859D01*
X1Y858D02*
X5Y858D01*
X230Y858D02*
X236Y858D01*
X310Y858D02*
X316Y858D01*
X334Y858D02*
X340Y858D01*
X362Y858D02*
X369Y858D01*
X415Y858D02*
X421Y858D01*
X492Y858D02*
X527Y858D01*
X544Y858D02*
X550Y858D01*
X573Y858D02*
X579Y858D01*
X609Y858D02*
X619Y858D01*
X678Y858D02*
X684Y858D01*
X703Y858D02*
X737Y858D01*
X776Y858D02*
X782Y858D01*
X810Y858D02*
X824Y858D01*
X859Y858D02*
X868Y858D01*
X887Y858D02*
X894Y858D01*
X934Y858D02*
X940Y858D01*
X966Y858D02*
X1000Y858D01*
X1017Y858D02*
X1024Y858D01*
X1046Y858D02*
X1053Y858D01*
X1070Y858D02*
X1076Y858D01*
X1099Y858D02*
X1105Y858D01*
X1122Y858D02*
X1129Y858D01*
X1137Y858D02*
X1143Y858D01*
X1151Y858D02*
X1158Y858D01*
X1197Y858D02*
X1203Y858D01*
X1228Y858D02*
X1235Y858D01*
X1256Y858D02*
X1262Y858D01*
X1295Y858D02*
X1301Y858D01*
X1362Y858D02*
X1368Y858D01*
X1386Y858D02*
X1392Y858D01*
X1414Y858D02*
X1421Y858D01*
X1439Y858D02*
X1473Y858D01*
X1491Y858D02*
X1498Y858D01*
X1519Y858D02*
X1525Y858D01*
X1558Y858D02*
X1564Y858D01*
X1596Y858D02*
X1602Y858D01*
X1625Y858D02*
X1631Y858D01*
X2240Y858D02*
X2246Y858D01*
X1Y857D02*
X5Y857D01*
X230Y857D02*
X236Y857D01*
X310Y857D02*
X316Y857D01*
X334Y857D02*
X340Y857D01*
X362Y857D02*
X369Y857D01*
X415Y857D02*
X421Y857D01*
X494Y857D02*
X527Y857D01*
X544Y857D02*
X550Y857D01*
X573Y857D02*
X579Y857D01*
X608Y857D02*
X620Y857D01*
X678Y857D02*
X684Y857D01*
X704Y857D02*
X737Y857D01*
X776Y857D02*
X782Y857D01*
X809Y857D02*
X821Y857D01*
X859Y857D02*
X867Y857D01*
X888Y857D02*
X894Y857D01*
X934Y857D02*
X940Y857D01*
X967Y857D02*
X1000Y857D01*
X1017Y857D02*
X1024Y857D01*
X1046Y857D02*
X1053Y857D01*
X1070Y857D02*
X1076Y857D01*
X1099Y857D02*
X1105Y857D01*
X1122Y857D02*
X1129Y857D01*
X1137Y857D02*
X1143Y857D01*
X1151Y857D02*
X1158Y857D01*
X1197Y857D02*
X1203Y857D01*
X1228Y857D02*
X1235Y857D01*
X1256Y857D02*
X1262Y857D01*
X1295Y857D02*
X1301Y857D01*
X1362Y857D02*
X1368Y857D01*
X1386Y857D02*
X1392Y857D01*
X1414Y857D02*
X1421Y857D01*
X1440Y857D02*
X1473Y857D01*
X1491Y857D02*
X1498Y857D01*
X1519Y857D02*
X1525Y857D01*
X1558Y857D02*
X1564Y857D01*
X1596Y857D02*
X1602Y857D01*
X1625Y857D02*
X1631Y857D01*
X2240Y857D02*
X2246Y857D01*
X1Y856D02*
X5Y856D01*
X230Y856D02*
X236Y856D01*
X310Y856D02*
X316Y856D01*
X334Y856D02*
X340Y856D01*
X362Y856D02*
X369Y856D01*
X415Y856D02*
X421Y856D01*
X520Y856D02*
X527Y856D01*
X544Y856D02*
X550Y856D01*
X573Y856D02*
X579Y856D01*
X608Y856D02*
X621Y856D01*
X678Y856D02*
X684Y856D01*
X731Y856D02*
X737Y856D01*
X776Y856D02*
X782Y856D01*
X808Y856D02*
X819Y856D01*
X859Y856D02*
X866Y856D01*
X889Y856D02*
X895Y856D01*
X934Y856D02*
X940Y856D01*
X994Y856D02*
X1000Y856D01*
X1017Y856D02*
X1024Y856D01*
X1046Y856D02*
X1053Y856D01*
X1070Y856D02*
X1076Y856D01*
X1099Y856D02*
X1105Y856D01*
X1122Y856D02*
X1129Y856D01*
X1137Y856D02*
X1143Y856D01*
X1151Y856D02*
X1158Y856D01*
X1197Y856D02*
X1203Y856D01*
X1228Y856D02*
X1235Y856D01*
X1256Y856D02*
X1262Y856D01*
X1295Y856D02*
X1301Y856D01*
X1362Y856D02*
X1368Y856D01*
X1386Y856D02*
X1392Y856D01*
X1414Y856D02*
X1421Y856D01*
X1467Y856D02*
X1473Y856D01*
X1491Y856D02*
X1498Y856D01*
X1519Y856D02*
X1525Y856D01*
X1558Y856D02*
X1564Y856D01*
X1596Y856D02*
X1602Y856D01*
X1625Y856D02*
X1631Y856D01*
X2240Y856D02*
X2246Y856D01*
X1Y855D02*
X5Y855D01*
X230Y855D02*
X236Y855D01*
X310Y855D02*
X316Y855D01*
X334Y855D02*
X340Y855D01*
X362Y855D02*
X369Y855D01*
X415Y855D02*
X421Y855D01*
X520Y855D02*
X527Y855D01*
X544Y855D02*
X551Y855D01*
X573Y855D02*
X579Y855D01*
X607Y855D02*
X621Y855D01*
X678Y855D02*
X684Y855D01*
X731Y855D02*
X737Y855D01*
X776Y855D02*
X782Y855D01*
X808Y855D02*
X817Y855D01*
X859Y855D02*
X866Y855D01*
X889Y855D02*
X895Y855D01*
X934Y855D02*
X940Y855D01*
X994Y855D02*
X1000Y855D01*
X1017Y855D02*
X1024Y855D01*
X1046Y855D02*
X1053Y855D01*
X1070Y855D02*
X1076Y855D01*
X1099Y855D02*
X1105Y855D01*
X1122Y855D02*
X1129Y855D01*
X1137Y855D02*
X1143Y855D01*
X1151Y855D02*
X1158Y855D01*
X1197Y855D02*
X1203Y855D01*
X1228Y855D02*
X1235Y855D01*
X1256Y855D02*
X1262Y855D01*
X1295Y855D02*
X1301Y855D01*
X1362Y855D02*
X1368Y855D01*
X1386Y855D02*
X1392Y855D01*
X1414Y855D02*
X1421Y855D01*
X1467Y855D02*
X1473Y855D01*
X1491Y855D02*
X1498Y855D01*
X1519Y855D02*
X1525Y855D01*
X1558Y855D02*
X1564Y855D01*
X1596Y855D02*
X1602Y855D01*
X1625Y855D02*
X1631Y855D01*
X2240Y855D02*
X2246Y855D01*
X1Y854D02*
X5Y854D01*
X230Y854D02*
X236Y854D01*
X310Y854D02*
X316Y854D01*
X334Y854D02*
X340Y854D01*
X362Y854D02*
X369Y854D01*
X415Y854D02*
X421Y854D01*
X520Y854D02*
X527Y854D01*
X544Y854D02*
X551Y854D01*
X573Y854D02*
X579Y854D01*
X607Y854D02*
X621Y854D01*
X678Y854D02*
X684Y854D01*
X731Y854D02*
X737Y854D01*
X776Y854D02*
X782Y854D01*
X807Y854D02*
X815Y854D01*
X859Y854D02*
X866Y854D01*
X889Y854D02*
X895Y854D01*
X934Y854D02*
X940Y854D01*
X994Y854D02*
X1000Y854D01*
X1017Y854D02*
X1024Y854D01*
X1046Y854D02*
X1053Y854D01*
X1070Y854D02*
X1076Y854D01*
X1098Y854D02*
X1105Y854D01*
X1122Y854D02*
X1129Y854D01*
X1137Y854D02*
X1143Y854D01*
X1151Y854D02*
X1158Y854D01*
X1197Y854D02*
X1203Y854D01*
X1228Y854D02*
X1235Y854D01*
X1256Y854D02*
X1262Y854D01*
X1295Y854D02*
X1301Y854D01*
X1362Y854D02*
X1368Y854D01*
X1386Y854D02*
X1392Y854D01*
X1414Y854D02*
X1421Y854D01*
X1467Y854D02*
X1473Y854D01*
X1491Y854D02*
X1499Y854D01*
X1519Y854D02*
X1525Y854D01*
X1558Y854D02*
X1564Y854D01*
X1596Y854D02*
X1602Y854D01*
X1624Y854D02*
X1631Y854D01*
X2240Y854D02*
X2246Y854D01*
X1Y853D02*
X5Y853D01*
X230Y853D02*
X236Y853D01*
X310Y853D02*
X316Y853D01*
X334Y853D02*
X340Y853D01*
X362Y853D02*
X369Y853D01*
X415Y853D02*
X421Y853D01*
X520Y853D02*
X527Y853D01*
X544Y853D02*
X552Y853D01*
X573Y853D02*
X579Y853D01*
X607Y853D02*
X621Y853D01*
X678Y853D02*
X684Y853D01*
X731Y853D02*
X737Y853D01*
X757Y853D02*
X758Y853D01*
X776Y853D02*
X782Y853D01*
X807Y853D02*
X814Y853D01*
X859Y853D02*
X866Y853D01*
X889Y853D02*
X895Y853D01*
X914Y853D02*
X916Y853D01*
X934Y853D02*
X940Y853D01*
X994Y853D02*
X1000Y853D01*
X1017Y853D02*
X1024Y853D01*
X1046Y853D02*
X1053Y853D01*
X1070Y853D02*
X1077Y853D01*
X1098Y853D02*
X1105Y853D01*
X1122Y853D02*
X1129Y853D01*
X1137Y853D02*
X1143Y853D01*
X1151Y853D02*
X1158Y853D01*
X1177Y853D02*
X1179Y853D01*
X1197Y853D02*
X1203Y853D01*
X1228Y853D02*
X1235Y853D01*
X1256Y853D02*
X1262Y853D01*
X1295Y853D02*
X1301Y853D01*
X1362Y853D02*
X1368Y853D01*
X1386Y853D02*
X1392Y853D01*
X1413Y853D02*
X1421Y853D01*
X1467Y853D02*
X1473Y853D01*
X1491Y853D02*
X1500Y853D01*
X1519Y853D02*
X1525Y853D01*
X1558Y853D02*
X1564Y853D01*
X1596Y853D02*
X1602Y853D01*
X1623Y853D02*
X1631Y853D01*
X2240Y853D02*
X2246Y853D01*
X1Y852D02*
X5Y852D01*
X230Y852D02*
X236Y852D01*
X310Y852D02*
X316Y852D01*
X334Y852D02*
X340Y852D01*
X362Y852D02*
X369Y852D01*
X415Y852D02*
X421Y852D01*
X520Y852D02*
X526Y852D01*
X544Y852D02*
X553Y852D01*
X573Y852D02*
X579Y852D01*
X607Y852D02*
X621Y852D01*
X678Y852D02*
X684Y852D01*
X730Y852D02*
X737Y852D01*
X755Y852D02*
X760Y852D01*
X776Y852D02*
X782Y852D01*
X807Y852D02*
X814Y852D01*
X859Y852D02*
X866Y852D01*
X889Y852D02*
X895Y852D01*
X913Y852D02*
X917Y852D01*
X934Y852D02*
X940Y852D01*
X993Y852D02*
X1000Y852D01*
X1017Y852D02*
X1024Y852D01*
X1046Y852D02*
X1052Y852D01*
X1070Y852D02*
X1077Y852D01*
X1097Y852D02*
X1105Y852D01*
X1122Y852D02*
X1129Y852D01*
X1137Y852D02*
X1143Y852D01*
X1151Y852D02*
X1158Y852D01*
X1176Y852D02*
X1180Y852D01*
X1197Y852D02*
X1203Y852D01*
X1228Y852D02*
X1235Y852D01*
X1256Y852D02*
X1262Y852D01*
X1295Y852D02*
X1301Y852D01*
X1362Y852D02*
X1368Y852D01*
X1386Y852D02*
X1393Y852D01*
X1412Y852D02*
X1421Y852D01*
X1467Y852D02*
X1473Y852D01*
X1491Y852D02*
X1502Y852D01*
X1519Y852D02*
X1525Y852D01*
X1558Y852D02*
X1564Y852D01*
X1596Y852D02*
X1602Y852D01*
X1622Y852D02*
X1631Y852D01*
X2240Y852D02*
X2246Y852D01*
X1Y851D02*
X5Y851D01*
X230Y851D02*
X236Y851D01*
X310Y851D02*
X316Y851D01*
X334Y851D02*
X340Y851D01*
X362Y851D02*
X369Y851D01*
X415Y851D02*
X421Y851D01*
X519Y851D02*
X526Y851D01*
X544Y851D02*
X554Y851D01*
X572Y851D02*
X579Y851D01*
X607Y851D02*
X621Y851D01*
X678Y851D02*
X684Y851D01*
X730Y851D02*
X737Y851D01*
X755Y851D02*
X760Y851D01*
X776Y851D02*
X782Y851D01*
X807Y851D02*
X814Y851D01*
X859Y851D02*
X867Y851D01*
X889Y851D02*
X895Y851D01*
X913Y851D02*
X918Y851D01*
X934Y851D02*
X940Y851D01*
X993Y851D02*
X1000Y851D01*
X1018Y851D02*
X1024Y851D01*
X1045Y851D02*
X1052Y851D01*
X1071Y851D02*
X1079Y851D01*
X1096Y851D02*
X1105Y851D01*
X1122Y851D02*
X1129Y851D01*
X1137Y851D02*
X1143Y851D01*
X1151Y851D02*
X1158Y851D01*
X1176Y851D02*
X1181Y851D01*
X1197Y851D02*
X1203Y851D01*
X1228Y851D02*
X1235Y851D01*
X1256Y851D02*
X1262Y851D01*
X1295Y851D02*
X1301Y851D01*
X1362Y851D02*
X1368Y851D01*
X1386Y851D02*
X1394Y851D01*
X1411Y851D02*
X1421Y851D01*
X1466Y851D02*
X1473Y851D01*
X1491Y851D02*
X1503Y851D01*
X1519Y851D02*
X1525Y851D01*
X1558Y851D02*
X1564Y851D01*
X1596Y851D02*
X1603Y851D01*
X1621Y851D02*
X1631Y851D01*
X2240Y851D02*
X2246Y851D01*
X1Y850D02*
X5Y850D01*
X230Y850D02*
X236Y850D01*
X310Y850D02*
X316Y850D01*
X334Y850D02*
X340Y850D01*
X362Y850D02*
X369Y850D01*
X415Y850D02*
X421Y850D01*
X519Y850D02*
X526Y850D01*
X544Y850D02*
X556Y850D01*
X571Y850D02*
X579Y850D01*
X607Y850D02*
X621Y850D01*
X678Y850D02*
X684Y850D01*
X729Y850D02*
X737Y850D01*
X755Y850D02*
X761Y850D01*
X776Y850D02*
X782Y850D01*
X807Y850D02*
X814Y850D01*
X839Y850D02*
X840Y850D01*
X859Y850D02*
X868Y850D01*
X889Y850D02*
X895Y850D01*
X912Y850D02*
X919Y850D01*
X934Y850D02*
X940Y850D01*
X992Y850D02*
X1000Y850D01*
X1018Y850D02*
X1025Y850D01*
X1045Y850D02*
X1052Y850D01*
X1071Y850D02*
X1080Y850D01*
X1095Y850D02*
X1105Y850D01*
X1123Y850D02*
X1129Y850D01*
X1137Y850D02*
X1143Y850D01*
X1151Y850D02*
X1158Y850D01*
X1175Y850D02*
X1182Y850D01*
X1197Y850D02*
X1203Y850D01*
X1228Y850D02*
X1235Y850D01*
X1256Y850D02*
X1262Y850D01*
X1295Y850D02*
X1301Y850D01*
X1362Y850D02*
X1368Y850D01*
X1387Y850D02*
X1395Y850D01*
X1410Y850D02*
X1421Y850D01*
X1465Y850D02*
X1473Y850D01*
X1491Y850D02*
X1505Y850D01*
X1519Y850D02*
X1525Y850D01*
X1558Y850D02*
X1564Y850D01*
X1596Y850D02*
X1604Y850D01*
X1620Y850D02*
X1631Y850D01*
X2240Y850D02*
X2246Y850D01*
X1Y849D02*
X5Y849D01*
X230Y849D02*
X236Y849D01*
X258Y849D02*
X260Y849D01*
X310Y849D02*
X316Y849D01*
X334Y849D02*
X340Y849D01*
X362Y849D02*
X369Y849D01*
X415Y849D02*
X421Y849D01*
X518Y849D02*
X526Y849D01*
X544Y849D02*
X557Y849D01*
X570Y849D02*
X579Y849D01*
X607Y849D02*
X621Y849D01*
X678Y849D02*
X684Y849D01*
X728Y849D02*
X736Y849D01*
X754Y849D02*
X761Y849D01*
X776Y849D02*
X782Y849D01*
X807Y849D02*
X814Y849D01*
X837Y849D02*
X841Y849D01*
X859Y849D02*
X870Y849D01*
X888Y849D02*
X895Y849D01*
X912Y849D02*
X919Y849D01*
X933Y849D02*
X940Y849D01*
X991Y849D02*
X999Y849D01*
X1018Y849D02*
X1026Y849D01*
X1044Y849D02*
X1052Y849D01*
X1072Y849D02*
X1081Y849D01*
X1094Y849D02*
X1105Y849D01*
X1123Y849D02*
X1129Y849D01*
X1136Y849D02*
X1144Y849D01*
X1151Y849D02*
X1158Y849D01*
X1175Y849D02*
X1182Y849D01*
X1196Y849D02*
X1203Y849D01*
X1228Y849D02*
X1235Y849D01*
X1256Y849D02*
X1262Y849D01*
X1295Y849D02*
X1301Y849D01*
X1362Y849D02*
X1368Y849D01*
X1387Y849D02*
X1397Y849D01*
X1409Y849D02*
X1421Y849D01*
X1464Y849D02*
X1473Y849D01*
X1491Y849D02*
X1507Y849D01*
X1519Y849D02*
X1525Y849D01*
X1558Y849D02*
X1564Y849D01*
X1597Y849D02*
X1605Y849D01*
X1618Y849D02*
X1631Y849D01*
X2240Y849D02*
X2246Y849D01*
X1Y848D02*
X5Y848D01*
X230Y848D02*
X236Y848D01*
X256Y848D02*
X261Y848D01*
X310Y848D02*
X316Y848D01*
X334Y848D02*
X340Y848D01*
X362Y848D02*
X369Y848D01*
X415Y848D02*
X421Y848D01*
X516Y848D02*
X525Y848D01*
X544Y848D02*
X558Y848D01*
X569Y848D02*
X578Y848D01*
X608Y848D02*
X621Y848D01*
X678Y848D02*
X684Y848D01*
X727Y848D02*
X736Y848D01*
X755Y848D02*
X762Y848D01*
X775Y848D02*
X782Y848D01*
X807Y848D02*
X815Y848D01*
X835Y848D02*
X842Y848D01*
X859Y848D02*
X872Y848D01*
X888Y848D02*
X894Y848D01*
X912Y848D02*
X920Y848D01*
X933Y848D02*
X940Y848D01*
X990Y848D02*
X999Y848D01*
X1019Y848D02*
X1028Y848D01*
X1042Y848D02*
X1051Y848D01*
X1072Y848D02*
X1082Y848D01*
X1093Y848D02*
X1105Y848D01*
X1123Y848D02*
X1130Y848D01*
X1136Y848D02*
X1145Y848D01*
X1150Y848D02*
X1157Y848D01*
X1175Y848D02*
X1183Y848D01*
X1196Y848D02*
X1203Y848D01*
X1228Y848D02*
X1235Y848D01*
X1256Y848D02*
X1262Y848D01*
X1295Y848D02*
X1301Y848D01*
X1362Y848D02*
X1368Y848D01*
X1388Y848D02*
X1398Y848D01*
X1408Y848D02*
X1421Y848D01*
X1463Y848D02*
X1472Y848D01*
X1491Y848D02*
X1508Y848D01*
X1518Y848D02*
X1525Y848D01*
X1558Y848D02*
X1564Y848D01*
X1597Y848D02*
X1606Y848D01*
X1617Y848D02*
X1631Y848D01*
X2240Y848D02*
X2246Y848D01*
X1Y847D02*
X5Y847D01*
X230Y847D02*
X262Y847D01*
X284Y847D02*
X316Y847D01*
X334Y847D02*
X369Y847D01*
X389Y847D02*
X421Y847D01*
X494Y847D02*
X525Y847D01*
X544Y847D02*
X577Y847D01*
X608Y847D02*
X620Y847D01*
X678Y847D02*
X684Y847D01*
X705Y847D02*
X735Y847D01*
X755Y847D02*
X782Y847D01*
X808Y847D02*
X842Y847D01*
X859Y847D02*
X873Y847D01*
X886Y847D02*
X894Y847D01*
X913Y847D02*
X940Y847D01*
X968Y847D02*
X998Y847D01*
X1019Y847D02*
X1051Y847D01*
X1073Y847D02*
X1083Y847D01*
X1092Y847D02*
X1105Y847D01*
X1123Y847D02*
X1157Y847D01*
X1176Y847D02*
X1202Y847D01*
X1228Y847D02*
X1235Y847D01*
X1256Y847D02*
X1262Y847D01*
X1287Y847D02*
X1309Y847D01*
X1362Y847D02*
X1368Y847D01*
X1389Y847D02*
X1399Y847D01*
X1407Y847D02*
X1421Y847D01*
X1441Y847D02*
X1472Y847D01*
X1491Y847D02*
X1525Y847D01*
X1550Y847D02*
X1572Y847D01*
X1598Y847D02*
X1631Y847D01*
X2240Y847D02*
X2246Y847D01*
X1Y846D02*
X5Y846D01*
X230Y846D02*
X262Y846D01*
X282Y846D02*
X316Y846D01*
X334Y846D02*
X369Y846D01*
X387Y846D02*
X421Y846D01*
X492Y846D02*
X524Y846D01*
X544Y846D02*
X577Y846D01*
X609Y846D02*
X619Y846D01*
X678Y846D02*
X684Y846D01*
X703Y846D02*
X734Y846D01*
X755Y846D02*
X781Y846D01*
X808Y846D02*
X842Y846D01*
X859Y846D02*
X894Y846D01*
X913Y846D02*
X939Y846D01*
X966Y846D02*
X997Y846D01*
X1020Y846D02*
X1050Y846D01*
X1074Y846D02*
X1085Y846D01*
X1090Y846D02*
X1105Y846D01*
X1124Y846D02*
X1157Y846D01*
X1176Y846D02*
X1202Y846D01*
X1228Y846D02*
X1235Y846D01*
X1256Y846D02*
X1262Y846D01*
X1285Y846D02*
X1311Y846D01*
X1362Y846D02*
X1368Y846D01*
X1390Y846D02*
X1400Y846D01*
X1406Y846D02*
X1421Y846D01*
X1439Y846D02*
X1471Y846D01*
X1491Y846D02*
X1525Y846D01*
X1548Y846D02*
X1574Y846D01*
X1599Y846D02*
X1631Y846D01*
X2240Y846D02*
X2246Y846D01*
X1Y845D02*
X5Y845D01*
X230Y845D02*
X262Y845D01*
X281Y845D02*
X316Y845D01*
X334Y845D02*
X368Y845D01*
X387Y845D02*
X421Y845D01*
X492Y845D02*
X523Y845D01*
X544Y845D02*
X576Y845D01*
X678Y845D02*
X684Y845D01*
X702Y845D02*
X733Y845D01*
X756Y845D02*
X781Y845D01*
X809Y845D02*
X842Y845D01*
X859Y845D02*
X893Y845D01*
X914Y845D02*
X939Y845D01*
X965Y845D02*
X996Y845D01*
X1021Y845D02*
X1049Y845D01*
X1075Y845D02*
X1105Y845D01*
X1124Y845D02*
X1156Y845D01*
X1177Y845D02*
X1202Y845D01*
X1228Y845D02*
X1235Y845D01*
X1256Y845D02*
X1262Y845D01*
X1284Y845D02*
X1312Y845D01*
X1362Y845D02*
X1368Y845D01*
X1391Y845D02*
X1421Y845D01*
X1438Y845D02*
X1470Y845D01*
X1491Y845D02*
X1498Y845D01*
X1500Y845D02*
X1524Y845D01*
X1547Y845D02*
X1575Y845D01*
X1599Y845D02*
X1631Y845D01*
X2240Y845D02*
X2246Y845D01*
X1Y844D02*
X5Y844D01*
X231Y844D02*
X262Y844D01*
X281Y844D02*
X316Y844D01*
X334Y844D02*
X368Y844D01*
X386Y844D02*
X421Y844D01*
X491Y844D02*
X522Y844D01*
X544Y844D02*
X550Y844D01*
X552Y844D02*
X575Y844D01*
X678Y844D02*
X684Y844D01*
X702Y844D02*
X732Y844D01*
X757Y844D02*
X780Y844D01*
X809Y844D02*
X841Y844D01*
X859Y844D02*
X892Y844D01*
X915Y844D02*
X938Y844D01*
X965Y844D02*
X995Y844D01*
X1022Y844D02*
X1048Y844D01*
X1076Y844D02*
X1105Y844D01*
X1125Y844D02*
X1155Y844D01*
X1178Y844D02*
X1201Y844D01*
X1228Y844D02*
X1235Y844D01*
X1256Y844D02*
X1262Y844D01*
X1284Y844D02*
X1312Y844D01*
X1362Y844D02*
X1368Y844D01*
X1392Y844D02*
X1421Y844D01*
X1438Y844D02*
X1469Y844D01*
X1491Y844D02*
X1498Y844D01*
X1502Y844D02*
X1523Y844D01*
X1547Y844D02*
X1575Y844D01*
X1601Y844D02*
X1623Y844D01*
X1625Y844D02*
X1631Y844D01*
X2240Y844D02*
X2246Y844D01*
X1Y843D02*
X5Y843D01*
X231Y843D02*
X261Y843D01*
X281Y843D02*
X316Y843D01*
X335Y843D02*
X368Y843D01*
X386Y843D02*
X421Y843D01*
X491Y843D02*
X521Y843D01*
X544Y843D02*
X550Y843D01*
X553Y843D02*
X574Y843D01*
X678Y843D02*
X684Y843D01*
X702Y843D02*
X731Y843D01*
X758Y843D02*
X779Y843D01*
X810Y843D02*
X840Y843D01*
X860Y843D02*
X892Y843D01*
X916Y843D02*
X937Y843D01*
X965Y843D02*
X994Y843D01*
X1023Y843D02*
X1047Y843D01*
X1078Y843D02*
X1097Y843D01*
X1099Y843D02*
X1105Y843D01*
X1126Y843D02*
X1154Y843D01*
X1179Y843D02*
X1200Y843D01*
X1228Y843D02*
X1234Y843D01*
X1256Y843D02*
X1262Y843D01*
X1284Y843D02*
X1312Y843D01*
X1362Y843D02*
X1368Y843D01*
X1393Y843D02*
X1421Y843D01*
X1438Y843D02*
X1468Y843D01*
X1491Y843D02*
X1497Y843D01*
X1503Y843D02*
X1522Y843D01*
X1547Y843D02*
X1575Y843D01*
X1602Y843D02*
X1622Y843D01*
X1625Y843D02*
X1631Y843D01*
X2240Y843D02*
X2246Y843D01*
X1Y842D02*
X5Y842D01*
X232Y842D02*
X259Y842D01*
X281Y842D02*
X316Y842D01*
X336Y842D02*
X367Y842D01*
X387Y842D02*
X421Y842D01*
X492Y842D02*
X519Y842D01*
X544Y842D02*
X550Y842D01*
X555Y842D02*
X572Y842D01*
X678Y842D02*
X684Y842D01*
X702Y842D02*
X730Y842D01*
X759Y842D02*
X778Y842D01*
X812Y842D02*
X839Y842D01*
X860Y842D02*
X865Y842D01*
X869Y842D02*
X890Y842D01*
X917Y842D02*
X936Y842D01*
X965Y842D02*
X993Y842D01*
X1024Y842D02*
X1045Y842D01*
X1079Y842D02*
X1096Y842D01*
X1099Y842D02*
X1105Y842D01*
X1127Y842D02*
X1139Y842D01*
X1141Y842D02*
X1153Y842D01*
X1180Y842D02*
X1199Y842D01*
X1229Y842D02*
X1234Y842D01*
X1257Y842D02*
X1262Y842D01*
X1284Y842D02*
X1312Y842D01*
X1362Y842D02*
X1368Y842D01*
X1394Y842D02*
X1412Y842D01*
X1414Y842D02*
X1421Y842D01*
X1438Y842D02*
X1466Y842D01*
X1492Y842D02*
X1497Y842D01*
X1505Y842D02*
X1521Y842D01*
X1547Y842D02*
X1575Y842D01*
X1603Y842D02*
X1621Y842D01*
X1625Y842D02*
X1631Y842D01*
X2240Y842D02*
X2246Y842D01*
X1Y841D02*
X5Y841D01*
X233Y841D02*
X257Y841D01*
X282Y841D02*
X316Y841D01*
X337Y841D02*
X365Y841D01*
X387Y841D02*
X421Y841D01*
X492Y841D02*
X518Y841D01*
X545Y841D02*
X549Y841D01*
X556Y841D02*
X571Y841D01*
X679Y841D02*
X683Y841D01*
X703Y841D02*
X728Y841D01*
X761Y841D02*
X776Y841D01*
X813Y841D02*
X836Y841D01*
X861Y841D02*
X865Y841D01*
X871Y841D02*
X889Y841D01*
X918Y841D02*
X934Y841D01*
X966Y841D02*
X991Y841D01*
X1026Y841D02*
X1044Y841D01*
X1080Y841D02*
X1095Y841D01*
X1099Y841D02*
X1105Y841D01*
X1129Y841D02*
X1137Y841D01*
X1143Y841D02*
X1152Y841D01*
X1181Y841D02*
X1197Y841D01*
X1229Y841D02*
X1234Y841D01*
X1257Y841D02*
X1261Y841D01*
X1285Y841D02*
X1311Y841D01*
X1363Y841D02*
X1367Y841D01*
X1395Y841D02*
X1411Y841D01*
X1414Y841D02*
X1421Y841D01*
X1439Y841D02*
X1465Y841D01*
X1492Y841D02*
X1497Y841D01*
X1507Y841D02*
X1520Y841D01*
X1548Y841D02*
X1574Y841D01*
X1605Y841D02*
X1619Y841D01*
X1626Y841D02*
X1630Y841D01*
X2240Y841D02*
X2246Y841D01*
X1Y840D02*
X5Y840D01*
X236Y840D02*
X255Y840D01*
X284Y840D02*
X316Y840D01*
X339Y840D02*
X363Y840D01*
X389Y840D02*
X421Y840D01*
X494Y840D02*
X515Y840D01*
X547Y840D02*
X548Y840D01*
X560Y840D02*
X567Y840D01*
X681Y840D02*
X682Y840D01*
X704Y840D02*
X725Y840D01*
X763Y840D02*
X774Y840D01*
X816Y840D02*
X832Y840D01*
X862Y840D02*
X863Y840D01*
X873Y840D02*
X886Y840D01*
X921Y840D02*
X931Y840D01*
X967Y840D02*
X988Y840D01*
X1029Y840D02*
X1041Y840D01*
X1081Y840D02*
X1094Y840D01*
X1099Y840D02*
X1105Y840D01*
X1131Y840D02*
X1134Y840D01*
X1146Y840D02*
X1149Y840D01*
X1184Y840D02*
X1194Y840D01*
X1231Y840D02*
X1232Y840D01*
X1259Y840D02*
X1260Y840D01*
X1287Y840D02*
X1309Y840D01*
X1365Y840D02*
X1366Y840D01*
X1397Y840D02*
X1409Y840D01*
X1414Y840D02*
X1421Y840D01*
X1441Y840D02*
X1461Y840D01*
X1494Y840D02*
X1495Y840D01*
X1509Y840D02*
X1517Y840D01*
X1550Y840D02*
X1572Y840D01*
X1607Y840D02*
X1616Y840D01*
X1628Y840D02*
X1628Y840D01*
X2240Y840D02*
X2246Y840D01*
X1Y839D02*
X5Y839D01*
X1083Y839D02*
X1091Y839D01*
X1099Y839D02*
X1105Y839D01*
X1399Y839D02*
X1407Y839D01*
X1414Y839D02*
X1421Y839D01*
X2240Y839D02*
X2246Y839D01*
X1Y838D02*
X5Y838D01*
X1099Y838D02*
X1105Y838D01*
X1414Y838D02*
X1421Y838D01*
X2240Y838D02*
X2246Y838D01*
X1Y837D02*
X5Y837D01*
X1099Y837D02*
X1105Y837D01*
X1414Y837D02*
X1421Y837D01*
X2240Y837D02*
X2246Y837D01*
X1Y836D02*
X5Y836D01*
X1099Y836D02*
X1105Y836D01*
X1414Y836D02*
X1421Y836D01*
X2240Y836D02*
X2246Y836D01*
X1Y835D02*
X5Y835D01*
X1099Y835D02*
X1105Y835D01*
X1414Y835D02*
X1421Y835D01*
X2240Y835D02*
X2246Y835D01*
X1Y834D02*
X5Y834D01*
X1099Y834D02*
X1105Y834D01*
X1414Y834D02*
X1421Y834D01*
X2240Y834D02*
X2246Y834D01*
X1Y833D02*
X5Y833D01*
X1099Y833D02*
X1105Y833D01*
X1414Y833D02*
X1421Y833D01*
X2240Y833D02*
X2246Y833D01*
X1Y832D02*
X5Y832D01*
X1099Y832D02*
X1105Y832D01*
X1414Y832D02*
X1421Y832D01*
X2240Y832D02*
X2246Y832D01*
X1Y831D02*
X5Y831D01*
X1099Y831D02*
X1105Y831D01*
X1414Y831D02*
X1421Y831D01*
X2240Y831D02*
X2246Y831D01*
X1Y830D02*
X5Y830D01*
X1099Y830D02*
X1105Y830D01*
X1414Y830D02*
X1421Y830D01*
X2240Y830D02*
X2246Y830D01*
X1Y829D02*
X5Y829D01*
X1099Y829D02*
X1105Y829D01*
X1414Y829D02*
X1421Y829D01*
X2240Y829D02*
X2246Y829D01*
X1Y828D02*
X5Y828D01*
X1099Y828D02*
X1105Y828D01*
X1414Y828D02*
X1421Y828D01*
X2240Y828D02*
X2246Y828D01*
X1Y827D02*
X5Y827D01*
X1099Y827D02*
X1105Y827D01*
X1415Y827D02*
X1421Y827D01*
X2240Y827D02*
X2246Y827D01*
X1Y826D02*
X5Y826D01*
X1100Y826D02*
X1105Y826D01*
X1415Y826D02*
X1420Y826D01*
X2240Y826D02*
X2246Y826D01*
X1Y825D02*
X5Y825D01*
X1101Y825D02*
X1104Y825D01*
X1416Y825D02*
X1419Y825D01*
X2240Y825D02*
X2246Y825D01*
X1Y824D02*
X5Y824D01*
X2240Y824D02*
X2246Y824D01*
X1Y823D02*
X5Y823D01*
X2240Y823D02*
X2246Y823D01*
X1Y822D02*
X5Y822D01*
X2240Y822D02*
X2246Y822D01*
X1Y821D02*
X5Y821D01*
X2240Y821D02*
X2246Y821D01*
X1Y820D02*
X5Y820D01*
X2240Y820D02*
X2246Y820D01*
X1Y819D02*
X5Y819D01*
X2240Y819D02*
X2246Y819D01*
X1Y818D02*
X5Y818D01*
X2240Y818D02*
X2246Y818D01*
X1Y817D02*
X5Y817D01*
X2240Y817D02*
X2246Y817D01*
X1Y816D02*
X5Y816D01*
X2240Y816D02*
X2246Y816D01*
X1Y815D02*
X5Y815D01*
X2240Y815D02*
X2246Y815D01*
X1Y814D02*
X5Y814D01*
X2240Y814D02*
X2246Y814D01*
X1Y813D02*
X5Y813D01*
X2240Y813D02*
X2246Y813D01*
X1Y812D02*
X5Y812D01*
X2240Y812D02*
X2246Y812D01*
X1Y811D02*
X5Y811D01*
X2240Y811D02*
X2246Y811D01*
X1Y810D02*
X5Y810D01*
X2240Y810D02*
X2246Y810D01*
X1Y809D02*
X5Y809D01*
X2240Y809D02*
X2246Y809D01*
X1Y808D02*
X5Y808D01*
X2240Y808D02*
X2246Y808D01*
X1Y807D02*
X5Y807D01*
X2240Y807D02*
X2246Y807D01*
X1Y806D02*
X5Y806D01*
X2240Y806D02*
X2246Y806D01*
X1Y805D02*
X5Y805D01*
X2240Y805D02*
X2246Y805D01*
X1Y804D02*
X5Y804D01*
X2240Y804D02*
X2246Y804D01*
X1Y803D02*
X5Y803D01*
X2240Y803D02*
X2246Y803D01*
X1Y802D02*
X5Y802D01*
X2240Y802D02*
X2246Y802D01*
X1Y801D02*
X5Y801D01*
X2240Y801D02*
X2246Y801D01*
X1Y800D02*
X5Y800D01*
X2240Y800D02*
X2246Y800D01*
X1Y799D02*
X5Y799D01*
X2240Y799D02*
X2246Y799D01*
X1Y798D02*
X5Y798D01*
X2240Y798D02*
X2246Y798D01*
X1Y797D02*
X5Y797D01*
X2240Y797D02*
X2246Y797D01*
X1Y796D02*
X5Y796D01*
X2240Y796D02*
X2246Y796D01*
X1Y795D02*
X5Y795D01*
X2240Y795D02*
X2246Y795D01*
X1Y794D02*
X5Y794D01*
X2240Y794D02*
X2246Y794D01*
X1Y793D02*
X5Y793D01*
X2240Y793D02*
X2246Y793D01*
X1Y792D02*
X5Y792D01*
X2240Y792D02*
X2246Y792D01*
X1Y791D02*
X5Y791D01*
X2240Y791D02*
X2246Y791D01*
X1Y790D02*
X5Y790D01*
X2240Y790D02*
X2246Y790D01*
X1Y789D02*
X5Y789D01*
X2240Y789D02*
X2246Y789D01*
X1Y788D02*
X5Y788D01*
X2240Y788D02*
X2246Y788D01*
X1Y787D02*
X5Y787D01*
X2240Y787D02*
X2246Y787D01*
X1Y786D02*
X5Y786D01*
X2240Y786D02*
X2246Y786D01*
X1Y785D02*
X5Y785D01*
X2240Y785D02*
X2246Y785D01*
X1Y784D02*
X5Y784D01*
X2240Y784D02*
X2246Y784D01*
X1Y783D02*
X5Y783D01*
X2240Y783D02*
X2246Y783D01*
X1Y782D02*
X5Y782D01*
X2240Y782D02*
X2246Y782D01*
X1Y781D02*
X5Y781D01*
X2240Y781D02*
X2246Y781D01*
X1Y780D02*
X5Y780D01*
X2240Y780D02*
X2246Y780D01*
X1Y779D02*
X5Y779D01*
X2240Y779D02*
X2246Y779D01*
X1Y778D02*
X5Y778D01*
X2240Y778D02*
X2246Y778D01*
X1Y777D02*
X5Y777D01*
X2240Y777D02*
X2246Y777D01*
X1Y776D02*
X5Y776D01*
X2240Y776D02*
X2246Y776D01*
X1Y775D02*
X5Y775D01*
X2240Y775D02*
X2246Y775D01*
X1Y774D02*
X5Y774D01*
X2240Y774D02*
X2246Y774D01*
X1Y773D02*
X5Y773D01*
X2240Y773D02*
X2246Y773D01*
X1Y772D02*
X5Y772D01*
X2240Y772D02*
X2246Y772D01*
X1Y771D02*
X5Y771D01*
X2240Y771D02*
X2246Y771D01*
X1Y770D02*
X5Y770D01*
X2240Y770D02*
X2246Y770D01*
X1Y769D02*
X5Y769D01*
X2240Y769D02*
X2246Y769D01*
X1Y768D02*
X5Y768D01*
X2240Y768D02*
X2246Y768D01*
X1Y767D02*
X5Y767D01*
X2240Y767D02*
X2246Y767D01*
X1Y766D02*
X5Y766D01*
X2240Y766D02*
X2246Y766D01*
X1Y765D02*
X5Y765D01*
X2240Y765D02*
X2246Y765D01*
X1Y764D02*
X5Y764D01*
X2240Y764D02*
X2246Y764D01*
X1Y763D02*
X5Y763D01*
X2240Y763D02*
X2246Y763D01*
X1Y762D02*
X5Y762D01*
X2240Y762D02*
X2246Y762D01*
X1Y761D02*
X5Y761D01*
X2240Y761D02*
X2246Y761D01*
X1Y760D02*
X5Y760D01*
X2240Y760D02*
X2246Y760D01*
X1Y759D02*
X5Y759D01*
X2240Y759D02*
X2246Y759D01*
X1Y758D02*
X5Y758D01*
X2240Y758D02*
X2246Y758D01*
X1Y757D02*
X5Y757D01*
X2240Y757D02*
X2246Y757D01*
X1Y756D02*
X5Y756D01*
X2240Y756D02*
X2246Y756D01*
X1Y755D02*
X5Y755D01*
X2240Y755D02*
X2246Y755D01*
X1Y754D02*
X5Y754D01*
X2240Y754D02*
X2246Y754D01*
X1Y753D02*
X5Y753D01*
X2240Y753D02*
X2246Y753D01*
X1Y752D02*
X5Y752D01*
X2240Y752D02*
X2246Y752D01*
X1Y751D02*
X5Y751D01*
X2240Y751D02*
X2246Y751D01*
X1Y750D02*
X5Y750D01*
X2240Y750D02*
X2246Y750D01*
X1Y749D02*
X5Y749D01*
X2240Y749D02*
X2246Y749D01*
X1Y748D02*
X5Y748D01*
X2240Y748D02*
X2246Y748D01*
X1Y747D02*
X5Y747D01*
X2240Y747D02*
X2246Y747D01*
X1Y746D02*
X5Y746D01*
X2240Y746D02*
X2246Y746D01*
X1Y745D02*
X5Y745D01*
X2240Y745D02*
X2246Y745D01*
X1Y744D02*
X5Y744D01*
X2240Y744D02*
X2246Y744D01*
X1Y743D02*
X5Y743D01*
X2240Y743D02*
X2246Y743D01*
X1Y742D02*
X5Y742D01*
X2240Y742D02*
X2246Y742D01*
X1Y741D02*
X5Y741D01*
X2240Y741D02*
X2246Y741D01*
X1Y740D02*
X5Y740D01*
X2240Y740D02*
X2246Y740D01*
X1Y739D02*
X5Y739D01*
X2240Y739D02*
X2246Y739D01*
X1Y738D02*
X5Y738D01*
X2240Y738D02*
X2246Y738D01*
X1Y737D02*
X5Y737D01*
X2240Y737D02*
X2246Y737D01*
X1Y736D02*
X5Y736D01*
X2240Y736D02*
X2246Y736D01*
X1Y735D02*
X5Y735D01*
X2240Y735D02*
X2246Y735D01*
X1Y734D02*
X5Y734D01*
X2240Y734D02*
X2246Y734D01*
X1Y733D02*
X5Y733D01*
X2240Y733D02*
X2246Y733D01*
X1Y732D02*
X5Y732D01*
X2240Y732D02*
X2246Y732D01*
X1Y731D02*
X5Y731D01*
X2240Y731D02*
X2246Y731D01*
X1Y730D02*
X5Y730D01*
X2240Y730D02*
X2246Y730D01*
X1Y729D02*
X5Y729D01*
X2240Y729D02*
X2246Y729D01*
X1Y728D02*
X5Y728D01*
X2240Y728D02*
X2246Y728D01*
X1Y727D02*
X5Y727D01*
X2240Y727D02*
X2246Y727D01*
X1Y726D02*
X5Y726D01*
X2240Y726D02*
X2246Y726D01*
X1Y725D02*
X5Y725D01*
X2240Y725D02*
X2246Y725D01*
X1Y724D02*
X5Y724D01*
X2240Y724D02*
X2246Y724D01*
X1Y723D02*
X5Y723D01*
X2240Y723D02*
X2246Y723D01*
X1Y722D02*
X5Y722D01*
X2240Y722D02*
X2246Y722D01*
X1Y721D02*
X5Y721D01*
X2240Y721D02*
X2246Y721D01*
X1Y720D02*
X5Y720D01*
X2240Y720D02*
X2246Y720D01*
X1Y719D02*
X5Y719D01*
X2240Y719D02*
X2246Y719D01*
X1Y718D02*
X5Y718D01*
X2240Y718D02*
X2246Y718D01*
X1Y717D02*
X5Y717D01*
X2240Y717D02*
X2246Y717D01*
X1Y716D02*
X5Y716D01*
X2240Y716D02*
X2246Y716D01*
X1Y715D02*
X5Y715D01*
X2240Y715D02*
X2246Y715D01*
X1Y714D02*
X5Y714D01*
X2240Y714D02*
X2246Y714D01*
X1Y713D02*
X5Y713D01*
X2240Y713D02*
X2246Y713D01*
X1Y712D02*
X5Y712D01*
X2240Y712D02*
X2246Y712D01*
X1Y711D02*
X5Y711D01*
X2240Y711D02*
X2246Y711D01*
X1Y710D02*
X5Y710D01*
X2240Y710D02*
X2246Y710D01*
X1Y709D02*
X5Y709D01*
X2240Y709D02*
X2246Y709D01*
X1Y708D02*
X5Y708D01*
X2240Y708D02*
X2246Y708D01*
X1Y707D02*
X5Y707D01*
X2240Y707D02*
X2246Y707D01*
X1Y706D02*
X5Y706D01*
X2240Y706D02*
X2246Y706D01*
X1Y705D02*
X5Y705D01*
X2240Y705D02*
X2246Y705D01*
X1Y704D02*
X5Y704D01*
X2240Y704D02*
X2246Y704D01*
X1Y703D02*
X5Y703D01*
X2240Y703D02*
X2246Y703D01*
X1Y702D02*
X5Y702D01*
X2240Y702D02*
X2246Y702D01*
X1Y701D02*
X5Y701D01*
X2240Y701D02*
X2246Y701D01*
X1Y700D02*
X5Y700D01*
X2240Y700D02*
X2246Y700D01*
X1Y699D02*
X5Y699D01*
X2240Y699D02*
X2246Y699D01*
X1Y698D02*
X5Y698D01*
X2240Y698D02*
X2246Y698D01*
X1Y697D02*
X5Y697D01*
X2240Y697D02*
X2246Y697D01*
X1Y696D02*
X5Y696D01*
X2240Y696D02*
X2246Y696D01*
X1Y695D02*
X5Y695D01*
X2240Y695D02*
X2246Y695D01*
X1Y694D02*
X5Y694D01*
X2240Y694D02*
X2246Y694D01*
X1Y693D02*
X5Y693D01*
X2240Y693D02*
X2246Y693D01*
X1Y692D02*
X5Y692D01*
X2240Y692D02*
X2246Y692D01*
X1Y691D02*
X5Y691D01*
X2240Y691D02*
X2246Y691D01*
X1Y690D02*
X5Y690D01*
X2240Y690D02*
X2246Y690D01*
X1Y689D02*
X5Y689D01*
X2240Y689D02*
X2246Y689D01*
X1Y688D02*
X5Y688D01*
X2240Y688D02*
X2246Y688D01*
X1Y687D02*
X5Y687D01*
X2240Y687D02*
X2246Y687D01*
X1Y686D02*
X5Y686D01*
X2240Y686D02*
X2246Y686D01*
X1Y685D02*
X5Y685D01*
X2240Y685D02*
X2246Y685D01*
X1Y684D02*
X5Y684D01*
X2240Y684D02*
X2246Y684D01*
X1Y683D02*
X5Y683D01*
X2240Y683D02*
X2246Y683D01*
X1Y682D02*
X5Y682D01*
X2240Y682D02*
X2246Y682D01*
X1Y681D02*
X5Y681D01*
X2240Y681D02*
X2246Y681D01*
X1Y680D02*
X5Y680D01*
X2240Y680D02*
X2246Y680D01*
X1Y679D02*
X5Y679D01*
X2240Y679D02*
X2246Y679D01*
X1Y678D02*
X5Y678D01*
X2240Y678D02*
X2246Y678D01*
X1Y677D02*
X5Y677D01*
X2240Y677D02*
X2246Y677D01*
X1Y676D02*
X5Y676D01*
X2240Y676D02*
X2246Y676D01*
X1Y675D02*
X5Y675D01*
X2240Y675D02*
X2246Y675D01*
X1Y674D02*
X5Y674D01*
X2240Y674D02*
X2246Y674D01*
X1Y673D02*
X5Y673D01*
X2240Y673D02*
X2246Y673D01*
X1Y672D02*
X5Y672D01*
X2240Y672D02*
X2246Y672D01*
X1Y671D02*
X5Y671D01*
X2240Y671D02*
X2246Y671D01*
X1Y670D02*
X5Y670D01*
X2240Y670D02*
X2246Y670D01*
X1Y669D02*
X5Y669D01*
X2240Y669D02*
X2246Y669D01*
X1Y668D02*
X5Y668D01*
X2240Y668D02*
X2246Y668D01*
X1Y667D02*
X5Y667D01*
X2240Y667D02*
X2246Y667D01*
X1Y666D02*
X5Y666D01*
X2240Y666D02*
X2246Y666D01*
X1Y665D02*
X5Y665D01*
X2240Y665D02*
X2246Y665D01*
X1Y664D02*
X5Y664D01*
X2240Y664D02*
X2246Y664D01*
X1Y663D02*
X5Y663D01*
X2240Y663D02*
X2246Y663D01*
X1Y662D02*
X5Y662D01*
X2240Y662D02*
X2246Y662D01*
X1Y661D02*
X5Y661D01*
X2240Y661D02*
X2246Y661D01*
X1Y660D02*
X5Y660D01*
X2240Y660D02*
X2246Y660D01*
X1Y659D02*
X5Y659D01*
X2240Y659D02*
X2246Y659D01*
X1Y658D02*
X5Y658D01*
X2240Y658D02*
X2246Y658D01*
X1Y657D02*
X5Y657D01*
X2240Y657D02*
X2246Y657D01*
X1Y656D02*
X5Y656D01*
X2240Y656D02*
X2246Y656D01*
X1Y655D02*
X5Y655D01*
X2240Y655D02*
X2246Y655D01*
X1Y654D02*
X5Y654D01*
X2240Y654D02*
X2246Y654D01*
X1Y653D02*
X5Y653D01*
X2240Y653D02*
X2246Y653D01*
X1Y652D02*
X5Y652D01*
X2240Y652D02*
X2246Y652D01*
X1Y651D02*
X5Y651D01*
X2240Y651D02*
X2246Y651D01*
X1Y650D02*
X5Y650D01*
X2240Y650D02*
X2246Y650D01*
X1Y649D02*
X5Y649D01*
X2240Y649D02*
X2246Y649D01*
X1Y648D02*
X5Y648D01*
X2240Y648D02*
X2246Y648D01*
X1Y647D02*
X5Y647D01*
X2240Y647D02*
X2246Y647D01*
X1Y646D02*
X5Y646D01*
X2240Y646D02*
X2246Y646D01*
X1Y645D02*
X5Y645D01*
X2240Y645D02*
X2246Y645D01*
X1Y644D02*
X5Y644D01*
X2240Y644D02*
X2246Y644D01*
X1Y643D02*
X5Y643D01*
X2240Y643D02*
X2246Y643D01*
X1Y642D02*
X5Y642D01*
X2240Y642D02*
X2246Y642D01*
X1Y641D02*
X5Y641D01*
X2240Y641D02*
X2246Y641D01*
X1Y640D02*
X5Y640D01*
X2240Y640D02*
X2246Y640D01*
X1Y639D02*
X5Y639D01*
X2240Y639D02*
X2246Y639D01*
X1Y638D02*
X5Y638D01*
X2240Y638D02*
X2246Y638D01*
X1Y637D02*
X5Y637D01*
X2240Y637D02*
X2246Y637D01*
X1Y636D02*
X5Y636D01*
X2240Y636D02*
X2246Y636D01*
X1Y635D02*
X5Y635D01*
X2240Y635D02*
X2246Y635D01*
X1Y634D02*
X5Y634D01*
X2240Y634D02*
X2246Y634D01*
X1Y633D02*
X5Y633D01*
X2240Y633D02*
X2246Y633D01*
X1Y632D02*
X5Y632D01*
X2240Y632D02*
X2246Y632D01*
X1Y631D02*
X5Y631D01*
X2240Y631D02*
X2246Y631D01*
X1Y630D02*
X5Y630D01*
X2240Y630D02*
X2246Y630D01*
X1Y629D02*
X5Y629D01*
X2240Y629D02*
X2246Y629D01*
X1Y628D02*
X5Y628D01*
X2240Y628D02*
X2246Y628D01*
X1Y627D02*
X5Y627D01*
X2240Y627D02*
X2246Y627D01*
X1Y626D02*
X5Y626D01*
X2240Y626D02*
X2246Y626D01*
X1Y625D02*
X5Y625D01*
X2240Y625D02*
X2246Y625D01*
X1Y624D02*
X5Y624D01*
X2240Y624D02*
X2246Y624D01*
X1Y623D02*
X5Y623D01*
X2240Y623D02*
X2246Y623D01*
X1Y622D02*
X5Y622D01*
X2240Y622D02*
X2246Y622D01*
X1Y621D02*
X5Y621D01*
X2240Y621D02*
X2246Y621D01*
X1Y620D02*
X5Y620D01*
X2240Y620D02*
X2246Y620D01*
X1Y619D02*
X5Y619D01*
X2240Y619D02*
X2246Y619D01*
X1Y618D02*
X5Y618D01*
X2240Y618D02*
X2246Y618D01*
X1Y617D02*
X5Y617D01*
X2240Y617D02*
X2246Y617D01*
X1Y616D02*
X5Y616D01*
X2240Y616D02*
X2246Y616D01*
X1Y615D02*
X5Y615D01*
X2240Y615D02*
X2246Y615D01*
X1Y614D02*
X5Y614D01*
X2240Y614D02*
X2246Y614D01*
X1Y613D02*
X5Y613D01*
X2240Y613D02*
X2246Y613D01*
X1Y612D02*
X5Y612D01*
X2240Y612D02*
X2246Y612D01*
X1Y611D02*
X5Y611D01*
X2240Y611D02*
X2246Y611D01*
X1Y610D02*
X5Y610D01*
X2240Y610D02*
X2246Y610D01*
X1Y609D02*
X5Y609D01*
X2240Y609D02*
X2246Y609D01*
X1Y608D02*
X5Y608D01*
X2240Y608D02*
X2246Y608D01*
X1Y607D02*
X5Y607D01*
X2240Y607D02*
X2246Y607D01*
X1Y606D02*
X5Y606D01*
X2240Y606D02*
X2246Y606D01*
X1Y605D02*
X5Y605D01*
X2240Y605D02*
X2246Y605D01*
X1Y604D02*
X5Y604D01*
X2240Y604D02*
X2246Y604D01*
X1Y603D02*
X5Y603D01*
X2240Y603D02*
X2246Y603D01*
X1Y602D02*
X5Y602D01*
X2240Y602D02*
X2246Y602D01*
X1Y601D02*
X5Y601D01*
X2240Y601D02*
X2246Y601D01*
X1Y600D02*
X5Y600D01*
X2240Y600D02*
X2246Y600D01*
X1Y599D02*
X5Y599D01*
X2240Y599D02*
X2246Y599D01*
X1Y598D02*
X5Y598D01*
X2240Y598D02*
X2246Y598D01*
X1Y597D02*
X5Y597D01*
X2240Y597D02*
X2246Y597D01*
X1Y596D02*
X5Y596D01*
X2240Y596D02*
X2246Y596D01*
X1Y595D02*
X5Y595D01*
X2240Y595D02*
X2246Y595D01*
X1Y594D02*
X5Y594D01*
X2240Y594D02*
X2246Y594D01*
X1Y593D02*
X5Y593D01*
X2240Y593D02*
X2246Y593D01*
X1Y592D02*
X5Y592D01*
X2240Y592D02*
X2246Y592D01*
X1Y591D02*
X5Y591D01*
X2240Y591D02*
X2246Y591D01*
X1Y590D02*
X5Y590D01*
X2240Y590D02*
X2246Y590D01*
X1Y589D02*
X5Y589D01*
X2240Y589D02*
X2246Y589D01*
X1Y588D02*
X5Y588D01*
X2240Y588D02*
X2246Y588D01*
X1Y587D02*
X5Y587D01*
X2240Y587D02*
X2246Y587D01*
X1Y586D02*
X5Y586D01*
X2240Y586D02*
X2246Y586D01*
X1Y585D02*
X5Y585D01*
X2240Y585D02*
X2246Y585D01*
X1Y584D02*
X5Y584D01*
X2240Y584D02*
X2246Y584D01*
X1Y583D02*
X5Y583D01*
X2240Y583D02*
X2246Y583D01*
X1Y582D02*
X5Y582D01*
X2240Y582D02*
X2246Y582D01*
X1Y581D02*
X5Y581D01*
X2240Y581D02*
X2246Y581D01*
X1Y580D02*
X5Y580D01*
X2240Y580D02*
X2246Y580D01*
X1Y579D02*
X5Y579D01*
X2240Y579D02*
X2246Y579D01*
X1Y578D02*
X5Y578D01*
X2240Y578D02*
X2246Y578D01*
X1Y577D02*
X5Y577D01*
X2240Y577D02*
X2246Y577D01*
X1Y576D02*
X5Y576D01*
X2240Y576D02*
X2246Y576D01*
X1Y575D02*
X5Y575D01*
X2240Y575D02*
X2246Y575D01*
X1Y574D02*
X5Y574D01*
X2240Y574D02*
X2246Y574D01*
X1Y573D02*
X5Y573D01*
X2240Y573D02*
X2246Y573D01*
X1Y572D02*
X5Y572D01*
X2240Y572D02*
X2246Y572D01*
X1Y571D02*
X5Y571D01*
X2240Y571D02*
X2246Y571D01*
X1Y570D02*
X5Y570D01*
X2240Y570D02*
X2246Y570D01*
X1Y569D02*
X5Y569D01*
X2240Y569D02*
X2246Y569D01*
X1Y568D02*
X5Y568D01*
X2240Y568D02*
X2246Y568D01*
X1Y567D02*
X5Y567D01*
X2240Y567D02*
X2246Y567D01*
X1Y566D02*
X5Y566D01*
X2240Y566D02*
X2246Y566D01*
X1Y565D02*
X5Y565D01*
X2240Y565D02*
X2246Y565D01*
X1Y564D02*
X5Y564D01*
X2240Y564D02*
X2246Y564D01*
X1Y563D02*
X5Y563D01*
X2240Y563D02*
X2246Y563D01*
X1Y562D02*
X5Y562D01*
X2240Y562D02*
X2246Y562D01*
X1Y561D02*
X5Y561D01*
X2240Y561D02*
X2246Y561D01*
X1Y560D02*
X5Y560D01*
X2240Y560D02*
X2246Y560D01*
X1Y559D02*
X5Y559D01*
X2240Y559D02*
X2246Y559D01*
X1Y558D02*
X5Y558D01*
X2240Y558D02*
X2246Y558D01*
X1Y557D02*
X5Y557D01*
X2240Y557D02*
X2246Y557D01*
X1Y556D02*
X5Y556D01*
X2240Y556D02*
X2246Y556D01*
X1Y555D02*
X5Y555D01*
X2240Y555D02*
X2246Y555D01*
X1Y554D02*
X5Y554D01*
X2240Y554D02*
X2246Y554D01*
X1Y553D02*
X5Y553D01*
X2240Y553D02*
X2246Y553D01*
X1Y552D02*
X5Y552D01*
X2240Y552D02*
X2246Y552D01*
X1Y551D02*
X5Y551D01*
X2240Y551D02*
X2246Y551D01*
X1Y550D02*
X5Y550D01*
X2240Y550D02*
X2246Y550D01*
X1Y549D02*
X5Y549D01*
X2240Y549D02*
X2246Y549D01*
X1Y548D02*
X5Y548D01*
X2240Y548D02*
X2246Y548D01*
X1Y547D02*
X5Y547D01*
X2240Y547D02*
X2246Y547D01*
X1Y546D02*
X5Y546D01*
X2240Y546D02*
X2246Y546D01*
X1Y545D02*
X5Y545D01*
X2240Y545D02*
X2246Y545D01*
X1Y544D02*
X5Y544D01*
X2240Y544D02*
X2246Y544D01*
X1Y543D02*
X5Y543D01*
X2240Y543D02*
X2246Y543D01*
X1Y542D02*
X5Y542D01*
X2240Y542D02*
X2246Y542D01*
X1Y541D02*
X5Y541D01*
X2240Y541D02*
X2246Y541D01*
X1Y540D02*
X5Y540D01*
X2240Y540D02*
X2246Y540D01*
X1Y539D02*
X5Y539D01*
X2240Y539D02*
X2246Y539D01*
X1Y538D02*
X5Y538D01*
X2240Y538D02*
X2246Y538D01*
X1Y537D02*
X5Y537D01*
X2240Y537D02*
X2246Y537D01*
X1Y536D02*
X5Y536D01*
X2240Y536D02*
X2246Y536D01*
X1Y535D02*
X5Y535D01*
X2240Y535D02*
X2246Y535D01*
X1Y534D02*
X5Y534D01*
X2240Y534D02*
X2246Y534D01*
X1Y533D02*
X5Y533D01*
X2240Y533D02*
X2246Y533D01*
X1Y532D02*
X5Y532D01*
X2240Y532D02*
X2246Y532D01*
X1Y531D02*
X5Y531D01*
X2240Y531D02*
X2246Y531D01*
X1Y530D02*
X5Y530D01*
X2240Y530D02*
X2246Y530D01*
X1Y529D02*
X5Y529D01*
X2240Y529D02*
X2246Y529D01*
X1Y528D02*
X5Y528D01*
X2240Y528D02*
X2246Y528D01*
X1Y527D02*
X5Y527D01*
X2240Y527D02*
X2246Y527D01*
X1Y526D02*
X5Y526D01*
X2240Y526D02*
X2246Y526D01*
X1Y525D02*
X5Y525D01*
X2240Y525D02*
X2246Y525D01*
X1Y524D02*
X5Y524D01*
X2240Y524D02*
X2246Y524D01*
X1Y523D02*
X5Y523D01*
X2240Y523D02*
X2246Y523D01*
X1Y522D02*
X5Y522D01*
X2240Y522D02*
X2246Y522D01*
X1Y521D02*
X5Y521D01*
X2240Y521D02*
X2246Y521D01*
X1Y520D02*
X5Y520D01*
X2240Y520D02*
X2246Y520D01*
X1Y519D02*
X5Y519D01*
X2240Y519D02*
X2246Y519D01*
X1Y518D02*
X5Y518D01*
X2240Y518D02*
X2246Y518D01*
X1Y517D02*
X5Y517D01*
X2240Y517D02*
X2246Y517D01*
X1Y516D02*
X5Y516D01*
X2240Y516D02*
X2246Y516D01*
X1Y515D02*
X5Y515D01*
X2240Y515D02*
X2246Y515D01*
X1Y514D02*
X5Y514D01*
X2240Y514D02*
X2246Y514D01*
X1Y513D02*
X5Y513D01*
X2240Y513D02*
X2246Y513D01*
X1Y512D02*
X5Y512D01*
X2240Y512D02*
X2246Y512D01*
X1Y511D02*
X5Y511D01*
X2240Y511D02*
X2246Y511D01*
X1Y510D02*
X5Y510D01*
X2240Y510D02*
X2246Y510D01*
X1Y509D02*
X5Y509D01*
X2240Y509D02*
X2246Y509D01*
X1Y508D02*
X5Y508D01*
X2240Y508D02*
X2246Y508D01*
X1Y507D02*
X5Y507D01*
X2240Y507D02*
X2246Y507D01*
X1Y506D02*
X5Y506D01*
X2240Y506D02*
X2246Y506D01*
X1Y505D02*
X5Y505D01*
X2240Y505D02*
X2246Y505D01*
X1Y504D02*
X5Y504D01*
X2240Y504D02*
X2246Y504D01*
X1Y503D02*
X5Y503D01*
X2240Y503D02*
X2246Y503D01*
X1Y502D02*
X5Y502D01*
X2240Y502D02*
X2246Y502D01*
X1Y501D02*
X5Y501D01*
X2240Y501D02*
X2246Y501D01*
X1Y500D02*
X5Y500D01*
X2240Y500D02*
X2246Y500D01*
X1Y499D02*
X5Y499D01*
X2240Y499D02*
X2246Y499D01*
X1Y498D02*
X5Y498D01*
X2240Y498D02*
X2246Y498D01*
X1Y497D02*
X5Y497D01*
X2240Y497D02*
X2246Y497D01*
X1Y496D02*
X5Y496D01*
X2240Y496D02*
X2246Y496D01*
X1Y495D02*
X5Y495D01*
X2240Y495D02*
X2246Y495D01*
X1Y494D02*
X5Y494D01*
X2240Y494D02*
X2246Y494D01*
X1Y493D02*
X5Y493D01*
X2240Y493D02*
X2246Y493D01*
X1Y492D02*
X5Y492D01*
X2240Y492D02*
X2246Y492D01*
X1Y491D02*
X5Y491D01*
X2240Y491D02*
X2246Y491D01*
X1Y490D02*
X5Y490D01*
X2240Y490D02*
X2246Y490D01*
X1Y489D02*
X5Y489D01*
X2240Y489D02*
X2246Y489D01*
X1Y488D02*
X5Y488D01*
X2240Y488D02*
X2246Y488D01*
X1Y487D02*
X5Y487D01*
X2240Y487D02*
X2246Y487D01*
X1Y486D02*
X5Y486D01*
X2240Y486D02*
X2246Y486D01*
X1Y485D02*
X5Y485D01*
X2240Y485D02*
X2246Y485D01*
X1Y484D02*
X5Y484D01*
X2240Y484D02*
X2246Y484D01*
X1Y483D02*
X5Y483D01*
X2240Y483D02*
X2246Y483D01*
X1Y482D02*
X5Y482D01*
X2240Y482D02*
X2246Y482D01*
X1Y481D02*
X5Y481D01*
X2240Y481D02*
X2246Y481D01*
X1Y480D02*
X5Y480D01*
X2240Y480D02*
X2246Y480D01*
X1Y479D02*
X5Y479D01*
X2240Y479D02*
X2246Y479D01*
X1Y478D02*
X5Y478D01*
X2240Y478D02*
X2246Y478D01*
X1Y477D02*
X5Y477D01*
X2240Y477D02*
X2246Y477D01*
X1Y476D02*
X5Y476D01*
X2240Y476D02*
X2246Y476D01*
X1Y475D02*
X5Y475D01*
X2240Y475D02*
X2246Y475D01*
X1Y474D02*
X5Y474D01*
X2240Y474D02*
X2246Y474D01*
X1Y473D02*
X5Y473D01*
X2240Y473D02*
X2246Y473D01*
X1Y472D02*
X5Y472D01*
X2240Y472D02*
X2246Y472D01*
X1Y471D02*
X5Y471D01*
X2240Y471D02*
X2246Y471D01*
X1Y470D02*
X5Y470D01*
X2240Y470D02*
X2246Y470D01*
X1Y469D02*
X5Y469D01*
X2240Y469D02*
X2246Y469D01*
X1Y468D02*
X5Y468D01*
X2240Y468D02*
X2246Y468D01*
X1Y467D02*
X5Y467D01*
X2240Y467D02*
X2246Y467D01*
X1Y466D02*
X5Y466D01*
X2240Y466D02*
X2246Y466D01*
X1Y465D02*
X5Y465D01*
X2240Y465D02*
X2246Y465D01*
X1Y464D02*
X5Y464D01*
X2240Y464D02*
X2246Y464D01*
X1Y463D02*
X5Y463D01*
X2240Y463D02*
X2246Y463D01*
X1Y462D02*
X5Y462D01*
X2240Y462D02*
X2246Y462D01*
X1Y461D02*
X5Y461D01*
X2240Y461D02*
X2246Y461D01*
X1Y460D02*
X5Y460D01*
X2240Y460D02*
X2246Y460D01*
X1Y459D02*
X5Y459D01*
X2240Y459D02*
X2246Y459D01*
X1Y458D02*
X5Y458D01*
X2240Y458D02*
X2246Y458D01*
X1Y457D02*
X5Y457D01*
X2240Y457D02*
X2246Y457D01*
X1Y456D02*
X5Y456D01*
X2240Y456D02*
X2246Y456D01*
X1Y455D02*
X5Y455D01*
X2240Y455D02*
X2246Y455D01*
X1Y454D02*
X5Y454D01*
X2240Y454D02*
X2246Y454D01*
X1Y453D02*
X5Y453D01*
X2240Y453D02*
X2246Y453D01*
X1Y452D02*
X5Y452D01*
X2240Y452D02*
X2246Y452D01*
X1Y451D02*
X5Y451D01*
X2240Y451D02*
X2246Y451D01*
X1Y450D02*
X5Y450D01*
X2240Y450D02*
X2246Y450D01*
X1Y449D02*
X5Y449D01*
X2240Y449D02*
X2246Y449D01*
X1Y448D02*
X5Y448D01*
X2240Y448D02*
X2246Y448D01*
X1Y447D02*
X5Y447D01*
X2240Y447D02*
X2246Y447D01*
X1Y446D02*
X5Y446D01*
X2240Y446D02*
X2246Y446D01*
X1Y445D02*
X5Y445D01*
X2240Y445D02*
X2246Y445D01*
X1Y444D02*
X5Y444D01*
X2240Y444D02*
X2246Y444D01*
X1Y443D02*
X5Y443D01*
X2240Y443D02*
X2246Y443D01*
X1Y442D02*
X5Y442D01*
X2240Y442D02*
X2246Y442D01*
X1Y441D02*
X5Y441D01*
X2240Y441D02*
X2246Y441D01*
X1Y440D02*
X5Y440D01*
X2240Y440D02*
X2246Y440D01*
X1Y439D02*
X5Y439D01*
X2240Y439D02*
X2246Y439D01*
X1Y438D02*
X5Y438D01*
X2240Y438D02*
X2246Y438D01*
X1Y437D02*
X5Y437D01*
X2240Y437D02*
X2246Y437D01*
X1Y436D02*
X5Y436D01*
X2240Y436D02*
X2246Y436D01*
X1Y435D02*
X5Y435D01*
X2240Y435D02*
X2246Y435D01*
X1Y434D02*
X5Y434D01*
X2240Y434D02*
X2246Y434D01*
X1Y433D02*
X5Y433D01*
X2240Y433D02*
X2246Y433D01*
X1Y432D02*
X5Y432D01*
X2240Y432D02*
X2246Y432D01*
X1Y431D02*
X5Y431D01*
X2240Y431D02*
X2246Y431D01*
X1Y430D02*
X5Y430D01*
X2240Y430D02*
X2246Y430D01*
X1Y429D02*
X5Y429D01*
X2240Y429D02*
X2246Y429D01*
X1Y428D02*
X5Y428D01*
X2240Y428D02*
X2246Y428D01*
X1Y427D02*
X5Y427D01*
X2240Y427D02*
X2246Y427D01*
X1Y426D02*
X5Y426D01*
X2240Y426D02*
X2246Y426D01*
X1Y425D02*
X5Y425D01*
X2240Y425D02*
X2246Y425D01*
X1Y424D02*
X5Y424D01*
X2240Y424D02*
X2246Y424D01*
X1Y423D02*
X5Y423D01*
X2240Y423D02*
X2246Y423D01*
X1Y422D02*
X5Y422D01*
X2240Y422D02*
X2246Y422D01*
X1Y421D02*
X5Y421D01*
X2240Y421D02*
X2246Y421D01*
X1Y420D02*
X5Y420D01*
X2240Y420D02*
X2246Y420D01*
X1Y419D02*
X5Y419D01*
X2240Y419D02*
X2246Y419D01*
X1Y418D02*
X5Y418D01*
X2240Y418D02*
X2246Y418D01*
X1Y417D02*
X5Y417D01*
X2240Y417D02*
X2246Y417D01*
X1Y416D02*
X5Y416D01*
X2240Y416D02*
X2246Y416D01*
X1Y415D02*
X5Y415D01*
X2240Y415D02*
X2246Y415D01*
X1Y414D02*
X5Y414D01*
X2240Y414D02*
X2246Y414D01*
X1Y413D02*
X5Y413D01*
X2240Y413D02*
X2246Y413D01*
X1Y412D02*
X5Y412D01*
X2240Y412D02*
X2246Y412D01*
X1Y411D02*
X5Y411D01*
X2240Y411D02*
X2246Y411D01*
X1Y410D02*
X5Y410D01*
X2240Y410D02*
X2246Y410D01*
X1Y409D02*
X5Y409D01*
X2240Y409D02*
X2246Y409D01*
X1Y408D02*
X5Y408D01*
X2240Y408D02*
X2246Y408D01*
X1Y407D02*
X5Y407D01*
X2240Y407D02*
X2246Y407D01*
X1Y406D02*
X5Y406D01*
X2240Y406D02*
X2246Y406D01*
X1Y405D02*
X5Y405D01*
X2240Y405D02*
X2246Y405D01*
X1Y404D02*
X5Y404D01*
X2240Y404D02*
X2246Y404D01*
X1Y403D02*
X5Y403D01*
X2240Y403D02*
X2246Y403D01*
X1Y402D02*
X5Y402D01*
X2240Y402D02*
X2246Y402D01*
X1Y401D02*
X5Y401D01*
X2240Y401D02*
X2246Y401D01*
X1Y400D02*
X5Y400D01*
X2240Y400D02*
X2246Y400D01*
X1Y399D02*
X5Y399D01*
X2240Y399D02*
X2246Y399D01*
X1Y398D02*
X5Y398D01*
X2240Y398D02*
X2246Y398D01*
X1Y397D02*
X5Y397D01*
X2240Y397D02*
X2246Y397D01*
X1Y396D02*
X5Y396D01*
X2240Y396D02*
X2246Y396D01*
X1Y395D02*
X5Y395D01*
X2240Y395D02*
X2246Y395D01*
X1Y394D02*
X5Y394D01*
X2240Y394D02*
X2246Y394D01*
X1Y393D02*
X5Y393D01*
X2240Y393D02*
X2246Y393D01*
X1Y392D02*
X5Y392D01*
X2240Y392D02*
X2246Y392D01*
X1Y391D02*
X5Y391D01*
X2240Y391D02*
X2246Y391D01*
X1Y390D02*
X5Y390D01*
X2240Y390D02*
X2246Y390D01*
X1Y389D02*
X5Y389D01*
X2240Y389D02*
X2246Y389D01*
X1Y388D02*
X5Y388D01*
X2240Y388D02*
X2246Y388D01*
X1Y387D02*
X5Y387D01*
X2240Y387D02*
X2246Y387D01*
X1Y386D02*
X5Y386D01*
X2240Y386D02*
X2246Y386D01*
X1Y385D02*
X5Y385D01*
X2240Y385D02*
X2246Y385D01*
X1Y384D02*
X5Y384D01*
X2240Y384D02*
X2246Y384D01*
X1Y383D02*
X5Y383D01*
X2240Y383D02*
X2246Y383D01*
X1Y382D02*
X5Y382D01*
X2240Y382D02*
X2246Y382D01*
X1Y381D02*
X5Y381D01*
X2240Y381D02*
X2246Y381D01*
X1Y380D02*
X5Y380D01*
X2240Y380D02*
X2246Y380D01*
X1Y379D02*
X5Y379D01*
X2240Y379D02*
X2246Y379D01*
X1Y378D02*
X5Y378D01*
X2240Y378D02*
X2246Y378D01*
X1Y377D02*
X5Y377D01*
X2240Y377D02*
X2246Y377D01*
X1Y376D02*
X5Y376D01*
X2240Y376D02*
X2246Y376D01*
X1Y375D02*
X5Y375D01*
X2240Y375D02*
X2246Y375D01*
X1Y374D02*
X5Y374D01*
X2240Y374D02*
X2246Y374D01*
X1Y373D02*
X5Y373D01*
X2240Y373D02*
X2246Y373D01*
X1Y372D02*
X5Y372D01*
X2240Y372D02*
X2246Y372D01*
X1Y371D02*
X5Y371D01*
X2240Y371D02*
X2246Y371D01*
X1Y370D02*
X5Y370D01*
X2240Y370D02*
X2246Y370D01*
X1Y369D02*
X5Y369D01*
X2240Y369D02*
X2246Y369D01*
X1Y368D02*
X5Y368D01*
X2240Y368D02*
X2246Y368D01*
X1Y367D02*
X5Y367D01*
X2240Y367D02*
X2246Y367D01*
X1Y366D02*
X5Y366D01*
X2240Y366D02*
X2246Y366D01*
X1Y365D02*
X5Y365D01*
X2240Y365D02*
X2246Y365D01*
X1Y364D02*
X5Y364D01*
X2240Y364D02*
X2246Y364D01*
X1Y363D02*
X5Y363D01*
X2240Y363D02*
X2246Y363D01*
X1Y362D02*
X5Y362D01*
X2240Y362D02*
X2246Y362D01*
X1Y361D02*
X5Y361D01*
X2240Y361D02*
X2246Y361D01*
X1Y360D02*
X5Y360D01*
X2240Y360D02*
X2246Y360D01*
X1Y359D02*
X5Y359D01*
X2240Y359D02*
X2246Y359D01*
X1Y358D02*
X5Y358D01*
X2240Y358D02*
X2246Y358D01*
X1Y357D02*
X5Y357D01*
X2240Y357D02*
X2246Y357D01*
X1Y356D02*
X5Y356D01*
X2240Y356D02*
X2246Y356D01*
X1Y355D02*
X5Y355D01*
X2240Y355D02*
X2246Y355D01*
X1Y354D02*
X5Y354D01*
X2240Y354D02*
X2246Y354D01*
X1Y353D02*
X5Y353D01*
X2240Y353D02*
X2246Y353D01*
X1Y352D02*
X5Y352D01*
X2240Y352D02*
X2246Y352D01*
X1Y351D02*
X5Y351D01*
X2240Y351D02*
X2246Y351D01*
X1Y350D02*
X5Y350D01*
X2240Y350D02*
X2246Y350D01*
X1Y349D02*
X5Y349D01*
X2240Y349D02*
X2246Y349D01*
X1Y348D02*
X5Y348D01*
X2240Y348D02*
X2246Y348D01*
X1Y347D02*
X5Y347D01*
X2240Y347D02*
X2246Y347D01*
X1Y346D02*
X5Y346D01*
X2240Y346D02*
X2246Y346D01*
X1Y345D02*
X5Y345D01*
X2240Y345D02*
X2246Y345D01*
X1Y344D02*
X5Y344D01*
X2240Y344D02*
X2246Y344D01*
X1Y343D02*
X5Y343D01*
X2240Y343D02*
X2246Y343D01*
X1Y342D02*
X5Y342D01*
X2240Y342D02*
X2246Y342D01*
X1Y341D02*
X5Y341D01*
X2240Y341D02*
X2246Y341D01*
X1Y340D02*
X5Y340D01*
X2240Y340D02*
X2246Y340D01*
X1Y339D02*
X5Y339D01*
X2240Y339D02*
X2246Y339D01*
X1Y338D02*
X5Y338D01*
X2240Y338D02*
X2246Y338D01*
X1Y337D02*
X5Y337D01*
X2240Y337D02*
X2246Y337D01*
X1Y336D02*
X5Y336D01*
X2240Y336D02*
X2246Y336D01*
X1Y335D02*
X5Y335D01*
X2240Y335D02*
X2246Y335D01*
X1Y334D02*
X5Y334D01*
X2240Y334D02*
X2246Y334D01*
X1Y333D02*
X5Y333D01*
X2240Y333D02*
X2246Y333D01*
X1Y332D02*
X5Y332D01*
X2240Y332D02*
X2246Y332D01*
X1Y331D02*
X5Y331D01*
X2240Y331D02*
X2246Y331D01*
X1Y330D02*
X5Y330D01*
X2240Y330D02*
X2246Y330D01*
X1Y329D02*
X5Y329D01*
X2240Y329D02*
X2246Y329D01*
X1Y328D02*
X5Y328D01*
X2240Y328D02*
X2246Y328D01*
X1Y327D02*
X5Y327D01*
X2240Y327D02*
X2246Y327D01*
X1Y326D02*
X5Y326D01*
X2240Y326D02*
X2246Y326D01*
X1Y325D02*
X5Y325D01*
X2240Y325D02*
X2246Y325D01*
X1Y324D02*
X5Y324D01*
X2240Y324D02*
X2246Y324D01*
X1Y323D02*
X5Y323D01*
X2240Y323D02*
X2246Y323D01*
X1Y322D02*
X5Y322D01*
X2240Y322D02*
X2246Y322D01*
X1Y321D02*
X5Y321D01*
X2240Y321D02*
X2246Y321D01*
X1Y320D02*
X5Y320D01*
X2240Y320D02*
X2246Y320D01*
X1Y319D02*
X5Y319D01*
X2240Y319D02*
X2246Y319D01*
X1Y318D02*
X5Y318D01*
X2240Y318D02*
X2246Y318D01*
X1Y317D02*
X5Y317D01*
X2240Y317D02*
X2246Y317D01*
X1Y316D02*
X5Y316D01*
X2240Y316D02*
X2246Y316D01*
X1Y315D02*
X5Y315D01*
X2240Y315D02*
X2246Y315D01*
X1Y314D02*
X5Y314D01*
X2240Y314D02*
X2246Y314D01*
X1Y313D02*
X5Y313D01*
X2240Y313D02*
X2246Y313D01*
X1Y312D02*
X5Y312D01*
X2240Y312D02*
X2246Y312D01*
X1Y311D02*
X5Y311D01*
X2240Y311D02*
X2246Y311D01*
X1Y310D02*
X5Y310D01*
X2240Y310D02*
X2246Y310D01*
X1Y309D02*
X5Y309D01*
X2240Y309D02*
X2246Y309D01*
X1Y308D02*
X5Y308D01*
X2240Y308D02*
X2246Y308D01*
X1Y307D02*
X5Y307D01*
X2240Y307D02*
X2246Y307D01*
X1Y306D02*
X5Y306D01*
X2240Y306D02*
X2246Y306D01*
X1Y305D02*
X5Y305D01*
X2240Y305D02*
X2246Y305D01*
X1Y304D02*
X5Y304D01*
X2240Y304D02*
X2246Y304D01*
X1Y303D02*
X5Y303D01*
X2240Y303D02*
X2246Y303D01*
X1Y302D02*
X5Y302D01*
X2240Y302D02*
X2246Y302D01*
X1Y301D02*
X5Y301D01*
X2240Y301D02*
X2246Y301D01*
X1Y300D02*
X5Y300D01*
X2240Y300D02*
X2246Y300D01*
X1Y299D02*
X5Y299D01*
X2240Y299D02*
X2246Y299D01*
X1Y298D02*
X5Y298D01*
X2240Y298D02*
X2246Y298D01*
X1Y297D02*
X5Y297D01*
X2240Y297D02*
X2246Y297D01*
X1Y296D02*
X5Y296D01*
X2240Y296D02*
X2246Y296D01*
X1Y295D02*
X5Y295D01*
X2240Y295D02*
X2246Y295D01*
X1Y294D02*
X5Y294D01*
X2240Y294D02*
X2246Y294D01*
X1Y293D02*
X5Y293D01*
X2240Y293D02*
X2246Y293D01*
X1Y292D02*
X5Y292D01*
X2240Y292D02*
X2246Y292D01*
X1Y291D02*
X5Y291D01*
X2240Y291D02*
X2246Y291D01*
X1Y290D02*
X5Y290D01*
X2240Y290D02*
X2246Y290D01*
X1Y289D02*
X5Y289D01*
X2240Y289D02*
X2246Y289D01*
X1Y288D02*
X5Y288D01*
X2240Y288D02*
X2246Y288D01*
X1Y287D02*
X5Y287D01*
X2240Y287D02*
X2246Y287D01*
X1Y286D02*
X5Y286D01*
X2240Y286D02*
X2246Y286D01*
X1Y285D02*
X5Y285D01*
X2240Y285D02*
X2246Y285D01*
X1Y284D02*
X5Y284D01*
X2240Y284D02*
X2246Y284D01*
X1Y283D02*
X5Y283D01*
X2240Y283D02*
X2246Y283D01*
X1Y282D02*
X5Y282D01*
X2240Y282D02*
X2246Y282D01*
X1Y281D02*
X5Y281D01*
X2240Y281D02*
X2246Y281D01*
X1Y280D02*
X5Y280D01*
X2240Y280D02*
X2246Y280D01*
X1Y279D02*
X5Y279D01*
X2240Y279D02*
X2246Y279D01*
X1Y278D02*
X5Y278D01*
X2240Y278D02*
X2246Y278D01*
X1Y277D02*
X5Y277D01*
X2240Y277D02*
X2246Y277D01*
X1Y276D02*
X5Y276D01*
X2240Y276D02*
X2246Y276D01*
X1Y275D02*
X5Y275D01*
X2240Y275D02*
X2246Y275D01*
X1Y274D02*
X5Y274D01*
X2240Y274D02*
X2246Y274D01*
X1Y273D02*
X5Y273D01*
X2240Y273D02*
X2246Y273D01*
X1Y272D02*
X5Y272D01*
X2240Y272D02*
X2246Y272D01*
X1Y271D02*
X5Y271D01*
X2240Y271D02*
X2246Y271D01*
X1Y270D02*
X5Y270D01*
X2240Y270D02*
X2246Y270D01*
X1Y269D02*
X5Y269D01*
X2240Y269D02*
X2246Y269D01*
X1Y268D02*
X5Y268D01*
X2240Y268D02*
X2246Y268D01*
X1Y267D02*
X5Y267D01*
X2240Y267D02*
X2246Y267D01*
X1Y266D02*
X5Y266D01*
X2240Y266D02*
X2246Y266D01*
X1Y265D02*
X5Y265D01*
X2240Y265D02*
X2246Y265D01*
X1Y264D02*
X5Y264D01*
X2240Y264D02*
X2246Y264D01*
X1Y263D02*
X5Y263D01*
X2240Y263D02*
X2246Y263D01*
X1Y262D02*
X5Y262D01*
X2240Y262D02*
X2246Y262D01*
X1Y261D02*
X5Y261D01*
X2240Y261D02*
X2246Y261D01*
X1Y260D02*
X5Y260D01*
X2240Y260D02*
X2246Y260D01*
X1Y259D02*
X5Y259D01*
X2240Y259D02*
X2246Y259D01*
X1Y258D02*
X5Y258D01*
X2240Y258D02*
X2246Y258D01*
X1Y257D02*
X5Y257D01*
X2240Y257D02*
X2246Y257D01*
X1Y256D02*
X5Y256D01*
X2240Y256D02*
X2246Y256D01*
X1Y255D02*
X5Y255D01*
X2240Y255D02*
X2246Y255D01*
X1Y254D02*
X5Y254D01*
X2240Y254D02*
X2246Y254D01*
X1Y253D02*
X5Y253D01*
X2240Y253D02*
X2246Y253D01*
X1Y252D02*
X5Y252D01*
X2240Y252D02*
X2246Y252D01*
X1Y251D02*
X5Y251D01*
X2240Y251D02*
X2246Y251D01*
X1Y250D02*
X5Y250D01*
X2240Y250D02*
X2246Y250D01*
X1Y249D02*
X5Y249D01*
X2240Y249D02*
X2246Y249D01*
X1Y248D02*
X5Y248D01*
X2240Y248D02*
X2246Y248D01*
X1Y247D02*
X5Y247D01*
X2240Y247D02*
X2246Y247D01*
X1Y246D02*
X5Y246D01*
X2240Y246D02*
X2246Y246D01*
X1Y245D02*
X5Y245D01*
X2240Y245D02*
X2246Y245D01*
X1Y244D02*
X5Y244D01*
X2240Y244D02*
X2246Y244D01*
X1Y243D02*
X5Y243D01*
X2240Y243D02*
X2246Y243D01*
X1Y242D02*
X5Y242D01*
X2240Y242D02*
X2246Y242D01*
X1Y241D02*
X5Y241D01*
X2240Y241D02*
X2246Y241D01*
X1Y240D02*
X5Y240D01*
X2240Y240D02*
X2246Y240D01*
X1Y239D02*
X5Y239D01*
X2240Y239D02*
X2246Y239D01*
X1Y238D02*
X5Y238D01*
X2240Y238D02*
X2246Y238D01*
X1Y237D02*
X5Y237D01*
X2240Y237D02*
X2246Y237D01*
X1Y236D02*
X5Y236D01*
X2240Y236D02*
X2246Y236D01*
X1Y235D02*
X5Y235D01*
X2240Y235D02*
X2246Y235D01*
X1Y234D02*
X5Y234D01*
X2240Y234D02*
X2246Y234D01*
X1Y233D02*
X5Y233D01*
X2240Y233D02*
X2246Y233D01*
X1Y232D02*
X5Y232D01*
X2240Y232D02*
X2246Y232D01*
X1Y231D02*
X5Y231D01*
X2240Y231D02*
X2246Y231D01*
X1Y230D02*
X5Y230D01*
X2240Y230D02*
X2246Y230D01*
X1Y229D02*
X5Y229D01*
X2240Y229D02*
X2246Y229D01*
X1Y228D02*
X5Y228D01*
X2240Y228D02*
X2246Y228D01*
X1Y227D02*
X5Y227D01*
X2240Y227D02*
X2246Y227D01*
X1Y226D02*
X5Y226D01*
X2240Y226D02*
X2246Y226D01*
X1Y225D02*
X5Y225D01*
X2240Y225D02*
X2246Y225D01*
X1Y224D02*
X5Y224D01*
X2240Y224D02*
X2246Y224D01*
X1Y223D02*
X5Y223D01*
X2240Y223D02*
X2246Y223D01*
X1Y222D02*
X5Y222D01*
X2240Y222D02*
X2246Y222D01*
X1Y221D02*
X5Y221D01*
X2240Y221D02*
X2246Y221D01*
X1Y220D02*
X5Y220D01*
X2240Y220D02*
X2246Y220D01*
X1Y219D02*
X5Y219D01*
X2240Y219D02*
X2246Y219D01*
X1Y218D02*
X5Y218D01*
X2240Y218D02*
X2246Y218D01*
X1Y217D02*
X5Y217D01*
X2240Y217D02*
X2246Y217D01*
X1Y216D02*
X5Y216D01*
X2240Y216D02*
X2246Y216D01*
X1Y215D02*
X5Y215D01*
X2240Y215D02*
X2246Y215D01*
X1Y214D02*
X5Y214D01*
X2240Y214D02*
X2246Y214D01*
X1Y213D02*
X5Y213D01*
X2240Y213D02*
X2246Y213D01*
X1Y212D02*
X5Y212D01*
X2240Y212D02*
X2246Y212D01*
X1Y211D02*
X5Y211D01*
X2240Y211D02*
X2246Y211D01*
X1Y210D02*
X5Y210D01*
X2240Y210D02*
X2246Y210D01*
X1Y209D02*
X5Y209D01*
X2240Y209D02*
X2246Y209D01*
X1Y208D02*
X5Y208D01*
X2240Y208D02*
X2246Y208D01*
X1Y207D02*
X5Y207D01*
X2240Y207D02*
X2246Y207D01*
X1Y206D02*
X5Y206D01*
X2240Y206D02*
X2246Y206D01*
X1Y205D02*
X5Y205D01*
X2240Y205D02*
X2246Y205D01*
X1Y204D02*
X5Y204D01*
X2240Y204D02*
X2246Y204D01*
X1Y203D02*
X5Y203D01*
X2240Y203D02*
X2246Y203D01*
X1Y202D02*
X5Y202D01*
X2240Y202D02*
X2246Y202D01*
X1Y201D02*
X5Y201D01*
X2240Y201D02*
X2246Y201D01*
X1Y200D02*
X5Y200D01*
X2240Y200D02*
X2246Y200D01*
X1Y199D02*
X5Y199D01*
X2240Y199D02*
X2246Y199D01*
X1Y198D02*
X5Y198D01*
X2240Y198D02*
X2246Y198D01*
X1Y197D02*
X5Y197D01*
X2240Y197D02*
X2246Y197D01*
X1Y196D02*
X5Y196D01*
X2240Y196D02*
X2246Y196D01*
X1Y195D02*
X5Y195D01*
X2240Y195D02*
X2246Y195D01*
X1Y194D02*
X5Y194D01*
X2240Y194D02*
X2246Y194D01*
X1Y193D02*
X5Y193D01*
X2240Y193D02*
X2246Y193D01*
X1Y192D02*
X5Y192D01*
X2240Y192D02*
X2246Y192D01*
X1Y191D02*
X5Y191D01*
X2240Y191D02*
X2246Y191D01*
X1Y190D02*
X5Y190D01*
X2240Y190D02*
X2246Y190D01*
X1Y189D02*
X5Y189D01*
X2240Y189D02*
X2246Y189D01*
X1Y188D02*
X5Y188D01*
X2240Y188D02*
X2246Y188D01*
X1Y187D02*
X5Y187D01*
X2240Y187D02*
X2246Y187D01*
X1Y186D02*
X5Y186D01*
X2240Y186D02*
X2246Y186D01*
X1Y185D02*
X5Y185D01*
X2240Y185D02*
X2246Y185D01*
X1Y184D02*
X5Y184D01*
X2240Y184D02*
X2246Y184D01*
X1Y183D02*
X5Y183D01*
X2240Y183D02*
X2246Y183D01*
X1Y182D02*
X5Y182D01*
X2240Y182D02*
X2246Y182D01*
X1Y181D02*
X5Y181D01*
X2240Y181D02*
X2246Y181D01*
X1Y180D02*
X5Y180D01*
X2240Y180D02*
X2246Y180D01*
X1Y179D02*
X5Y179D01*
X2240Y179D02*
X2246Y179D01*
X1Y178D02*
X5Y178D01*
X2240Y178D02*
X2246Y178D01*
X1Y177D02*
X5Y177D01*
X2240Y177D02*
X2246Y177D01*
X1Y176D02*
X5Y176D01*
X2240Y176D02*
X2246Y176D01*
X1Y175D02*
X5Y175D01*
X2240Y175D02*
X2246Y175D01*
X1Y174D02*
X5Y174D01*
X2240Y174D02*
X2246Y174D01*
X1Y173D02*
X5Y173D01*
X2240Y173D02*
X2246Y173D01*
X1Y172D02*
X5Y172D01*
X2240Y172D02*
X2246Y172D01*
X1Y171D02*
X5Y171D01*
X2240Y171D02*
X2246Y171D01*
X1Y170D02*
X5Y170D01*
X2240Y170D02*
X2246Y170D01*
X1Y169D02*
X5Y169D01*
X2240Y169D02*
X2246Y169D01*
X1Y168D02*
X5Y168D01*
X2240Y168D02*
X2246Y168D01*
X1Y167D02*
X5Y167D01*
X2240Y167D02*
X2246Y167D01*
X1Y166D02*
X5Y166D01*
X2240Y166D02*
X2246Y166D01*
X1Y165D02*
X5Y165D01*
X2240Y165D02*
X2246Y165D01*
X1Y164D02*
X5Y164D01*
X2240Y164D02*
X2246Y164D01*
X1Y163D02*
X5Y163D01*
X2240Y163D02*
X2246Y163D01*
X1Y162D02*
X5Y162D01*
X2240Y162D02*
X2246Y162D01*
X1Y161D02*
X5Y161D01*
X2240Y161D02*
X2246Y161D01*
X1Y160D02*
X5Y160D01*
X2240Y160D02*
X2246Y160D01*
X1Y159D02*
X5Y159D01*
X2240Y159D02*
X2246Y159D01*
X1Y158D02*
X5Y158D01*
X2240Y158D02*
X2246Y158D01*
X1Y157D02*
X5Y157D01*
X2240Y157D02*
X2246Y157D01*
X1Y156D02*
X5Y156D01*
X2240Y156D02*
X2246Y156D01*
X1Y155D02*
X5Y155D01*
X2240Y155D02*
X2246Y155D01*
X1Y154D02*
X5Y154D01*
X2240Y154D02*
X2246Y154D01*
X1Y153D02*
X5Y153D01*
X2240Y153D02*
X2246Y153D01*
X1Y152D02*
X5Y152D01*
X2240Y152D02*
X2246Y152D01*
X1Y151D02*
X5Y151D01*
X2240Y151D02*
X2246Y151D01*
X1Y150D02*
X5Y150D01*
X2240Y150D02*
X2246Y150D01*
X1Y149D02*
X5Y149D01*
X2240Y149D02*
X2246Y149D01*
X1Y148D02*
X5Y148D01*
X2240Y148D02*
X2246Y148D01*
X1Y147D02*
X5Y147D01*
X2240Y147D02*
X2246Y147D01*
X1Y146D02*
X5Y146D01*
X2240Y146D02*
X2246Y146D01*
X1Y145D02*
X5Y145D01*
X2240Y145D02*
X2246Y145D01*
X1Y144D02*
X5Y144D01*
X2240Y144D02*
X2246Y144D01*
X1Y143D02*
X5Y143D01*
X2240Y143D02*
X2246Y143D01*
X1Y142D02*
X5Y142D01*
X2240Y142D02*
X2246Y142D01*
X1Y141D02*
X5Y141D01*
X2240Y141D02*
X2246Y141D01*
X1Y140D02*
X5Y140D01*
X2240Y140D02*
X2246Y140D01*
X1Y139D02*
X5Y139D01*
X2240Y139D02*
X2246Y139D01*
X1Y138D02*
X5Y138D01*
X2240Y138D02*
X2246Y138D01*
X1Y137D02*
X5Y137D01*
X2240Y137D02*
X2246Y137D01*
X1Y136D02*
X5Y136D01*
X2240Y136D02*
X2246Y136D01*
X1Y135D02*
X5Y135D01*
X2240Y135D02*
X2246Y135D01*
X1Y134D02*
X5Y134D01*
X2240Y134D02*
X2246Y134D01*
X1Y133D02*
X5Y133D01*
X2240Y133D02*
X2246Y133D01*
X1Y132D02*
X5Y132D01*
X2240Y132D02*
X2246Y132D01*
X1Y131D02*
X5Y131D01*
X2240Y131D02*
X2246Y131D01*
X1Y130D02*
X5Y130D01*
X2240Y130D02*
X2246Y130D01*
X1Y129D02*
X5Y129D01*
X2240Y129D02*
X2246Y129D01*
X1Y128D02*
X5Y128D01*
X2240Y128D02*
X2246Y128D01*
X1Y127D02*
X5Y127D01*
X2240Y127D02*
X2246Y127D01*
X1Y126D02*
X5Y126D01*
X2240Y126D02*
X2246Y126D01*
X1Y125D02*
X5Y125D01*
X2240Y125D02*
X2246Y125D01*
X1Y124D02*
X5Y124D01*
X2240Y124D02*
X2246Y124D01*
X1Y123D02*
X5Y123D01*
X2240Y123D02*
X2246Y123D01*
X1Y122D02*
X5Y122D01*
X2240Y122D02*
X2246Y122D01*
X1Y121D02*
X5Y121D01*
X2240Y121D02*
X2246Y121D01*
X1Y120D02*
X5Y120D01*
X2240Y120D02*
X2246Y120D01*
X1Y119D02*
X5Y119D01*
X2240Y119D02*
X2246Y119D01*
X1Y118D02*
X5Y118D01*
X2240Y118D02*
X2246Y118D01*
X1Y117D02*
X5Y117D01*
X2240Y117D02*
X2246Y117D01*
X1Y116D02*
X5Y116D01*
X2240Y116D02*
X2246Y116D01*
X1Y115D02*
X5Y115D01*
X2240Y115D02*
X2246Y115D01*
X1Y114D02*
X5Y114D01*
X2240Y114D02*
X2246Y114D01*
X1Y113D02*
X5Y113D01*
X2240Y113D02*
X2246Y113D01*
X1Y112D02*
X5Y112D01*
X2240Y112D02*
X2246Y112D01*
X1Y111D02*
X5Y111D01*
X2240Y111D02*
X2246Y111D01*
X1Y110D02*
X5Y110D01*
X2240Y110D02*
X2246Y110D01*
X1Y109D02*
X5Y109D01*
X2240Y109D02*
X2246Y109D01*
X1Y108D02*
X5Y108D01*
X2240Y108D02*
X2246Y108D01*
X1Y107D02*
X5Y107D01*
X860Y107D02*
X864Y107D01*
X998Y107D02*
X1001Y107D01*
X1135Y107D02*
X1139Y107D01*
X1273Y107D02*
X1276Y107D01*
X2240Y107D02*
X2246Y107D01*
X1Y106D02*
X5Y106D01*
X858Y106D02*
X865Y106D01*
X996Y106D02*
X1003Y106D01*
X1134Y106D02*
X1140Y106D01*
X1271Y106D02*
X1278Y106D01*
X2240Y106D02*
X2246Y106D01*
X1Y105D02*
X5Y105D01*
X858Y105D02*
X866Y105D01*
X995Y105D02*
X1004Y105D01*
X1133Y105D02*
X1141Y105D01*
X1270Y105D02*
X1279Y105D01*
X2240Y105D02*
X2246Y105D01*
X1Y104D02*
X5Y104D01*
X823Y104D02*
X834Y104D01*
X858Y104D02*
X866Y104D01*
X960Y104D02*
X972Y104D01*
X995Y104D02*
X1004Y104D01*
X1098Y104D02*
X1109Y104D01*
X1133Y104D02*
X1141Y104D01*
X1236Y104D02*
X1247Y104D01*
X1270Y104D02*
X1279Y104D01*
X2240Y104D02*
X2246Y104D01*
X1Y103D02*
X5Y103D01*
X822Y103D02*
X835Y103D01*
X858Y103D02*
X866Y103D01*
X959Y103D02*
X973Y103D01*
X995Y103D02*
X1004Y103D01*
X1097Y103D02*
X1111Y103D01*
X1133Y103D02*
X1141Y103D01*
X1234Y103D02*
X1248Y103D01*
X1270Y103D02*
X1279Y103D01*
X2240Y103D02*
X2246Y103D01*
X1Y102D02*
X5Y102D01*
X821Y102D02*
X836Y102D01*
X858Y102D02*
X866Y102D01*
X959Y102D02*
X973Y102D01*
X995Y102D02*
X1004Y102D01*
X1096Y102D02*
X1111Y102D01*
X1133Y102D02*
X1141Y102D01*
X1234Y102D02*
X1249Y102D01*
X1270Y102D02*
X1279Y102D01*
X2240Y102D02*
X2246Y102D01*
X1Y101D02*
X5Y101D01*
X821Y101D02*
X836Y101D01*
X858Y101D02*
X866Y101D01*
X959Y101D02*
X974Y101D01*
X995Y101D02*
X1004Y101D01*
X1096Y101D02*
X1111Y101D01*
X1133Y101D02*
X1141Y101D01*
X1234Y101D02*
X1249Y101D01*
X1270Y101D02*
X1279Y101D01*
X2240Y101D02*
X2246Y101D01*
X1Y100D02*
X5Y100D01*
X821Y100D02*
X836Y100D01*
X858Y100D02*
X866Y100D01*
X959Y100D02*
X973Y100D01*
X996Y100D02*
X1003Y100D01*
X1096Y100D02*
X1111Y100D01*
X1133Y100D02*
X1141Y100D01*
X1234Y100D02*
X1248Y100D01*
X1271Y100D02*
X1279Y100D01*
X2240Y100D02*
X2246Y100D01*
X1Y99D02*
X5Y99D01*
X821Y99D02*
X835Y99D01*
X859Y99D02*
X865Y99D01*
X959Y99D02*
X973Y99D01*
X996Y99D02*
X1003Y99D01*
X1096Y99D02*
X1110Y99D01*
X1134Y99D02*
X1140Y99D01*
X1234Y99D02*
X1248Y99D01*
X1271Y99D02*
X1278Y99D01*
X2240Y99D02*
X2246Y99D01*
X1Y98D02*
X5Y98D01*
X821Y98D02*
X827Y98D01*
X959Y98D02*
X965Y98D01*
X1096Y98D02*
X1102Y98D01*
X1234Y98D02*
X1240Y98D01*
X2240Y98D02*
X2246Y98D01*
X1Y97D02*
X5Y97D01*
X821Y97D02*
X827Y97D01*
X959Y97D02*
X964Y97D01*
X1096Y97D02*
X1102Y97D01*
X1234Y97D02*
X1239Y97D01*
X2240Y97D02*
X2246Y97D01*
X1Y96D02*
X5Y96D01*
X821Y96D02*
X827Y96D01*
X959Y96D02*
X964Y96D01*
X1096Y96D02*
X1102Y96D01*
X1234Y96D02*
X1239Y96D01*
X2240Y96D02*
X2246Y96D01*
X1Y95D02*
X5Y95D01*
X821Y95D02*
X827Y95D01*
X959Y95D02*
X964Y95D01*
X1096Y95D02*
X1102Y95D01*
X1234Y95D02*
X1239Y95D01*
X2240Y95D02*
X2246Y95D01*
X1Y94D02*
X5Y94D01*
X821Y94D02*
X827Y94D01*
X959Y94D02*
X964Y94D01*
X1096Y94D02*
X1102Y94D01*
X1234Y94D02*
X1239Y94D01*
X2240Y94D02*
X2246Y94D01*
X1Y93D02*
X5Y93D01*
X821Y93D02*
X827Y93D01*
X959Y93D02*
X964Y93D01*
X1096Y93D02*
X1102Y93D01*
X1234Y93D02*
X1239Y93D01*
X2240Y93D02*
X2246Y93D01*
X1Y92D02*
X5Y92D01*
X821Y92D02*
X827Y92D01*
X959Y92D02*
X964Y92D01*
X1096Y92D02*
X1102Y92D01*
X1234Y92D02*
X1239Y92D01*
X2240Y92D02*
X2246Y92D01*
X1Y91D02*
X5Y91D01*
X766Y91D02*
X779Y91D01*
X821Y91D02*
X827Y91D01*
X861Y91D02*
X873Y91D01*
X903Y91D02*
X916Y91D01*
X959Y91D02*
X964Y91D01*
X998Y91D02*
X1010Y91D01*
X1041Y91D02*
X1054Y91D01*
X1096Y91D02*
X1102Y91D01*
X1136Y91D02*
X1148Y91D01*
X1179Y91D02*
X1191Y91D01*
X1234Y91D02*
X1239Y91D01*
X1273Y91D02*
X1285Y91D01*
X2240Y91D02*
X2246Y91D01*
X1Y90D02*
X5Y90D01*
X764Y90D02*
X783Y90D01*
X821Y90D02*
X827Y90D01*
X859Y90D02*
X875Y90D01*
X901Y90D02*
X920Y90D01*
X959Y90D02*
X964Y90D01*
X996Y90D02*
X1012Y90D01*
X1039Y90D02*
X1058Y90D01*
X1096Y90D02*
X1102Y90D01*
X1134Y90D02*
X1150Y90D01*
X1176Y90D02*
X1195Y90D01*
X1234Y90D02*
X1239Y90D01*
X1271Y90D02*
X1287Y90D01*
X2240Y90D02*
X2246Y90D01*
X1Y89D02*
X5Y89D01*
X763Y89D02*
X785Y89D01*
X821Y89D02*
X827Y89D01*
X858Y89D02*
X875Y89D01*
X901Y89D02*
X922Y89D01*
X959Y89D02*
X964Y89D01*
X995Y89D02*
X1013Y89D01*
X1038Y89D02*
X1060Y89D01*
X1096Y89D02*
X1102Y89D01*
X1133Y89D02*
X1150Y89D01*
X1176Y89D02*
X1197Y89D01*
X1234Y89D02*
X1239Y89D01*
X1271Y89D02*
X1288Y89D01*
X2240Y89D02*
X2246Y89D01*
X1Y88D02*
X5Y88D01*
X763Y88D02*
X786Y88D01*
X821Y88D02*
X827Y88D01*
X858Y88D02*
X876Y88D01*
X900Y88D02*
X923Y88D01*
X959Y88D02*
X964Y88D01*
X995Y88D02*
X1013Y88D01*
X1038Y88D02*
X1061Y88D01*
X1096Y88D02*
X1102Y88D01*
X1133Y88D02*
X1151Y88D01*
X1175Y88D02*
X1198Y88D01*
X1234Y88D02*
X1239Y88D01*
X1270Y88D02*
X1288Y88D01*
X2240Y88D02*
X2246Y88D01*
X1Y87D02*
X5Y87D01*
X763Y87D02*
X787Y87D01*
X821Y87D02*
X827Y87D01*
X858Y87D02*
X875Y87D01*
X900Y87D02*
X924Y87D01*
X959Y87D02*
X964Y87D01*
X995Y87D02*
X1013Y87D01*
X1038Y87D02*
X1062Y87D01*
X1096Y87D02*
X1102Y87D01*
X1133Y87D02*
X1151Y87D01*
X1176Y87D02*
X1199Y87D01*
X1234Y87D02*
X1239Y87D01*
X1270Y87D02*
X1288Y87D01*
X2240Y87D02*
X2246Y87D01*
X1Y86D02*
X5Y86D01*
X763Y86D02*
X788Y86D01*
X821Y86D02*
X827Y86D01*
X858Y86D02*
X875Y86D01*
X901Y86D02*
X925Y86D01*
X959Y86D02*
X964Y86D01*
X995Y86D02*
X1013Y86D01*
X1038Y86D02*
X1063Y86D01*
X1096Y86D02*
X1102Y86D01*
X1133Y86D02*
X1150Y86D01*
X1176Y86D02*
X1201Y86D01*
X1234Y86D02*
X1239Y86D01*
X1270Y86D02*
X1288Y86D01*
X2240Y86D02*
X2246Y86D01*
X1Y85D02*
X5Y85D01*
X765Y85D02*
X789Y85D01*
X821Y85D02*
X827Y85D01*
X858Y85D02*
X874Y85D01*
X902Y85D02*
X927Y85D01*
X959Y85D02*
X964Y85D01*
X995Y85D02*
X1011Y85D01*
X1040Y85D02*
X1064Y85D01*
X1096Y85D02*
X1102Y85D01*
X1133Y85D02*
X1149Y85D01*
X1177Y85D02*
X1202Y85D01*
X1234Y85D02*
X1239Y85D01*
X1270Y85D02*
X1286Y85D01*
X2240Y85D02*
X2246Y85D01*
X1Y84D02*
X5Y84D01*
X781Y84D02*
X790Y84D01*
X821Y84D02*
X827Y84D01*
X858Y84D02*
X863Y84D01*
X919Y84D02*
X928Y84D01*
X959Y84D02*
X964Y84D01*
X995Y84D02*
X1001Y84D01*
X1056Y84D02*
X1065Y84D01*
X1096Y84D02*
X1102Y84D01*
X1133Y84D02*
X1138Y84D01*
X1194Y84D02*
X1203Y84D01*
X1234Y84D02*
X1239Y84D01*
X1270Y84D02*
X1276Y84D01*
X2240Y84D02*
X2246Y84D01*
X1Y83D02*
X5Y83D01*
X782Y83D02*
X791Y83D01*
X821Y83D02*
X827Y83D01*
X858Y83D02*
X863Y83D01*
X920Y83D02*
X929Y83D01*
X959Y83D02*
X964Y83D01*
X995Y83D02*
X1001Y83D01*
X1058Y83D02*
X1066Y83D01*
X1096Y83D02*
X1102Y83D01*
X1133Y83D02*
X1138Y83D01*
X1195Y83D02*
X1204Y83D01*
X1234Y83D02*
X1239Y83D01*
X1270Y83D02*
X1276Y83D01*
X2240Y83D02*
X2246Y83D01*
X1Y82D02*
X5Y82D01*
X784Y82D02*
X792Y82D01*
X821Y82D02*
X827Y82D01*
X858Y82D02*
X863Y82D01*
X921Y82D02*
X929Y82D01*
X959Y82D02*
X964Y82D01*
X995Y82D02*
X1001Y82D01*
X1059Y82D02*
X1067Y82D01*
X1096Y82D02*
X1102Y82D01*
X1133Y82D02*
X1138Y82D01*
X1196Y82D02*
X1204Y82D01*
X1234Y82D02*
X1239Y82D01*
X1270Y82D02*
X1276Y82D01*
X2240Y82D02*
X2246Y82D01*
X1Y81D02*
X5Y81D01*
X785Y81D02*
X792Y81D01*
X821Y81D02*
X827Y81D01*
X858Y81D02*
X863Y81D01*
X922Y81D02*
X930Y81D01*
X959Y81D02*
X964Y81D01*
X995Y81D02*
X1001Y81D01*
X1060Y81D02*
X1067Y81D01*
X1096Y81D02*
X1102Y81D01*
X1133Y81D02*
X1138Y81D01*
X1197Y81D02*
X1205Y81D01*
X1234Y81D02*
X1239Y81D01*
X1270Y81D02*
X1276Y81D01*
X2240Y81D02*
X2246Y81D01*
X1Y80D02*
X5Y80D01*
X786Y80D02*
X793Y80D01*
X821Y80D02*
X827Y80D01*
X858Y80D02*
X863Y80D01*
X923Y80D02*
X930Y80D01*
X959Y80D02*
X964Y80D01*
X995Y80D02*
X1001Y80D01*
X1061Y80D02*
X1068Y80D01*
X1096Y80D02*
X1102Y80D01*
X1133Y80D02*
X1138Y80D01*
X1199Y80D02*
X1205Y80D01*
X1234Y80D02*
X1239Y80D01*
X1270Y80D02*
X1276Y80D01*
X2240Y80D02*
X2246Y80D01*
X1Y79D02*
X5Y79D01*
X787Y79D02*
X793Y79D01*
X821Y79D02*
X827Y79D01*
X858Y79D02*
X863Y79D01*
X925Y79D02*
X931Y79D01*
X959Y79D02*
X964Y79D01*
X995Y79D02*
X1001Y79D01*
X1062Y79D02*
X1068Y79D01*
X1096Y79D02*
X1102Y79D01*
X1133Y79D02*
X1138Y79D01*
X1200Y79D02*
X1206Y79D01*
X1234Y79D02*
X1239Y79D01*
X1270Y79D02*
X1276Y79D01*
X2240Y79D02*
X2246Y79D01*
X1Y78D02*
X5Y78D01*
X788Y78D02*
X793Y78D01*
X821Y78D02*
X827Y78D01*
X858Y78D02*
X863Y78D01*
X925Y78D02*
X931Y78D01*
X959Y78D02*
X964Y78D01*
X995Y78D02*
X1001Y78D01*
X1063Y78D02*
X1068Y78D01*
X1096Y78D02*
X1102Y78D01*
X1133Y78D02*
X1138Y78D01*
X1200Y78D02*
X1206Y78D01*
X1234Y78D02*
X1239Y78D01*
X1270Y78D02*
X1276Y78D01*
X2240Y78D02*
X2246Y78D01*
X1Y77D02*
X5Y77D01*
X788Y77D02*
X793Y77D01*
X821Y77D02*
X827Y77D01*
X858Y77D02*
X863Y77D01*
X925Y77D02*
X931Y77D01*
X959Y77D02*
X964Y77D01*
X995Y77D02*
X1001Y77D01*
X1063Y77D02*
X1068Y77D01*
X1096Y77D02*
X1102Y77D01*
X1133Y77D02*
X1138Y77D01*
X1201Y77D02*
X1206Y77D01*
X1234Y77D02*
X1239Y77D01*
X1270Y77D02*
X1276Y77D01*
X2240Y77D02*
X2246Y77D01*
X1Y76D02*
X5Y76D01*
X788Y76D02*
X793Y76D01*
X821Y76D02*
X827Y76D01*
X858Y76D02*
X863Y76D01*
X925Y76D02*
X931Y76D01*
X959Y76D02*
X964Y76D01*
X995Y76D02*
X1001Y76D01*
X1063Y76D02*
X1068Y76D01*
X1096Y76D02*
X1102Y76D01*
X1133Y76D02*
X1138Y76D01*
X1201Y76D02*
X1206Y76D01*
X1234Y76D02*
X1239Y76D01*
X1270Y76D02*
X1276Y76D01*
X2240Y76D02*
X2246Y76D01*
X1Y75D02*
X5Y75D01*
X788Y75D02*
X793Y75D01*
X821Y75D02*
X827Y75D01*
X858Y75D02*
X863Y75D01*
X925Y75D02*
X931Y75D01*
X959Y75D02*
X964Y75D01*
X995Y75D02*
X1001Y75D01*
X1063Y75D02*
X1068Y75D01*
X1096Y75D02*
X1102Y75D01*
X1133Y75D02*
X1138Y75D01*
X1201Y75D02*
X1206Y75D01*
X1234Y75D02*
X1239Y75D01*
X1270Y75D02*
X1276Y75D01*
X2240Y75D02*
X2246Y75D01*
X1Y74D02*
X5Y74D01*
X788Y74D02*
X793Y74D01*
X821Y74D02*
X827Y74D01*
X858Y74D02*
X863Y74D01*
X925Y74D02*
X931Y74D01*
X959Y74D02*
X964Y74D01*
X995Y74D02*
X1001Y74D01*
X1063Y74D02*
X1068Y74D01*
X1096Y74D02*
X1102Y74D01*
X1133Y74D02*
X1138Y74D01*
X1201Y74D02*
X1206Y74D01*
X1234Y74D02*
X1239Y74D01*
X1270Y74D02*
X1276Y74D01*
X2240Y74D02*
X2246Y74D01*
X1Y73D02*
X5Y73D01*
X788Y73D02*
X793Y73D01*
X821Y73D02*
X827Y73D01*
X858Y73D02*
X863Y73D01*
X925Y73D02*
X931Y73D01*
X959Y73D02*
X964Y73D01*
X995Y73D02*
X1001Y73D01*
X1063Y73D02*
X1068Y73D01*
X1096Y73D02*
X1102Y73D01*
X1133Y73D02*
X1138Y73D01*
X1201Y73D02*
X1206Y73D01*
X1234Y73D02*
X1239Y73D01*
X1270Y73D02*
X1276Y73D01*
X2240Y73D02*
X2246Y73D01*
X1Y72D02*
X5Y72D01*
X788Y72D02*
X793Y72D01*
X821Y72D02*
X827Y72D01*
X858Y72D02*
X863Y72D01*
X925Y72D02*
X931Y72D01*
X959Y72D02*
X964Y72D01*
X995Y72D02*
X1001Y72D01*
X1063Y72D02*
X1068Y72D01*
X1096Y72D02*
X1102Y72D01*
X1133Y72D02*
X1138Y72D01*
X1201Y72D02*
X1206Y72D01*
X1234Y72D02*
X1239Y72D01*
X1270Y72D02*
X1276Y72D01*
X2240Y72D02*
X2246Y72D01*
X1Y71D02*
X5Y71D01*
X788Y71D02*
X793Y71D01*
X821Y71D02*
X827Y71D01*
X858Y71D02*
X863Y71D01*
X925Y71D02*
X931Y71D01*
X959Y71D02*
X964Y71D01*
X995Y71D02*
X1001Y71D01*
X1063Y71D02*
X1068Y71D01*
X1096Y71D02*
X1102Y71D01*
X1133Y71D02*
X1138Y71D01*
X1201Y71D02*
X1206Y71D01*
X1234Y71D02*
X1239Y71D01*
X1270Y71D02*
X1276Y71D01*
X2240Y71D02*
X2246Y71D01*
X1Y70D02*
X5Y70D01*
X788Y70D02*
X793Y70D01*
X821Y70D02*
X827Y70D01*
X858Y70D02*
X863Y70D01*
X925Y70D02*
X931Y70D01*
X959Y70D02*
X964Y70D01*
X995Y70D02*
X1001Y70D01*
X1063Y70D02*
X1068Y70D01*
X1096Y70D02*
X1102Y70D01*
X1133Y70D02*
X1138Y70D01*
X1201Y70D02*
X1206Y70D01*
X1234Y70D02*
X1239Y70D01*
X1270Y70D02*
X1276Y70D01*
X2240Y70D02*
X2246Y70D01*
X1Y69D02*
X5Y69D01*
X788Y69D02*
X793Y69D01*
X821Y69D02*
X827Y69D01*
X858Y69D02*
X863Y69D01*
X925Y69D02*
X931Y69D01*
X959Y69D02*
X964Y69D01*
X995Y69D02*
X1001Y69D01*
X1063Y69D02*
X1068Y69D01*
X1096Y69D02*
X1102Y69D01*
X1133Y69D02*
X1138Y69D01*
X1201Y69D02*
X1206Y69D01*
X1234Y69D02*
X1239Y69D01*
X1270Y69D02*
X1276Y69D01*
X2240Y69D02*
X2246Y69D01*
X1Y68D02*
X5Y68D01*
X788Y68D02*
X793Y68D01*
X821Y68D02*
X827Y68D01*
X858Y68D02*
X863Y68D01*
X925Y68D02*
X931Y68D01*
X959Y68D02*
X964Y68D01*
X995Y68D02*
X1001Y68D01*
X1063Y68D02*
X1068Y68D01*
X1096Y68D02*
X1102Y68D01*
X1133Y68D02*
X1138Y68D01*
X1200Y68D02*
X1206Y68D01*
X1234Y68D02*
X1239Y68D01*
X1270Y68D02*
X1276Y68D01*
X2240Y68D02*
X2246Y68D01*
X1Y67D02*
X5Y67D01*
X787Y67D02*
X793Y67D01*
X821Y67D02*
X827Y67D01*
X858Y67D02*
X863Y67D01*
X925Y67D02*
X931Y67D01*
X959Y67D02*
X964Y67D01*
X995Y67D02*
X1001Y67D01*
X1062Y67D02*
X1068Y67D01*
X1096Y67D02*
X1102Y67D01*
X1133Y67D02*
X1138Y67D01*
X1200Y67D02*
X1206Y67D01*
X1234Y67D02*
X1239Y67D01*
X1270Y67D02*
X1276Y67D01*
X2240Y67D02*
X2246Y67D01*
X1Y66D02*
X5Y66D01*
X786Y66D02*
X793Y66D01*
X821Y66D02*
X827Y66D01*
X858Y66D02*
X863Y66D01*
X923Y66D02*
X930Y66D01*
X959Y66D02*
X964Y66D01*
X995Y66D02*
X1001Y66D01*
X1061Y66D02*
X1068Y66D01*
X1096Y66D02*
X1102Y66D01*
X1133Y66D02*
X1138Y66D01*
X1199Y66D02*
X1205Y66D01*
X1234Y66D02*
X1239Y66D01*
X1270Y66D02*
X1276Y66D01*
X2240Y66D02*
X2246Y66D01*
X1Y65D02*
X5Y65D01*
X785Y65D02*
X792Y65D01*
X821Y65D02*
X827Y65D01*
X858Y65D02*
X863Y65D01*
X922Y65D02*
X930Y65D01*
X959Y65D02*
X964Y65D01*
X995Y65D02*
X1001Y65D01*
X1060Y65D02*
X1067Y65D01*
X1096Y65D02*
X1102Y65D01*
X1133Y65D02*
X1138Y65D01*
X1197Y65D02*
X1205Y65D01*
X1234Y65D02*
X1239Y65D01*
X1270Y65D02*
X1276Y65D01*
X2240Y65D02*
X2246Y65D01*
X1Y64D02*
X5Y64D01*
X784Y64D02*
X792Y64D01*
X821Y64D02*
X827Y64D01*
X858Y64D02*
X863Y64D01*
X921Y64D02*
X929Y64D01*
X959Y64D02*
X964Y64D01*
X995Y64D02*
X1001Y64D01*
X1059Y64D02*
X1067Y64D01*
X1096Y64D02*
X1102Y64D01*
X1133Y64D02*
X1138Y64D01*
X1196Y64D02*
X1204Y64D01*
X1234Y64D02*
X1239Y64D01*
X1270Y64D02*
X1276Y64D01*
X2240Y64D02*
X2246Y64D01*
X1Y63D02*
X5Y63D01*
X782Y63D02*
X791Y63D01*
X821Y63D02*
X827Y63D01*
X858Y63D02*
X863Y63D01*
X920Y63D02*
X929Y63D01*
X959Y63D02*
X964Y63D01*
X995Y63D02*
X1001Y63D01*
X1057Y63D02*
X1066Y63D01*
X1096Y63D02*
X1102Y63D01*
X1133Y63D02*
X1138Y63D01*
X1195Y63D02*
X1204Y63D01*
X1234Y63D02*
X1239Y63D01*
X1270Y63D02*
X1276Y63D01*
X2240Y63D02*
X2246Y63D01*
X1Y62D02*
X5Y62D01*
X781Y62D02*
X790Y62D01*
X821Y62D02*
X827Y62D01*
X858Y62D02*
X863Y62D01*
X919Y62D02*
X928Y62D01*
X959Y62D02*
X964Y62D01*
X995Y62D02*
X1001Y62D01*
X1056Y62D02*
X1065Y62D01*
X1096Y62D02*
X1102Y62D01*
X1133Y62D02*
X1138Y62D01*
X1194Y62D02*
X1203Y62D01*
X1234Y62D02*
X1239Y62D01*
X1270Y62D02*
X1276Y62D01*
X2240Y62D02*
X2246Y62D01*
X1Y61D02*
X5Y61D01*
X765Y61D02*
X789Y61D01*
X814Y61D02*
X834Y61D01*
X858Y61D02*
X863Y61D01*
X902Y61D02*
X926Y61D01*
X951Y61D02*
X972Y61D01*
X995Y61D02*
X1001Y61D01*
X1040Y61D02*
X1064Y61D01*
X1089Y61D02*
X1109Y61D01*
X1133Y61D02*
X1138Y61D01*
X1177Y61D02*
X1202Y61D01*
X1226Y61D02*
X1247Y61D01*
X1270Y61D02*
X1276Y61D01*
X2240Y61D02*
X2246Y61D01*
X1Y60D02*
X5Y60D01*
X763Y60D02*
X788Y60D01*
X812Y60D02*
X835Y60D01*
X858Y60D02*
X863Y60D01*
X901Y60D02*
X925Y60D01*
X950Y60D02*
X973Y60D01*
X995Y60D02*
X1001Y60D01*
X1038Y60D02*
X1063Y60D01*
X1088Y60D02*
X1111Y60D01*
X1133Y60D02*
X1138Y60D01*
X1176Y60D02*
X1200Y60D01*
X1225Y60D02*
X1248Y60D01*
X1270Y60D02*
X1276Y60D01*
X2240Y60D02*
X2246Y60D01*
X1Y59D02*
X5Y59D01*
X763Y59D02*
X787Y59D01*
X812Y59D02*
X836Y59D01*
X858Y59D02*
X863Y59D01*
X900Y59D02*
X924Y59D01*
X949Y59D02*
X973Y59D01*
X995Y59D02*
X1001Y59D01*
X1038Y59D02*
X1062Y59D01*
X1087Y59D02*
X1111Y59D01*
X1133Y59D02*
X1138Y59D01*
X1176Y59D02*
X1199Y59D01*
X1225Y59D02*
X1249Y59D01*
X1270Y59D02*
X1276Y59D01*
X2240Y59D02*
X2246Y59D01*
X1Y58D02*
X5Y58D01*
X763Y58D02*
X785Y58D01*
X812Y58D02*
X836Y58D01*
X858Y58D02*
X863Y58D01*
X900Y58D02*
X923Y58D01*
X949Y58D02*
X974Y58D01*
X995Y58D02*
X1001Y58D01*
X1038Y58D02*
X1061Y58D01*
X1087Y58D02*
X1111Y58D01*
X1133Y58D02*
X1138Y58D01*
X1175Y58D02*
X1198Y58D01*
X1224Y58D02*
X1249Y58D01*
X1270Y58D02*
X1276Y58D01*
X2240Y58D02*
X2246Y58D01*
X1Y57D02*
X5Y57D01*
X763Y57D02*
X784Y57D01*
X812Y57D02*
X836Y57D01*
X858Y57D02*
X863Y57D01*
X901Y57D02*
X922Y57D01*
X950Y57D02*
X973Y57D01*
X995Y57D02*
X1001Y57D01*
X1038Y57D02*
X1059Y57D01*
X1087Y57D02*
X1111Y57D01*
X1133Y57D02*
X1138Y57D01*
X1176Y57D02*
X1197Y57D01*
X1225Y57D02*
X1248Y57D01*
X1270Y57D02*
X1276Y57D01*
X2240Y57D02*
X2246Y57D01*
X1Y56D02*
X5Y56D01*
X764Y56D02*
X783Y56D01*
X813Y56D02*
X835Y56D01*
X858Y56D02*
X863Y56D01*
X901Y56D02*
X920Y56D01*
X950Y56D02*
X973Y56D01*
X995Y56D02*
X1001Y56D01*
X1039Y56D02*
X1058Y56D01*
X1088Y56D02*
X1110Y56D01*
X1133Y56D02*
X1138Y56D01*
X1176Y56D02*
X1195Y56D01*
X1225Y56D02*
X1248Y56D01*
X1270Y56D02*
X1276Y56D01*
X2240Y56D02*
X2246Y56D01*
X1Y55D02*
X5Y55D01*
X858Y55D02*
X863Y55D01*
X995Y55D02*
X1001Y55D01*
X1133Y55D02*
X1138Y55D01*
X1270Y55D02*
X1276Y55D01*
X2240Y55D02*
X2246Y55D01*
X1Y54D02*
X5Y54D01*
X858Y54D02*
X863Y54D01*
X995Y54D02*
X1001Y54D01*
X1133Y54D02*
X1138Y54D01*
X1270Y54D02*
X1276Y54D01*
X2240Y54D02*
X2246Y54D01*
X1Y53D02*
X5Y53D01*
X858Y53D02*
X863Y53D01*
X878Y53D02*
X880Y53D01*
X995Y53D02*
X1001Y53D01*
X1016Y53D02*
X1018Y53D01*
X1133Y53D02*
X1138Y53D01*
X1153Y53D02*
X1155Y53D01*
X1270Y53D02*
X1276Y53D01*
X1291Y53D02*
X1293Y53D01*
X2240Y53D02*
X2246Y53D01*
X1Y52D02*
X5Y52D01*
X858Y52D02*
X863Y52D01*
X877Y52D02*
X881Y52D01*
X995Y52D02*
X1001Y52D01*
X1015Y52D02*
X1019Y52D01*
X1133Y52D02*
X1138Y52D01*
X1152Y52D02*
X1156Y52D01*
X1270Y52D02*
X1276Y52D01*
X1290Y52D02*
X1294Y52D01*
X2240Y52D02*
X2246Y52D01*
X1Y51D02*
X5Y51D01*
X858Y51D02*
X863Y51D01*
X877Y51D02*
X882Y51D01*
X995Y51D02*
X1001Y51D01*
X1014Y51D02*
X1019Y51D01*
X1133Y51D02*
X1138Y51D01*
X1152Y51D02*
X1157Y51D01*
X1270Y51D02*
X1276Y51D01*
X1289Y51D02*
X1294Y51D01*
X2240Y51D02*
X2246Y51D01*
X1Y50D02*
X5Y50D01*
X858Y50D02*
X863Y50D01*
X876Y50D02*
X882Y50D01*
X995Y50D02*
X1001Y50D01*
X1014Y50D02*
X1019Y50D01*
X1133Y50D02*
X1138Y50D01*
X1151Y50D02*
X1157Y50D01*
X1270Y50D02*
X1276Y50D01*
X1289Y50D02*
X1295Y50D01*
X2240Y50D02*
X2246Y50D01*
X1Y49D02*
X5Y49D01*
X858Y49D02*
X864Y49D01*
X876Y49D02*
X882Y49D01*
X995Y49D02*
X1001Y49D01*
X1013Y49D02*
X1019Y49D01*
X1133Y49D02*
X1139Y49D01*
X1151Y49D02*
X1157Y49D01*
X1271Y49D02*
X1277Y49D01*
X1288Y49D02*
X1294Y49D01*
X2240Y49D02*
X2246Y49D01*
X1Y48D02*
X5Y48D01*
X858Y48D02*
X866Y48D01*
X873Y48D02*
X882Y48D01*
X996Y48D02*
X1004Y48D01*
X1011Y48D02*
X1019Y48D01*
X1133Y48D02*
X1141Y48D01*
X1148Y48D02*
X1157Y48D01*
X1271Y48D02*
X1279Y48D01*
X1286Y48D02*
X1294Y48D01*
X2240Y48D02*
X2246Y48D01*
X1Y47D02*
X5Y47D01*
X859Y47D02*
X881Y47D01*
X996Y47D02*
X1019Y47D01*
X1134Y47D02*
X1156Y47D01*
X1271Y47D02*
X1294Y47D01*
X2240Y47D02*
X2246Y47D01*
X1Y46D02*
X5Y46D01*
X859Y46D02*
X881Y46D01*
X997Y46D02*
X1018Y46D01*
X1134Y46D02*
X1156Y46D01*
X1272Y46D02*
X1293Y46D01*
X2240Y46D02*
X2246Y46D01*
X1Y45D02*
X5Y45D01*
X860Y45D02*
X880Y45D01*
X997Y45D02*
X1017Y45D01*
X1135Y45D02*
X1155Y45D01*
X1273Y45D02*
X1292Y45D01*
X2240Y45D02*
X2246Y45D01*
X1Y44D02*
X5Y44D01*
X861Y44D02*
X879Y44D01*
X998Y44D02*
X1016Y44D01*
X1136Y44D02*
X1154Y44D01*
X1273Y44D02*
X1291Y44D01*
X2240Y44D02*
X2246Y44D01*
X1Y43D02*
X5Y43D01*
X862Y43D02*
X877Y43D01*
X1000Y43D02*
X1015Y43D01*
X1137Y43D02*
X1152Y43D01*
X1275Y43D02*
X1290Y43D01*
X2240Y43D02*
X2246Y43D01*
X1Y42D02*
X5Y42D01*
X865Y42D02*
X875Y42D01*
X1002Y42D02*
X1013Y42D01*
X1140Y42D02*
X1150Y42D01*
X1277Y42D02*
X1288Y42D01*
X2240Y42D02*
X2246Y42D01*
X1Y41D02*
X5Y41D01*
X2240Y41D02*
X2246Y41D01*
X1Y40D02*
X5Y40D01*
X2240Y40D02*
X2246Y40D01*
X1Y39D02*
X5Y39D01*
X2240Y39D02*
X2246Y39D01*
X1Y38D02*
X5Y38D01*
X2240Y38D02*
X2246Y38D01*
X1Y37D02*
X5Y37D01*
X2240Y37D02*
X2246Y37D01*
X1Y36D02*
X5Y36D01*
X2240Y36D02*
X2246Y36D01*
X1Y35D02*
X5Y35D01*
X2240Y35D02*
X2246Y35D01*
X1Y34D02*
X5Y34D01*
X2240Y34D02*
X2246Y34D01*
X1Y33D02*
X6Y33D01*
X2239Y33D02*
X2246Y33D01*
X1Y32D02*
X6Y32D01*
X2239Y32D02*
X2246Y32D01*
X1Y31D02*
X6Y31D01*
X2239Y31D02*
X2246Y31D01*
X1Y30D02*
X7Y30D01*
X2238Y30D02*
X2246Y30D01*
X1Y29D02*
X8Y29D01*
X2237Y29D02*
X2246Y29D01*
X1Y28D02*
X8Y28D01*
X2237Y28D02*
X2246Y28D01*
X1Y27D02*
X9Y27D01*
X2236Y27D02*
X2246Y27D01*
X1Y26D02*
X10Y26D01*
X2235Y26D02*
X2246Y26D01*
X1Y25D02*
X11Y25D01*
X2234Y25D02*
X2246Y25D01*
X1Y24D02*
X12Y24D01*
X2233Y24D02*
X2245Y24D01*
X1Y23D02*
X13Y23D01*
X2232Y23D02*
X2245Y23D01*
X1Y22D02*
X14Y22D01*
X2231Y22D02*
X2244Y22D01*
X2Y21D02*
X16Y21D01*
X2229Y21D02*
X2243Y21D01*
X3Y20D02*
X17Y20D01*
X2228Y20D02*
X2242Y20D01*
X4Y19D02*
X19Y19D01*
X2226Y19D02*
X2241Y19D01*
X5Y18D02*
X21Y18D01*
X2224Y18D02*
X2240Y18D01*
X6Y17D02*
X23Y17D01*
X2222Y17D02*
X2239Y17D01*
X7Y16D02*
X25Y16D01*
X2220Y16D02*
X2238Y16D01*
X8Y15D02*
X27Y15D01*
X2218Y15D02*
X2237Y15D01*
X9Y14D02*
X29Y14D01*
X2216Y14D02*
X2236Y14D01*
X10Y13D02*
X32Y13D01*
X2213Y13D02*
X2235Y13D01*
X12Y12D02*
X35Y12D01*
X2210Y12D02*
X2233Y12D01*
X13Y11D02*
X38Y11D01*
X2207Y11D02*
X2232Y11D01*
X15Y10D02*
X42Y10D01*
X2203Y10D02*
X2230Y10D01*
X17Y9D02*
X46Y9D01*
X2199Y9D02*
X2228Y9D01*
X19Y8D02*
X51Y8D01*
X2194Y8D02*
X2226Y8D01*
X20Y7D02*
X58Y7D01*
X2187Y7D02*
X2225Y7D01*
X23Y6D02*
X69Y6D01*
X2176Y6D02*
X2222Y6D01*
X25Y5D02*
X2220Y5D01*
X27Y4D02*
X2218Y4D01*
X30Y3D02*
X2215Y3D01*
X33Y2D02*
X2212Y2D01*
X37Y1D02*
X2208Y1D01*
X40Y0D02*
X2205Y0D01*
X45Y-1D02*
X2200Y-1D01*
D02*
G04 End of Silk0*
M02*