G04 MADE WITH FRITZING*
G04 WWW.FRITZING.ORG*
G04 DOUBLE SIDED*
G04 HOLES PLATED*
G04 CONTOUR ON CENTER OF CONTOUR VECTOR*
%ASAXBY*%
%FSLAX23Y23*%
%MOIN*%
%OFA0B0*%
%SFA1.0B1.0*%
%ADD10C,0.005000*%
%ADD10C,0.008*%
%LNCONTOUR*%
G90*
G70*
G54D10*
G54D10*
X66Y2402D02*
X67Y2402D01*
X68Y2402D01*
X69Y2402D01*
X70Y2402D01*
X71Y2402D01*
X72Y2402D01*
X73Y2402D01*
X74Y2402D01*
X75Y2402D01*
X76Y2402D01*
X77Y2402D01*
X78Y2402D01*
X79Y2402D01*
X80Y2402D01*
X81Y2402D01*
X82Y2402D01*
X83Y2402D01*
X84Y2402D01*
X85Y2402D01*
X86Y2402D01*
X87Y2402D01*
X88Y2402D01*
X89Y2402D01*
X90Y2402D01*
X91Y2402D01*
X92Y2402D01*
X93Y2402D01*
X94Y2402D01*
X95Y2402D01*
X96Y2402D01*
X97Y2402D01*
X98Y2402D01*
X99Y2402D01*
X100Y2402D01*
X101Y2402D01*
X102Y2402D01*
X103Y2402D01*
X104Y2402D01*
X105Y2402D01*
X106Y2402D01*
X107Y2402D01*
X108Y2402D01*
X109Y2402D01*
X110Y2402D01*
X111Y2402D01*
X112Y2402D01*
X113Y2402D01*
X114Y2402D01*
X115Y2402D01*
X116Y2402D01*
X117Y2402D01*
X118Y2402D01*
X119Y2402D01*
X120Y2402D01*
X121Y2402D01*
X122Y2402D01*
X123Y2402D01*
X124Y2402D01*
X125Y2402D01*
X126Y2402D01*
X127Y2402D01*
X128Y2402D01*
X129Y2402D01*
X130Y2402D01*
X131Y2402D01*
X132Y2402D01*
X133Y2402D01*
X134Y2402D01*
X135Y2402D01*
X136Y2402D01*
X137Y2402D01*
X138Y2402D01*
X139Y2402D01*
X140Y2402D01*
X141Y2402D01*
X142Y2402D01*
X143Y2402D01*
X144Y2402D01*
X145Y2402D01*
X146Y2402D01*
X147Y2402D01*
X148Y2402D01*
X149Y2402D01*
X150Y2402D01*
X151Y2402D01*
X152Y2402D01*
X153Y2402D01*
X154Y2402D01*
X155Y2402D01*
X156Y2402D01*
X157Y2402D01*
X158Y2402D01*
X159Y2402D01*
X160Y2402D01*
X161Y2402D01*
X162Y2402D01*
X163Y2402D01*
X164Y2402D01*
X165Y2402D01*
X166Y2402D01*
X167Y2402D01*
X168Y2402D01*
X169Y2402D01*
X170Y2402D01*
X171Y2402D01*
X172Y2402D01*
X173Y2402D01*
X174Y2402D01*
X175Y2402D01*
X176Y2402D01*
X177Y2402D01*
X178Y2402D01*
X179Y2402D01*
X180Y2402D01*
X181Y2402D01*
X182Y2402D01*
X183Y2402D01*
X184Y2402D01*
X185Y2402D01*
X186Y2402D01*
X187Y2402D01*
X188Y2402D01*
X189Y2402D01*
X190Y2402D01*
X191Y2402D01*
X192Y2402D01*
X193Y2402D01*
X194Y2402D01*
X195Y2402D01*
X196Y2402D01*
X197Y2402D01*
X198Y2402D01*
X199Y2402D01*
X200Y2402D01*
X201Y2402D01*
X202Y2402D01*
X203Y2402D01*
X204Y2402D01*
X205Y2402D01*
X206Y2402D01*
X207Y2402D01*
X208Y2402D01*
X209Y2402D01*
X210Y2402D01*
X211Y2402D01*
X212Y2402D01*
X213Y2402D01*
X214Y2402D01*
X215Y2402D01*
X216Y2402D01*
X217Y2402D01*
X218Y2402D01*
X219Y2402D01*
X220Y2402D01*
X221Y2402D01*
X222Y2402D01*
X223Y2402D01*
X224Y2402D01*
X225Y2402D01*
X226Y2402D01*
X227Y2402D01*
X228Y2402D01*
X229Y2402D01*
X230Y2402D01*
X231Y2402D01*
X232Y2402D01*
X233Y2402D01*
X234Y2402D01*
X235Y2402D01*
X236Y2402D01*
X237Y2402D01*
X238Y2402D01*
X239Y2402D01*
X240Y2402D01*
X241Y2402D01*
X242Y2402D01*
X243Y2402D01*
X244Y2402D01*
X245Y2402D01*
X246Y2402D01*
X247Y2402D01*
X248Y2402D01*
X249Y2402D01*
X250Y2402D01*
X251Y2402D01*
X252Y2402D01*
X253Y2402D01*
X254Y2402D01*
X255Y2402D01*
X256Y2402D01*
X257Y2402D01*
X258Y2402D01*
X259Y2402D01*
X260Y2402D01*
X261Y2402D01*
X262Y2402D01*
X263Y2402D01*
X264Y2402D01*
X265Y2402D01*
X266Y2402D01*
X267Y2402D01*
X268Y2402D01*
X269Y2402D01*
X270Y2402D01*
X271Y2402D01*
X272Y2402D01*
X273Y2402D01*
X274Y2402D01*
X275Y2402D01*
X276Y2402D01*
X277Y2402D01*
X278Y2402D01*
X279Y2402D01*
X280Y2402D01*
X281Y2402D01*
X282Y2402D01*
X283Y2402D01*
X284Y2402D01*
X285Y2402D01*
X286Y2402D01*
X287Y2402D01*
X288Y2402D01*
X289Y2402D01*
X290Y2402D01*
X291Y2402D01*
X292Y2402D01*
X293Y2402D01*
X294Y2402D01*
X295Y2402D01*
X296Y2402D01*
X297Y2402D01*
X298Y2402D01*
X299Y2402D01*
X300Y2402D01*
X301Y2402D01*
X302Y2402D01*
X303Y2402D01*
X304Y2402D01*
X305Y2402D01*
X306Y2402D01*
X307Y2402D01*
X308Y2402D01*
X309Y2402D01*
X310Y2402D01*
X311Y2402D01*
X312Y2402D01*
X313Y2402D01*
X314Y2402D01*
X315Y2402D01*
X316Y2402D01*
X317Y2402D01*
X318Y2402D01*
X319Y2402D01*
X320Y2402D01*
X321Y2402D01*
X322Y2402D01*
X323Y2402D01*
X324Y2402D01*
X325Y2402D01*
X326Y2402D01*
X327Y2402D01*
X328Y2402D01*
X329Y2402D01*
X330Y2402D01*
X331Y2402D01*
X332Y2402D01*
X333Y2402D01*
X334Y2402D01*
X335Y2402D01*
X336Y2402D01*
X337Y2402D01*
X338Y2402D01*
X339Y2402D01*
X340Y2402D01*
X341Y2402D01*
X342Y2402D01*
X343Y2402D01*
X344Y2402D01*
X345Y2402D01*
X346Y2402D01*
X347Y2402D01*
X348Y2402D01*
X349Y2402D01*
X350Y2402D01*
X351Y2402D01*
X352Y2402D01*
X353Y2402D01*
X354Y2402D01*
X355Y2402D01*
X356Y2402D01*
X357Y2402D01*
X358Y2402D01*
X359Y2402D01*
X360Y2402D01*
X361Y2402D01*
X362Y2402D01*
X363Y2402D01*
X364Y2402D01*
X365Y2402D01*
X366Y2402D01*
X367Y2402D01*
X368Y2402D01*
X369Y2402D01*
X370Y2402D01*
X371Y2402D01*
X372Y2402D01*
X373Y2402D01*
X374Y2402D01*
X375Y2402D01*
X376Y2402D01*
X377Y2402D01*
X378Y2402D01*
X379Y2402D01*
X380Y2402D01*
X381Y2402D01*
X382Y2402D01*
X383Y2402D01*
X384Y2402D01*
X385Y2402D01*
X386Y2402D01*
X387Y2402D01*
X388Y2402D01*
X389Y2402D01*
X390Y2402D01*
X391Y2402D01*
X392Y2402D01*
X393Y2402D01*
X394Y2402D01*
X395Y2402D01*
X396Y2402D01*
X397Y2402D01*
X398Y2402D01*
X399Y2402D01*
X400Y2402D01*
X401Y2402D01*
X402Y2402D01*
X403Y2402D01*
X404Y2402D01*
X405Y2402D01*
X406Y2402D01*
X407Y2402D01*
X408Y2402D01*
X409Y2402D01*
X410Y2402D01*
X411Y2402D01*
X412Y2402D01*
X413Y2402D01*
X414Y2402D01*
X415Y2402D01*
X416Y2402D01*
X417Y2402D01*
X418Y2402D01*
X419Y2402D01*
X420Y2402D01*
X421Y2402D01*
X422Y2402D01*
X423Y2402D01*
X424Y2402D01*
X425Y2402D01*
X426Y2402D01*
X427Y2402D01*
X428Y2402D01*
X429Y2402D01*
X430Y2402D01*
X431Y2402D01*
X432Y2402D01*
X433Y2402D01*
X434Y2402D01*
X435Y2402D01*
X436Y2402D01*
X437Y2402D01*
X438Y2402D01*
X439Y2402D01*
X440Y2402D01*
X441Y2402D01*
X442Y2402D01*
X443Y2402D01*
X444Y2402D01*
X445Y2402D01*
X446Y2402D01*
X447Y2402D01*
X448Y2402D01*
X449Y2402D01*
X450Y2402D01*
X451Y2402D01*
X452Y2402D01*
X453Y2402D01*
X454Y2402D01*
X455Y2402D01*
X456Y2402D01*
X457Y2402D01*
X458Y2402D01*
X459Y2402D01*
X460Y2402D01*
X461Y2402D01*
X462Y2402D01*
X463Y2402D01*
X464Y2402D01*
X465Y2402D01*
X466Y2402D01*
X467Y2402D01*
X468Y2402D01*
X469Y2402D01*
X470Y2402D01*
X471Y2402D01*
X472Y2402D01*
X473Y2402D01*
X474Y2402D01*
X475Y2402D01*
X476Y2402D01*
X477Y2402D01*
X478Y2402D01*
X479Y2402D01*
X480Y2402D01*
X481Y2402D01*
X482Y2402D01*
X483Y2402D01*
X484Y2402D01*
X485Y2402D01*
X486Y2402D01*
X487Y2402D01*
X488Y2402D01*
X489Y2402D01*
X490Y2402D01*
X491Y2402D01*
X492Y2402D01*
X493Y2402D01*
X494Y2402D01*
X495Y2402D01*
X496Y2402D01*
X497Y2402D01*
X498Y2402D01*
X499Y2402D01*
X500Y2402D01*
X501Y2402D01*
X502Y2402D01*
X503Y2402D01*
X504Y2402D01*
X505Y2402D01*
X506Y2402D01*
X507Y2402D01*
X508Y2402D01*
X509Y2402D01*
X510Y2402D01*
X511Y2402D01*
X512Y2402D01*
X513Y2402D01*
X514Y2402D01*
X515Y2402D01*
X516Y2402D01*
X517Y2402D01*
X518Y2402D01*
X519Y2402D01*
X520Y2402D01*
X521Y2402D01*
X522Y2402D01*
X523Y2402D01*
X524Y2402D01*
X525Y2402D01*
X526Y2402D01*
X527Y2402D01*
X528Y2402D01*
X529Y2402D01*
X530Y2402D01*
X531Y2402D01*
X532Y2402D01*
X533Y2402D01*
X534Y2402D01*
X535Y2402D01*
X536Y2402D01*
X537Y2402D01*
X538Y2402D01*
X539Y2402D01*
X540Y2402D01*
X541Y2402D01*
X542Y2402D01*
X543Y2402D01*
X544Y2402D01*
X545Y2402D01*
X546Y2402D01*
X547Y2402D01*
X548Y2402D01*
X549Y2402D01*
X550Y2402D01*
X551Y2402D01*
X552Y2402D01*
X553Y2402D01*
X554Y2402D01*
X555Y2402D01*
X556Y2402D01*
X557Y2402D01*
X558Y2402D01*
X559Y2402D01*
X560Y2402D01*
X561Y2402D01*
X562Y2402D01*
X563Y2402D01*
X564Y2402D01*
X565Y2402D01*
X566Y2402D01*
X567Y2402D01*
X568Y2402D01*
X569Y2402D01*
X570Y2402D01*
X571Y2402D01*
X572Y2402D01*
X573Y2402D01*
X574Y2402D01*
X575Y2402D01*
X576Y2402D01*
X577Y2402D01*
X578Y2402D01*
X579Y2402D01*
X580Y2402D01*
X581Y2402D01*
X582Y2402D01*
X583Y2402D01*
X584Y2402D01*
X585Y2402D01*
X586Y2402D01*
X587Y2402D01*
X588Y2402D01*
X589Y2402D01*
X590Y2402D01*
X591Y2402D01*
X592Y2402D01*
X593Y2402D01*
X594Y2402D01*
X595Y2402D01*
X596Y2402D01*
X597Y2402D01*
X598Y2402D01*
X599Y2402D01*
X600Y2402D01*
X601Y2402D01*
X602Y2402D01*
X603Y2402D01*
X604Y2402D01*
X605Y2402D01*
X606Y2402D01*
X607Y2402D01*
X608Y2402D01*
X609Y2402D01*
X610Y2402D01*
X611Y2402D01*
X612Y2402D01*
X613Y2402D01*
X614Y2402D01*
X615Y2402D01*
X616Y2402D01*
X617Y2402D01*
X618Y2402D01*
X619Y2402D01*
X620Y2402D01*
X621Y2402D01*
X622Y2402D01*
X623Y2402D01*
X624Y2402D01*
X625Y2402D01*
X626Y2402D01*
X627Y2402D01*
X628Y2402D01*
X629Y2402D01*
X630Y2402D01*
X631Y2402D01*
X632Y2402D01*
X633Y2402D01*
X634Y2402D01*
X635Y2402D01*
X636Y2402D01*
X637Y2402D01*
X638Y2402D01*
X639Y2402D01*
X640Y2402D01*
X641Y2402D01*
X642Y2402D01*
X643Y2402D01*
X644Y2402D01*
X645Y2402D01*
X646Y2402D01*
X647Y2402D01*
X648Y2402D01*
X649Y2402D01*
X650Y2402D01*
X651Y2402D01*
X652Y2402D01*
X653Y2402D01*
X654Y2402D01*
X655Y2402D01*
X656Y2402D01*
X657Y2402D01*
X658Y2402D01*
X659Y2402D01*
X660Y2402D01*
X661Y2402D01*
X662Y2402D01*
X663Y2402D01*
X664Y2402D01*
X665Y2402D01*
X666Y2402D01*
X667Y2402D01*
X668Y2402D01*
X669Y2402D01*
X670Y2402D01*
X671Y2402D01*
X672Y2402D01*
X673Y2402D01*
X674Y2402D01*
X675Y2402D01*
X676Y2402D01*
X677Y2402D01*
X678Y2402D01*
X679Y2402D01*
X680Y2402D01*
X681Y2402D01*
X682Y2402D01*
X683Y2402D01*
X684Y2402D01*
X685Y2402D01*
X686Y2402D01*
X687Y2402D01*
X688Y2402D01*
X689Y2402D01*
X690Y2402D01*
X691Y2402D01*
X692Y2402D01*
X693Y2402D01*
X694Y2402D01*
X695Y2402D01*
X696Y2402D01*
X697Y2402D01*
X698Y2402D01*
X699Y2402D01*
X700Y2402D01*
X701Y2402D01*
X702Y2402D01*
X703Y2402D01*
X704Y2402D01*
X705Y2402D01*
X706Y2402D01*
X707Y2402D01*
X708Y2402D01*
X709Y2402D01*
X710Y2402D01*
X711Y2402D01*
X712Y2402D01*
X713Y2402D01*
X714Y2402D01*
X715Y2402D01*
X716Y2402D01*
X717Y2402D01*
X718Y2402D01*
X719Y2402D01*
X720Y2402D01*
X721Y2402D01*
X722Y2402D01*
X723Y2402D01*
X724Y2402D01*
X725Y2402D01*
X726Y2402D01*
X727Y2402D01*
X728Y2402D01*
X729Y2402D01*
X730Y2402D01*
X731Y2402D01*
X732Y2402D01*
X733Y2402D01*
X734Y2402D01*
X735Y2402D01*
X736Y2402D01*
X737Y2402D01*
X738Y2402D01*
X739Y2402D01*
X740Y2402D01*
X741Y2402D01*
X742Y2402D01*
X743Y2402D01*
X744Y2402D01*
X745Y2402D01*
X746Y2402D01*
X747Y2402D01*
X748Y2402D01*
X749Y2402D01*
X750Y2402D01*
X751Y2402D01*
X752Y2402D01*
X753Y2402D01*
X754Y2402D01*
X755Y2402D01*
X756Y2402D01*
X757Y2402D01*
X758Y2402D01*
X759Y2402D01*
X760Y2402D01*
X761Y2402D01*
X762Y2402D01*
X763Y2402D01*
X764Y2402D01*
X765Y2402D01*
X766Y2402D01*
X767Y2402D01*
X768Y2402D01*
X769Y2402D01*
X770Y2402D01*
X771Y2402D01*
X772Y2402D01*
X773Y2402D01*
X774Y2402D01*
X775Y2402D01*
X776Y2402D01*
X777Y2402D01*
X778Y2402D01*
X779Y2402D01*
X780Y2402D01*
X781Y2402D01*
X782Y2402D01*
X783Y2402D01*
X784Y2402D01*
X785Y2402D01*
X786Y2402D01*
X787Y2402D01*
X788Y2402D01*
X789Y2402D01*
X790Y2402D01*
X791Y2402D01*
X792Y2402D01*
X793Y2402D01*
X794Y2402D01*
X795Y2402D01*
X796Y2402D01*
X797Y2402D01*
X798Y2402D01*
X799Y2402D01*
X800Y2402D01*
X801Y2402D01*
X802Y2402D01*
X803Y2402D01*
X804Y2402D01*
X805Y2402D01*
X806Y2402D01*
X807Y2402D01*
X808Y2402D01*
X809Y2402D01*
X810Y2402D01*
X811Y2402D01*
X812Y2402D01*
X813Y2402D01*
X814Y2402D01*
X815Y2402D01*
X816Y2402D01*
X817Y2402D01*
X818Y2402D01*
X819Y2402D01*
X820Y2402D01*
X821Y2402D01*
X822Y2402D01*
X823Y2402D01*
X824Y2402D01*
X825Y2402D01*
X826Y2402D01*
X827Y2402D01*
X828Y2402D01*
X829Y2402D01*
X830Y2402D01*
X831Y2402D01*
X832Y2402D01*
X833Y2402D01*
X834Y2402D01*
X835Y2402D01*
X836Y2402D01*
X837Y2402D01*
X838Y2402D01*
X839Y2402D01*
X840Y2402D01*
X841Y2402D01*
X842Y2402D01*
X843Y2402D01*
X844Y2402D01*
X845Y2402D01*
X846Y2402D01*
X847Y2402D01*
X848Y2402D01*
X849Y2402D01*
X850Y2402D01*
X851Y2402D01*
X852Y2402D01*
X853Y2402D01*
X854Y2402D01*
X855Y2402D01*
X856Y2402D01*
X857Y2402D01*
X858Y2402D01*
X859Y2402D01*
X860Y2402D01*
X861Y2402D01*
X862Y2402D01*
X863Y2402D01*
X864Y2402D01*
X865Y2402D01*
X866Y2402D01*
X867Y2402D01*
X868Y2402D01*
X869Y2402D01*
X870Y2402D01*
X871Y2402D01*
X872Y2402D01*
X873Y2402D01*
X874Y2402D01*
X875Y2402D01*
X876Y2402D01*
X877Y2402D01*
X878Y2402D01*
X879Y2402D01*
X880Y2402D01*
X881Y2402D01*
X882Y2402D01*
X883Y2402D01*
X884Y2402D01*
X885Y2402D01*
X886Y2402D01*
X887Y2402D01*
X888Y2402D01*
X889Y2402D01*
X890Y2402D01*
X891Y2402D01*
X892Y2402D01*
X893Y2402D01*
X894Y2402D01*
X895Y2402D01*
X896Y2402D01*
X897Y2402D01*
X898Y2402D01*
X899Y2402D01*
X900Y2402D01*
X901Y2402D01*
X902Y2402D01*
X903Y2402D01*
X904Y2402D01*
X905Y2402D01*
X906Y2402D01*
X907Y2402D01*
X908Y2402D01*
X909Y2402D01*
X910Y2402D01*
X911Y2402D01*
X912Y2402D01*
X913Y2402D01*
X914Y2402D01*
X915Y2402D01*
X916Y2402D01*
X917Y2402D01*
X918Y2402D01*
X919Y2402D01*
X920Y2402D01*
X921Y2402D01*
X922Y2402D01*
X923Y2402D01*
X924Y2402D01*
X925Y2402D01*
X926Y2402D01*
X927Y2402D01*
X928Y2402D01*
X929Y2402D01*
X930Y2402D01*
X931Y2402D01*
X932Y2402D01*
X933Y2402D01*
X934Y2402D01*
X935Y2402D01*
X936Y2402D01*
X937Y2402D01*
X938Y2402D01*
X939Y2402D01*
X940Y2402D01*
X941Y2402D01*
X942Y2402D01*
X943Y2402D01*
X944Y2402D01*
X945Y2402D01*
X946Y2402D01*
X947Y2402D01*
X948Y2402D01*
X949Y2402D01*
X950Y2402D01*
X951Y2402D01*
X952Y2402D01*
X953Y2402D01*
X954Y2402D01*
X955Y2402D01*
X956Y2402D01*
X957Y2402D01*
X958Y2402D01*
X959Y2402D01*
X960Y2402D01*
X961Y2402D01*
X962Y2402D01*
X963Y2402D01*
X964Y2402D01*
X965Y2402D01*
X966Y2402D01*
X967Y2402D01*
X968Y2402D01*
X969Y2402D01*
X970Y2402D01*
X971Y2402D01*
X972Y2402D01*
X973Y2402D01*
X974Y2402D01*
X975Y2402D01*
X976Y2402D01*
X977Y2402D01*
X978Y2402D01*
X979Y2402D01*
X980Y2402D01*
X981Y2402D01*
X982Y2402D01*
X983Y2402D01*
X984Y2402D01*
X985Y2402D01*
X986Y2402D01*
X987Y2402D01*
X988Y2402D01*
X989Y2402D01*
X990Y2402D01*
X991Y2402D01*
X992Y2402D01*
X993Y2402D01*
X994Y2402D01*
X995Y2402D01*
X996Y2402D01*
X997Y2402D01*
X998Y2402D01*
X999Y2402D01*
X1000Y2402D01*
X1001Y2402D01*
X1002Y2402D01*
X1003Y2402D01*
X1004Y2402D01*
X1005Y2402D01*
X1006Y2402D01*
X1007Y2402D01*
X1008Y2402D01*
X1009Y2402D01*
X1010Y2402D01*
X1011Y2402D01*
X1012Y2402D01*
X1013Y2402D01*
X1014Y2402D01*
X1015Y2402D01*
X1016Y2402D01*
X1017Y2402D01*
X1018Y2402D01*
X1019Y2402D01*
X1020Y2402D01*
X1021Y2402D01*
X1022Y2402D01*
X1023Y2402D01*
X1024Y2402D01*
X1025Y2402D01*
X1026Y2402D01*
X1027Y2402D01*
X1028Y2402D01*
X1029Y2402D01*
X1030Y2402D01*
X1031Y2402D01*
X1032Y2402D01*
X1033Y2402D01*
X1034Y2402D01*
X1035Y2402D01*
X1036Y2402D01*
X1037Y2402D01*
X1038Y2402D01*
X1039Y2402D01*
X1040Y2402D01*
X1041Y2402D01*
X1042Y2402D01*
X1043Y2402D01*
X1044Y2402D01*
X1045Y2402D01*
X1046Y2402D01*
X1047Y2402D01*
X1048Y2402D01*
X1049Y2402D01*
X1050Y2402D01*
X1051Y2402D01*
X1052Y2402D01*
X1053Y2402D01*
X1054Y2402D01*
X1055Y2402D01*
X1056Y2402D01*
X1057Y2402D01*
X1058Y2402D01*
X1059Y2402D01*
X1060Y2402D01*
X1061Y2402D01*
X1062Y2402D01*
X1063Y2402D01*
X1064Y2402D01*
X1065Y2402D01*
X1066Y2402D01*
X1067Y2402D01*
X1068Y2402D01*
X1069Y2402D01*
X1070Y2402D01*
X1071Y2402D01*
X1072Y2402D01*
X1073Y2402D01*
X1074Y2402D01*
X1075Y2402D01*
X1076Y2402D01*
X1077Y2402D01*
X1078Y2402D01*
X1079Y2402D01*
X1080Y2402D01*
X1081Y2402D01*
X1082Y2402D01*
X1083Y2402D01*
X1084Y2402D01*
X1085Y2402D01*
X1086Y2402D01*
X1087Y2402D01*
X1088Y2402D01*
X1089Y2402D01*
X1090Y2402D01*
X1091Y2402D01*
X1092Y2402D01*
X1093Y2402D01*
X1094Y2402D01*
X1095Y2402D01*
X1096Y2402D01*
X1097Y2402D01*
X1098Y2402D01*
X1099Y2402D01*
X1100Y2402D01*
X1101Y2402D01*
X1102Y2402D01*
X1103Y2402D01*
X1104Y2402D01*
X1105Y2402D01*
X1106Y2402D01*
X1107Y2402D01*
X1108Y2402D01*
X1109Y2402D01*
X1110Y2402D01*
X1111Y2402D01*
X1112Y2402D01*
X1113Y2402D01*
X1114Y2402D01*
X1115Y2402D01*
X1116Y2402D01*
X1117Y2402D01*
X1118Y2402D01*
X1119Y2402D01*
X1120Y2402D01*
X1121Y2402D01*
X1122Y2402D01*
X1123Y2402D01*
X1124Y2402D01*
X1125Y2402D01*
X1126Y2402D01*
X1127Y2402D01*
X1128Y2402D01*
X1129Y2402D01*
X1130Y2402D01*
X1131Y2402D01*
X1132Y2402D01*
X1133Y2402D01*
X1134Y2402D01*
X1135Y2402D01*
X1136Y2402D01*
X1137Y2402D01*
X1138Y2402D01*
X1139Y2402D01*
X1140Y2402D01*
X1141Y2402D01*
X1142Y2402D01*
X1143Y2402D01*
X1144Y2402D01*
X1145Y2402D01*
X1146Y2402D01*
X1147Y2402D01*
X1148Y2402D01*
X1149Y2402D01*
X1150Y2402D01*
X1151Y2402D01*
X1152Y2402D01*
X1153Y2402D01*
X1154Y2402D01*
X1155Y2402D01*
X1156Y2402D01*
X1157Y2402D01*
X1158Y2402D01*
X1159Y2402D01*
X1160Y2402D01*
X1161Y2402D01*
X1162Y2402D01*
X1163Y2402D01*
X1164Y2402D01*
X1165Y2402D01*
X1166Y2402D01*
X1167Y2402D01*
X1168Y2402D01*
X1169Y2402D01*
X1170Y2402D01*
X1171Y2402D01*
X1172Y2402D01*
X1173Y2402D01*
X1174Y2402D01*
X1175Y2402D01*
X1176Y2402D01*
X1177Y2402D01*
X1178Y2402D01*
X1179Y2402D01*
X1180Y2402D01*
X1181Y2402D01*
X1182Y2402D01*
X1183Y2402D01*
X1184Y2402D01*
X1185Y2402D01*
X1186Y2402D01*
X1187Y2402D01*
X1188Y2402D01*
X1189Y2402D01*
X1190Y2402D01*
X1191Y2402D01*
X1192Y2402D01*
X1193Y2402D01*
X1194Y2402D01*
X1195Y2402D01*
X1196Y2402D01*
X1197Y2402D01*
X1198Y2402D01*
X1199Y2402D01*
X1200Y2402D01*
X1201Y2402D01*
X1202Y2402D01*
X1203Y2402D01*
X1204Y2402D01*
X1205Y2402D01*
X1206Y2402D01*
X1207Y2402D01*
X1208Y2402D01*
X1209Y2402D01*
X1210Y2402D01*
X1211Y2402D01*
X1212Y2402D01*
X1213Y2402D01*
X1214Y2402D01*
X1215Y2402D01*
X1216Y2402D01*
X1217Y2402D01*
X1218Y2402D01*
X1219Y2402D01*
X1220Y2402D01*
X1221Y2402D01*
X1222Y2402D01*
X1223Y2402D01*
X1224Y2402D01*
X1225Y2402D01*
X1226Y2402D01*
X1227Y2402D01*
X1228Y2402D01*
X1229Y2402D01*
X1230Y2402D01*
X1231Y2402D01*
X1232Y2402D01*
X1233Y2402D01*
X1234Y2402D01*
X1235Y2402D01*
X1236Y2402D01*
X1237Y2402D01*
X1238Y2402D01*
X1239Y2402D01*
X1240Y2402D01*
X1241Y2402D01*
X1242Y2402D01*
X1243Y2402D01*
X1244Y2402D01*
X1245Y2402D01*
X1246Y2402D01*
X1247Y2402D01*
X1248Y2402D01*
X1249Y2402D01*
X1250Y2402D01*
X1251Y2402D01*
X1252Y2402D01*
X1253Y2402D01*
X1254Y2402D01*
X1255Y2402D01*
X1256Y2402D01*
X1257Y2402D01*
X1258Y2402D01*
X1259Y2402D01*
X1260Y2402D01*
X1261Y2402D01*
X1262Y2402D01*
X1263Y2402D01*
X1264Y2402D01*
X1265Y2402D01*
X1266Y2402D01*
X1267Y2402D01*
X1268Y2402D01*
X1269Y2402D01*
X1270Y2402D01*
X1271Y2402D01*
X1272Y2402D01*
X1273Y2402D01*
X1274Y2402D01*
X1275Y2402D01*
X1276Y2402D01*
X1277Y2402D01*
X1278Y2402D01*
X1279Y2402D01*
X1280Y2402D01*
X1281Y2402D01*
X1282Y2402D01*
X1283Y2402D01*
X1284Y2402D01*
X1285Y2402D01*
X1286Y2402D01*
X1287Y2402D01*
X1288Y2402D01*
X1289Y2402D01*
X1290Y2402D01*
X1291Y2402D01*
X1292Y2402D01*
X1293Y2402D01*
X1294Y2402D01*
X1295Y2402D01*
X1296Y2402D01*
X1297Y2402D01*
X1298Y2402D01*
X1299Y2402D01*
X1300Y2402D01*
X1301Y2402D01*
X1302Y2402D01*
X1303Y2402D01*
X1304Y2402D01*
X1305Y2402D01*
X1306Y2402D01*
X1307Y2402D01*
X1308Y2402D01*
X1309Y2402D01*
X1310Y2402D01*
X1311Y2402D01*
X1312Y2402D01*
X1313Y2402D01*
X1314Y2402D01*
X1315Y2402D01*
X1316Y2402D01*
X1317Y2402D01*
X1318Y2402D01*
X1319Y2402D01*
X1320Y2402D01*
X1321Y2402D01*
X1322Y2402D01*
X1323Y2402D01*
X1324Y2402D01*
X1325Y2402D01*
X1326Y2402D01*
X1327Y2402D01*
X1328Y2402D01*
X1329Y2402D01*
X1330Y2402D01*
X1331Y2402D01*
X1332Y2402D01*
X1333Y2402D01*
X1334Y2402D01*
X1335Y2402D01*
X1336Y2402D01*
X1337Y2402D01*
X1338Y2402D01*
X1339Y2402D01*
X1340Y2402D01*
X1341Y2402D01*
X1342Y2402D01*
X1343Y2402D01*
X1344Y2402D01*
X1345Y2402D01*
X1346Y2402D01*
X1347Y2402D01*
X1348Y2402D01*
X1349Y2402D01*
X1350Y2402D01*
X1351Y2402D01*
X1352Y2402D01*
X1353Y2402D01*
X1354Y2402D01*
X1355Y2402D01*
X1356Y2402D01*
X1357Y2402D01*
X1358Y2402D01*
X1359Y2402D01*
X1360Y2402D01*
X1361Y2402D01*
X1362Y2402D01*
X1363Y2402D01*
X1364Y2402D01*
X1365Y2402D01*
X1366Y2402D01*
X1367Y2402D01*
X1368Y2402D01*
X1369Y2402D01*
X1370Y2402D01*
X1371Y2402D01*
X1372Y2402D01*
X1373Y2402D01*
X1374Y2402D01*
X1375Y2402D01*
X1376Y2402D01*
X1377Y2402D01*
X1378Y2402D01*
X1379Y2402D01*
X1380Y2402D01*
X1381Y2402D01*
X1382Y2402D01*
X1383Y2402D01*
X1384Y2402D01*
X1385Y2402D01*
X1386Y2402D01*
X1387Y2402D01*
X1388Y2402D01*
X1389Y2402D01*
X1390Y2402D01*
X1391Y2402D01*
X1392Y2402D01*
X1393Y2402D01*
X1394Y2402D01*
X1395Y2402D01*
X1396Y2402D01*
X1397Y2402D01*
X1398Y2402D01*
X1399Y2402D01*
X1400Y2402D01*
X1401Y2402D01*
X1402Y2402D01*
X1403Y2402D01*
X1404Y2402D01*
X1405Y2402D01*
X1406Y2402D01*
X1407Y2402D01*
X1408Y2402D01*
X1409Y2402D01*
X1410Y2402D01*
X1411Y2402D01*
X1412Y2402D01*
X1413Y2402D01*
X1414Y2402D01*
X1415Y2402D01*
X1416Y2402D01*
X1417Y2402D01*
X1418Y2402D01*
X1419Y2402D01*
X1420Y2402D01*
X1421Y2402D01*
X1422Y2402D01*
X1423Y2402D01*
X1424Y2402D01*
X1425Y2402D01*
X1426Y2402D01*
X1427Y2402D01*
X1428Y2402D01*
X1429Y2402D01*
X1430Y2402D01*
X1431Y2402D01*
X1432Y2402D01*
X1433Y2402D01*
X1434Y2402D01*
X1435Y2402D01*
X1436Y2402D01*
X1437Y2402D01*
X1438Y2402D01*
X1439Y2402D01*
X1440Y2402D01*
X1441Y2402D01*
X1442Y2402D01*
X1443Y2402D01*
X1444Y2402D01*
X1445Y2402D01*
X1446Y2402D01*
X1447Y2402D01*
X1448Y2402D01*
X1449Y2402D01*
X1450Y2402D01*
X1451Y2402D01*
X1452Y2402D01*
X1453Y2402D01*
X1454Y2402D01*
X1455Y2402D01*
X1456Y2402D01*
X1457Y2402D01*
X1458Y2402D01*
X1459Y2402D01*
X1460Y2402D01*
X1461Y2402D01*
X1462Y2402D01*
X1463Y2402D01*
X1464Y2402D01*
X1465Y2402D01*
X1466Y2402D01*
X1467Y2402D01*
X1468Y2402D01*
X1469Y2402D01*
X1470Y2402D01*
X1471Y2402D01*
X1472Y2402D01*
X1473Y2402D01*
X1474Y2402D01*
X1475Y2402D01*
X1476Y2402D01*
X1477Y2402D01*
X1478Y2402D01*
X1479Y2402D01*
X1480Y2402D01*
X1481Y2402D01*
X1482Y2402D01*
X1483Y2402D01*
X1484Y2402D01*
X1485Y2402D01*
X1486Y2402D01*
X1487Y2402D01*
X1488Y2402D01*
X1489Y2402D01*
X1490Y2402D01*
X1491Y2402D01*
X1492Y2402D01*
X1493Y2402D01*
X1494Y2402D01*
X1495Y2402D01*
X1496Y2402D01*
X1497Y2402D01*
X1498Y2402D01*
X1499Y2402D01*
X1500Y2402D01*
X1501Y2402D01*
X1502Y2402D01*
X1503Y2402D01*
X1504Y2402D01*
X1505Y2402D01*
X1506Y2402D01*
X1507Y2402D01*
X1508Y2402D01*
X1509Y2402D01*
X1510Y2402D01*
X1511Y2402D01*
X1512Y2402D01*
X1513Y2402D01*
X1514Y2402D01*
X1515Y2402D01*
X1516Y2402D01*
X1517Y2402D01*
X1518Y2402D01*
X1519Y2402D01*
X1520Y2402D01*
X1521Y2402D01*
X1522Y2402D01*
X1523Y2402D01*
X1524Y2402D01*
X1525Y2402D01*
X1526Y2402D01*
X1527Y2402D01*
X1528Y2402D01*
X1529Y2402D01*
X1530Y2402D01*
X1531Y2402D01*
X1532Y2402D01*
X1533Y2402D01*
X1534Y2402D01*
X1535Y2402D01*
X1536Y2402D01*
X1537Y2402D01*
X1538Y2402D01*
X1539Y2402D01*
X1540Y2402D01*
X1541Y2402D01*
X1542Y2402D01*
X1543Y2402D01*
X1544Y2402D01*
X1545Y2402D01*
X1546Y2402D01*
X1547Y2402D01*
X1548Y2402D01*
X1549Y2402D01*
X1550Y2402D01*
X1551Y2402D01*
X1552Y2402D01*
X1553Y2402D01*
X1554Y2402D01*
X1555Y2402D01*
X1556Y2402D01*
X1557Y2402D01*
X1558Y2402D01*
X1559Y2402D01*
X1560Y2402D01*
X1561Y2402D01*
X1562Y2402D01*
X1563Y2402D01*
X1564Y2402D01*
X1565Y2402D01*
X1566Y2402D01*
X1567Y2402D01*
X1568Y2402D01*
X1569Y2402D01*
X1570Y2402D01*
X1571Y2402D01*
X1572Y2402D01*
X1573Y2402D01*
X1574Y2402D01*
X1575Y2402D01*
X1576Y2402D01*
X1577Y2402D01*
X1578Y2402D01*
X1579Y2402D01*
X1580Y2402D01*
X1581Y2402D01*
X1582Y2402D01*
X1583Y2402D01*
X1584Y2402D01*
X1585Y2402D01*
X1586Y2402D01*
X1587Y2402D01*
X1588Y2402D01*
X1589Y2402D01*
X1590Y2402D01*
X1591Y2402D01*
X1592Y2402D01*
X1593Y2402D01*
X1594Y2402D01*
X1595Y2402D01*
X1596Y2402D01*
X1597Y2402D01*
X1598Y2402D01*
X1599Y2402D01*
X1600Y2402D01*
X1601Y2402D01*
X1602Y2402D01*
X1603Y2402D01*
X1604Y2402D01*
X1605Y2402D01*
X1606Y2402D01*
X1607Y2402D01*
X1608Y2402D01*
X1609Y2402D01*
X1610Y2402D01*
X1611Y2402D01*
X1612Y2402D01*
X1613Y2402D01*
X1614Y2402D01*
X1615Y2402D01*
X1616Y2402D01*
X1617Y2402D01*
X1618Y2402D01*
X1619Y2402D01*
X1620Y2402D01*
X1621Y2402D01*
X1622Y2402D01*
X1623Y2402D01*
X1624Y2402D01*
X1625Y2402D01*
X1626Y2402D01*
X1627Y2402D01*
X1628Y2402D01*
X1629Y2402D01*
X1630Y2402D01*
X1631Y2402D01*
X1632Y2402D01*
X1633Y2402D01*
X1634Y2402D01*
X1635Y2402D01*
X1636Y2402D01*
X1637Y2402D01*
X1638Y2402D01*
X1639Y2402D01*
X1640Y2402D01*
X1641Y2402D01*
X1642Y2402D01*
X1643Y2402D01*
X1644Y2402D01*
X1645Y2402D01*
X1646Y2402D01*
X1647Y2402D01*
X1648Y2402D01*
X1649Y2402D01*
X1650Y2402D01*
X1651Y2402D01*
X1652Y2402D01*
X1653Y2402D01*
X1654Y2402D01*
X1655Y2402D01*
X1656Y2402D01*
X1657Y2402D01*
X1658Y2402D01*
X1659Y2402D01*
X1660Y2402D01*
X1661Y2402D01*
X1662Y2402D01*
X1663Y2402D01*
X1664Y2402D01*
X1665Y2402D01*
X1666Y2402D01*
X1667Y2402D01*
X1668Y2402D01*
X1669Y2402D01*
X1670Y2402D01*
X1671Y2402D01*
X1672Y2402D01*
X1673Y2402D01*
X1674Y2402D01*
X1675Y2402D01*
X1676Y2402D01*
X1677Y2402D01*
X1678Y2402D01*
X1679Y2402D01*
X1680Y2402D01*
X1681Y2402D01*
X1682Y2402D01*
X1683Y2402D01*
X1684Y2402D01*
X1685Y2402D01*
X1686Y2402D01*
X1687Y2402D01*
X1688Y2402D01*
X1689Y2402D01*
X1690Y2402D01*
X1691Y2402D01*
X1692Y2402D01*
X1693Y2402D01*
X1694Y2402D01*
X1695Y2402D01*
X1696Y2402D01*
X1697Y2402D01*
X1698Y2402D01*
X1699Y2402D01*
X1700Y2402D01*
X1701Y2402D01*
X1702Y2402D01*
X1703Y2402D01*
X1704Y2402D01*
X1705Y2402D01*
X1706Y2402D01*
X1707Y2402D01*
X1708Y2402D01*
X1709Y2402D01*
X1710Y2402D01*
X1711Y2402D01*
X1712Y2402D01*
X1713Y2402D01*
X1714Y2402D01*
X1715Y2402D01*
X1716Y2402D01*
X1717Y2402D01*
X1718Y2402D01*
X1719Y2402D01*
X1720Y2402D01*
X1721Y2402D01*
X1722Y2402D01*
X1723Y2402D01*
X1724Y2402D01*
X1725Y2402D01*
X1726Y2402D01*
X1727Y2402D01*
X1728Y2402D01*
X1729Y2402D01*
X1730Y2402D01*
X1731Y2402D01*
X1732Y2402D01*
X1733Y2402D01*
X1734Y2402D01*
X1735Y2402D01*
X1736Y2402D01*
X1737Y2402D01*
X1738Y2402D01*
X1739Y2402D01*
X1740Y2402D01*
X1741Y2402D01*
X1742Y2402D01*
X1743Y2402D01*
X1744Y2402D01*
X1745Y2402D01*
X1746Y2402D01*
X1747Y2402D01*
X1748Y2402D01*
X1749Y2402D01*
X1750Y2402D01*
X1751Y2402D01*
X1752Y2402D01*
X1753Y2402D01*
X1754Y2402D01*
X1755Y2402D01*
X1756Y2402D01*
X1757Y2402D01*
X1758Y2402D01*
X1759Y2402D01*
X1760Y2402D01*
X1761Y2402D01*
X1762Y2402D01*
X1763Y2402D01*
X1764Y2402D01*
X1765Y2402D01*
X1766Y2402D01*
X1767Y2402D01*
X1768Y2402D01*
X1769Y2402D01*
X1770Y2402D01*
X1771Y2402D01*
X1772Y2402D01*
X1773Y2402D01*
X1774Y2402D01*
X1775Y2402D01*
X1776Y2402D01*
X1777Y2402D01*
X1778Y2402D01*
X1779Y2402D01*
X1780Y2402D01*
X1781Y2402D01*
X1782Y2402D01*
X1783Y2402D01*
X1784Y2402D01*
X1785Y2402D01*
X1786Y2402D01*
X1787Y2402D01*
X1788Y2402D01*
X1789Y2402D01*
X1790Y2402D01*
X1791Y2402D01*
X1792Y2402D01*
X1793Y2402D01*
X1794Y2402D01*
X1795Y2402D01*
X1796Y2402D01*
X1797Y2402D01*
X1798Y2402D01*
X1799Y2402D01*
X1800Y2402D01*
X1801Y2402D01*
X1802Y2402D01*
X1803Y2402D01*
X1804Y2402D01*
X1805Y2402D01*
X1806Y2402D01*
X1807Y2402D01*
X1808Y2402D01*
X1809Y2402D01*
X1810Y2402D01*
X1811Y2402D01*
X1812Y2402D01*
X1813Y2402D01*
X1814Y2402D01*
X1815Y2402D01*
X1816Y2402D01*
X1817Y2402D01*
X1818Y2402D01*
X1819Y2402D01*
X1820Y2402D01*
X1821Y2402D01*
X1822Y2402D01*
X1823Y2402D01*
X1824Y2402D01*
X1825Y2402D01*
X1826Y2402D01*
X1827Y2402D01*
X1828Y2402D01*
X1829Y2402D01*
X1830Y2402D01*
X1831Y2402D01*
X1832Y2402D01*
X1833Y2402D01*
X1834Y2402D01*
X1835Y2402D01*
X1836Y2402D01*
X1837Y2402D01*
X1838Y2402D01*
X1839Y2402D01*
X1840Y2402D01*
X1841Y2402D01*
X1842Y2402D01*
X1843Y2402D01*
X1844Y2402D01*
X1845Y2402D01*
X1846Y2402D01*
X1847Y2402D01*
X1848Y2402D01*
X1849Y2402D01*
X1850Y2402D01*
X1851Y2402D01*
X1852Y2402D01*
X1853Y2402D01*
X1854Y2402D01*
X1855Y2402D01*
X1856Y2402D01*
X1857Y2402D01*
X1858Y2402D01*
X1859Y2402D01*
X1860Y2402D01*
X1861Y2402D01*
X1862Y2402D01*
X1863Y2402D01*
X1864Y2402D01*
X1865Y2402D01*
X1866Y2402D01*
X1867Y2402D01*
X1868Y2402D01*
X1869Y2402D01*
X1870Y2402D01*
X1871Y2402D01*
X1872Y2402D01*
X1873Y2402D01*
X1874Y2402D01*
X1875Y2402D01*
X1876Y2402D01*
X1877Y2402D01*
X1878Y2402D01*
X1879Y2402D01*
X1880Y2402D01*
X1881Y2402D01*
X1882Y2402D01*
X1883Y2402D01*
X1884Y2402D01*
X1885Y2402D01*
X1886Y2402D01*
X1887Y2402D01*
X1888Y2402D01*
X1889Y2402D01*
X1890Y2402D01*
X1891Y2402D01*
X1892Y2402D01*
X1893Y2402D01*
X1894Y2402D01*
X1895Y2402D01*
X1896Y2402D01*
X1897Y2402D01*
X1898Y2402D01*
X1899Y2402D01*
X1900Y2402D01*
X1901Y2402D01*
X1902Y2402D01*
X1903Y2402D01*
X1904Y2402D01*
X1905Y2402D01*
X1906Y2402D01*
X1907Y2402D01*
X1908Y2402D01*
X1909Y2402D01*
X1910Y2402D01*
X1911Y2402D01*
X1912Y2402D01*
X1913Y2402D01*
X1914Y2402D01*
X1915Y2402D01*
X1916Y2402D01*
X1917Y2402D01*
X1918Y2402D01*
X1919Y2402D01*
X1920Y2402D01*
X1921Y2402D01*
X1922Y2402D01*
X1923Y2402D01*
X1924Y2402D01*
X1925Y2402D01*
X1926Y2402D01*
X1927Y2402D01*
X1928Y2402D01*
X1929Y2402D01*
X1930Y2402D01*
X1931Y2402D01*
X1932Y2402D01*
X1933Y2402D01*
X1934Y2402D01*
X1935Y2402D01*
X1936Y2402D01*
X1937Y2402D01*
X1938Y2402D01*
X1939Y2402D01*
X1940Y2402D01*
X1941Y2402D01*
X1942Y2402D01*
X1943Y2402D01*
X1944Y2402D01*
X1945Y2402D01*
X1946Y2402D01*
X1947Y2402D01*
X1948Y2402D01*
X1949Y2402D01*
X1950Y2402D01*
X1951Y2402D01*
X1952Y2402D01*
X1953Y2402D01*
X1954Y2402D01*
X1955Y2402D01*
X1956Y2402D01*
X1957Y2402D01*
X1958Y2402D01*
X1959Y2402D01*
X1960Y2402D01*
X1961Y2402D01*
X1962Y2402D01*
X1963Y2402D01*
X1964Y2402D01*
X1965Y2402D01*
X1966Y2402D01*
X1967Y2402D01*
X1968Y2402D01*
X1969Y2402D01*
X1970Y2402D01*
X1971Y2402D01*
X1972Y2402D01*
X1973Y2402D01*
X1974Y2402D01*
X1975Y2402D01*
X1976Y2402D01*
X1977Y2402D01*
X1978Y2402D01*
X1979Y2402D01*
X1980Y2402D01*
X1981Y2402D01*
X1982Y2402D01*
X1983Y2402D01*
X1984Y2402D01*
X1985Y2402D01*
X1986Y2402D01*
X1987Y2402D01*
X1988Y2402D01*
X1989Y2402D01*
X1990Y2402D01*
X1991Y2402D01*
X1992Y2402D01*
X1993Y2402D01*
X1994Y2402D01*
X1995Y2402D01*
X1996Y2402D01*
X1997Y2402D01*
X1998Y2402D01*
X1999Y2402D01*
X2000Y2402D01*
X2001Y2402D01*
X2002Y2402D01*
X2003Y2402D01*
X2004Y2402D01*
X2005Y2402D01*
X2006Y2402D01*
X2007Y2402D01*
X2008Y2402D01*
X2009Y2402D01*
X2010Y2402D01*
X2011Y2402D01*
X2012Y2402D01*
X2013Y2402D01*
X2014Y2402D01*
X2015Y2402D01*
X2016Y2402D01*
X2017Y2402D01*
X2018Y2402D01*
X2019Y2402D01*
X2020Y2402D01*
X2021Y2402D01*
X2022Y2402D01*
X2023Y2402D01*
X2024Y2402D01*
X2025Y2402D01*
X2026Y2402D01*
X2027Y2402D01*
X2028Y2402D01*
X2029Y2402D01*
X2030Y2402D01*
X2031Y2402D01*
X2032Y2402D01*
X2033Y2402D01*
X2034Y2402D01*
X2035Y2402D01*
X2036Y2402D01*
X2037Y2402D01*
X2038Y2402D01*
X2039Y2402D01*
X2040Y2402D01*
X2041Y2402D01*
X2042Y2402D01*
X2043Y2402D01*
X2044Y2402D01*
X2045Y2402D01*
X2046Y2402D01*
X2047Y2402D01*
X2048Y2402D01*
X2049Y2402D01*
X2050Y2402D01*
X2051Y2402D01*
X2052Y2402D01*
X2053Y2402D01*
X2054Y2402D01*
X2055Y2402D01*
X2056Y2402D01*
X2057Y2402D01*
X2058Y2402D01*
X2059Y2402D01*
X2060Y2402D01*
X2061Y2402D01*
X2062Y2402D01*
X2063Y2402D01*
X2064Y2402D01*
X2065Y2402D01*
X2066Y2402D01*
X2067Y2402D01*
X2068Y2402D01*
X2069Y2402D01*
X2070Y2402D01*
X2071Y2402D01*
X2072Y2402D01*
X2073Y2402D01*
X2074Y2402D01*
X2075Y2402D01*
X2076Y2402D01*
X2077Y2402D01*
X2078Y2402D01*
X2079Y2402D01*
X2080Y2402D01*
X2081Y2402D01*
X2082Y2402D01*
X2083Y2402D01*
X2084Y2402D01*
X2085Y2402D01*
X2086Y2402D01*
X2087Y2402D01*
X2088Y2402D01*
X2089Y2402D01*
X2090Y2402D01*
X2091Y2402D01*
X2092Y2402D01*
X2093Y2402D01*
X2094Y2402D01*
X2095Y2402D01*
X2096Y2402D01*
X2097Y2402D01*
X2098Y2402D01*
X2099Y2402D01*
X2100Y2402D01*
X2101Y2402D01*
X2102Y2402D01*
X2103Y2402D01*
X2104Y2402D01*
X2105Y2402D01*
X2106Y2402D01*
X2107Y2402D01*
X2108Y2402D01*
X2109Y2402D01*
X2110Y2402D01*
X2111Y2402D01*
X2112Y2402D01*
X2113Y2402D01*
X2114Y2402D01*
X2115Y2402D01*
X2116Y2402D01*
X2117Y2402D01*
X2118Y2402D01*
X2119Y2402D01*
X2120Y2402D01*
X2121Y2402D01*
X2122Y2402D01*
X2123Y2402D01*
X2124Y2402D01*
X2125Y2402D01*
X2126Y2402D01*
X2127Y2402D01*
X2128Y2402D01*
X2129Y2402D01*
X2130Y2402D01*
X2131Y2402D01*
X2132Y2402D01*
X2133Y2402D01*
X2134Y2402D01*
X2135Y2402D01*
X2136Y2402D01*
X2137Y2402D01*
X2138Y2402D01*
X2139Y2402D01*
X2140Y2402D01*
X2141Y2402D01*
X2142Y2402D01*
X2143Y2402D01*
X2144Y2402D01*
X2145Y2402D01*
X2146Y2402D01*
X2147Y2402D01*
X2148Y2402D01*
X2149Y2402D01*
X2150Y2402D01*
X2151Y2402D01*
X2152Y2402D01*
X2153Y2402D01*
X2154Y2402D01*
X2155Y2402D01*
X2156Y2402D01*
X2157Y2402D01*
X2158Y2402D01*
X2159Y2402D01*
X2160Y2402D01*
X2161Y2402D01*
X2162Y2402D01*
X2163Y2402D01*
X2164Y2402D01*
X2165Y2402D01*
X2166Y2402D01*
X2167Y2402D01*
X2168Y2402D01*
X2169Y2402D01*
X2170Y2402D01*
X2171Y2402D01*
X2172Y2402D01*
X2173Y2402D01*
X2174Y2402D01*
X2175Y2402D01*
X2176Y2402D01*
X2177Y2402D01*
X2178Y2401D01*
X2179Y2401D01*
X2180Y2401D01*
X2181Y2401D01*
X2182Y2401D01*
X2183Y2401D01*
X2184Y2401D01*
X2185Y2401D01*
X2186Y2401D01*
X2187Y2401D01*
X2188Y2400D01*
X2189Y2400D01*
X2190Y2400D01*
X2191Y2400D01*
X2192Y2400D01*
X2193Y2400D01*
X2194Y2399D01*
X2195Y2399D01*
X2196Y2399D01*
X2197Y2399D01*
X2198Y2399D01*
X2199Y2398D01*
X2200Y2398D01*
X2201Y2398D01*
X2202Y2398D01*
X2203Y2397D01*
X2204Y2397D01*
X2205Y2397D01*
X2206Y2397D01*
X2207Y2396D01*
X2208Y2396D01*
X2209Y2396D01*
X2210Y2395D01*
X2211Y2395D01*
X2212Y2395D01*
X2213Y2394D01*
X2214Y2394D01*
X2215Y2394D01*
X2216Y2393D01*
X2217Y2393D01*
X2218Y2393D01*
X2219Y2392D01*
X2220Y2392D01*
X2221Y2391D01*
X2222Y2391D01*
X2223Y2390D01*
X2224Y2390D01*
X2225Y2389D01*
X2226Y2389D01*
X2227Y2388D01*
X2228Y2387D01*
X2229Y2387D01*
X2230Y2386D01*
X2231Y2385D01*
X2232Y2385D01*
X2233Y2384D01*
X2234Y2383D01*
X2235Y2382D01*
X2236Y2381D01*
X2237Y2380D01*
X2238Y2379D01*
X2239Y2378D01*
X2240Y2377D01*
X2240Y2376D01*
X2241Y2375D01*
X2241Y2374D01*
X2242Y2373D01*
X2242Y2371D01*
X2243Y2370D01*
X2243Y34D01*
X2242Y33D01*
X2242Y31D01*
X2241Y30D01*
X2241Y29D01*
X2240Y28D01*
X2240Y27D01*
X2239Y26D01*
X2238Y25D01*
X2237Y24D01*
X2236Y23D01*
X2235Y22D01*
X2234Y21D01*
X2233Y20D01*
X2232Y19D01*
X2231Y19D01*
X2230Y18D01*
X2229Y17D01*
X2228Y17D01*
X2227Y16D01*
X2226Y15D01*
X2225Y15D01*
X2224Y14D01*
X2223Y14D01*
X2222Y13D01*
X2221Y13D01*
X2220Y12D01*
X2219Y12D01*
X2218Y12D01*
X2217Y11D01*
X2216Y11D01*
X2215Y10D01*
X2214Y10D01*
X2213Y10D01*
X2212Y9D01*
X2211Y9D01*
X2210Y9D01*
X2209Y8D01*
X2208Y8D01*
X2207Y8D01*
X2206Y7D01*
X2205Y7D01*
X2204Y7D01*
X2203Y7D01*
X2202Y6D01*
X2201Y6D01*
X2200Y6D01*
X2199Y6D01*
X2198Y5D01*
X2197Y5D01*
X2196Y5D01*
X2195Y5D01*
X2194Y5D01*
X2193Y4D01*
X2192Y4D01*
X2191Y4D01*
X2190Y4D01*
X2189Y4D01*
X2188Y4D01*
X2187Y3D01*
X2186Y3D01*
X2185Y3D01*
X2184Y3D01*
X2183Y3D01*
X2182Y3D01*
X2181Y3D01*
X2180Y3D01*
X2179Y3D01*
X2178Y3D01*
X2177Y2D01*
X2176Y2D01*
X2175Y2D01*
X2174Y2D01*
X2173Y2D01*
X2172Y2D01*
X2171Y2D01*
X2170Y2D01*
X2169Y2D01*
X2168Y2D01*
X2167Y2D01*
X2166Y2D01*
X2165Y2D01*
X2164Y2D01*
X2163Y2D01*
X2162Y2D01*
X2161Y2D01*
X2160Y2D01*
X2159Y2D01*
X2158Y2D01*
X2157Y2D01*
X2156Y2D01*
X2155Y2D01*
X2154Y2D01*
X2153Y2D01*
X2152Y2D01*
X2151Y2D01*
X2150Y2D01*
X2149Y2D01*
X2148Y2D01*
X2147Y2D01*
X2146Y2D01*
X2145Y2D01*
X2144Y2D01*
X2143Y2D01*
X2142Y2D01*
X2141Y2D01*
X2140Y2D01*
X2139Y2D01*
X2138Y2D01*
X2137Y2D01*
X2136Y2D01*
X2135Y2D01*
X2134Y2D01*
X2133Y2D01*
X2132Y2D01*
X2131Y2D01*
X2130Y2D01*
X2129Y2D01*
X2128Y2D01*
X2127Y2D01*
X2126Y2D01*
X2125Y2D01*
X2124Y2D01*
X2123Y2D01*
X2122Y2D01*
X2121Y2D01*
X2120Y2D01*
X2119Y2D01*
X2118Y2D01*
X2117Y2D01*
X2116Y2D01*
X2115Y2D01*
X2114Y2D01*
X2113Y2D01*
X2112Y2D01*
X2111Y2D01*
X2110Y2D01*
X2109Y2D01*
X2108Y2D01*
X2107Y2D01*
X2106Y2D01*
X2105Y2D01*
X2104Y2D01*
X2103Y2D01*
X2102Y2D01*
X2101Y2D01*
X2100Y2D01*
X2099Y2D01*
X2098Y2D01*
X2097Y2D01*
X2096Y2D01*
X2095Y2D01*
X2094Y2D01*
X2093Y2D01*
X2092Y2D01*
X2091Y2D01*
X2090Y2D01*
X2089Y2D01*
X2088Y2D01*
X2087Y2D01*
X2086Y2D01*
X2085Y2D01*
X2084Y2D01*
X2083Y2D01*
X2082Y2D01*
X2081Y2D01*
X2080Y2D01*
X2079Y2D01*
X2078Y2D01*
X2077Y2D01*
X2076Y2D01*
X2075Y2D01*
X2074Y2D01*
X2073Y2D01*
X2072Y2D01*
X2071Y2D01*
X2070Y2D01*
X2069Y2D01*
X2068Y2D01*
X2067Y2D01*
X2066Y2D01*
X2065Y2D01*
X2064Y2D01*
X2063Y2D01*
X2062Y2D01*
X2061Y2D01*
X2060Y2D01*
X2059Y2D01*
X2058Y2D01*
X2057Y2D01*
X2056Y2D01*
X2055Y2D01*
X2054Y2D01*
X2053Y2D01*
X2052Y2D01*
X2051Y2D01*
X2050Y2D01*
X2049Y2D01*
X2048Y2D01*
X2047Y2D01*
X2046Y2D01*
X2045Y2D01*
X2044Y2D01*
X2043Y2D01*
X2042Y2D01*
X2041Y2D01*
X2040Y2D01*
X2039Y2D01*
X2038Y2D01*
X2037Y2D01*
X2036Y2D01*
X2035Y2D01*
X2034Y2D01*
X2033Y2D01*
X2032Y2D01*
X2031Y2D01*
X2030Y2D01*
X2029Y2D01*
X2028Y2D01*
X2027Y2D01*
X2026Y2D01*
X2025Y2D01*
X2024Y2D01*
X2023Y2D01*
X2022Y2D01*
X2021Y2D01*
X2020Y2D01*
X2019Y2D01*
X2018Y2D01*
X2017Y2D01*
X2016Y2D01*
X2015Y2D01*
X2014Y2D01*
X2013Y2D01*
X2012Y2D01*
X2011Y2D01*
X2010Y2D01*
X2009Y2D01*
X2008Y2D01*
X2007Y2D01*
X2006Y2D01*
X2005Y2D01*
X2004Y2D01*
X2003Y2D01*
X2002Y2D01*
X2001Y2D01*
X2000Y2D01*
X1999Y2D01*
X1998Y2D01*
X1997Y2D01*
X1996Y2D01*
X1995Y2D01*
X1994Y2D01*
X1993Y2D01*
X1992Y2D01*
X1991Y2D01*
X1990Y2D01*
X1989Y2D01*
X1988Y2D01*
X1987Y2D01*
X1986Y2D01*
X1985Y2D01*
X1984Y2D01*
X1983Y2D01*
X1982Y2D01*
X1981Y2D01*
X1980Y2D01*
X1979Y2D01*
X1978Y2D01*
X1977Y2D01*
X1976Y2D01*
X1975Y2D01*
X1974Y2D01*
X1973Y2D01*
X1972Y2D01*
X1971Y2D01*
X1970Y2D01*
X1969Y2D01*
X1968Y2D01*
X1967Y2D01*
X1966Y2D01*
X1965Y2D01*
X1964Y2D01*
X1963Y2D01*
X1962Y2D01*
X1961Y2D01*
X1960Y2D01*
X1959Y2D01*
X1958Y2D01*
X1957Y2D01*
X1956Y2D01*
X1955Y2D01*
X1954Y2D01*
X1953Y2D01*
X1952Y2D01*
X1951Y2D01*
X1950Y2D01*
X1949Y2D01*
X1948Y2D01*
X1947Y2D01*
X1946Y2D01*
X1945Y2D01*
X1944Y2D01*
X1943Y2D01*
X1942Y2D01*
X1941Y2D01*
X1940Y2D01*
X1939Y2D01*
X1938Y2D01*
X1937Y2D01*
X1936Y2D01*
X1935Y2D01*
X1934Y2D01*
X1933Y2D01*
X1932Y2D01*
X1931Y2D01*
X1930Y2D01*
X1929Y2D01*
X1928Y2D01*
X1927Y2D01*
X1926Y2D01*
X1925Y2D01*
X1924Y2D01*
X1923Y2D01*
X1922Y2D01*
X1921Y2D01*
X1920Y2D01*
X1919Y2D01*
X1918Y2D01*
X1917Y2D01*
X1916Y2D01*
X1915Y2D01*
X1914Y2D01*
X1913Y2D01*
X1912Y2D01*
X1911Y2D01*
X1910Y2D01*
X1909Y2D01*
X1908Y2D01*
X1907Y2D01*
X1906Y2D01*
X1905Y2D01*
X1904Y2D01*
X1903Y2D01*
X1902Y2D01*
X1901Y2D01*
X1900Y2D01*
X1899Y2D01*
X1898Y2D01*
X1897Y2D01*
X1896Y2D01*
X1895Y2D01*
X1894Y2D01*
X1893Y2D01*
X1892Y2D01*
X1891Y2D01*
X1890Y2D01*
X1889Y2D01*
X1888Y2D01*
X1887Y2D01*
X1886Y2D01*
X1885Y2D01*
X1884Y2D01*
X1883Y2D01*
X1882Y2D01*
X1881Y2D01*
X1880Y2D01*
X1879Y2D01*
X1878Y2D01*
X1877Y2D01*
X1876Y2D01*
X1875Y2D01*
X1874Y2D01*
X1873Y2D01*
X1872Y2D01*
X1871Y2D01*
X1870Y2D01*
X1869Y2D01*
X1868Y2D01*
X1867Y2D01*
X1866Y2D01*
X1865Y2D01*
X1864Y2D01*
X1863Y2D01*
X1862Y2D01*
X1861Y2D01*
X1860Y2D01*
X1859Y2D01*
X1858Y2D01*
X1857Y2D01*
X1856Y2D01*
X1855Y2D01*
X1854Y2D01*
X1853Y2D01*
X1852Y2D01*
X1851Y2D01*
X1850Y2D01*
X1849Y2D01*
X1848Y2D01*
X1847Y2D01*
X1846Y2D01*
X1845Y2D01*
X1844Y2D01*
X1843Y2D01*
X1842Y2D01*
X1841Y2D01*
X1840Y2D01*
X1839Y2D01*
X1838Y2D01*
X1837Y2D01*
X1836Y2D01*
X1835Y2D01*
X1834Y2D01*
X1833Y2D01*
X1832Y2D01*
X1831Y2D01*
X1830Y2D01*
X1829Y2D01*
X1828Y2D01*
X1827Y2D01*
X1826Y2D01*
X1825Y2D01*
X1824Y2D01*
X1823Y2D01*
X1822Y2D01*
X1821Y2D01*
X1820Y2D01*
X1819Y2D01*
X1818Y2D01*
X1817Y2D01*
X1816Y2D01*
X1815Y2D01*
X1814Y2D01*
X1813Y2D01*
X1812Y2D01*
X1811Y2D01*
X1810Y2D01*
X1809Y2D01*
X1808Y2D01*
X1807Y2D01*
X1806Y2D01*
X1805Y2D01*
X1804Y2D01*
X1803Y2D01*
X1802Y2D01*
X1801Y2D01*
X1800Y2D01*
X1799Y2D01*
X1798Y2D01*
X1797Y2D01*
X1796Y2D01*
X1795Y2D01*
X1794Y2D01*
X1793Y2D01*
X1792Y2D01*
X1791Y2D01*
X1790Y2D01*
X1789Y2D01*
X1788Y2D01*
X1787Y2D01*
X1786Y2D01*
X1785Y2D01*
X1784Y2D01*
X1783Y2D01*
X1782Y2D01*
X1781Y2D01*
X1780Y2D01*
X1779Y2D01*
X1778Y2D01*
X1777Y2D01*
X1776Y2D01*
X1775Y2D01*
X1774Y2D01*
X1773Y2D01*
X1772Y2D01*
X1771Y2D01*
X1770Y2D01*
X1769Y2D01*
X1768Y2D01*
X1767Y2D01*
X1766Y2D01*
X1765Y2D01*
X1764Y2D01*
X1763Y2D01*
X1762Y2D01*
X1761Y2D01*
X1760Y2D01*
X1759Y2D01*
X1758Y2D01*
X1757Y2D01*
X1756Y2D01*
X1755Y2D01*
X1754Y2D01*
X1753Y2D01*
X1752Y2D01*
X1751Y2D01*
X1750Y2D01*
X1749Y2D01*
X1748Y2D01*
X1747Y2D01*
X1746Y2D01*
X1745Y2D01*
X1744Y2D01*
X1743Y2D01*
X1742Y2D01*
X1741Y2D01*
X1740Y2D01*
X1739Y2D01*
X1738Y2D01*
X1737Y2D01*
X1736Y2D01*
X1735Y2D01*
X1734Y2D01*
X1733Y2D01*
X1732Y2D01*
X1731Y2D01*
X1730Y2D01*
X1729Y2D01*
X1728Y2D01*
X1727Y2D01*
X1726Y2D01*
X1725Y2D01*
X1724Y2D01*
X1723Y2D01*
X1722Y2D01*
X1721Y2D01*
X1720Y2D01*
X1719Y2D01*
X1718Y2D01*
X1717Y2D01*
X1716Y2D01*
X1715Y2D01*
X1714Y2D01*
X1713Y2D01*
X1712Y2D01*
X1711Y2D01*
X1710Y2D01*
X1709Y2D01*
X1708Y2D01*
X1707Y2D01*
X1706Y2D01*
X1705Y2D01*
X1704Y2D01*
X1703Y2D01*
X1702Y2D01*
X1701Y2D01*
X1700Y2D01*
X1699Y2D01*
X1698Y2D01*
X1697Y2D01*
X1696Y2D01*
X1695Y2D01*
X1694Y2D01*
X1693Y2D01*
X1692Y2D01*
X1691Y2D01*
X1690Y2D01*
X1689Y2D01*
X1688Y2D01*
X1687Y2D01*
X1686Y2D01*
X1685Y2D01*
X1684Y2D01*
X1683Y2D01*
X1682Y2D01*
X1681Y2D01*
X1680Y2D01*
X1679Y2D01*
X1678Y2D01*
X1677Y2D01*
X1676Y2D01*
X1675Y2D01*
X1674Y2D01*
X1673Y2D01*
X1672Y2D01*
X1671Y2D01*
X1670Y2D01*
X1669Y2D01*
X1668Y2D01*
X1667Y2D01*
X1666Y2D01*
X1665Y2D01*
X1664Y2D01*
X1663Y2D01*
X1662Y2D01*
X1661Y2D01*
X1660Y2D01*
X1659Y2D01*
X1658Y2D01*
X1657Y2D01*
X1656Y2D01*
X1655Y2D01*
X1654Y2D01*
X1653Y2D01*
X1652Y2D01*
X1651Y2D01*
X1650Y2D01*
X1649Y2D01*
X1648Y2D01*
X1647Y2D01*
X1646Y2D01*
X1645Y2D01*
X1644Y2D01*
X1643Y2D01*
X1642Y2D01*
X1641Y2D01*
X1640Y2D01*
X1639Y2D01*
X1638Y2D01*
X1637Y2D01*
X1636Y2D01*
X1635Y2D01*
X1634Y2D01*
X1633Y2D01*
X1632Y2D01*
X1631Y2D01*
X1630Y2D01*
X1629Y2D01*
X1628Y2D01*
X1627Y2D01*
X1626Y2D01*
X1625Y2D01*
X1624Y2D01*
X1623Y2D01*
X1622Y2D01*
X1621Y2D01*
X1620Y2D01*
X1619Y2D01*
X1618Y2D01*
X1617Y2D01*
X1616Y2D01*
X1615Y2D01*
X1614Y2D01*
X1613Y2D01*
X1612Y2D01*
X1611Y2D01*
X1610Y2D01*
X1609Y2D01*
X1608Y2D01*
X1607Y2D01*
X1606Y2D01*
X1605Y2D01*
X1604Y2D01*
X1603Y2D01*
X1602Y2D01*
X1601Y2D01*
X1600Y2D01*
X1599Y2D01*
X1598Y2D01*
X1597Y2D01*
X1596Y2D01*
X1595Y2D01*
X1594Y2D01*
X1593Y2D01*
X1592Y2D01*
X1591Y2D01*
X1590Y2D01*
X1589Y2D01*
X1588Y2D01*
X1587Y2D01*
X1586Y2D01*
X1585Y2D01*
X1584Y2D01*
X1583Y2D01*
X1582Y2D01*
X1581Y2D01*
X1580Y2D01*
X1579Y2D01*
X1578Y2D01*
X1577Y2D01*
X1576Y2D01*
X1575Y2D01*
X1574Y2D01*
X1573Y2D01*
X1572Y2D01*
X1571Y2D01*
X1570Y2D01*
X1569Y2D01*
X1568Y2D01*
X1567Y2D01*
X1566Y2D01*
X1565Y2D01*
X1564Y2D01*
X1563Y2D01*
X1562Y2D01*
X1561Y2D01*
X1560Y2D01*
X1559Y2D01*
X1558Y2D01*
X1557Y2D01*
X1556Y2D01*
X1555Y2D01*
X1554Y2D01*
X1553Y2D01*
X1552Y2D01*
X1551Y2D01*
X1550Y2D01*
X1549Y2D01*
X1548Y2D01*
X1547Y2D01*
X1546Y2D01*
X1545Y2D01*
X1544Y2D01*
X1543Y2D01*
X1542Y2D01*
X1541Y2D01*
X1540Y2D01*
X1539Y2D01*
X1538Y2D01*
X1537Y2D01*
X1536Y2D01*
X1535Y2D01*
X1534Y2D01*
X1533Y2D01*
X1532Y2D01*
X1531Y2D01*
X1530Y2D01*
X1529Y2D01*
X1528Y2D01*
X1527Y2D01*
X1526Y2D01*
X1525Y2D01*
X1524Y2D01*
X1523Y2D01*
X1522Y2D01*
X1521Y2D01*
X1520Y2D01*
X1519Y2D01*
X1518Y2D01*
X1517Y2D01*
X1516Y2D01*
X1515Y2D01*
X1514Y2D01*
X1513Y2D01*
X1512Y2D01*
X1511Y2D01*
X1510Y2D01*
X1509Y2D01*
X1508Y2D01*
X1507Y2D01*
X1506Y2D01*
X1505Y2D01*
X1504Y2D01*
X1503Y2D01*
X1502Y2D01*
X1501Y2D01*
X1500Y2D01*
X1499Y2D01*
X1498Y2D01*
X1497Y2D01*
X1496Y2D01*
X1495Y2D01*
X1494Y2D01*
X1493Y2D01*
X1492Y2D01*
X1491Y2D01*
X1490Y2D01*
X1489Y2D01*
X1488Y2D01*
X1487Y2D01*
X1486Y2D01*
X1485Y2D01*
X1484Y2D01*
X1483Y2D01*
X1482Y2D01*
X1481Y2D01*
X1480Y2D01*
X1479Y2D01*
X1478Y2D01*
X1477Y2D01*
X1476Y2D01*
X1475Y2D01*
X1474Y2D01*
X1473Y2D01*
X1472Y2D01*
X1471Y2D01*
X1470Y2D01*
X1469Y2D01*
X1468Y2D01*
X1467Y2D01*
X1466Y2D01*
X1465Y2D01*
X1464Y2D01*
X1463Y2D01*
X1462Y2D01*
X1461Y2D01*
X1460Y2D01*
X1459Y2D01*
X1458Y2D01*
X1457Y2D01*
X1456Y2D01*
X1455Y2D01*
X1454Y2D01*
X1453Y2D01*
X1452Y2D01*
X1451Y2D01*
X1450Y2D01*
X1449Y2D01*
X1448Y2D01*
X1447Y2D01*
X1446Y2D01*
X1445Y2D01*
X1444Y2D01*
X1443Y2D01*
X1442Y2D01*
X1441Y2D01*
X1440Y2D01*
X1439Y2D01*
X1438Y2D01*
X1437Y2D01*
X1436Y2D01*
X1435Y2D01*
X1434Y2D01*
X1433Y2D01*
X1432Y2D01*
X1431Y2D01*
X1430Y2D01*
X1429Y2D01*
X1428Y2D01*
X1427Y2D01*
X1426Y2D01*
X1425Y2D01*
X1424Y2D01*
X1423Y2D01*
X1422Y2D01*
X1421Y2D01*
X1420Y2D01*
X1419Y2D01*
X1418Y2D01*
X1417Y2D01*
X1416Y2D01*
X1415Y2D01*
X1414Y2D01*
X1413Y2D01*
X1412Y2D01*
X1411Y2D01*
X1410Y2D01*
X1409Y2D01*
X1408Y2D01*
X1407Y2D01*
X1406Y2D01*
X1405Y2D01*
X1404Y2D01*
X1403Y2D01*
X1402Y2D01*
X1401Y2D01*
X1400Y2D01*
X1399Y2D01*
X1398Y2D01*
X1397Y2D01*
X1396Y2D01*
X1395Y2D01*
X1394Y2D01*
X1393Y2D01*
X1392Y2D01*
X1391Y2D01*
X1390Y2D01*
X1389Y2D01*
X1388Y2D01*
X1387Y2D01*
X1386Y2D01*
X1385Y2D01*
X1384Y2D01*
X1383Y2D01*
X1382Y2D01*
X1381Y2D01*
X1380Y2D01*
X1379Y2D01*
X1378Y2D01*
X1377Y2D01*
X1376Y2D01*
X1375Y2D01*
X1374Y2D01*
X1373Y2D01*
X1372Y2D01*
X1371Y2D01*
X1370Y2D01*
X1369Y2D01*
X1368Y2D01*
X1367Y2D01*
X1366Y2D01*
X1365Y2D01*
X1364Y2D01*
X1363Y2D01*
X1362Y2D01*
X1361Y2D01*
X1360Y2D01*
X1359Y2D01*
X1358Y2D01*
X1357Y2D01*
X1356Y2D01*
X1355Y2D01*
X1354Y2D01*
X1353Y2D01*
X1352Y2D01*
X1351Y2D01*
X1350Y2D01*
X1349Y2D01*
X1348Y2D01*
X1347Y2D01*
X1346Y2D01*
X1345Y2D01*
X1344Y2D01*
X1343Y2D01*
X1342Y2D01*
X1341Y2D01*
X1340Y2D01*
X1339Y2D01*
X1338Y2D01*
X1337Y2D01*
X1336Y2D01*
X1335Y2D01*
X1334Y2D01*
X1333Y2D01*
X1332Y2D01*
X1331Y2D01*
X1330Y2D01*
X1329Y2D01*
X1328Y2D01*
X1327Y2D01*
X1326Y2D01*
X1325Y2D01*
X1324Y2D01*
X1323Y2D01*
X1322Y2D01*
X1321Y2D01*
X1320Y2D01*
X1319Y2D01*
X1318Y2D01*
X1317Y2D01*
X1316Y2D01*
X1315Y2D01*
X1314Y2D01*
X1313Y2D01*
X1312Y2D01*
X1311Y2D01*
X1310Y2D01*
X1309Y2D01*
X1308Y2D01*
X1307Y2D01*
X1306Y2D01*
X1305Y2D01*
X1304Y2D01*
X1303Y2D01*
X1302Y2D01*
X1301Y2D01*
X1300Y2D01*
X1299Y2D01*
X1298Y2D01*
X1297Y2D01*
X1296Y2D01*
X1295Y2D01*
X1294Y2D01*
X1293Y2D01*
X1292Y2D01*
X1291Y2D01*
X1290Y2D01*
X1289Y2D01*
X1288Y2D01*
X1287Y2D01*
X1286Y2D01*
X1285Y2D01*
X1284Y2D01*
X1283Y2D01*
X1282Y2D01*
X1281Y2D01*
X1280Y2D01*
X1279Y2D01*
X1278Y2D01*
X1277Y2D01*
X1276Y2D01*
X1275Y2D01*
X1274Y2D01*
X1273Y2D01*
X1272Y2D01*
X1271Y2D01*
X1270Y2D01*
X1269Y2D01*
X1268Y2D01*
X1267Y2D01*
X1266Y2D01*
X1265Y2D01*
X1264Y2D01*
X1263Y2D01*
X1262Y2D01*
X1261Y2D01*
X1260Y2D01*
X1259Y2D01*
X1258Y2D01*
X1257Y2D01*
X1256Y2D01*
X1255Y2D01*
X1254Y2D01*
X1253Y2D01*
X1252Y2D01*
X1251Y2D01*
X1250Y2D01*
X1249Y2D01*
X1248Y2D01*
X1247Y2D01*
X1246Y2D01*
X1245Y2D01*
X1244Y2D01*
X1243Y2D01*
X1242Y2D01*
X1241Y2D01*
X1240Y2D01*
X1239Y2D01*
X1238Y2D01*
X1237Y2D01*
X1236Y2D01*
X1235Y2D01*
X1234Y2D01*
X1233Y2D01*
X1232Y2D01*
X1231Y2D01*
X1230Y2D01*
X1229Y2D01*
X1228Y2D01*
X1227Y2D01*
X1226Y2D01*
X1225Y2D01*
X1224Y2D01*
X1223Y2D01*
X1222Y2D01*
X1221Y2D01*
X1220Y2D01*
X1219Y2D01*
X1218Y2D01*
X1217Y2D01*
X1216Y2D01*
X1215Y2D01*
X1214Y2D01*
X1213Y2D01*
X1212Y2D01*
X1211Y2D01*
X1210Y2D01*
X1209Y2D01*
X1208Y2D01*
X1207Y2D01*
X1206Y2D01*
X1205Y2D01*
X1204Y2D01*
X1203Y2D01*
X1202Y2D01*
X1201Y2D01*
X1200Y2D01*
X1199Y2D01*
X1198Y2D01*
X1197Y2D01*
X1196Y2D01*
X1195Y2D01*
X1194Y2D01*
X1193Y2D01*
X1192Y2D01*
X1191Y2D01*
X1190Y2D01*
X1189Y2D01*
X1188Y2D01*
X1187Y2D01*
X1186Y2D01*
X1185Y2D01*
X1184Y2D01*
X1183Y2D01*
X1182Y2D01*
X1181Y2D01*
X1180Y2D01*
X1179Y2D01*
X1178Y2D01*
X1177Y2D01*
X1176Y2D01*
X1175Y2D01*
X1174Y2D01*
X1173Y2D01*
X1172Y2D01*
X1171Y2D01*
X1170Y2D01*
X1169Y2D01*
X1168Y2D01*
X1167Y2D01*
X1166Y2D01*
X1165Y2D01*
X1164Y2D01*
X1163Y2D01*
X1162Y2D01*
X1161Y2D01*
X1160Y2D01*
X1159Y2D01*
X1158Y2D01*
X1157Y2D01*
X1156Y2D01*
X1155Y2D01*
X1154Y2D01*
X1153Y2D01*
X1152Y2D01*
X1151Y2D01*
X1150Y2D01*
X1149Y2D01*
X1148Y2D01*
X1147Y2D01*
X1146Y2D01*
X1145Y2D01*
X1144Y2D01*
X1143Y2D01*
X1142Y2D01*
X1141Y2D01*
X1140Y2D01*
X1139Y2D01*
X1138Y2D01*
X1137Y2D01*
X1136Y2D01*
X1135Y2D01*
X1134Y2D01*
X1133Y2D01*
X1132Y2D01*
X1131Y2D01*
X1130Y2D01*
X1129Y2D01*
X1128Y2D01*
X1127Y2D01*
X1126Y2D01*
X1125Y2D01*
X1124Y2D01*
X1123Y2D01*
X1122Y2D01*
X1121Y2D01*
X1120Y2D01*
X1119Y2D01*
X1118Y2D01*
X1117Y2D01*
X1116Y2D01*
X1115Y2D01*
X1114Y2D01*
X1113Y2D01*
X1112Y2D01*
X1111Y2D01*
X1110Y2D01*
X1109Y2D01*
X1108Y2D01*
X1107Y2D01*
X1106Y2D01*
X1105Y2D01*
X1104Y2D01*
X1103Y2D01*
X1102Y2D01*
X1101Y2D01*
X1100Y2D01*
X1099Y2D01*
X1098Y2D01*
X1097Y2D01*
X1096Y2D01*
X1095Y2D01*
X1094Y2D01*
X1093Y2D01*
X1092Y2D01*
X1091Y2D01*
X1090Y2D01*
X1089Y2D01*
X1088Y2D01*
X1087Y2D01*
X1086Y2D01*
X1085Y2D01*
X1084Y2D01*
X1083Y2D01*
X1082Y2D01*
X1081Y2D01*
X1080Y2D01*
X1079Y2D01*
X1078Y2D01*
X1077Y2D01*
X1076Y2D01*
X1075Y2D01*
X1074Y2D01*
X1073Y2D01*
X1072Y2D01*
X1071Y2D01*
X1070Y2D01*
X1069Y2D01*
X1068Y2D01*
X1067Y2D01*
X1066Y2D01*
X1065Y2D01*
X1064Y2D01*
X1063Y2D01*
X1062Y2D01*
X1061Y2D01*
X1060Y2D01*
X1059Y2D01*
X1058Y2D01*
X1057Y2D01*
X1056Y2D01*
X1055Y2D01*
X1054Y2D01*
X1053Y2D01*
X1052Y2D01*
X1051Y2D01*
X1050Y2D01*
X1049Y2D01*
X1048Y2D01*
X1047Y2D01*
X1046Y2D01*
X1045Y2D01*
X1044Y2D01*
X1043Y2D01*
X1042Y2D01*
X1041Y2D01*
X1040Y2D01*
X1039Y2D01*
X1038Y2D01*
X1037Y2D01*
X1036Y2D01*
X1035Y2D01*
X1034Y2D01*
X1033Y2D01*
X1032Y2D01*
X1031Y2D01*
X1030Y2D01*
X1029Y2D01*
X1028Y2D01*
X1027Y2D01*
X1026Y2D01*
X1025Y2D01*
X1024Y2D01*
X1023Y2D01*
X1022Y2D01*
X1021Y2D01*
X1020Y2D01*
X1019Y2D01*
X1018Y2D01*
X1017Y2D01*
X1016Y2D01*
X1015Y2D01*
X1014Y2D01*
X1013Y2D01*
X1012Y2D01*
X1011Y2D01*
X1010Y2D01*
X1009Y2D01*
X1008Y2D01*
X1007Y2D01*
X1006Y2D01*
X1005Y2D01*
X1004Y2D01*
X1003Y2D01*
X1002Y2D01*
X1001Y2D01*
X1000Y2D01*
X999Y2D01*
X998Y2D01*
X997Y2D01*
X996Y2D01*
X995Y2D01*
X994Y2D01*
X993Y2D01*
X992Y2D01*
X991Y2D01*
X990Y2D01*
X989Y2D01*
X988Y2D01*
X987Y2D01*
X986Y2D01*
X985Y2D01*
X984Y2D01*
X983Y2D01*
X982Y2D01*
X981Y2D01*
X980Y2D01*
X979Y2D01*
X978Y2D01*
X977Y2D01*
X976Y2D01*
X975Y2D01*
X974Y2D01*
X973Y2D01*
X972Y2D01*
X971Y2D01*
X970Y2D01*
X969Y2D01*
X968Y2D01*
X967Y2D01*
X966Y2D01*
X965Y2D01*
X964Y2D01*
X963Y2D01*
X962Y2D01*
X961Y2D01*
X960Y2D01*
X959Y2D01*
X958Y2D01*
X957Y2D01*
X956Y2D01*
X955Y2D01*
X954Y2D01*
X953Y2D01*
X952Y2D01*
X951Y2D01*
X950Y2D01*
X949Y2D01*
X948Y2D01*
X947Y2D01*
X946Y2D01*
X945Y2D01*
X944Y2D01*
X943Y2D01*
X942Y2D01*
X941Y2D01*
X940Y2D01*
X939Y2D01*
X938Y2D01*
X937Y2D01*
X936Y2D01*
X935Y2D01*
X934Y2D01*
X933Y2D01*
X932Y2D01*
X931Y2D01*
X930Y2D01*
X929Y2D01*
X928Y2D01*
X927Y2D01*
X926Y2D01*
X925Y2D01*
X924Y2D01*
X923Y2D01*
X922Y2D01*
X921Y2D01*
X920Y2D01*
X919Y2D01*
X918Y2D01*
X917Y2D01*
X916Y2D01*
X915Y2D01*
X914Y2D01*
X913Y2D01*
X912Y2D01*
X911Y2D01*
X910Y2D01*
X909Y2D01*
X908Y2D01*
X907Y2D01*
X906Y2D01*
X905Y2D01*
X904Y2D01*
X903Y2D01*
X902Y2D01*
X901Y2D01*
X900Y2D01*
X899Y2D01*
X898Y2D01*
X897Y2D01*
X896Y2D01*
X895Y2D01*
X894Y2D01*
X893Y2D01*
X892Y2D01*
X891Y2D01*
X890Y2D01*
X889Y2D01*
X888Y2D01*
X887Y2D01*
X886Y2D01*
X885Y2D01*
X884Y2D01*
X883Y2D01*
X882Y2D01*
X881Y2D01*
X880Y2D01*
X879Y2D01*
X878Y2D01*
X877Y2D01*
X876Y2D01*
X875Y2D01*
X874Y2D01*
X873Y2D01*
X872Y2D01*
X871Y2D01*
X870Y2D01*
X869Y2D01*
X868Y2D01*
X867Y2D01*
X866Y2D01*
X865Y2D01*
X864Y2D01*
X863Y2D01*
X862Y2D01*
X861Y2D01*
X860Y2D01*
X859Y2D01*
X858Y2D01*
X857Y2D01*
X856Y2D01*
X855Y2D01*
X854Y2D01*
X853Y2D01*
X852Y2D01*
X851Y2D01*
X850Y2D01*
X849Y2D01*
X848Y2D01*
X847Y2D01*
X846Y2D01*
X845Y2D01*
X844Y2D01*
X843Y2D01*
X842Y2D01*
X841Y2D01*
X840Y2D01*
X839Y2D01*
X838Y2D01*
X837Y2D01*
X836Y2D01*
X835Y2D01*
X834Y2D01*
X833Y2D01*
X832Y2D01*
X831Y2D01*
X830Y2D01*
X829Y2D01*
X828Y2D01*
X827Y2D01*
X826Y2D01*
X825Y2D01*
X824Y2D01*
X823Y2D01*
X822Y2D01*
X821Y2D01*
X820Y2D01*
X819Y2D01*
X818Y2D01*
X817Y2D01*
X816Y2D01*
X815Y2D01*
X814Y2D01*
X813Y2D01*
X812Y2D01*
X811Y2D01*
X810Y2D01*
X809Y2D01*
X808Y2D01*
X807Y2D01*
X806Y2D01*
X805Y2D01*
X804Y2D01*
X803Y2D01*
X802Y2D01*
X801Y2D01*
X800Y2D01*
X799Y2D01*
X798Y2D01*
X797Y2D01*
X796Y2D01*
X795Y2D01*
X794Y2D01*
X793Y2D01*
X792Y2D01*
X791Y2D01*
X790Y2D01*
X789Y2D01*
X788Y2D01*
X787Y2D01*
X786Y2D01*
X785Y2D01*
X784Y2D01*
X783Y2D01*
X782Y2D01*
X781Y2D01*
X780Y2D01*
X779Y2D01*
X778Y2D01*
X777Y2D01*
X776Y2D01*
X775Y2D01*
X774Y2D01*
X773Y2D01*
X772Y2D01*
X771Y2D01*
X770Y2D01*
X769Y2D01*
X768Y2D01*
X767Y2D01*
X766Y2D01*
X765Y2D01*
X764Y2D01*
X763Y2D01*
X762Y2D01*
X761Y2D01*
X760Y2D01*
X759Y2D01*
X758Y2D01*
X757Y2D01*
X756Y2D01*
X755Y2D01*
X754Y2D01*
X753Y2D01*
X752Y2D01*
X751Y2D01*
X750Y2D01*
X749Y2D01*
X748Y2D01*
X747Y2D01*
X746Y2D01*
X745Y2D01*
X744Y2D01*
X743Y2D01*
X742Y2D01*
X741Y2D01*
X740Y2D01*
X739Y2D01*
X738Y2D01*
X737Y2D01*
X736Y2D01*
X735Y2D01*
X734Y2D01*
X733Y2D01*
X732Y2D01*
X731Y2D01*
X730Y2D01*
X729Y2D01*
X728Y2D01*
X727Y2D01*
X726Y2D01*
X725Y2D01*
X724Y2D01*
X723Y2D01*
X722Y2D01*
X721Y2D01*
X720Y2D01*
X719Y2D01*
X718Y2D01*
X717Y2D01*
X716Y2D01*
X715Y2D01*
X714Y2D01*
X713Y2D01*
X712Y2D01*
X711Y2D01*
X710Y2D01*
X709Y2D01*
X708Y2D01*
X707Y2D01*
X706Y2D01*
X705Y2D01*
X704Y2D01*
X703Y2D01*
X702Y2D01*
X701Y2D01*
X700Y2D01*
X699Y2D01*
X698Y2D01*
X697Y2D01*
X696Y2D01*
X695Y2D01*
X694Y2D01*
X693Y2D01*
X692Y2D01*
X691Y2D01*
X690Y2D01*
X689Y2D01*
X688Y2D01*
X687Y2D01*
X686Y2D01*
X685Y2D01*
X684Y2D01*
X683Y2D01*
X682Y2D01*
X681Y2D01*
X680Y2D01*
X679Y2D01*
X678Y2D01*
X677Y2D01*
X676Y2D01*
X675Y2D01*
X674Y2D01*
X673Y2D01*
X672Y2D01*
X671Y2D01*
X670Y2D01*
X669Y2D01*
X668Y2D01*
X667Y2D01*
X666Y2D01*
X665Y2D01*
X664Y2D01*
X663Y2D01*
X662Y2D01*
X661Y2D01*
X660Y2D01*
X659Y2D01*
X658Y2D01*
X657Y2D01*
X656Y2D01*
X655Y2D01*
X654Y2D01*
X653Y2D01*
X652Y2D01*
X651Y2D01*
X650Y2D01*
X649Y2D01*
X648Y2D01*
X647Y2D01*
X646Y2D01*
X645Y2D01*
X644Y2D01*
X643Y2D01*
X642Y2D01*
X641Y2D01*
X640Y2D01*
X639Y2D01*
X638Y2D01*
X637Y2D01*
X636Y2D01*
X635Y2D01*
X634Y2D01*
X633Y2D01*
X632Y2D01*
X631Y2D01*
X630Y2D01*
X629Y2D01*
X628Y2D01*
X627Y2D01*
X626Y2D01*
X625Y2D01*
X624Y2D01*
X623Y2D01*
X622Y2D01*
X621Y2D01*
X620Y2D01*
X619Y2D01*
X618Y2D01*
X617Y2D01*
X616Y2D01*
X615Y2D01*
X614Y2D01*
X613Y2D01*
X612Y2D01*
X611Y2D01*
X610Y2D01*
X609Y2D01*
X608Y2D01*
X607Y2D01*
X606Y2D01*
X605Y2D01*
X604Y2D01*
X603Y2D01*
X602Y2D01*
X601Y2D01*
X600Y2D01*
X599Y2D01*
X598Y2D01*
X597Y2D01*
X596Y2D01*
X595Y2D01*
X594Y2D01*
X593Y2D01*
X592Y2D01*
X591Y2D01*
X590Y2D01*
X589Y2D01*
X588Y2D01*
X587Y2D01*
X586Y2D01*
X585Y2D01*
X584Y2D01*
X583Y2D01*
X582Y2D01*
X581Y2D01*
X580Y2D01*
X579Y2D01*
X578Y2D01*
X577Y2D01*
X576Y2D01*
X575Y2D01*
X574Y2D01*
X573Y2D01*
X572Y2D01*
X571Y2D01*
X570Y2D01*
X569Y2D01*
X568Y2D01*
X567Y2D01*
X566Y2D01*
X565Y2D01*
X564Y2D01*
X563Y2D01*
X562Y2D01*
X561Y2D01*
X560Y2D01*
X559Y2D01*
X558Y2D01*
X557Y2D01*
X556Y2D01*
X555Y2D01*
X554Y2D01*
X553Y2D01*
X552Y2D01*
X551Y2D01*
X550Y2D01*
X549Y2D01*
X548Y2D01*
X547Y2D01*
X546Y2D01*
X545Y2D01*
X544Y2D01*
X543Y2D01*
X542Y2D01*
X541Y2D01*
X540Y2D01*
X539Y2D01*
X538Y2D01*
X537Y2D01*
X536Y2D01*
X535Y2D01*
X534Y2D01*
X533Y2D01*
X532Y2D01*
X531Y2D01*
X530Y2D01*
X529Y2D01*
X528Y2D01*
X527Y2D01*
X526Y2D01*
X525Y2D01*
X524Y2D01*
X523Y2D01*
X522Y2D01*
X521Y2D01*
X520Y2D01*
X519Y2D01*
X518Y2D01*
X517Y2D01*
X516Y2D01*
X515Y2D01*
X514Y2D01*
X513Y2D01*
X512Y2D01*
X511Y2D01*
X510Y2D01*
X509Y2D01*
X508Y2D01*
X507Y2D01*
X506Y2D01*
X505Y2D01*
X504Y2D01*
X503Y2D01*
X502Y2D01*
X501Y2D01*
X500Y2D01*
X499Y2D01*
X498Y2D01*
X497Y2D01*
X496Y2D01*
X495Y2D01*
X494Y2D01*
X493Y2D01*
X492Y2D01*
X491Y2D01*
X490Y2D01*
X489Y2D01*
X488Y2D01*
X487Y2D01*
X486Y2D01*
X485Y2D01*
X484Y2D01*
X483Y2D01*
X482Y2D01*
X481Y2D01*
X480Y2D01*
X479Y2D01*
X478Y2D01*
X477Y2D01*
X476Y2D01*
X475Y2D01*
X474Y2D01*
X473Y2D01*
X472Y2D01*
X471Y2D01*
X470Y2D01*
X469Y2D01*
X468Y2D01*
X467Y2D01*
X466Y2D01*
X465Y2D01*
X464Y2D01*
X463Y2D01*
X462Y2D01*
X461Y2D01*
X460Y2D01*
X459Y2D01*
X458Y2D01*
X457Y2D01*
X456Y2D01*
X455Y2D01*
X454Y2D01*
X453Y2D01*
X452Y2D01*
X451Y2D01*
X450Y2D01*
X449Y2D01*
X448Y2D01*
X447Y2D01*
X446Y2D01*
X445Y2D01*
X444Y2D01*
X443Y2D01*
X442Y2D01*
X441Y2D01*
X440Y2D01*
X439Y2D01*
X438Y2D01*
X437Y2D01*
X436Y2D01*
X435Y2D01*
X434Y2D01*
X433Y2D01*
X432Y2D01*
X431Y2D01*
X430Y2D01*
X429Y2D01*
X428Y2D01*
X427Y2D01*
X426Y2D01*
X425Y2D01*
X424Y2D01*
X423Y2D01*
X422Y2D01*
X421Y2D01*
X420Y2D01*
X419Y2D01*
X418Y2D01*
X417Y2D01*
X416Y2D01*
X415Y2D01*
X414Y2D01*
X413Y2D01*
X412Y2D01*
X411Y2D01*
X410Y2D01*
X409Y2D01*
X408Y2D01*
X407Y2D01*
X406Y2D01*
X405Y2D01*
X404Y2D01*
X403Y2D01*
X402Y2D01*
X401Y2D01*
X400Y2D01*
X399Y2D01*
X398Y2D01*
X397Y2D01*
X396Y2D01*
X395Y2D01*
X394Y2D01*
X393Y2D01*
X392Y2D01*
X391Y2D01*
X390Y2D01*
X389Y2D01*
X388Y2D01*
X387Y2D01*
X386Y2D01*
X385Y2D01*
X384Y2D01*
X383Y2D01*
X382Y2D01*
X381Y2D01*
X380Y2D01*
X379Y2D01*
X378Y2D01*
X377Y2D01*
X376Y2D01*
X375Y2D01*
X374Y2D01*
X373Y2D01*
X372Y2D01*
X371Y2D01*
X370Y2D01*
X369Y2D01*
X368Y2D01*
X367Y2D01*
X366Y2D01*
X365Y2D01*
X364Y2D01*
X363Y2D01*
X362Y2D01*
X361Y2D01*
X360Y2D01*
X359Y2D01*
X358Y2D01*
X357Y2D01*
X356Y2D01*
X355Y2D01*
X354Y2D01*
X353Y2D01*
X352Y2D01*
X351Y2D01*
X350Y2D01*
X349Y2D01*
X348Y2D01*
X347Y2D01*
X346Y2D01*
X345Y2D01*
X344Y2D01*
X343Y2D01*
X342Y2D01*
X341Y2D01*
X340Y2D01*
X339Y2D01*
X338Y2D01*
X337Y2D01*
X336Y2D01*
X335Y2D01*
X334Y2D01*
X333Y2D01*
X332Y2D01*
X331Y2D01*
X330Y2D01*
X329Y2D01*
X328Y2D01*
X327Y2D01*
X326Y2D01*
X325Y2D01*
X324Y2D01*
X323Y2D01*
X322Y2D01*
X321Y2D01*
X320Y2D01*
X319Y2D01*
X318Y2D01*
X317Y2D01*
X316Y2D01*
X315Y2D01*
X314Y2D01*
X313Y2D01*
X312Y2D01*
X311Y2D01*
X310Y2D01*
X309Y2D01*
X308Y2D01*
X307Y2D01*
X306Y2D01*
X305Y2D01*
X304Y2D01*
X303Y2D01*
X302Y2D01*
X301Y2D01*
X300Y2D01*
X299Y2D01*
X298Y2D01*
X297Y2D01*
X296Y2D01*
X295Y2D01*
X294Y2D01*
X293Y2D01*
X292Y2D01*
X291Y2D01*
X290Y2D01*
X289Y2D01*
X288Y2D01*
X287Y2D01*
X286Y2D01*
X285Y2D01*
X284Y2D01*
X283Y2D01*
X282Y2D01*
X281Y2D01*
X280Y2D01*
X279Y2D01*
X278Y2D01*
X277Y2D01*
X276Y2D01*
X275Y2D01*
X274Y2D01*
X273Y2D01*
X272Y2D01*
X271Y2D01*
X270Y2D01*
X269Y2D01*
X268Y2D01*
X267Y2D01*
X266Y2D01*
X265Y2D01*
X264Y2D01*
X263Y2D01*
X262Y2D01*
X261Y2D01*
X260Y2D01*
X259Y2D01*
X258Y2D01*
X257Y2D01*
X256Y2D01*
X255Y2D01*
X254Y2D01*
X253Y2D01*
X252Y2D01*
X251Y2D01*
X250Y2D01*
X249Y2D01*
X248Y2D01*
X247Y2D01*
X246Y2D01*
X245Y2D01*
X244Y2D01*
X243Y2D01*
X242Y2D01*
X241Y2D01*
X240Y2D01*
X239Y2D01*
X238Y2D01*
X237Y2D01*
X236Y2D01*
X235Y2D01*
X234Y2D01*
X233Y2D01*
X232Y2D01*
X231Y2D01*
X230Y2D01*
X229Y2D01*
X228Y2D01*
X227Y2D01*
X226Y2D01*
X225Y2D01*
X224Y2D01*
X223Y2D01*
X222Y2D01*
X221Y2D01*
X220Y2D01*
X219Y2D01*
X218Y2D01*
X217Y2D01*
X216Y2D01*
X215Y2D01*
X214Y2D01*
X213Y2D01*
X212Y2D01*
X211Y2D01*
X210Y2D01*
X209Y2D01*
X208Y2D01*
X207Y2D01*
X206Y2D01*
X205Y2D01*
X204Y2D01*
X203Y2D01*
X202Y2D01*
X201Y2D01*
X200Y2D01*
X199Y2D01*
X198Y2D01*
X197Y2D01*
X196Y2D01*
X195Y2D01*
X194Y2D01*
X193Y2D01*
X192Y2D01*
X191Y2D01*
X190Y2D01*
X189Y2D01*
X188Y2D01*
X187Y2D01*
X186Y2D01*
X185Y2D01*
X184Y2D01*
X183Y2D01*
X182Y2D01*
X181Y2D01*
X180Y2D01*
X179Y2D01*
X178Y2D01*
X177Y2D01*
X176Y2D01*
X175Y2D01*
X174Y2D01*
X173Y2D01*
X172Y2D01*
X171Y2D01*
X170Y2D01*
X169Y2D01*
X168Y2D01*
X167Y2D01*
X166Y2D01*
X165Y2D01*
X164Y2D01*
X163Y2D01*
X162Y2D01*
X161Y2D01*
X160Y2D01*
X159Y2D01*
X158Y2D01*
X157Y2D01*
X156Y2D01*
X155Y2D01*
X154Y2D01*
X153Y2D01*
X152Y2D01*
X151Y2D01*
X150Y2D01*
X149Y2D01*
X148Y2D01*
X147Y2D01*
X146Y2D01*
X145Y2D01*
X144Y2D01*
X143Y2D01*
X142Y2D01*
X141Y2D01*
X140Y2D01*
X139Y2D01*
X138Y2D01*
X137Y2D01*
X136Y2D01*
X135Y2D01*
X134Y2D01*
X133Y2D01*
X132Y2D01*
X131Y2D01*
X130Y2D01*
X129Y2D01*
X128Y2D01*
X127Y2D01*
X126Y2D01*
X125Y2D01*
X124Y2D01*
X123Y2D01*
X122Y2D01*
X121Y2D01*
X120Y2D01*
X119Y2D01*
X118Y2D01*
X117Y2D01*
X116Y2D01*
X115Y2D01*
X114Y2D01*
X113Y2D01*
X112Y2D01*
X111Y2D01*
X110Y2D01*
X109Y2D01*
X108Y2D01*
X107Y2D01*
X106Y2D01*
X105Y2D01*
X104Y2D01*
X103Y2D01*
X102Y2D01*
X101Y2D01*
X100Y2D01*
X99Y2D01*
X98Y2D01*
X97Y2D01*
X96Y2D01*
X95Y2D01*
X94Y2D01*
X93Y2D01*
X92Y2D01*
X91Y2D01*
X90Y2D01*
X89Y2D01*
X88Y2D01*
X87Y2D01*
X86Y2D01*
X85Y2D01*
X84Y2D01*
X83Y2D01*
X82Y2D01*
X81Y2D01*
X80Y2D01*
X79Y2D01*
X78Y2D01*
X77Y2D01*
X76Y2D01*
X75Y2D01*
X74Y2D01*
X73Y2D01*
X72Y2D01*
X71Y2D01*
X70Y2D01*
X69Y2D01*
X68Y2D01*
X67Y2D01*
X66Y2D01*
X65Y3D01*
X64Y3D01*
X63Y3D01*
X62Y3D01*
X61Y3D01*
X60Y3D01*
X59Y3D01*
X58Y3D01*
X57Y3D01*
X56Y3D01*
X55Y4D01*
X54Y4D01*
X53Y4D01*
X52Y4D01*
X51Y4D01*
X50Y4D01*
X49Y5D01*
X48Y5D01*
X47Y5D01*
X46Y5D01*
X45Y5D01*
X44Y6D01*
X43Y6D01*
X42Y6D01*
X41Y6D01*
X40Y7D01*
X39Y7D01*
X38Y7D01*
X37Y7D01*
X36Y8D01*
X35Y8D01*
X34Y8D01*
X33Y9D01*
X32Y9D01*
X31Y9D01*
X30Y10D01*
X29Y10D01*
X28Y10D01*
X27Y11D01*
X26Y11D01*
X25Y12D01*
X24Y12D01*
X23Y12D01*
X22Y13D01*
X21Y13D01*
X20Y14D01*
X19Y14D01*
X18Y15D01*
X17Y15D01*
X16Y16D01*
X15Y17D01*
X14Y17D01*
X13Y18D01*
X12Y19D01*
X11Y19D01*
X10Y20D01*
X9Y21D01*
X8Y22D01*
X7Y23D01*
X6Y24D01*
X5Y25D01*
X4Y26D01*
X3Y27D01*
X3Y28D01*
X2Y29D01*
X2Y30D01*
X1Y31D01*
X1Y33D01*
X0Y34D01*
X0Y2370D01*
X1Y2371D01*
X1Y2373D01*
X2Y2374D01*
X2Y2375D01*
X3Y2376D01*
X3Y2377D01*
X4Y2378D01*
X5Y2379D01*
X6Y2380D01*
X7Y2381D01*
X8Y2382D01*
X9Y2383D01*
X10Y2384D01*
X11Y2385D01*
X12Y2385D01*
X13Y2386D01*
X14Y2387D01*
X15Y2387D01*
X16Y2388D01*
X17Y2389D01*
X18Y2389D01*
X19Y2390D01*
X20Y2390D01*
X21Y2391D01*
X22Y2391D01*
X23Y2392D01*
X24Y2392D01*
X25Y2393D01*
X26Y2393D01*
X27Y2393D01*
X28Y2394D01*
X29Y2394D01*
X30Y2394D01*
X31Y2395D01*
X32Y2395D01*
X33Y2395D01*
X34Y2396D01*
X35Y2396D01*
X36Y2396D01*
X37Y2397D01*
X38Y2397D01*
X39Y2397D01*
X40Y2397D01*
X41Y2398D01*
X42Y2398D01*
X43Y2398D01*
X44Y2398D01*
X45Y2399D01*
X46Y2399D01*
X47Y2399D01*
X48Y2399D01*
X49Y2399D01*
X50Y2400D01*
X51Y2400D01*
X52Y2400D01*
X53Y2400D01*
X54Y2400D01*
X55Y2400D01*
X56Y2401D01*
X57Y2401D01*
X58Y2401D01*
X59Y2401D01*
X60Y2401D01*
X61Y2401D01*
X62Y2401D01*
X63Y2401D01*
X64Y2401D01*
X65Y2401D01*
X66Y2402D01*
D02*
G04 End of contour*
M02*