; NON-PLATED HOLES START AT T1
; THROUGH (PLATED) HOLES START AT T100
M48
INCH
T1C0.047244
T2C0.125984
T100C0.035000
T101C0.037500
T102C0.030000
T103C0.043307
T104C0.036791
T105C0.038000
T106C0.036000
T107C0.082677
T108C0.040000
T109C0.031497
%
T1
X003280Y021667
X014852Y023137
X000916Y021667
X014852Y020772
T2
X011088Y003084
X011088Y020664
T100
X017002Y013520
X010359Y015491
X007655Y002886
X020002Y013520
X010359Y018491
X016452Y016815
X007107Y017335
X005973Y020417
X007107Y014335
X008359Y018491
X011498Y014376
X013452Y016815
X011359Y015491
X009359Y015491
X008359Y015491
X008498Y014376
X009359Y018491
X011359Y018491
X012630Y015817
X008973Y020417
X012630Y018817
X007655Y003886
T101
X004111Y018801
X007064Y018801
T102
X015841Y004286
X008349Y013338
X010349Y013338
X002678Y004039
X013841Y004286
X000678Y004039
T103
X019410Y015611
X020394Y015611
X018426Y015611
X020390Y021320
X018421Y021320
T104
X001016Y002587
X001016Y008647
T105
X000978Y013271
X001978Y013271
X006978Y013271
X005978Y013271
X017692Y002552
X019692Y002552
X002978Y013271
X018692Y002552
X003978Y013271
X016692Y002552
X014692Y002552
X015692Y002552
X004978Y013271
T106
X009518Y005830
X010518Y005830
X011518Y005830
X015518Y005830
X002518Y005830
X008518Y011830
X015518Y011830
X002518Y011830
X008518Y005830
X011518Y011830
X009518Y011830
X001518Y005830
X010518Y011830
X005518Y005830
X006518Y005830
X012518Y005830
X005518Y011830
X006518Y011830
X012518Y011830
X001518Y011830
X013518Y005830
X004518Y005830
X007518Y011830
X007518Y005830
X004518Y011830
X013518Y011830
X003518Y005830
X014518Y005830
X014518Y011830
X003518Y011830
T107
X021595Y018564
X017225Y018564
T108
X003888Y002067
X007786Y022983
X006716Y022983
X008856Y022983
X002818Y002067
X004958Y002067
T109
X015341Y014308
X016325Y014308
T00
M30
