G04 MADE WITH FRITZING*
G04 WWW.FRITZING.ORG*
G04 DOUBLE SIDED*
G04 HOLES PLATED*
G04 CONTOUR ON CENTER OF CONTOUR VECTOR*
%ASAXBY*%
%FSLAX23Y23*%
%MOIN*%
%OFA0B0*%
%SFA1.0B1.0*%
%ADD10R,0.001000X0.001000*%
%LNSILK0*%
G90*
G70*
G54D10*
X82Y2411D02*
X2173Y2411D01*
X72Y2410D02*
X2183Y2410D01*
X66Y2409D02*
X2189Y2409D01*
X60Y2408D02*
X2195Y2408D01*
X56Y2407D02*
X2199Y2407D01*
X52Y2406D02*
X2203Y2406D01*
X49Y2405D02*
X2206Y2405D01*
X46Y2404D02*
X2209Y2404D01*
X43Y2403D02*
X2212Y2403D01*
X40Y2402D02*
X2215Y2402D01*
X37Y2401D02*
X90Y2401D01*
X2165Y2401D02*
X2218Y2401D01*
X35Y2400D02*
X75Y2400D01*
X2180Y2400D02*
X2220Y2400D01*
X33Y2399D02*
X67Y2399D01*
X2188Y2399D02*
X2222Y2399D01*
X31Y2398D02*
X62Y2398D01*
X2193Y2398D02*
X2224Y2398D01*
X29Y2397D02*
X58Y2397D01*
X2197Y2397D02*
X2226Y2397D01*
X27Y2396D02*
X54Y2396D01*
X2201Y2396D02*
X2228Y2396D01*
X26Y2395D02*
X50Y2395D01*
X2205Y2395D02*
X2229Y2395D01*
X24Y2394D02*
X47Y2394D01*
X2208Y2394D02*
X2231Y2394D01*
X22Y2393D02*
X44Y2393D01*
X2211Y2393D02*
X2233Y2393D01*
X21Y2392D02*
X42Y2392D01*
X2213Y2392D02*
X2234Y2392D01*
X20Y2391D02*
X39Y2391D01*
X2216Y2391D02*
X2235Y2391D01*
X18Y2390D02*
X37Y2390D01*
X2218Y2390D02*
X2237Y2390D01*
X17Y2389D02*
X35Y2389D01*
X2220Y2389D02*
X2238Y2389D01*
X16Y2388D02*
X33Y2388D01*
X2222Y2388D02*
X2239Y2388D01*
X15Y2387D02*
X31Y2387D01*
X2224Y2387D02*
X2240Y2387D01*
X14Y2386D02*
X30Y2386D01*
X2225Y2386D02*
X2241Y2386D01*
X13Y2385D02*
X28Y2385D01*
X2227Y2385D02*
X2242Y2385D01*
X12Y2384D02*
X27Y2384D01*
X2228Y2384D02*
X2243Y2384D01*
X11Y2383D02*
X25Y2383D01*
X2230Y2383D02*
X2244Y2383D01*
X10Y2382D02*
X24Y2382D01*
X2231Y2382D02*
X2245Y2382D01*
X9Y2381D02*
X22Y2381D01*
X2233Y2381D02*
X2246Y2381D01*
X8Y2380D02*
X21Y2380D01*
X2234Y2380D02*
X2247Y2380D01*
X8Y2379D02*
X20Y2379D01*
X2235Y2379D02*
X2247Y2379D01*
X7Y2378D02*
X19Y2378D01*
X2236Y2378D02*
X2248Y2378D01*
X6Y2377D02*
X18Y2377D01*
X2237Y2377D02*
X2249Y2377D01*
X6Y2376D02*
X17Y2376D01*
X2238Y2376D02*
X2249Y2376D01*
X5Y2375D02*
X16Y2375D01*
X2239Y2375D02*
X2250Y2375D01*
X5Y2374D02*
X16Y2374D01*
X2239Y2374D02*
X2250Y2374D01*
X4Y2373D02*
X15Y2373D01*
X2240Y2373D02*
X2251Y2373D01*
X4Y2372D02*
X14Y2372D01*
X2241Y2372D02*
X2251Y2372D01*
X3Y2371D02*
X14Y2371D01*
X2241Y2371D02*
X2252Y2371D01*
X3Y2370D02*
X13Y2370D01*
X2242Y2370D02*
X2252Y2370D01*
X3Y2369D02*
X13Y2369D01*
X2242Y2369D02*
X2252Y2369D01*
X2Y2368D02*
X12Y2368D01*
X2243Y2368D02*
X2253Y2368D01*
X2Y2367D02*
X12Y2367D01*
X2243Y2367D02*
X2253Y2367D01*
X2Y2366D02*
X11Y2366D01*
X2244Y2366D02*
X2253Y2366D01*
X1Y2365D02*
X11Y2365D01*
X2244Y2365D02*
X2254Y2365D01*
X1Y2364D02*
X11Y2364D01*
X2244Y2364D02*
X2254Y2364D01*
X1Y2363D02*
X11Y2363D01*
X2244Y2363D02*
X2254Y2363D01*
X1Y2362D02*
X11Y2362D01*
X2244Y2362D02*
X2254Y2362D01*
X1Y2361D02*
X11Y2361D01*
X2244Y2361D02*
X2254Y2361D01*
X1Y2360D02*
X10Y2360D01*
X2245Y2360D02*
X2254Y2360D01*
X1Y2359D02*
X10Y2359D01*
X2245Y2359D02*
X2254Y2359D01*
X1Y2358D02*
X10Y2358D01*
X2245Y2358D02*
X2254Y2358D01*
X1Y2357D02*
X10Y2357D01*
X2245Y2357D02*
X2254Y2357D01*
X1Y2356D02*
X10Y2356D01*
X2245Y2356D02*
X2254Y2356D01*
X1Y2355D02*
X10Y2355D01*
X2245Y2355D02*
X2254Y2355D01*
X1Y2354D02*
X10Y2354D01*
X2245Y2354D02*
X2254Y2354D01*
X1Y2353D02*
X10Y2353D01*
X2245Y2353D02*
X2254Y2353D01*
X1Y2352D02*
X10Y2352D01*
X2245Y2352D02*
X2254Y2352D01*
X1Y2351D02*
X10Y2351D01*
X2245Y2351D02*
X2254Y2351D01*
X1Y2350D02*
X10Y2350D01*
X2245Y2350D02*
X2254Y2350D01*
X1Y2349D02*
X10Y2349D01*
X2245Y2349D02*
X2254Y2349D01*
X1Y2348D02*
X10Y2348D01*
X2245Y2348D02*
X2254Y2348D01*
X1Y2347D02*
X10Y2347D01*
X2245Y2347D02*
X2254Y2347D01*
X1Y2346D02*
X10Y2346D01*
X2245Y2346D02*
X2254Y2346D01*
X1Y2345D02*
X10Y2345D01*
X2245Y2345D02*
X2254Y2345D01*
X1Y2344D02*
X10Y2344D01*
X2245Y2344D02*
X2254Y2344D01*
X1Y2343D02*
X10Y2343D01*
X2245Y2343D02*
X2254Y2343D01*
X1Y2342D02*
X10Y2342D01*
X2245Y2342D02*
X2254Y2342D01*
X1Y2341D02*
X10Y2341D01*
X2245Y2341D02*
X2254Y2341D01*
X1Y2340D02*
X10Y2340D01*
X2245Y2340D02*
X2254Y2340D01*
X1Y2339D02*
X10Y2339D01*
X2245Y2339D02*
X2254Y2339D01*
X1Y2338D02*
X10Y2338D01*
X2245Y2338D02*
X2254Y2338D01*
X1Y2337D02*
X10Y2337D01*
X2245Y2337D02*
X2254Y2337D01*
X1Y2336D02*
X10Y2336D01*
X2245Y2336D02*
X2254Y2336D01*
X1Y2335D02*
X10Y2335D01*
X2245Y2335D02*
X2254Y2335D01*
X1Y2334D02*
X10Y2334D01*
X2245Y2334D02*
X2254Y2334D01*
X1Y2333D02*
X10Y2333D01*
X2245Y2333D02*
X2254Y2333D01*
X1Y2332D02*
X10Y2332D01*
X2245Y2332D02*
X2254Y2332D01*
X1Y2331D02*
X10Y2331D01*
X2245Y2331D02*
X2254Y2331D01*
X1Y2330D02*
X10Y2330D01*
X2245Y2330D02*
X2254Y2330D01*
X1Y2329D02*
X10Y2329D01*
X2245Y2329D02*
X2254Y2329D01*
X1Y2328D02*
X10Y2328D01*
X2245Y2328D02*
X2254Y2328D01*
X1Y2327D02*
X10Y2327D01*
X2245Y2327D02*
X2254Y2327D01*
X1Y2326D02*
X10Y2326D01*
X2245Y2326D02*
X2254Y2326D01*
X1Y2325D02*
X10Y2325D01*
X2245Y2325D02*
X2254Y2325D01*
X1Y2324D02*
X10Y2324D01*
X2245Y2324D02*
X2254Y2324D01*
X1Y2323D02*
X10Y2323D01*
X2245Y2323D02*
X2254Y2323D01*
X1Y2322D02*
X10Y2322D01*
X2245Y2322D02*
X2254Y2322D01*
X1Y2321D02*
X10Y2321D01*
X2245Y2321D02*
X2254Y2321D01*
X1Y2320D02*
X10Y2320D01*
X2245Y2320D02*
X2254Y2320D01*
X1Y2319D02*
X10Y2319D01*
X2245Y2319D02*
X2254Y2319D01*
X1Y2318D02*
X10Y2318D01*
X2245Y2318D02*
X2254Y2318D01*
X1Y2317D02*
X10Y2317D01*
X2245Y2317D02*
X2254Y2317D01*
X1Y2316D02*
X10Y2316D01*
X2245Y2316D02*
X2254Y2316D01*
X1Y2315D02*
X10Y2315D01*
X2245Y2315D02*
X2254Y2315D01*
X1Y2314D02*
X10Y2314D01*
X2245Y2314D02*
X2254Y2314D01*
X1Y2313D02*
X10Y2313D01*
X2245Y2313D02*
X2254Y2313D01*
X1Y2312D02*
X10Y2312D01*
X2245Y2312D02*
X2254Y2312D01*
X1Y2311D02*
X10Y2311D01*
X2245Y2311D02*
X2254Y2311D01*
X1Y2310D02*
X10Y2310D01*
X2245Y2310D02*
X2254Y2310D01*
X1Y2309D02*
X10Y2309D01*
X2245Y2309D02*
X2254Y2309D01*
X1Y2308D02*
X10Y2308D01*
X2245Y2308D02*
X2254Y2308D01*
X1Y2307D02*
X10Y2307D01*
X2245Y2307D02*
X2254Y2307D01*
X1Y2306D02*
X10Y2306D01*
X2245Y2306D02*
X2254Y2306D01*
X1Y2305D02*
X10Y2305D01*
X2245Y2305D02*
X2254Y2305D01*
X1Y2304D02*
X10Y2304D01*
X2245Y2304D02*
X2254Y2304D01*
X1Y2303D02*
X10Y2303D01*
X2245Y2303D02*
X2254Y2303D01*
X1Y2302D02*
X10Y2302D01*
X2245Y2302D02*
X2254Y2302D01*
X1Y2301D02*
X10Y2301D01*
X2245Y2301D02*
X2254Y2301D01*
X1Y2300D02*
X10Y2300D01*
X2245Y2300D02*
X2254Y2300D01*
X1Y2299D02*
X10Y2299D01*
X2245Y2299D02*
X2254Y2299D01*
X1Y2298D02*
X10Y2298D01*
X2245Y2298D02*
X2254Y2298D01*
X1Y2297D02*
X10Y2297D01*
X2245Y2297D02*
X2254Y2297D01*
X1Y2296D02*
X10Y2296D01*
X2245Y2296D02*
X2254Y2296D01*
X1Y2295D02*
X10Y2295D01*
X2245Y2295D02*
X2254Y2295D01*
X1Y2294D02*
X10Y2294D01*
X2245Y2294D02*
X2254Y2294D01*
X1Y2293D02*
X10Y2293D01*
X2245Y2293D02*
X2254Y2293D01*
X1Y2292D02*
X10Y2292D01*
X2245Y2292D02*
X2254Y2292D01*
X1Y2291D02*
X10Y2291D01*
X2245Y2291D02*
X2254Y2291D01*
X1Y2290D02*
X10Y2290D01*
X2245Y2290D02*
X2254Y2290D01*
X1Y2289D02*
X10Y2289D01*
X2245Y2289D02*
X2254Y2289D01*
X1Y2288D02*
X10Y2288D01*
X2245Y2288D02*
X2254Y2288D01*
X1Y2287D02*
X10Y2287D01*
X2245Y2287D02*
X2254Y2287D01*
X1Y2286D02*
X10Y2286D01*
X2245Y2286D02*
X2254Y2286D01*
X1Y2285D02*
X10Y2285D01*
X2245Y2285D02*
X2254Y2285D01*
X1Y2284D02*
X10Y2284D01*
X2245Y2284D02*
X2254Y2284D01*
X1Y2283D02*
X10Y2283D01*
X2245Y2283D02*
X2254Y2283D01*
X1Y2282D02*
X10Y2282D01*
X2245Y2282D02*
X2254Y2282D01*
X1Y2281D02*
X10Y2281D01*
X2245Y2281D02*
X2254Y2281D01*
X1Y2280D02*
X10Y2280D01*
X2245Y2280D02*
X2254Y2280D01*
X1Y2279D02*
X10Y2279D01*
X2245Y2279D02*
X2254Y2279D01*
X1Y2278D02*
X10Y2278D01*
X2245Y2278D02*
X2254Y2278D01*
X1Y2277D02*
X10Y2277D01*
X2245Y2277D02*
X2254Y2277D01*
X1Y2276D02*
X10Y2276D01*
X2245Y2276D02*
X2254Y2276D01*
X1Y2275D02*
X10Y2275D01*
X2245Y2275D02*
X2254Y2275D01*
X1Y2274D02*
X10Y2274D01*
X2245Y2274D02*
X2254Y2274D01*
X1Y2273D02*
X10Y2273D01*
X2245Y2273D02*
X2254Y2273D01*
X1Y2272D02*
X10Y2272D01*
X2245Y2272D02*
X2254Y2272D01*
X1Y2271D02*
X10Y2271D01*
X2245Y2271D02*
X2254Y2271D01*
X1Y2270D02*
X10Y2270D01*
X2245Y2270D02*
X2254Y2270D01*
X1Y2269D02*
X10Y2269D01*
X2245Y2269D02*
X2254Y2269D01*
X1Y2268D02*
X10Y2268D01*
X2245Y2268D02*
X2254Y2268D01*
X1Y2267D02*
X10Y2267D01*
X2245Y2267D02*
X2254Y2267D01*
X1Y2266D02*
X10Y2266D01*
X2245Y2266D02*
X2254Y2266D01*
X1Y2265D02*
X10Y2265D01*
X2245Y2265D02*
X2254Y2265D01*
X1Y2264D02*
X10Y2264D01*
X2245Y2264D02*
X2254Y2264D01*
X1Y2263D02*
X10Y2263D01*
X2245Y2263D02*
X2254Y2263D01*
X1Y2262D02*
X10Y2262D01*
X2245Y2262D02*
X2254Y2262D01*
X1Y2261D02*
X10Y2261D01*
X2245Y2261D02*
X2254Y2261D01*
X1Y2260D02*
X10Y2260D01*
X2245Y2260D02*
X2254Y2260D01*
X1Y2259D02*
X10Y2259D01*
X2245Y2259D02*
X2254Y2259D01*
X1Y2258D02*
X10Y2258D01*
X2245Y2258D02*
X2254Y2258D01*
X1Y2257D02*
X10Y2257D01*
X2245Y2257D02*
X2254Y2257D01*
X1Y2256D02*
X10Y2256D01*
X2245Y2256D02*
X2254Y2256D01*
X1Y2255D02*
X10Y2255D01*
X2245Y2255D02*
X2254Y2255D01*
X1Y2254D02*
X10Y2254D01*
X2245Y2254D02*
X2254Y2254D01*
X1Y2253D02*
X10Y2253D01*
X2245Y2253D02*
X2254Y2253D01*
X1Y2252D02*
X10Y2252D01*
X2245Y2252D02*
X2254Y2252D01*
X1Y2251D02*
X10Y2251D01*
X2245Y2251D02*
X2254Y2251D01*
X1Y2250D02*
X10Y2250D01*
X2245Y2250D02*
X2254Y2250D01*
X1Y2249D02*
X10Y2249D01*
X2245Y2249D02*
X2254Y2249D01*
X1Y2248D02*
X10Y2248D01*
X2245Y2248D02*
X2254Y2248D01*
X1Y2247D02*
X10Y2247D01*
X2245Y2247D02*
X2254Y2247D01*
X1Y2246D02*
X10Y2246D01*
X2245Y2246D02*
X2254Y2246D01*
X1Y2245D02*
X10Y2245D01*
X2245Y2245D02*
X2254Y2245D01*
X1Y2244D02*
X10Y2244D01*
X2245Y2244D02*
X2254Y2244D01*
X1Y2243D02*
X10Y2243D01*
X2245Y2243D02*
X2254Y2243D01*
X1Y2242D02*
X10Y2242D01*
X2245Y2242D02*
X2254Y2242D01*
X1Y2241D02*
X10Y2241D01*
X2245Y2241D02*
X2254Y2241D01*
X1Y2240D02*
X10Y2240D01*
X2245Y2240D02*
X2254Y2240D01*
X1Y2239D02*
X10Y2239D01*
X2245Y2239D02*
X2254Y2239D01*
X1Y2238D02*
X10Y2238D01*
X2245Y2238D02*
X2254Y2238D01*
X1Y2237D02*
X10Y2237D01*
X2245Y2237D02*
X2254Y2237D01*
X1Y2236D02*
X10Y2236D01*
X2245Y2236D02*
X2254Y2236D01*
X1Y2235D02*
X10Y2235D01*
X2245Y2235D02*
X2254Y2235D01*
X1Y2234D02*
X10Y2234D01*
X2245Y2234D02*
X2254Y2234D01*
X1Y2233D02*
X10Y2233D01*
X2245Y2233D02*
X2254Y2233D01*
X1Y2232D02*
X10Y2232D01*
X2245Y2232D02*
X2254Y2232D01*
X1Y2231D02*
X10Y2231D01*
X2245Y2231D02*
X2254Y2231D01*
X1Y2230D02*
X10Y2230D01*
X2245Y2230D02*
X2254Y2230D01*
X1Y2229D02*
X10Y2229D01*
X2245Y2229D02*
X2254Y2229D01*
X1Y2228D02*
X10Y2228D01*
X2245Y2228D02*
X2254Y2228D01*
X1Y2227D02*
X10Y2227D01*
X2245Y2227D02*
X2254Y2227D01*
X1Y2226D02*
X10Y2226D01*
X2245Y2226D02*
X2254Y2226D01*
X1Y2225D02*
X10Y2225D01*
X2245Y2225D02*
X2254Y2225D01*
X1Y2224D02*
X10Y2224D01*
X2245Y2224D02*
X2254Y2224D01*
X1Y2223D02*
X10Y2223D01*
X2245Y2223D02*
X2254Y2223D01*
X1Y2222D02*
X10Y2222D01*
X2245Y2222D02*
X2254Y2222D01*
X1Y2221D02*
X10Y2221D01*
X2245Y2221D02*
X2254Y2221D01*
X1Y2220D02*
X10Y2220D01*
X2245Y2220D02*
X2254Y2220D01*
X1Y2219D02*
X10Y2219D01*
X2245Y2219D02*
X2254Y2219D01*
X1Y2218D02*
X10Y2218D01*
X2245Y2218D02*
X2254Y2218D01*
X1Y2217D02*
X10Y2217D01*
X2245Y2217D02*
X2254Y2217D01*
X1Y2216D02*
X10Y2216D01*
X2245Y2216D02*
X2254Y2216D01*
X1Y2215D02*
X10Y2215D01*
X2245Y2215D02*
X2254Y2215D01*
X1Y2214D02*
X10Y2214D01*
X2245Y2214D02*
X2254Y2214D01*
X1Y2213D02*
X10Y2213D01*
X2245Y2213D02*
X2254Y2213D01*
X1Y2212D02*
X10Y2212D01*
X2245Y2212D02*
X2254Y2212D01*
X1Y2211D02*
X10Y2211D01*
X2245Y2211D02*
X2254Y2211D01*
X1Y2210D02*
X10Y2210D01*
X2245Y2210D02*
X2254Y2210D01*
X1Y2209D02*
X10Y2209D01*
X2245Y2209D02*
X2254Y2209D01*
X1Y2208D02*
X10Y2208D01*
X2245Y2208D02*
X2254Y2208D01*
X1Y2207D02*
X10Y2207D01*
X2245Y2207D02*
X2254Y2207D01*
X1Y2206D02*
X10Y2206D01*
X2245Y2206D02*
X2254Y2206D01*
X1Y2205D02*
X10Y2205D01*
X2245Y2205D02*
X2254Y2205D01*
X1Y2204D02*
X10Y2204D01*
X2245Y2204D02*
X2254Y2204D01*
X1Y2203D02*
X10Y2203D01*
X2245Y2203D02*
X2254Y2203D01*
X1Y2202D02*
X10Y2202D01*
X2245Y2202D02*
X2254Y2202D01*
X1Y2201D02*
X10Y2201D01*
X2245Y2201D02*
X2254Y2201D01*
X1Y2200D02*
X10Y2200D01*
X2245Y2200D02*
X2254Y2200D01*
X1Y2199D02*
X10Y2199D01*
X2245Y2199D02*
X2254Y2199D01*
X1Y2198D02*
X10Y2198D01*
X2245Y2198D02*
X2254Y2198D01*
X1Y2197D02*
X10Y2197D01*
X2245Y2197D02*
X2254Y2197D01*
X1Y2196D02*
X10Y2196D01*
X2245Y2196D02*
X2254Y2196D01*
X1Y2195D02*
X10Y2195D01*
X2245Y2195D02*
X2254Y2195D01*
X1Y2194D02*
X10Y2194D01*
X2245Y2194D02*
X2254Y2194D01*
X1Y2193D02*
X10Y2193D01*
X2245Y2193D02*
X2254Y2193D01*
X1Y2192D02*
X10Y2192D01*
X2245Y2192D02*
X2254Y2192D01*
X1Y2191D02*
X10Y2191D01*
X2245Y2191D02*
X2254Y2191D01*
X1Y2190D02*
X10Y2190D01*
X2245Y2190D02*
X2254Y2190D01*
X1Y2189D02*
X10Y2189D01*
X2245Y2189D02*
X2254Y2189D01*
X1Y2188D02*
X10Y2188D01*
X2245Y2188D02*
X2254Y2188D01*
X1Y2187D02*
X10Y2187D01*
X2245Y2187D02*
X2254Y2187D01*
X1Y2186D02*
X10Y2186D01*
X2245Y2186D02*
X2254Y2186D01*
X1Y2185D02*
X10Y2185D01*
X2245Y2185D02*
X2254Y2185D01*
X1Y2184D02*
X10Y2184D01*
X2245Y2184D02*
X2254Y2184D01*
X1Y2183D02*
X10Y2183D01*
X2245Y2183D02*
X2254Y2183D01*
X1Y2182D02*
X10Y2182D01*
X2245Y2182D02*
X2254Y2182D01*
X1Y2181D02*
X10Y2181D01*
X2245Y2181D02*
X2254Y2181D01*
X1Y2180D02*
X10Y2180D01*
X2245Y2180D02*
X2254Y2180D01*
X1Y2179D02*
X10Y2179D01*
X2245Y2179D02*
X2254Y2179D01*
X1Y2178D02*
X10Y2178D01*
X2245Y2178D02*
X2254Y2178D01*
X1Y2177D02*
X10Y2177D01*
X2245Y2177D02*
X2254Y2177D01*
X1Y2176D02*
X10Y2176D01*
X2245Y2176D02*
X2254Y2176D01*
X1Y2175D02*
X10Y2175D01*
X2245Y2175D02*
X2254Y2175D01*
X1Y2174D02*
X10Y2174D01*
X2245Y2174D02*
X2254Y2174D01*
X1Y2173D02*
X10Y2173D01*
X2245Y2173D02*
X2254Y2173D01*
X1Y2172D02*
X10Y2172D01*
X2245Y2172D02*
X2254Y2172D01*
X1Y2171D02*
X10Y2171D01*
X2245Y2171D02*
X2254Y2171D01*
X1Y2170D02*
X10Y2170D01*
X2245Y2170D02*
X2254Y2170D01*
X1Y2169D02*
X10Y2169D01*
X2245Y2169D02*
X2254Y2169D01*
X1Y2168D02*
X10Y2168D01*
X2245Y2168D02*
X2254Y2168D01*
X1Y2167D02*
X10Y2167D01*
X2245Y2167D02*
X2254Y2167D01*
X1Y2166D02*
X10Y2166D01*
X2245Y2166D02*
X2254Y2166D01*
X1Y2165D02*
X10Y2165D01*
X2245Y2165D02*
X2254Y2165D01*
X1Y2164D02*
X10Y2164D01*
X2245Y2164D02*
X2254Y2164D01*
X1Y2163D02*
X10Y2163D01*
X2245Y2163D02*
X2254Y2163D01*
X1Y2162D02*
X10Y2162D01*
X2245Y2162D02*
X2254Y2162D01*
X1Y2161D02*
X10Y2161D01*
X2245Y2161D02*
X2254Y2161D01*
X1Y2160D02*
X10Y2160D01*
X2245Y2160D02*
X2254Y2160D01*
X1Y2159D02*
X10Y2159D01*
X2245Y2159D02*
X2254Y2159D01*
X1Y2158D02*
X10Y2158D01*
X2245Y2158D02*
X2254Y2158D01*
X1Y2157D02*
X10Y2157D01*
X2245Y2157D02*
X2254Y2157D01*
X1Y2156D02*
X10Y2156D01*
X2245Y2156D02*
X2254Y2156D01*
X1Y2155D02*
X10Y2155D01*
X2245Y2155D02*
X2254Y2155D01*
X1Y2154D02*
X10Y2154D01*
X2245Y2154D02*
X2254Y2154D01*
X1Y2153D02*
X10Y2153D01*
X2245Y2153D02*
X2254Y2153D01*
X1Y2152D02*
X10Y2152D01*
X2245Y2152D02*
X2254Y2152D01*
X1Y2151D02*
X10Y2151D01*
X2245Y2151D02*
X2254Y2151D01*
X1Y2150D02*
X10Y2150D01*
X2245Y2150D02*
X2254Y2150D01*
X1Y2149D02*
X10Y2149D01*
X2245Y2149D02*
X2254Y2149D01*
X1Y2148D02*
X10Y2148D01*
X2245Y2148D02*
X2254Y2148D01*
X1Y2147D02*
X10Y2147D01*
X2245Y2147D02*
X2254Y2147D01*
X1Y2146D02*
X10Y2146D01*
X2245Y2146D02*
X2254Y2146D01*
X1Y2145D02*
X10Y2145D01*
X2245Y2145D02*
X2254Y2145D01*
X1Y2144D02*
X10Y2144D01*
X2245Y2144D02*
X2254Y2144D01*
X1Y2143D02*
X10Y2143D01*
X2245Y2143D02*
X2254Y2143D01*
X1Y2142D02*
X10Y2142D01*
X2245Y2142D02*
X2254Y2142D01*
X1Y2141D02*
X10Y2141D01*
X2245Y2141D02*
X2254Y2141D01*
X1Y2140D02*
X10Y2140D01*
X2245Y2140D02*
X2254Y2140D01*
X1Y2139D02*
X10Y2139D01*
X2245Y2139D02*
X2254Y2139D01*
X1Y2138D02*
X10Y2138D01*
X2245Y2138D02*
X2254Y2138D01*
X1Y2137D02*
X10Y2137D01*
X2245Y2137D02*
X2254Y2137D01*
X1Y2136D02*
X10Y2136D01*
X2245Y2136D02*
X2254Y2136D01*
X1Y2135D02*
X10Y2135D01*
X2245Y2135D02*
X2254Y2135D01*
X1Y2134D02*
X10Y2134D01*
X2245Y2134D02*
X2254Y2134D01*
X1Y2133D02*
X10Y2133D01*
X2245Y2133D02*
X2254Y2133D01*
X1Y2132D02*
X10Y2132D01*
X2245Y2132D02*
X2254Y2132D01*
X1Y2131D02*
X10Y2131D01*
X2245Y2131D02*
X2254Y2131D01*
X1Y2130D02*
X10Y2130D01*
X2245Y2130D02*
X2254Y2130D01*
X1Y2129D02*
X10Y2129D01*
X2245Y2129D02*
X2254Y2129D01*
X1Y2128D02*
X10Y2128D01*
X2245Y2128D02*
X2254Y2128D01*
X1Y2127D02*
X10Y2127D01*
X2245Y2127D02*
X2254Y2127D01*
X1Y2126D02*
X10Y2126D01*
X2245Y2126D02*
X2254Y2126D01*
X1Y2125D02*
X10Y2125D01*
X2245Y2125D02*
X2254Y2125D01*
X1Y2124D02*
X10Y2124D01*
X2245Y2124D02*
X2254Y2124D01*
X1Y2123D02*
X10Y2123D01*
X2245Y2123D02*
X2254Y2123D01*
X1Y2122D02*
X10Y2122D01*
X2245Y2122D02*
X2254Y2122D01*
X1Y2121D02*
X10Y2121D01*
X2245Y2121D02*
X2254Y2121D01*
X1Y2120D02*
X10Y2120D01*
X2245Y2120D02*
X2254Y2120D01*
X1Y2119D02*
X10Y2119D01*
X2245Y2119D02*
X2254Y2119D01*
X1Y2118D02*
X10Y2118D01*
X2245Y2118D02*
X2254Y2118D01*
X1Y2117D02*
X10Y2117D01*
X2245Y2117D02*
X2254Y2117D01*
X1Y2116D02*
X10Y2116D01*
X2245Y2116D02*
X2254Y2116D01*
X1Y2115D02*
X10Y2115D01*
X2245Y2115D02*
X2254Y2115D01*
X1Y2114D02*
X10Y2114D01*
X2245Y2114D02*
X2254Y2114D01*
X1Y2113D02*
X10Y2113D01*
X2245Y2113D02*
X2254Y2113D01*
X1Y2112D02*
X10Y2112D01*
X2245Y2112D02*
X2254Y2112D01*
X1Y2111D02*
X10Y2111D01*
X2245Y2111D02*
X2254Y2111D01*
X1Y2110D02*
X10Y2110D01*
X2245Y2110D02*
X2254Y2110D01*
X1Y2109D02*
X10Y2109D01*
X2245Y2109D02*
X2254Y2109D01*
X1Y2108D02*
X10Y2108D01*
X2245Y2108D02*
X2254Y2108D01*
X1Y2107D02*
X10Y2107D01*
X2245Y2107D02*
X2254Y2107D01*
X1Y2106D02*
X10Y2106D01*
X2245Y2106D02*
X2254Y2106D01*
X1Y2105D02*
X10Y2105D01*
X2245Y2105D02*
X2254Y2105D01*
X1Y2104D02*
X10Y2104D01*
X2245Y2104D02*
X2254Y2104D01*
X1Y2103D02*
X10Y2103D01*
X2245Y2103D02*
X2254Y2103D01*
X1Y2102D02*
X10Y2102D01*
X2245Y2102D02*
X2254Y2102D01*
X1Y2101D02*
X10Y2101D01*
X2245Y2101D02*
X2254Y2101D01*
X1Y2100D02*
X10Y2100D01*
X2245Y2100D02*
X2254Y2100D01*
X1Y2099D02*
X10Y2099D01*
X2245Y2099D02*
X2254Y2099D01*
X1Y2098D02*
X10Y2098D01*
X2245Y2098D02*
X2254Y2098D01*
X1Y2097D02*
X10Y2097D01*
X2245Y2097D02*
X2254Y2097D01*
X1Y2096D02*
X10Y2096D01*
X2245Y2096D02*
X2254Y2096D01*
X1Y2095D02*
X10Y2095D01*
X2245Y2095D02*
X2254Y2095D01*
X1Y2094D02*
X10Y2094D01*
X2245Y2094D02*
X2254Y2094D01*
X1Y2093D02*
X10Y2093D01*
X2245Y2093D02*
X2254Y2093D01*
X1Y2092D02*
X10Y2092D01*
X2245Y2092D02*
X2254Y2092D01*
X1Y2091D02*
X10Y2091D01*
X2245Y2091D02*
X2254Y2091D01*
X1Y2090D02*
X10Y2090D01*
X2245Y2090D02*
X2254Y2090D01*
X1Y2089D02*
X10Y2089D01*
X2245Y2089D02*
X2254Y2089D01*
X1Y2088D02*
X10Y2088D01*
X2245Y2088D02*
X2254Y2088D01*
X1Y2087D02*
X10Y2087D01*
X2245Y2087D02*
X2254Y2087D01*
X1Y2086D02*
X10Y2086D01*
X2245Y2086D02*
X2254Y2086D01*
X1Y2085D02*
X10Y2085D01*
X2245Y2085D02*
X2254Y2085D01*
X1Y2084D02*
X10Y2084D01*
X2245Y2084D02*
X2254Y2084D01*
X1Y2083D02*
X10Y2083D01*
X2245Y2083D02*
X2254Y2083D01*
X1Y2082D02*
X10Y2082D01*
X2245Y2082D02*
X2254Y2082D01*
X1Y2081D02*
X10Y2081D01*
X2245Y2081D02*
X2254Y2081D01*
X1Y2080D02*
X10Y2080D01*
X2245Y2080D02*
X2254Y2080D01*
X1Y2079D02*
X10Y2079D01*
X2245Y2079D02*
X2254Y2079D01*
X1Y2078D02*
X10Y2078D01*
X2245Y2078D02*
X2254Y2078D01*
X1Y2077D02*
X10Y2077D01*
X2245Y2077D02*
X2254Y2077D01*
X1Y2076D02*
X10Y2076D01*
X2245Y2076D02*
X2254Y2076D01*
X1Y2075D02*
X10Y2075D01*
X2245Y2075D02*
X2254Y2075D01*
X1Y2074D02*
X10Y2074D01*
X2245Y2074D02*
X2254Y2074D01*
X1Y2073D02*
X10Y2073D01*
X2245Y2073D02*
X2254Y2073D01*
X1Y2072D02*
X10Y2072D01*
X2245Y2072D02*
X2254Y2072D01*
X1Y2071D02*
X10Y2071D01*
X2245Y2071D02*
X2254Y2071D01*
X1Y2070D02*
X10Y2070D01*
X2245Y2070D02*
X2254Y2070D01*
X1Y2069D02*
X10Y2069D01*
X2245Y2069D02*
X2254Y2069D01*
X1Y2068D02*
X10Y2068D01*
X2245Y2068D02*
X2254Y2068D01*
X1Y2067D02*
X10Y2067D01*
X2245Y2067D02*
X2254Y2067D01*
X1Y2066D02*
X10Y2066D01*
X2245Y2066D02*
X2254Y2066D01*
X1Y2065D02*
X10Y2065D01*
X2245Y2065D02*
X2254Y2065D01*
X1Y2064D02*
X10Y2064D01*
X2245Y2064D02*
X2254Y2064D01*
X1Y2063D02*
X10Y2063D01*
X2245Y2063D02*
X2254Y2063D01*
X1Y2062D02*
X10Y2062D01*
X2245Y2062D02*
X2254Y2062D01*
X1Y2061D02*
X10Y2061D01*
X2245Y2061D02*
X2254Y2061D01*
X1Y2060D02*
X10Y2060D01*
X2245Y2060D02*
X2254Y2060D01*
X1Y2059D02*
X10Y2059D01*
X2245Y2059D02*
X2254Y2059D01*
X1Y2058D02*
X10Y2058D01*
X2245Y2058D02*
X2254Y2058D01*
X1Y2057D02*
X10Y2057D01*
X2245Y2057D02*
X2254Y2057D01*
X1Y2056D02*
X10Y2056D01*
X2245Y2056D02*
X2254Y2056D01*
X1Y2055D02*
X10Y2055D01*
X2245Y2055D02*
X2254Y2055D01*
X1Y2054D02*
X10Y2054D01*
X2245Y2054D02*
X2254Y2054D01*
X1Y2053D02*
X10Y2053D01*
X2245Y2053D02*
X2254Y2053D01*
X1Y2052D02*
X10Y2052D01*
X2245Y2052D02*
X2254Y2052D01*
X1Y2051D02*
X10Y2051D01*
X2245Y2051D02*
X2254Y2051D01*
X1Y2050D02*
X10Y2050D01*
X2245Y2050D02*
X2254Y2050D01*
X1Y2049D02*
X10Y2049D01*
X2245Y2049D02*
X2254Y2049D01*
X1Y2048D02*
X10Y2048D01*
X2245Y2048D02*
X2254Y2048D01*
X1Y2047D02*
X10Y2047D01*
X2245Y2047D02*
X2254Y2047D01*
X1Y2046D02*
X10Y2046D01*
X2245Y2046D02*
X2254Y2046D01*
X1Y2045D02*
X10Y2045D01*
X2245Y2045D02*
X2254Y2045D01*
X1Y2044D02*
X10Y2044D01*
X2245Y2044D02*
X2254Y2044D01*
X1Y2043D02*
X10Y2043D01*
X2245Y2043D02*
X2254Y2043D01*
X1Y2042D02*
X10Y2042D01*
X2245Y2042D02*
X2254Y2042D01*
X1Y2041D02*
X10Y2041D01*
X2245Y2041D02*
X2254Y2041D01*
X1Y2040D02*
X10Y2040D01*
X2245Y2040D02*
X2254Y2040D01*
X1Y2039D02*
X10Y2039D01*
X2245Y2039D02*
X2254Y2039D01*
X1Y2038D02*
X10Y2038D01*
X2245Y2038D02*
X2254Y2038D01*
X1Y2037D02*
X10Y2037D01*
X2245Y2037D02*
X2254Y2037D01*
X1Y2036D02*
X10Y2036D01*
X2245Y2036D02*
X2254Y2036D01*
X1Y2035D02*
X10Y2035D01*
X2245Y2035D02*
X2254Y2035D01*
X1Y2034D02*
X10Y2034D01*
X2245Y2034D02*
X2254Y2034D01*
X1Y2033D02*
X10Y2033D01*
X2245Y2033D02*
X2254Y2033D01*
X1Y2032D02*
X10Y2032D01*
X2245Y2032D02*
X2254Y2032D01*
X1Y2031D02*
X10Y2031D01*
X2245Y2031D02*
X2254Y2031D01*
X1Y2030D02*
X10Y2030D01*
X2245Y2030D02*
X2254Y2030D01*
X1Y2029D02*
X10Y2029D01*
X2245Y2029D02*
X2254Y2029D01*
X1Y2028D02*
X10Y2028D01*
X2245Y2028D02*
X2254Y2028D01*
X1Y2027D02*
X10Y2027D01*
X2245Y2027D02*
X2254Y2027D01*
X1Y2026D02*
X10Y2026D01*
X2245Y2026D02*
X2254Y2026D01*
X1Y2025D02*
X10Y2025D01*
X2245Y2025D02*
X2254Y2025D01*
X1Y2024D02*
X10Y2024D01*
X2245Y2024D02*
X2254Y2024D01*
X1Y2023D02*
X10Y2023D01*
X2245Y2023D02*
X2254Y2023D01*
X1Y2022D02*
X10Y2022D01*
X2245Y2022D02*
X2254Y2022D01*
X1Y2021D02*
X10Y2021D01*
X2245Y2021D02*
X2254Y2021D01*
X1Y2020D02*
X10Y2020D01*
X2245Y2020D02*
X2254Y2020D01*
X1Y2019D02*
X10Y2019D01*
X2245Y2019D02*
X2254Y2019D01*
X1Y2018D02*
X10Y2018D01*
X2245Y2018D02*
X2254Y2018D01*
X1Y2017D02*
X10Y2017D01*
X2245Y2017D02*
X2254Y2017D01*
X1Y2016D02*
X10Y2016D01*
X2245Y2016D02*
X2254Y2016D01*
X1Y2015D02*
X10Y2015D01*
X2245Y2015D02*
X2254Y2015D01*
X1Y2014D02*
X10Y2014D01*
X2245Y2014D02*
X2254Y2014D01*
X1Y2013D02*
X10Y2013D01*
X2245Y2013D02*
X2254Y2013D01*
X1Y2012D02*
X10Y2012D01*
X2245Y2012D02*
X2254Y2012D01*
X1Y2011D02*
X10Y2011D01*
X2245Y2011D02*
X2254Y2011D01*
X1Y2010D02*
X10Y2010D01*
X2245Y2010D02*
X2254Y2010D01*
X1Y2009D02*
X10Y2009D01*
X2245Y2009D02*
X2254Y2009D01*
X1Y2008D02*
X10Y2008D01*
X2245Y2008D02*
X2254Y2008D01*
X1Y2007D02*
X10Y2007D01*
X2245Y2007D02*
X2254Y2007D01*
X1Y2006D02*
X10Y2006D01*
X2245Y2006D02*
X2254Y2006D01*
X1Y2005D02*
X10Y2005D01*
X2245Y2005D02*
X2254Y2005D01*
X1Y2004D02*
X10Y2004D01*
X2245Y2004D02*
X2254Y2004D01*
X1Y2003D02*
X10Y2003D01*
X2245Y2003D02*
X2254Y2003D01*
X1Y2002D02*
X10Y2002D01*
X2245Y2002D02*
X2254Y2002D01*
X1Y2001D02*
X10Y2001D01*
X2245Y2001D02*
X2254Y2001D01*
X1Y2000D02*
X10Y2000D01*
X2245Y2000D02*
X2254Y2000D01*
X1Y1999D02*
X10Y1999D01*
X2245Y1999D02*
X2254Y1999D01*
X1Y1998D02*
X10Y1998D01*
X2245Y1998D02*
X2254Y1998D01*
X1Y1997D02*
X10Y1997D01*
X2245Y1997D02*
X2254Y1997D01*
X1Y1996D02*
X10Y1996D01*
X2245Y1996D02*
X2254Y1996D01*
X1Y1995D02*
X10Y1995D01*
X2245Y1995D02*
X2254Y1995D01*
X1Y1994D02*
X10Y1994D01*
X2245Y1994D02*
X2254Y1994D01*
X1Y1993D02*
X10Y1993D01*
X2245Y1993D02*
X2254Y1993D01*
X1Y1992D02*
X10Y1992D01*
X2245Y1992D02*
X2254Y1992D01*
X1Y1991D02*
X10Y1991D01*
X2245Y1991D02*
X2254Y1991D01*
X1Y1990D02*
X10Y1990D01*
X2245Y1990D02*
X2254Y1990D01*
X1Y1989D02*
X10Y1989D01*
X2245Y1989D02*
X2254Y1989D01*
X1Y1988D02*
X10Y1988D01*
X2245Y1988D02*
X2254Y1988D01*
X1Y1987D02*
X10Y1987D01*
X2245Y1987D02*
X2254Y1987D01*
X1Y1986D02*
X10Y1986D01*
X2245Y1986D02*
X2254Y1986D01*
X1Y1985D02*
X10Y1985D01*
X2245Y1985D02*
X2254Y1985D01*
X1Y1984D02*
X10Y1984D01*
X2245Y1984D02*
X2254Y1984D01*
X1Y1983D02*
X10Y1983D01*
X2245Y1983D02*
X2254Y1983D01*
X1Y1982D02*
X10Y1982D01*
X2245Y1982D02*
X2254Y1982D01*
X1Y1981D02*
X10Y1981D01*
X2245Y1981D02*
X2254Y1981D01*
X1Y1980D02*
X10Y1980D01*
X2245Y1980D02*
X2254Y1980D01*
X1Y1979D02*
X10Y1979D01*
X2245Y1979D02*
X2254Y1979D01*
X1Y1978D02*
X10Y1978D01*
X2245Y1978D02*
X2254Y1978D01*
X1Y1977D02*
X10Y1977D01*
X2245Y1977D02*
X2254Y1977D01*
X1Y1976D02*
X10Y1976D01*
X2245Y1976D02*
X2254Y1976D01*
X1Y1975D02*
X10Y1975D01*
X2245Y1975D02*
X2254Y1975D01*
X1Y1974D02*
X10Y1974D01*
X2245Y1974D02*
X2254Y1974D01*
X1Y1973D02*
X10Y1973D01*
X2245Y1973D02*
X2254Y1973D01*
X1Y1972D02*
X10Y1972D01*
X2245Y1972D02*
X2254Y1972D01*
X1Y1971D02*
X10Y1971D01*
X2245Y1971D02*
X2254Y1971D01*
X1Y1970D02*
X10Y1970D01*
X2245Y1970D02*
X2254Y1970D01*
X1Y1969D02*
X10Y1969D01*
X2245Y1969D02*
X2254Y1969D01*
X1Y1968D02*
X10Y1968D01*
X2245Y1968D02*
X2254Y1968D01*
X1Y1967D02*
X10Y1967D01*
X2245Y1967D02*
X2254Y1967D01*
X1Y1966D02*
X10Y1966D01*
X2245Y1966D02*
X2254Y1966D01*
X1Y1965D02*
X10Y1965D01*
X2245Y1965D02*
X2254Y1965D01*
X1Y1964D02*
X10Y1964D01*
X2245Y1964D02*
X2254Y1964D01*
X1Y1963D02*
X10Y1963D01*
X2245Y1963D02*
X2254Y1963D01*
X1Y1962D02*
X10Y1962D01*
X2245Y1962D02*
X2254Y1962D01*
X1Y1961D02*
X10Y1961D01*
X2245Y1961D02*
X2254Y1961D01*
X1Y1960D02*
X10Y1960D01*
X2245Y1960D02*
X2254Y1960D01*
X1Y1959D02*
X10Y1959D01*
X2245Y1959D02*
X2254Y1959D01*
X1Y1958D02*
X10Y1958D01*
X2245Y1958D02*
X2254Y1958D01*
X1Y1957D02*
X10Y1957D01*
X2245Y1957D02*
X2254Y1957D01*
X1Y1956D02*
X10Y1956D01*
X2245Y1956D02*
X2254Y1956D01*
X1Y1955D02*
X10Y1955D01*
X2245Y1955D02*
X2254Y1955D01*
X1Y1954D02*
X10Y1954D01*
X2245Y1954D02*
X2254Y1954D01*
X1Y1953D02*
X10Y1953D01*
X2245Y1953D02*
X2254Y1953D01*
X1Y1952D02*
X10Y1952D01*
X2245Y1952D02*
X2254Y1952D01*
X1Y1951D02*
X10Y1951D01*
X2245Y1951D02*
X2254Y1951D01*
X1Y1950D02*
X10Y1950D01*
X2245Y1950D02*
X2254Y1950D01*
X1Y1949D02*
X10Y1949D01*
X2245Y1949D02*
X2254Y1949D01*
X1Y1948D02*
X10Y1948D01*
X2245Y1948D02*
X2254Y1948D01*
X1Y1947D02*
X10Y1947D01*
X2245Y1947D02*
X2254Y1947D01*
X1Y1946D02*
X10Y1946D01*
X2245Y1946D02*
X2254Y1946D01*
X1Y1945D02*
X10Y1945D01*
X2245Y1945D02*
X2254Y1945D01*
X1Y1944D02*
X10Y1944D01*
X2245Y1944D02*
X2254Y1944D01*
X1Y1943D02*
X10Y1943D01*
X2245Y1943D02*
X2254Y1943D01*
X1Y1942D02*
X10Y1942D01*
X2245Y1942D02*
X2254Y1942D01*
X1Y1941D02*
X10Y1941D01*
X2245Y1941D02*
X2254Y1941D01*
X1Y1940D02*
X10Y1940D01*
X2245Y1940D02*
X2254Y1940D01*
X1Y1939D02*
X10Y1939D01*
X2245Y1939D02*
X2254Y1939D01*
X1Y1938D02*
X10Y1938D01*
X2245Y1938D02*
X2254Y1938D01*
X1Y1937D02*
X10Y1937D01*
X2245Y1937D02*
X2254Y1937D01*
X1Y1936D02*
X10Y1936D01*
X2245Y1936D02*
X2254Y1936D01*
X1Y1935D02*
X10Y1935D01*
X2245Y1935D02*
X2254Y1935D01*
X1Y1934D02*
X10Y1934D01*
X2245Y1934D02*
X2254Y1934D01*
X1Y1933D02*
X10Y1933D01*
X2245Y1933D02*
X2254Y1933D01*
X1Y1932D02*
X10Y1932D01*
X2245Y1932D02*
X2254Y1932D01*
X1Y1931D02*
X10Y1931D01*
X2245Y1931D02*
X2254Y1931D01*
X1Y1930D02*
X10Y1930D01*
X2245Y1930D02*
X2254Y1930D01*
X1Y1929D02*
X10Y1929D01*
X2245Y1929D02*
X2254Y1929D01*
X1Y1928D02*
X10Y1928D01*
X2245Y1928D02*
X2254Y1928D01*
X1Y1927D02*
X10Y1927D01*
X2245Y1927D02*
X2254Y1927D01*
X1Y1926D02*
X10Y1926D01*
X2245Y1926D02*
X2254Y1926D01*
X1Y1925D02*
X10Y1925D01*
X2245Y1925D02*
X2254Y1925D01*
X1Y1924D02*
X10Y1924D01*
X2245Y1924D02*
X2254Y1924D01*
X1Y1923D02*
X10Y1923D01*
X2245Y1923D02*
X2254Y1923D01*
X1Y1922D02*
X10Y1922D01*
X2245Y1922D02*
X2254Y1922D01*
X1Y1921D02*
X10Y1921D01*
X2245Y1921D02*
X2254Y1921D01*
X1Y1920D02*
X10Y1920D01*
X2245Y1920D02*
X2254Y1920D01*
X1Y1919D02*
X10Y1919D01*
X2245Y1919D02*
X2254Y1919D01*
X1Y1918D02*
X10Y1918D01*
X2245Y1918D02*
X2254Y1918D01*
X1Y1917D02*
X10Y1917D01*
X2245Y1917D02*
X2254Y1917D01*
X1Y1916D02*
X10Y1916D01*
X2245Y1916D02*
X2254Y1916D01*
X1Y1915D02*
X10Y1915D01*
X2245Y1915D02*
X2254Y1915D01*
X1Y1914D02*
X10Y1914D01*
X2245Y1914D02*
X2254Y1914D01*
X1Y1913D02*
X10Y1913D01*
X2245Y1913D02*
X2254Y1913D01*
X1Y1912D02*
X10Y1912D01*
X2245Y1912D02*
X2254Y1912D01*
X1Y1911D02*
X10Y1911D01*
X2245Y1911D02*
X2254Y1911D01*
X1Y1910D02*
X10Y1910D01*
X2245Y1910D02*
X2254Y1910D01*
X1Y1909D02*
X10Y1909D01*
X2245Y1909D02*
X2254Y1909D01*
X1Y1908D02*
X10Y1908D01*
X2245Y1908D02*
X2254Y1908D01*
X1Y1907D02*
X10Y1907D01*
X2245Y1907D02*
X2254Y1907D01*
X1Y1906D02*
X10Y1906D01*
X2245Y1906D02*
X2254Y1906D01*
X1Y1905D02*
X10Y1905D01*
X2245Y1905D02*
X2254Y1905D01*
X1Y1904D02*
X10Y1904D01*
X2245Y1904D02*
X2254Y1904D01*
X1Y1903D02*
X10Y1903D01*
X2245Y1903D02*
X2254Y1903D01*
X1Y1902D02*
X10Y1902D01*
X2245Y1902D02*
X2254Y1902D01*
X1Y1901D02*
X10Y1901D01*
X2245Y1901D02*
X2254Y1901D01*
X1Y1900D02*
X10Y1900D01*
X2245Y1900D02*
X2254Y1900D01*
X1Y1899D02*
X10Y1899D01*
X2245Y1899D02*
X2254Y1899D01*
X1Y1898D02*
X10Y1898D01*
X2245Y1898D02*
X2254Y1898D01*
X1Y1897D02*
X10Y1897D01*
X2245Y1897D02*
X2254Y1897D01*
X1Y1896D02*
X10Y1896D01*
X2245Y1896D02*
X2254Y1896D01*
X1Y1895D02*
X10Y1895D01*
X2245Y1895D02*
X2254Y1895D01*
X1Y1894D02*
X10Y1894D01*
X2245Y1894D02*
X2254Y1894D01*
X1Y1893D02*
X10Y1893D01*
X2245Y1893D02*
X2254Y1893D01*
X1Y1892D02*
X10Y1892D01*
X2245Y1892D02*
X2254Y1892D01*
X1Y1891D02*
X10Y1891D01*
X2245Y1891D02*
X2254Y1891D01*
X1Y1890D02*
X10Y1890D01*
X2245Y1890D02*
X2254Y1890D01*
X1Y1889D02*
X10Y1889D01*
X2245Y1889D02*
X2254Y1889D01*
X1Y1888D02*
X10Y1888D01*
X2245Y1888D02*
X2254Y1888D01*
X1Y1887D02*
X10Y1887D01*
X2245Y1887D02*
X2254Y1887D01*
X1Y1886D02*
X10Y1886D01*
X2245Y1886D02*
X2254Y1886D01*
X1Y1885D02*
X10Y1885D01*
X2245Y1885D02*
X2254Y1885D01*
X1Y1884D02*
X10Y1884D01*
X2245Y1884D02*
X2254Y1884D01*
X1Y1883D02*
X10Y1883D01*
X2245Y1883D02*
X2254Y1883D01*
X1Y1882D02*
X10Y1882D01*
X2245Y1882D02*
X2254Y1882D01*
X1Y1881D02*
X10Y1881D01*
X2245Y1881D02*
X2254Y1881D01*
X1Y1880D02*
X10Y1880D01*
X2245Y1880D02*
X2254Y1880D01*
X1Y1879D02*
X10Y1879D01*
X2245Y1879D02*
X2254Y1879D01*
X1Y1878D02*
X10Y1878D01*
X2245Y1878D02*
X2254Y1878D01*
X1Y1877D02*
X10Y1877D01*
X2245Y1877D02*
X2254Y1877D01*
X1Y1876D02*
X10Y1876D01*
X2245Y1876D02*
X2254Y1876D01*
X1Y1875D02*
X10Y1875D01*
X2245Y1875D02*
X2254Y1875D01*
X1Y1874D02*
X10Y1874D01*
X2245Y1874D02*
X2254Y1874D01*
X1Y1873D02*
X10Y1873D01*
X2245Y1873D02*
X2254Y1873D01*
X1Y1872D02*
X10Y1872D01*
X2245Y1872D02*
X2254Y1872D01*
X1Y1871D02*
X10Y1871D01*
X2245Y1871D02*
X2254Y1871D01*
X1Y1870D02*
X10Y1870D01*
X2245Y1870D02*
X2254Y1870D01*
X1Y1869D02*
X10Y1869D01*
X2245Y1869D02*
X2254Y1869D01*
X1Y1868D02*
X10Y1868D01*
X2245Y1868D02*
X2254Y1868D01*
X1Y1867D02*
X10Y1867D01*
X2245Y1867D02*
X2254Y1867D01*
X1Y1866D02*
X10Y1866D01*
X2245Y1866D02*
X2254Y1866D01*
X1Y1865D02*
X10Y1865D01*
X2245Y1865D02*
X2254Y1865D01*
X1Y1864D02*
X10Y1864D01*
X2245Y1864D02*
X2254Y1864D01*
X1Y1863D02*
X10Y1863D01*
X2245Y1863D02*
X2254Y1863D01*
X1Y1862D02*
X10Y1862D01*
X2245Y1862D02*
X2254Y1862D01*
X1Y1861D02*
X10Y1861D01*
X2245Y1861D02*
X2254Y1861D01*
X1Y1860D02*
X10Y1860D01*
X2245Y1860D02*
X2254Y1860D01*
X1Y1859D02*
X10Y1859D01*
X2245Y1859D02*
X2254Y1859D01*
X1Y1858D02*
X10Y1858D01*
X2245Y1858D02*
X2254Y1858D01*
X1Y1857D02*
X10Y1857D01*
X2245Y1857D02*
X2254Y1857D01*
X1Y1856D02*
X10Y1856D01*
X2245Y1856D02*
X2254Y1856D01*
X1Y1855D02*
X10Y1855D01*
X2245Y1855D02*
X2254Y1855D01*
X1Y1854D02*
X10Y1854D01*
X2245Y1854D02*
X2254Y1854D01*
X1Y1853D02*
X10Y1853D01*
X2245Y1853D02*
X2254Y1853D01*
X1Y1852D02*
X10Y1852D01*
X2245Y1852D02*
X2254Y1852D01*
X1Y1851D02*
X10Y1851D01*
X2245Y1851D02*
X2254Y1851D01*
X1Y1850D02*
X10Y1850D01*
X2245Y1850D02*
X2254Y1850D01*
X1Y1849D02*
X10Y1849D01*
X2245Y1849D02*
X2254Y1849D01*
X1Y1848D02*
X10Y1848D01*
X2245Y1848D02*
X2254Y1848D01*
X1Y1847D02*
X10Y1847D01*
X2245Y1847D02*
X2254Y1847D01*
X1Y1846D02*
X10Y1846D01*
X2245Y1846D02*
X2254Y1846D01*
X1Y1845D02*
X10Y1845D01*
X2245Y1845D02*
X2254Y1845D01*
X1Y1844D02*
X10Y1844D01*
X2245Y1844D02*
X2254Y1844D01*
X1Y1843D02*
X10Y1843D01*
X2245Y1843D02*
X2254Y1843D01*
X1Y1842D02*
X10Y1842D01*
X2245Y1842D02*
X2254Y1842D01*
X1Y1841D02*
X10Y1841D01*
X2245Y1841D02*
X2254Y1841D01*
X1Y1840D02*
X10Y1840D01*
X2245Y1840D02*
X2254Y1840D01*
X1Y1839D02*
X10Y1839D01*
X2245Y1839D02*
X2254Y1839D01*
X1Y1838D02*
X10Y1838D01*
X2245Y1838D02*
X2254Y1838D01*
X1Y1837D02*
X10Y1837D01*
X2245Y1837D02*
X2254Y1837D01*
X1Y1836D02*
X10Y1836D01*
X2245Y1836D02*
X2254Y1836D01*
X1Y1835D02*
X10Y1835D01*
X2245Y1835D02*
X2254Y1835D01*
X1Y1834D02*
X10Y1834D01*
X922Y1834D02*
X924Y1834D01*
X1059Y1834D02*
X1062Y1834D01*
X1197Y1834D02*
X1199Y1834D01*
X1334Y1834D02*
X1337Y1834D01*
X2245Y1834D02*
X2254Y1834D01*
X1Y1833D02*
X10Y1833D01*
X919Y1833D02*
X926Y1833D01*
X1057Y1833D02*
X1064Y1833D01*
X1194Y1833D02*
X1201Y1833D01*
X1332Y1833D02*
X1339Y1833D01*
X2245Y1833D02*
X2254Y1833D01*
X1Y1832D02*
X10Y1832D01*
X919Y1832D02*
X927Y1832D01*
X1056Y1832D02*
X1064Y1832D01*
X1194Y1832D02*
X1202Y1832D01*
X1331Y1832D02*
X1339Y1832D01*
X2245Y1832D02*
X2254Y1832D01*
X1Y1831D02*
X10Y1831D01*
X884Y1831D02*
X895Y1831D01*
X919Y1831D02*
X927Y1831D01*
X1021Y1831D02*
X1033Y1831D01*
X1056Y1831D02*
X1065Y1831D01*
X1159Y1831D02*
X1170Y1831D01*
X1194Y1831D02*
X1202Y1831D01*
X1297Y1831D02*
X1308Y1831D01*
X1331Y1831D02*
X1340Y1831D01*
X2245Y1831D02*
X2254Y1831D01*
X1Y1830D02*
X10Y1830D01*
X883Y1830D02*
X896Y1830D01*
X919Y1830D02*
X927Y1830D01*
X1020Y1830D02*
X1034Y1830D01*
X1056Y1830D02*
X1065Y1830D01*
X1158Y1830D02*
X1171Y1830D01*
X1194Y1830D02*
X1202Y1830D01*
X1295Y1830D02*
X1309Y1830D01*
X1331Y1830D02*
X1340Y1830D01*
X2245Y1830D02*
X2254Y1830D01*
X1Y1829D02*
X10Y1829D01*
X882Y1829D02*
X897Y1829D01*
X919Y1829D02*
X927Y1829D01*
X1020Y1829D02*
X1034Y1829D01*
X1056Y1829D02*
X1065Y1829D01*
X1157Y1829D02*
X1172Y1829D01*
X1194Y1829D02*
X1202Y1829D01*
X1295Y1829D02*
X1309Y1829D01*
X1331Y1829D02*
X1340Y1829D01*
X2245Y1829D02*
X2254Y1829D01*
X1Y1828D02*
X10Y1828D01*
X882Y1828D02*
X897Y1828D01*
X919Y1828D02*
X927Y1828D01*
X1020Y1828D02*
X1034Y1828D01*
X1056Y1828D02*
X1065Y1828D01*
X1157Y1828D02*
X1172Y1828D01*
X1194Y1828D02*
X1202Y1828D01*
X1295Y1828D02*
X1310Y1828D01*
X1331Y1828D02*
X1340Y1828D01*
X2245Y1828D02*
X2254Y1828D01*
X1Y1827D02*
X10Y1827D01*
X882Y1827D02*
X897Y1827D01*
X919Y1827D02*
X927Y1827D01*
X1020Y1827D02*
X1034Y1827D01*
X1056Y1827D02*
X1064Y1827D01*
X1157Y1827D02*
X1172Y1827D01*
X1194Y1827D02*
X1202Y1827D01*
X1295Y1827D02*
X1309Y1827D01*
X1331Y1827D02*
X1339Y1827D01*
X2245Y1827D02*
X2254Y1827D01*
X1Y1826D02*
X10Y1826D01*
X882Y1826D02*
X896Y1826D01*
X920Y1826D02*
X926Y1826D01*
X1020Y1826D02*
X1034Y1826D01*
X1057Y1826D02*
X1064Y1826D01*
X1157Y1826D02*
X1171Y1826D01*
X1195Y1826D02*
X1201Y1826D01*
X1295Y1826D02*
X1309Y1826D01*
X1332Y1826D02*
X1339Y1826D01*
X2245Y1826D02*
X2254Y1826D01*
X1Y1825D02*
X10Y1825D01*
X882Y1825D02*
X894Y1825D01*
X922Y1825D02*
X924Y1825D01*
X1020Y1825D02*
X1031Y1825D01*
X1059Y1825D02*
X1061Y1825D01*
X1157Y1825D02*
X1169Y1825D01*
X1197Y1825D02*
X1199Y1825D01*
X1295Y1825D02*
X1306Y1825D01*
X1334Y1825D02*
X1337Y1825D01*
X2245Y1825D02*
X2254Y1825D01*
X1Y1824D02*
X10Y1824D01*
X882Y1824D02*
X888Y1824D01*
X1020Y1824D02*
X1025Y1824D01*
X1157Y1824D02*
X1163Y1824D01*
X1295Y1824D02*
X1300Y1824D01*
X2245Y1824D02*
X2254Y1824D01*
X1Y1823D02*
X10Y1823D01*
X882Y1823D02*
X888Y1823D01*
X1020Y1823D02*
X1025Y1823D01*
X1157Y1823D02*
X1163Y1823D01*
X1295Y1823D02*
X1300Y1823D01*
X2245Y1823D02*
X2254Y1823D01*
X1Y1822D02*
X10Y1822D01*
X882Y1822D02*
X888Y1822D01*
X1020Y1822D02*
X1025Y1822D01*
X1157Y1822D02*
X1163Y1822D01*
X1295Y1822D02*
X1300Y1822D01*
X2245Y1822D02*
X2254Y1822D01*
X1Y1821D02*
X10Y1821D01*
X882Y1821D02*
X888Y1821D01*
X1020Y1821D02*
X1025Y1821D01*
X1157Y1821D02*
X1163Y1821D01*
X1295Y1821D02*
X1300Y1821D01*
X2245Y1821D02*
X2254Y1821D01*
X1Y1820D02*
X10Y1820D01*
X882Y1820D02*
X888Y1820D01*
X1020Y1820D02*
X1025Y1820D01*
X1157Y1820D02*
X1163Y1820D01*
X1295Y1820D02*
X1300Y1820D01*
X2245Y1820D02*
X2254Y1820D01*
X1Y1819D02*
X10Y1819D01*
X882Y1819D02*
X888Y1819D01*
X1020Y1819D02*
X1025Y1819D01*
X1157Y1819D02*
X1163Y1819D01*
X1295Y1819D02*
X1300Y1819D01*
X2245Y1819D02*
X2254Y1819D01*
X1Y1818D02*
X10Y1818D01*
X882Y1818D02*
X888Y1818D01*
X1020Y1818D02*
X1025Y1818D01*
X1157Y1818D02*
X1163Y1818D01*
X1295Y1818D02*
X1300Y1818D01*
X2245Y1818D02*
X2254Y1818D01*
X1Y1817D02*
X10Y1817D01*
X825Y1817D02*
X843Y1817D01*
X882Y1817D02*
X888Y1817D01*
X920Y1817D02*
X936Y1817D01*
X962Y1817D02*
X981Y1817D01*
X1020Y1817D02*
X1025Y1817D01*
X1057Y1817D02*
X1073Y1817D01*
X1100Y1817D02*
X1118Y1817D01*
X1157Y1817D02*
X1163Y1817D01*
X1195Y1817D02*
X1211Y1817D01*
X1237Y1817D02*
X1256Y1817D01*
X1295Y1817D02*
X1300Y1817D01*
X1332Y1817D02*
X1348Y1817D01*
X2245Y1817D02*
X2254Y1817D01*
X1Y1816D02*
X10Y1816D01*
X824Y1816D02*
X845Y1816D01*
X882Y1816D02*
X888Y1816D01*
X919Y1816D02*
X936Y1816D01*
X962Y1816D02*
X983Y1816D01*
X1020Y1816D02*
X1025Y1816D01*
X1056Y1816D02*
X1074Y1816D01*
X1099Y1816D02*
X1120Y1816D01*
X1157Y1816D02*
X1163Y1816D01*
X1194Y1816D02*
X1211Y1816D01*
X1237Y1816D02*
X1258Y1816D01*
X1295Y1816D02*
X1300Y1816D01*
X1331Y1816D02*
X1349Y1816D01*
X2245Y1816D02*
X2254Y1816D01*
X1Y1815D02*
X10Y1815D01*
X824Y1815D02*
X847Y1815D01*
X882Y1815D02*
X888Y1815D01*
X919Y1815D02*
X936Y1815D01*
X961Y1815D02*
X984Y1815D01*
X1020Y1815D02*
X1025Y1815D01*
X1056Y1815D02*
X1074Y1815D01*
X1099Y1815D02*
X1122Y1815D01*
X1157Y1815D02*
X1163Y1815D01*
X1194Y1815D02*
X1212Y1815D01*
X1236Y1815D02*
X1259Y1815D01*
X1295Y1815D02*
X1300Y1815D01*
X1331Y1815D02*
X1349Y1815D01*
X2245Y1815D02*
X2254Y1815D01*
X1Y1814D02*
X10Y1814D01*
X824Y1814D02*
X848Y1814D01*
X882Y1814D02*
X888Y1814D01*
X919Y1814D02*
X936Y1814D01*
X961Y1814D02*
X985Y1814D01*
X1020Y1814D02*
X1025Y1814D01*
X1056Y1814D02*
X1074Y1814D01*
X1099Y1814D02*
X1123Y1814D01*
X1157Y1814D02*
X1163Y1814D01*
X1194Y1814D02*
X1211Y1814D01*
X1236Y1814D02*
X1260Y1814D01*
X1295Y1814D02*
X1300Y1814D01*
X1331Y1814D02*
X1349Y1814D01*
X2245Y1814D02*
X2254Y1814D01*
X1Y1813D02*
X10Y1813D01*
X824Y1813D02*
X849Y1813D01*
X882Y1813D02*
X888Y1813D01*
X919Y1813D02*
X936Y1813D01*
X962Y1813D02*
X986Y1813D01*
X1020Y1813D02*
X1025Y1813D01*
X1056Y1813D02*
X1074Y1813D01*
X1099Y1813D02*
X1124Y1813D01*
X1157Y1813D02*
X1163Y1813D01*
X1194Y1813D02*
X1211Y1813D01*
X1237Y1813D02*
X1261Y1813D01*
X1295Y1813D02*
X1300Y1813D01*
X1331Y1813D02*
X1349Y1813D01*
X2245Y1813D02*
X2254Y1813D01*
X1Y1812D02*
X10Y1812D01*
X825Y1812D02*
X850Y1812D01*
X882Y1812D02*
X888Y1812D01*
X919Y1812D02*
X935Y1812D01*
X963Y1812D02*
X987Y1812D01*
X1020Y1812D02*
X1025Y1812D01*
X1056Y1812D02*
X1072Y1812D01*
X1100Y1812D02*
X1125Y1812D01*
X1157Y1812D02*
X1163Y1812D01*
X1194Y1812D02*
X1210Y1812D01*
X1238Y1812D02*
X1262Y1812D01*
X1295Y1812D02*
X1300Y1812D01*
X1331Y1812D02*
X1347Y1812D01*
X2245Y1812D02*
X2254Y1812D01*
X1Y1811D02*
X10Y1811D01*
X842Y1811D02*
X851Y1811D01*
X882Y1811D02*
X888Y1811D01*
X919Y1811D02*
X924Y1811D01*
X979Y1811D02*
X988Y1811D01*
X1020Y1811D02*
X1025Y1811D01*
X1056Y1811D02*
X1061Y1811D01*
X1117Y1811D02*
X1126Y1811D01*
X1157Y1811D02*
X1163Y1811D01*
X1194Y1811D02*
X1199Y1811D01*
X1255Y1811D02*
X1263Y1811D01*
X1295Y1811D02*
X1300Y1811D01*
X1331Y1811D02*
X1336Y1811D01*
X2245Y1811D02*
X2254Y1811D01*
X1Y1810D02*
X10Y1810D01*
X843Y1810D02*
X852Y1810D01*
X882Y1810D02*
X888Y1810D01*
X919Y1810D02*
X924Y1810D01*
X981Y1810D02*
X989Y1810D01*
X1020Y1810D02*
X1025Y1810D01*
X1056Y1810D02*
X1061Y1810D01*
X1118Y1810D02*
X1127Y1810D01*
X1157Y1810D02*
X1163Y1810D01*
X1194Y1810D02*
X1199Y1810D01*
X1256Y1810D02*
X1264Y1810D01*
X1295Y1810D02*
X1300Y1810D01*
X1331Y1810D02*
X1336Y1810D01*
X2245Y1810D02*
X2254Y1810D01*
X1Y1809D02*
X10Y1809D01*
X844Y1809D02*
X853Y1809D01*
X882Y1809D02*
X888Y1809D01*
X919Y1809D02*
X924Y1809D01*
X982Y1809D02*
X990Y1809D01*
X1020Y1809D02*
X1025Y1809D01*
X1056Y1809D02*
X1061Y1809D01*
X1119Y1809D02*
X1128Y1809D01*
X1157Y1809D02*
X1163Y1809D01*
X1194Y1809D02*
X1199Y1809D01*
X1257Y1809D02*
X1265Y1809D01*
X1295Y1809D02*
X1300Y1809D01*
X1331Y1809D02*
X1336Y1809D01*
X2245Y1809D02*
X2254Y1809D01*
X1Y1808D02*
X10Y1808D01*
X846Y1808D02*
X853Y1808D01*
X882Y1808D02*
X888Y1808D01*
X919Y1808D02*
X924Y1808D01*
X983Y1808D02*
X991Y1808D01*
X1020Y1808D02*
X1025Y1808D01*
X1056Y1808D02*
X1061Y1808D01*
X1121Y1808D02*
X1128Y1808D01*
X1157Y1808D02*
X1163Y1808D01*
X1194Y1808D02*
X1199Y1808D01*
X1258Y1808D02*
X1266Y1808D01*
X1295Y1808D02*
X1300Y1808D01*
X1331Y1808D02*
X1336Y1808D01*
X2245Y1808D02*
X2254Y1808D01*
X1Y1807D02*
X10Y1807D01*
X847Y1807D02*
X854Y1807D01*
X882Y1807D02*
X888Y1807D01*
X919Y1807D02*
X924Y1807D01*
X984Y1807D02*
X991Y1807D01*
X1020Y1807D02*
X1025Y1807D01*
X1056Y1807D02*
X1061Y1807D01*
X1122Y1807D02*
X1129Y1807D01*
X1157Y1807D02*
X1163Y1807D01*
X1194Y1807D02*
X1199Y1807D01*
X1259Y1807D02*
X1266Y1807D01*
X1295Y1807D02*
X1300Y1807D01*
X1331Y1807D02*
X1336Y1807D01*
X2245Y1807D02*
X2254Y1807D01*
X1Y1806D02*
X10Y1806D01*
X848Y1806D02*
X854Y1806D01*
X882Y1806D02*
X888Y1806D01*
X919Y1806D02*
X924Y1806D01*
X985Y1806D02*
X992Y1806D01*
X1020Y1806D02*
X1025Y1806D01*
X1056Y1806D02*
X1061Y1806D01*
X1123Y1806D02*
X1129Y1806D01*
X1157Y1806D02*
X1163Y1806D01*
X1194Y1806D02*
X1199Y1806D01*
X1260Y1806D02*
X1267Y1806D01*
X1295Y1806D02*
X1300Y1806D01*
X1331Y1806D02*
X1336Y1806D01*
X2245Y1806D02*
X2254Y1806D01*
X1Y1805D02*
X10Y1805D01*
X849Y1805D02*
X854Y1805D01*
X882Y1805D02*
X888Y1805D01*
X919Y1805D02*
X924Y1805D01*
X986Y1805D02*
X992Y1805D01*
X1020Y1805D02*
X1025Y1805D01*
X1056Y1805D02*
X1061Y1805D01*
X1124Y1805D02*
X1129Y1805D01*
X1157Y1805D02*
X1163Y1805D01*
X1194Y1805D02*
X1199Y1805D01*
X1261Y1805D02*
X1267Y1805D01*
X1295Y1805D02*
X1300Y1805D01*
X1331Y1805D02*
X1336Y1805D01*
X2245Y1805D02*
X2254Y1805D01*
X1Y1804D02*
X10Y1804D01*
X849Y1804D02*
X854Y1804D01*
X882Y1804D02*
X888Y1804D01*
X919Y1804D02*
X924Y1804D01*
X986Y1804D02*
X992Y1804D01*
X1020Y1804D02*
X1025Y1804D01*
X1056Y1804D02*
X1061Y1804D01*
X1124Y1804D02*
X1129Y1804D01*
X1157Y1804D02*
X1163Y1804D01*
X1194Y1804D02*
X1199Y1804D01*
X1261Y1804D02*
X1267Y1804D01*
X1295Y1804D02*
X1300Y1804D01*
X1331Y1804D02*
X1336Y1804D01*
X2245Y1804D02*
X2254Y1804D01*
X1Y1803D02*
X10Y1803D01*
X849Y1803D02*
X854Y1803D01*
X882Y1803D02*
X888Y1803D01*
X919Y1803D02*
X924Y1803D01*
X986Y1803D02*
X992Y1803D01*
X1020Y1803D02*
X1025Y1803D01*
X1056Y1803D02*
X1061Y1803D01*
X1124Y1803D02*
X1129Y1803D01*
X1157Y1803D02*
X1163Y1803D01*
X1194Y1803D02*
X1199Y1803D01*
X1261Y1803D02*
X1267Y1803D01*
X1295Y1803D02*
X1300Y1803D01*
X1331Y1803D02*
X1336Y1803D01*
X2245Y1803D02*
X2254Y1803D01*
X1Y1802D02*
X10Y1802D01*
X849Y1802D02*
X854Y1802D01*
X882Y1802D02*
X888Y1802D01*
X919Y1802D02*
X924Y1802D01*
X986Y1802D02*
X992Y1802D01*
X1020Y1802D02*
X1025Y1802D01*
X1056Y1802D02*
X1061Y1802D01*
X1124Y1802D02*
X1129Y1802D01*
X1157Y1802D02*
X1163Y1802D01*
X1194Y1802D02*
X1199Y1802D01*
X1261Y1802D02*
X1267Y1802D01*
X1295Y1802D02*
X1300Y1802D01*
X1331Y1802D02*
X1336Y1802D01*
X2245Y1802D02*
X2254Y1802D01*
X1Y1801D02*
X10Y1801D01*
X849Y1801D02*
X854Y1801D01*
X882Y1801D02*
X888Y1801D01*
X919Y1801D02*
X924Y1801D01*
X986Y1801D02*
X992Y1801D01*
X1020Y1801D02*
X1025Y1801D01*
X1056Y1801D02*
X1061Y1801D01*
X1124Y1801D02*
X1129Y1801D01*
X1157Y1801D02*
X1163Y1801D01*
X1194Y1801D02*
X1199Y1801D01*
X1261Y1801D02*
X1267Y1801D01*
X1295Y1801D02*
X1300Y1801D01*
X1331Y1801D02*
X1336Y1801D01*
X2245Y1801D02*
X2254Y1801D01*
X1Y1800D02*
X10Y1800D01*
X849Y1800D02*
X854Y1800D01*
X882Y1800D02*
X888Y1800D01*
X919Y1800D02*
X924Y1800D01*
X986Y1800D02*
X992Y1800D01*
X1020Y1800D02*
X1025Y1800D01*
X1056Y1800D02*
X1061Y1800D01*
X1124Y1800D02*
X1129Y1800D01*
X1157Y1800D02*
X1163Y1800D01*
X1194Y1800D02*
X1199Y1800D01*
X1261Y1800D02*
X1267Y1800D01*
X1295Y1800D02*
X1300Y1800D01*
X1331Y1800D02*
X1336Y1800D01*
X2245Y1800D02*
X2254Y1800D01*
X1Y1799D02*
X10Y1799D01*
X849Y1799D02*
X854Y1799D01*
X882Y1799D02*
X888Y1799D01*
X919Y1799D02*
X924Y1799D01*
X986Y1799D02*
X992Y1799D01*
X1020Y1799D02*
X1025Y1799D01*
X1056Y1799D02*
X1061Y1799D01*
X1124Y1799D02*
X1129Y1799D01*
X1157Y1799D02*
X1163Y1799D01*
X1194Y1799D02*
X1199Y1799D01*
X1261Y1799D02*
X1267Y1799D01*
X1295Y1799D02*
X1300Y1799D01*
X1331Y1799D02*
X1336Y1799D01*
X2245Y1799D02*
X2254Y1799D01*
X1Y1798D02*
X10Y1798D01*
X849Y1798D02*
X854Y1798D01*
X882Y1798D02*
X888Y1798D01*
X919Y1798D02*
X924Y1798D01*
X986Y1798D02*
X992Y1798D01*
X1020Y1798D02*
X1025Y1798D01*
X1056Y1798D02*
X1061Y1798D01*
X1124Y1798D02*
X1129Y1798D01*
X1157Y1798D02*
X1163Y1798D01*
X1194Y1798D02*
X1199Y1798D01*
X1261Y1798D02*
X1267Y1798D01*
X1295Y1798D02*
X1300Y1798D01*
X1331Y1798D02*
X1336Y1798D01*
X2245Y1798D02*
X2254Y1798D01*
X1Y1797D02*
X10Y1797D01*
X849Y1797D02*
X854Y1797D01*
X882Y1797D02*
X888Y1797D01*
X919Y1797D02*
X924Y1797D01*
X986Y1797D02*
X992Y1797D01*
X1020Y1797D02*
X1025Y1797D01*
X1056Y1797D02*
X1061Y1797D01*
X1124Y1797D02*
X1129Y1797D01*
X1157Y1797D02*
X1163Y1797D01*
X1194Y1797D02*
X1199Y1797D01*
X1261Y1797D02*
X1267Y1797D01*
X1295Y1797D02*
X1300Y1797D01*
X1331Y1797D02*
X1336Y1797D01*
X2245Y1797D02*
X2254Y1797D01*
X1Y1796D02*
X10Y1796D01*
X849Y1796D02*
X854Y1796D01*
X882Y1796D02*
X888Y1796D01*
X919Y1796D02*
X924Y1796D01*
X986Y1796D02*
X992Y1796D01*
X1020Y1796D02*
X1025Y1796D01*
X1056Y1796D02*
X1061Y1796D01*
X1124Y1796D02*
X1129Y1796D01*
X1157Y1796D02*
X1163Y1796D01*
X1194Y1796D02*
X1199Y1796D01*
X1261Y1796D02*
X1267Y1796D01*
X1295Y1796D02*
X1300Y1796D01*
X1331Y1796D02*
X1336Y1796D01*
X2245Y1796D02*
X2254Y1796D01*
X1Y1795D02*
X10Y1795D01*
X849Y1795D02*
X854Y1795D01*
X882Y1795D02*
X888Y1795D01*
X919Y1795D02*
X924Y1795D01*
X986Y1795D02*
X992Y1795D01*
X1020Y1795D02*
X1025Y1795D01*
X1056Y1795D02*
X1061Y1795D01*
X1124Y1795D02*
X1129Y1795D01*
X1157Y1795D02*
X1163Y1795D01*
X1194Y1795D02*
X1199Y1795D01*
X1261Y1795D02*
X1267Y1795D01*
X1295Y1795D02*
X1300Y1795D01*
X1331Y1795D02*
X1336Y1795D01*
X2245Y1795D02*
X2254Y1795D01*
X1Y1794D02*
X10Y1794D01*
X848Y1794D02*
X854Y1794D01*
X882Y1794D02*
X888Y1794D01*
X919Y1794D02*
X924Y1794D01*
X986Y1794D02*
X992Y1794D01*
X1020Y1794D02*
X1025Y1794D01*
X1056Y1794D02*
X1061Y1794D01*
X1123Y1794D02*
X1129Y1794D01*
X1157Y1794D02*
X1163Y1794D01*
X1194Y1794D02*
X1199Y1794D01*
X1261Y1794D02*
X1267Y1794D01*
X1295Y1794D02*
X1300Y1794D01*
X1331Y1794D02*
X1336Y1794D01*
X2245Y1794D02*
X2254Y1794D01*
X1Y1793D02*
X10Y1793D01*
X847Y1793D02*
X854Y1793D01*
X882Y1793D02*
X888Y1793D01*
X919Y1793D02*
X924Y1793D01*
X984Y1793D02*
X991Y1793D01*
X1020Y1793D02*
X1025Y1793D01*
X1056Y1793D02*
X1061Y1793D01*
X1122Y1793D02*
X1129Y1793D01*
X1157Y1793D02*
X1163Y1793D01*
X1194Y1793D02*
X1199Y1793D01*
X1260Y1793D02*
X1266Y1793D01*
X1295Y1793D02*
X1300Y1793D01*
X1331Y1793D02*
X1336Y1793D01*
X2245Y1793D02*
X2254Y1793D01*
X1Y1792D02*
X10Y1792D01*
X846Y1792D02*
X853Y1792D01*
X882Y1792D02*
X888Y1792D01*
X919Y1792D02*
X924Y1792D01*
X983Y1792D02*
X991Y1792D01*
X1020Y1792D02*
X1025Y1792D01*
X1056Y1792D02*
X1061Y1792D01*
X1121Y1792D02*
X1128Y1792D01*
X1157Y1792D02*
X1163Y1792D01*
X1194Y1792D02*
X1199Y1792D01*
X1258Y1792D02*
X1266Y1792D01*
X1295Y1792D02*
X1300Y1792D01*
X1331Y1792D02*
X1336Y1792D01*
X2245Y1792D02*
X2254Y1792D01*
X1Y1791D02*
X10Y1791D01*
X845Y1791D02*
X853Y1791D01*
X882Y1791D02*
X888Y1791D01*
X919Y1791D02*
X924Y1791D01*
X982Y1791D02*
X990Y1791D01*
X1020Y1791D02*
X1025Y1791D01*
X1056Y1791D02*
X1061Y1791D01*
X1120Y1791D02*
X1128Y1791D01*
X1157Y1791D02*
X1163Y1791D01*
X1194Y1791D02*
X1199Y1791D01*
X1257Y1791D02*
X1265Y1791D01*
X1295Y1791D02*
X1300Y1791D01*
X1331Y1791D02*
X1336Y1791D01*
X2245Y1791D02*
X2254Y1791D01*
X1Y1790D02*
X10Y1790D01*
X843Y1790D02*
X852Y1790D01*
X882Y1790D02*
X888Y1790D01*
X919Y1790D02*
X924Y1790D01*
X981Y1790D02*
X990Y1790D01*
X1020Y1790D02*
X1025Y1790D01*
X1056Y1790D02*
X1061Y1790D01*
X1118Y1790D02*
X1127Y1790D01*
X1157Y1790D02*
X1163Y1790D01*
X1194Y1790D02*
X1199Y1790D01*
X1256Y1790D02*
X1265Y1790D01*
X1295Y1790D02*
X1300Y1790D01*
X1331Y1790D02*
X1336Y1790D01*
X2245Y1790D02*
X2254Y1790D01*
X1Y1789D02*
X10Y1789D01*
X842Y1789D02*
X851Y1789D01*
X882Y1789D02*
X888Y1789D01*
X919Y1789D02*
X924Y1789D01*
X980Y1789D02*
X989Y1789D01*
X1020Y1789D02*
X1025Y1789D01*
X1056Y1789D02*
X1061Y1789D01*
X1117Y1789D02*
X1126Y1789D01*
X1157Y1789D02*
X1163Y1789D01*
X1194Y1789D02*
X1199Y1789D01*
X1255Y1789D02*
X1264Y1789D01*
X1295Y1789D02*
X1300Y1789D01*
X1331Y1789D02*
X1336Y1789D01*
X2245Y1789D02*
X2254Y1789D01*
X1Y1788D02*
X10Y1788D01*
X826Y1788D02*
X850Y1788D01*
X875Y1788D02*
X895Y1788D01*
X919Y1788D02*
X924Y1788D01*
X963Y1788D02*
X987Y1788D01*
X1012Y1788D02*
X1033Y1788D01*
X1056Y1788D02*
X1061Y1788D01*
X1101Y1788D02*
X1125Y1788D01*
X1150Y1788D02*
X1170Y1788D01*
X1194Y1788D02*
X1199Y1788D01*
X1238Y1788D02*
X1262Y1788D01*
X1287Y1788D02*
X1308Y1788D01*
X1331Y1788D02*
X1336Y1788D01*
X2245Y1788D02*
X2254Y1788D01*
X1Y1787D02*
X10Y1787D01*
X824Y1787D02*
X849Y1787D01*
X873Y1787D02*
X896Y1787D01*
X919Y1787D02*
X924Y1787D01*
X962Y1787D02*
X986Y1787D01*
X1011Y1787D02*
X1034Y1787D01*
X1056Y1787D02*
X1061Y1787D01*
X1099Y1787D02*
X1124Y1787D01*
X1148Y1787D02*
X1171Y1787D01*
X1194Y1787D02*
X1199Y1787D01*
X1237Y1787D02*
X1261Y1787D01*
X1286Y1787D02*
X1309Y1787D01*
X1331Y1787D02*
X1336Y1787D01*
X2245Y1787D02*
X2254Y1787D01*
X1Y1786D02*
X10Y1786D01*
X824Y1786D02*
X848Y1786D01*
X873Y1786D02*
X897Y1786D01*
X919Y1786D02*
X924Y1786D01*
X961Y1786D02*
X985Y1786D01*
X1010Y1786D02*
X1034Y1786D01*
X1056Y1786D02*
X1061Y1786D01*
X1099Y1786D02*
X1123Y1786D01*
X1148Y1786D02*
X1172Y1786D01*
X1194Y1786D02*
X1199Y1786D01*
X1236Y1786D02*
X1260Y1786D01*
X1285Y1786D02*
X1309Y1786D01*
X1331Y1786D02*
X1336Y1786D01*
X2245Y1786D02*
X2254Y1786D01*
X1Y1785D02*
X10Y1785D01*
X824Y1785D02*
X846Y1785D01*
X873Y1785D02*
X897Y1785D01*
X919Y1785D02*
X924Y1785D01*
X961Y1785D02*
X984Y1785D01*
X1010Y1785D02*
X1034Y1785D01*
X1056Y1785D02*
X1061Y1785D01*
X1099Y1785D02*
X1121Y1785D01*
X1148Y1785D02*
X1172Y1785D01*
X1194Y1785D02*
X1199Y1785D01*
X1236Y1785D02*
X1259Y1785D01*
X1285Y1785D02*
X1310Y1785D01*
X1331Y1785D02*
X1336Y1785D01*
X2245Y1785D02*
X2254Y1785D01*
X1Y1784D02*
X10Y1784D01*
X824Y1784D02*
X845Y1784D01*
X873Y1784D02*
X897Y1784D01*
X919Y1784D02*
X924Y1784D01*
X961Y1784D02*
X983Y1784D01*
X1010Y1784D02*
X1034Y1784D01*
X1056Y1784D02*
X1061Y1784D01*
X1099Y1784D02*
X1120Y1784D01*
X1148Y1784D02*
X1172Y1784D01*
X1194Y1784D02*
X1199Y1784D01*
X1237Y1784D02*
X1258Y1784D01*
X1286Y1784D02*
X1309Y1784D01*
X1331Y1784D02*
X1336Y1784D01*
X2245Y1784D02*
X2254Y1784D01*
X1Y1783D02*
X10Y1783D01*
X825Y1783D02*
X844Y1783D01*
X874Y1783D02*
X896Y1783D01*
X919Y1783D02*
X924Y1783D01*
X962Y1783D02*
X981Y1783D01*
X1011Y1783D02*
X1034Y1783D01*
X1056Y1783D02*
X1061Y1783D01*
X1100Y1783D02*
X1119Y1783D01*
X1149Y1783D02*
X1171Y1783D01*
X1194Y1783D02*
X1199Y1783D01*
X1237Y1783D02*
X1256Y1783D01*
X1286Y1783D02*
X1309Y1783D01*
X1331Y1783D02*
X1336Y1783D01*
X2245Y1783D02*
X2254Y1783D01*
X1Y1782D02*
X10Y1782D01*
X827Y1782D02*
X840Y1782D01*
X876Y1782D02*
X894Y1782D01*
X919Y1782D02*
X924Y1782D01*
X964Y1782D02*
X978Y1782D01*
X1013Y1782D02*
X1032Y1782D01*
X1056Y1782D02*
X1061Y1782D01*
X1102Y1782D02*
X1115Y1782D01*
X1151Y1782D02*
X1169Y1782D01*
X1194Y1782D02*
X1199Y1782D01*
X1239Y1782D02*
X1253Y1782D01*
X1288Y1782D02*
X1307Y1782D01*
X1331Y1782D02*
X1336Y1782D01*
X2245Y1782D02*
X2254Y1782D01*
X1Y1781D02*
X10Y1781D01*
X919Y1781D02*
X924Y1781D01*
X1056Y1781D02*
X1061Y1781D01*
X1194Y1781D02*
X1199Y1781D01*
X1331Y1781D02*
X1336Y1781D01*
X2245Y1781D02*
X2254Y1781D01*
X1Y1780D02*
X10Y1780D01*
X919Y1780D02*
X924Y1780D01*
X939Y1780D02*
X941Y1780D01*
X1056Y1780D02*
X1061Y1780D01*
X1077Y1780D02*
X1078Y1780D01*
X1194Y1780D02*
X1199Y1780D01*
X1214Y1780D02*
X1216Y1780D01*
X1331Y1780D02*
X1336Y1780D01*
X1352Y1780D02*
X1353Y1780D01*
X2245Y1780D02*
X2254Y1780D01*
X1Y1779D02*
X10Y1779D01*
X919Y1779D02*
X924Y1779D01*
X938Y1779D02*
X942Y1779D01*
X1056Y1779D02*
X1061Y1779D01*
X1076Y1779D02*
X1080Y1779D01*
X1194Y1779D02*
X1199Y1779D01*
X1213Y1779D02*
X1217Y1779D01*
X1331Y1779D02*
X1336Y1779D01*
X1351Y1779D02*
X1355Y1779D01*
X2245Y1779D02*
X2254Y1779D01*
X1Y1778D02*
X10Y1778D01*
X919Y1778D02*
X924Y1778D01*
X938Y1778D02*
X943Y1778D01*
X1056Y1778D02*
X1061Y1778D01*
X1075Y1778D02*
X1080Y1778D01*
X1194Y1778D02*
X1199Y1778D01*
X1213Y1778D02*
X1218Y1778D01*
X1331Y1778D02*
X1336Y1778D01*
X1350Y1778D02*
X1355Y1778D01*
X2245Y1778D02*
X2254Y1778D01*
X1Y1777D02*
X10Y1777D01*
X919Y1777D02*
X924Y1777D01*
X937Y1777D02*
X943Y1777D01*
X1056Y1777D02*
X1062Y1777D01*
X1075Y1777D02*
X1080Y1777D01*
X1194Y1777D02*
X1199Y1777D01*
X1212Y1777D02*
X1218Y1777D01*
X1331Y1777D02*
X1337Y1777D01*
X1350Y1777D02*
X1355Y1777D01*
X2245Y1777D02*
X2254Y1777D01*
X1Y1776D02*
X10Y1776D01*
X919Y1776D02*
X925Y1776D01*
X937Y1776D02*
X943Y1776D01*
X1056Y1776D02*
X1062Y1776D01*
X1074Y1776D02*
X1080Y1776D01*
X1194Y1776D02*
X1200Y1776D01*
X1212Y1776D02*
X1218Y1776D01*
X1331Y1776D02*
X1337Y1776D01*
X1349Y1776D02*
X1355Y1776D01*
X2245Y1776D02*
X2254Y1776D01*
X1Y1775D02*
X10Y1775D01*
X919Y1775D02*
X927Y1775D01*
X935Y1775D02*
X943Y1775D01*
X1057Y1775D02*
X1064Y1775D01*
X1072Y1775D02*
X1080Y1775D01*
X1194Y1775D02*
X1202Y1775D01*
X1210Y1775D02*
X1218Y1775D01*
X1332Y1775D02*
X1339Y1775D01*
X1347Y1775D02*
X1355Y1775D01*
X2245Y1775D02*
X2254Y1775D01*
X1Y1774D02*
X10Y1774D01*
X919Y1774D02*
X942Y1774D01*
X1057Y1774D02*
X1080Y1774D01*
X1194Y1774D02*
X1217Y1774D01*
X1332Y1774D02*
X1355Y1774D01*
X2245Y1774D02*
X2254Y1774D01*
X1Y1773D02*
X10Y1773D01*
X920Y1773D02*
X942Y1773D01*
X1058Y1773D02*
X1079Y1773D01*
X1195Y1773D02*
X1217Y1773D01*
X1333Y1773D02*
X1354Y1773D01*
X2245Y1773D02*
X2254Y1773D01*
X1Y1772D02*
X10Y1772D01*
X921Y1772D02*
X941Y1772D01*
X1058Y1772D02*
X1078Y1772D01*
X1196Y1772D02*
X1216Y1772D01*
X1333Y1772D02*
X1353Y1772D01*
X2245Y1772D02*
X2254Y1772D01*
X1Y1771D02*
X10Y1771D01*
X922Y1771D02*
X940Y1771D01*
X1059Y1771D02*
X1077Y1771D01*
X1197Y1771D02*
X1215Y1771D01*
X1334Y1771D02*
X1352Y1771D01*
X2245Y1771D02*
X2254Y1771D01*
X1Y1770D02*
X10Y1770D01*
X923Y1770D02*
X938Y1770D01*
X1060Y1770D02*
X1076Y1770D01*
X1198Y1770D02*
X1213Y1770D01*
X1336Y1770D02*
X1351Y1770D01*
X2245Y1770D02*
X2254Y1770D01*
X1Y1769D02*
X10Y1769D01*
X925Y1769D02*
X936Y1769D01*
X1063Y1769D02*
X1074Y1769D01*
X1200Y1769D02*
X1211Y1769D01*
X1338Y1769D02*
X1349Y1769D01*
X2245Y1769D02*
X2254Y1769D01*
X1Y1768D02*
X10Y1768D01*
X2245Y1768D02*
X2254Y1768D01*
X1Y1767D02*
X10Y1767D01*
X2245Y1767D02*
X2254Y1767D01*
X1Y1766D02*
X10Y1766D01*
X2245Y1766D02*
X2254Y1766D01*
X1Y1765D02*
X10Y1765D01*
X2245Y1765D02*
X2254Y1765D01*
X1Y1764D02*
X10Y1764D01*
X2245Y1764D02*
X2254Y1764D01*
X1Y1763D02*
X10Y1763D01*
X2245Y1763D02*
X2254Y1763D01*
X1Y1762D02*
X10Y1762D01*
X2245Y1762D02*
X2254Y1762D01*
X1Y1761D02*
X10Y1761D01*
X2245Y1761D02*
X2254Y1761D01*
X1Y1760D02*
X10Y1760D01*
X2245Y1760D02*
X2254Y1760D01*
X1Y1759D02*
X10Y1759D01*
X2245Y1759D02*
X2254Y1759D01*
X1Y1758D02*
X10Y1758D01*
X2245Y1758D02*
X2254Y1758D01*
X1Y1757D02*
X10Y1757D01*
X2245Y1757D02*
X2254Y1757D01*
X1Y1756D02*
X10Y1756D01*
X2245Y1756D02*
X2254Y1756D01*
X1Y1755D02*
X10Y1755D01*
X2245Y1755D02*
X2254Y1755D01*
X1Y1754D02*
X10Y1754D01*
X2245Y1754D02*
X2254Y1754D01*
X1Y1753D02*
X10Y1753D01*
X2245Y1753D02*
X2254Y1753D01*
X1Y1752D02*
X10Y1752D01*
X2245Y1752D02*
X2254Y1752D01*
X1Y1751D02*
X10Y1751D01*
X2245Y1751D02*
X2254Y1751D01*
X1Y1750D02*
X10Y1750D01*
X2245Y1750D02*
X2254Y1750D01*
X1Y1749D02*
X10Y1749D01*
X2245Y1749D02*
X2254Y1749D01*
X1Y1748D02*
X10Y1748D01*
X2245Y1748D02*
X2254Y1748D01*
X1Y1747D02*
X10Y1747D01*
X2245Y1747D02*
X2254Y1747D01*
X1Y1746D02*
X10Y1746D01*
X2245Y1746D02*
X2254Y1746D01*
X1Y1745D02*
X10Y1745D01*
X2245Y1745D02*
X2254Y1745D01*
X1Y1744D02*
X10Y1744D01*
X2245Y1744D02*
X2254Y1744D01*
X1Y1743D02*
X10Y1743D01*
X2245Y1743D02*
X2254Y1743D01*
X1Y1742D02*
X10Y1742D01*
X2245Y1742D02*
X2254Y1742D01*
X1Y1741D02*
X10Y1741D01*
X2245Y1741D02*
X2254Y1741D01*
X1Y1740D02*
X10Y1740D01*
X2245Y1740D02*
X2254Y1740D01*
X1Y1739D02*
X10Y1739D01*
X2245Y1739D02*
X2254Y1739D01*
X1Y1738D02*
X10Y1738D01*
X2245Y1738D02*
X2254Y1738D01*
X1Y1737D02*
X10Y1737D01*
X2245Y1737D02*
X2254Y1737D01*
X1Y1736D02*
X10Y1736D01*
X2245Y1736D02*
X2254Y1736D01*
X1Y1735D02*
X10Y1735D01*
X2245Y1735D02*
X2254Y1735D01*
X1Y1734D02*
X10Y1734D01*
X2245Y1734D02*
X2254Y1734D01*
X1Y1733D02*
X10Y1733D01*
X2245Y1733D02*
X2254Y1733D01*
X1Y1732D02*
X10Y1732D01*
X2245Y1732D02*
X2254Y1732D01*
X1Y1731D02*
X10Y1731D01*
X2245Y1731D02*
X2254Y1731D01*
X1Y1730D02*
X10Y1730D01*
X2245Y1730D02*
X2254Y1730D01*
X1Y1729D02*
X10Y1729D01*
X2245Y1729D02*
X2254Y1729D01*
X1Y1728D02*
X10Y1728D01*
X2245Y1728D02*
X2254Y1728D01*
X1Y1727D02*
X10Y1727D01*
X2245Y1727D02*
X2254Y1727D01*
X1Y1726D02*
X10Y1726D01*
X2245Y1726D02*
X2254Y1726D01*
X1Y1725D02*
X10Y1725D01*
X2245Y1725D02*
X2254Y1725D01*
X1Y1724D02*
X10Y1724D01*
X2245Y1724D02*
X2254Y1724D01*
X1Y1723D02*
X10Y1723D01*
X2245Y1723D02*
X2254Y1723D01*
X1Y1722D02*
X10Y1722D01*
X2245Y1722D02*
X2254Y1722D01*
X1Y1721D02*
X10Y1721D01*
X2245Y1721D02*
X2254Y1721D01*
X1Y1720D02*
X10Y1720D01*
X2245Y1720D02*
X2254Y1720D01*
X1Y1719D02*
X10Y1719D01*
X2245Y1719D02*
X2254Y1719D01*
X1Y1718D02*
X10Y1718D01*
X2245Y1718D02*
X2254Y1718D01*
X1Y1717D02*
X10Y1717D01*
X2245Y1717D02*
X2254Y1717D01*
X1Y1716D02*
X10Y1716D01*
X2245Y1716D02*
X2254Y1716D01*
X1Y1715D02*
X10Y1715D01*
X2245Y1715D02*
X2254Y1715D01*
X1Y1714D02*
X10Y1714D01*
X2245Y1714D02*
X2254Y1714D01*
X1Y1713D02*
X10Y1713D01*
X2245Y1713D02*
X2254Y1713D01*
X1Y1712D02*
X10Y1712D01*
X2245Y1712D02*
X2254Y1712D01*
X1Y1711D02*
X10Y1711D01*
X2245Y1711D02*
X2254Y1711D01*
X1Y1710D02*
X10Y1710D01*
X2245Y1710D02*
X2254Y1710D01*
X1Y1709D02*
X10Y1709D01*
X2245Y1709D02*
X2254Y1709D01*
X1Y1708D02*
X10Y1708D01*
X2245Y1708D02*
X2254Y1708D01*
X1Y1707D02*
X10Y1707D01*
X2245Y1707D02*
X2254Y1707D01*
X1Y1706D02*
X10Y1706D01*
X2245Y1706D02*
X2254Y1706D01*
X1Y1705D02*
X10Y1705D01*
X2245Y1705D02*
X2254Y1705D01*
X1Y1704D02*
X10Y1704D01*
X2245Y1704D02*
X2254Y1704D01*
X1Y1703D02*
X10Y1703D01*
X2245Y1703D02*
X2254Y1703D01*
X1Y1702D02*
X10Y1702D01*
X2245Y1702D02*
X2254Y1702D01*
X1Y1701D02*
X10Y1701D01*
X2245Y1701D02*
X2254Y1701D01*
X1Y1700D02*
X10Y1700D01*
X2245Y1700D02*
X2254Y1700D01*
X1Y1699D02*
X10Y1699D01*
X2245Y1699D02*
X2254Y1699D01*
X1Y1698D02*
X10Y1698D01*
X2245Y1698D02*
X2254Y1698D01*
X1Y1697D02*
X10Y1697D01*
X2245Y1697D02*
X2254Y1697D01*
X1Y1696D02*
X10Y1696D01*
X2245Y1696D02*
X2254Y1696D01*
X1Y1695D02*
X10Y1695D01*
X2245Y1695D02*
X2254Y1695D01*
X1Y1694D02*
X10Y1694D01*
X2245Y1694D02*
X2254Y1694D01*
X1Y1693D02*
X10Y1693D01*
X2245Y1693D02*
X2254Y1693D01*
X1Y1692D02*
X10Y1692D01*
X2245Y1692D02*
X2254Y1692D01*
X1Y1691D02*
X10Y1691D01*
X2245Y1691D02*
X2254Y1691D01*
X1Y1690D02*
X10Y1690D01*
X2245Y1690D02*
X2254Y1690D01*
X1Y1689D02*
X10Y1689D01*
X2245Y1689D02*
X2254Y1689D01*
X1Y1688D02*
X10Y1688D01*
X2245Y1688D02*
X2254Y1688D01*
X1Y1687D02*
X10Y1687D01*
X2245Y1687D02*
X2254Y1687D01*
X1Y1686D02*
X10Y1686D01*
X2245Y1686D02*
X2254Y1686D01*
X1Y1685D02*
X10Y1685D01*
X2245Y1685D02*
X2254Y1685D01*
X1Y1684D02*
X10Y1684D01*
X2245Y1684D02*
X2254Y1684D01*
X1Y1683D02*
X10Y1683D01*
X2245Y1683D02*
X2254Y1683D01*
X1Y1682D02*
X10Y1682D01*
X2245Y1682D02*
X2254Y1682D01*
X1Y1681D02*
X10Y1681D01*
X2245Y1681D02*
X2254Y1681D01*
X1Y1680D02*
X10Y1680D01*
X2245Y1680D02*
X2254Y1680D01*
X1Y1679D02*
X10Y1679D01*
X2245Y1679D02*
X2254Y1679D01*
X1Y1678D02*
X10Y1678D01*
X2245Y1678D02*
X2254Y1678D01*
X1Y1677D02*
X10Y1677D01*
X2245Y1677D02*
X2254Y1677D01*
X1Y1676D02*
X10Y1676D01*
X2245Y1676D02*
X2254Y1676D01*
X1Y1675D02*
X10Y1675D01*
X2245Y1675D02*
X2254Y1675D01*
X1Y1674D02*
X10Y1674D01*
X2245Y1674D02*
X2254Y1674D01*
X1Y1673D02*
X10Y1673D01*
X2245Y1673D02*
X2254Y1673D01*
X1Y1672D02*
X10Y1672D01*
X2245Y1672D02*
X2254Y1672D01*
X1Y1671D02*
X10Y1671D01*
X2245Y1671D02*
X2254Y1671D01*
X1Y1670D02*
X10Y1670D01*
X2245Y1670D02*
X2254Y1670D01*
X1Y1669D02*
X10Y1669D01*
X2245Y1669D02*
X2254Y1669D01*
X1Y1668D02*
X10Y1668D01*
X2245Y1668D02*
X2254Y1668D01*
X1Y1667D02*
X10Y1667D01*
X2245Y1667D02*
X2254Y1667D01*
X1Y1666D02*
X10Y1666D01*
X2245Y1666D02*
X2254Y1666D01*
X1Y1665D02*
X10Y1665D01*
X2245Y1665D02*
X2254Y1665D01*
X1Y1664D02*
X10Y1664D01*
X2245Y1664D02*
X2254Y1664D01*
X1Y1663D02*
X10Y1663D01*
X2245Y1663D02*
X2254Y1663D01*
X1Y1662D02*
X10Y1662D01*
X2245Y1662D02*
X2254Y1662D01*
X1Y1661D02*
X10Y1661D01*
X2245Y1661D02*
X2254Y1661D01*
X1Y1660D02*
X10Y1660D01*
X2245Y1660D02*
X2254Y1660D01*
X1Y1659D02*
X10Y1659D01*
X2245Y1659D02*
X2254Y1659D01*
X1Y1658D02*
X10Y1658D01*
X2245Y1658D02*
X2254Y1658D01*
X1Y1657D02*
X10Y1657D01*
X2245Y1657D02*
X2254Y1657D01*
X1Y1656D02*
X10Y1656D01*
X2245Y1656D02*
X2254Y1656D01*
X1Y1655D02*
X10Y1655D01*
X2245Y1655D02*
X2254Y1655D01*
X1Y1654D02*
X10Y1654D01*
X2245Y1654D02*
X2254Y1654D01*
X1Y1653D02*
X10Y1653D01*
X2245Y1653D02*
X2254Y1653D01*
X1Y1652D02*
X10Y1652D01*
X2245Y1652D02*
X2254Y1652D01*
X1Y1651D02*
X10Y1651D01*
X2245Y1651D02*
X2254Y1651D01*
X1Y1650D02*
X10Y1650D01*
X2245Y1650D02*
X2254Y1650D01*
X1Y1649D02*
X10Y1649D01*
X2245Y1649D02*
X2254Y1649D01*
X1Y1648D02*
X10Y1648D01*
X2245Y1648D02*
X2254Y1648D01*
X1Y1647D02*
X10Y1647D01*
X2245Y1647D02*
X2254Y1647D01*
X1Y1646D02*
X10Y1646D01*
X2245Y1646D02*
X2254Y1646D01*
X1Y1645D02*
X10Y1645D01*
X2245Y1645D02*
X2254Y1645D01*
X1Y1644D02*
X10Y1644D01*
X2245Y1644D02*
X2254Y1644D01*
X1Y1643D02*
X10Y1643D01*
X2245Y1643D02*
X2254Y1643D01*
X1Y1642D02*
X10Y1642D01*
X2245Y1642D02*
X2254Y1642D01*
X1Y1641D02*
X10Y1641D01*
X2245Y1641D02*
X2254Y1641D01*
X1Y1640D02*
X10Y1640D01*
X2245Y1640D02*
X2254Y1640D01*
X1Y1639D02*
X10Y1639D01*
X2245Y1639D02*
X2254Y1639D01*
X1Y1638D02*
X10Y1638D01*
X2245Y1638D02*
X2254Y1638D01*
X1Y1637D02*
X10Y1637D01*
X2245Y1637D02*
X2254Y1637D01*
X1Y1636D02*
X10Y1636D01*
X2245Y1636D02*
X2254Y1636D01*
X1Y1635D02*
X10Y1635D01*
X2245Y1635D02*
X2254Y1635D01*
X1Y1634D02*
X10Y1634D01*
X2245Y1634D02*
X2254Y1634D01*
X1Y1633D02*
X10Y1633D01*
X2245Y1633D02*
X2254Y1633D01*
X1Y1632D02*
X10Y1632D01*
X2245Y1632D02*
X2254Y1632D01*
X1Y1631D02*
X10Y1631D01*
X2245Y1631D02*
X2254Y1631D01*
X1Y1630D02*
X10Y1630D01*
X2245Y1630D02*
X2254Y1630D01*
X1Y1629D02*
X10Y1629D01*
X2245Y1629D02*
X2254Y1629D01*
X1Y1628D02*
X10Y1628D01*
X2245Y1628D02*
X2254Y1628D01*
X1Y1627D02*
X10Y1627D01*
X2245Y1627D02*
X2254Y1627D01*
X1Y1626D02*
X10Y1626D01*
X2245Y1626D02*
X2254Y1626D01*
X1Y1625D02*
X10Y1625D01*
X2245Y1625D02*
X2254Y1625D01*
X1Y1624D02*
X10Y1624D01*
X2245Y1624D02*
X2254Y1624D01*
X1Y1623D02*
X10Y1623D01*
X2245Y1623D02*
X2254Y1623D01*
X1Y1622D02*
X10Y1622D01*
X2245Y1622D02*
X2254Y1622D01*
X1Y1621D02*
X10Y1621D01*
X2245Y1621D02*
X2254Y1621D01*
X1Y1620D02*
X10Y1620D01*
X2245Y1620D02*
X2254Y1620D01*
X1Y1619D02*
X10Y1619D01*
X2245Y1619D02*
X2254Y1619D01*
X1Y1618D02*
X10Y1618D01*
X2245Y1618D02*
X2254Y1618D01*
X1Y1617D02*
X10Y1617D01*
X2245Y1617D02*
X2254Y1617D01*
X1Y1616D02*
X10Y1616D01*
X2245Y1616D02*
X2254Y1616D01*
X1Y1615D02*
X10Y1615D01*
X2245Y1615D02*
X2254Y1615D01*
X1Y1614D02*
X10Y1614D01*
X2245Y1614D02*
X2254Y1614D01*
X1Y1613D02*
X10Y1613D01*
X2245Y1613D02*
X2254Y1613D01*
X1Y1612D02*
X10Y1612D01*
X2245Y1612D02*
X2254Y1612D01*
X1Y1611D02*
X10Y1611D01*
X2245Y1611D02*
X2254Y1611D01*
X1Y1610D02*
X10Y1610D01*
X2245Y1610D02*
X2254Y1610D01*
X1Y1609D02*
X10Y1609D01*
X2245Y1609D02*
X2254Y1609D01*
X1Y1608D02*
X10Y1608D01*
X2245Y1608D02*
X2254Y1608D01*
X1Y1607D02*
X10Y1607D01*
X2245Y1607D02*
X2254Y1607D01*
X1Y1606D02*
X10Y1606D01*
X2245Y1606D02*
X2254Y1606D01*
X1Y1605D02*
X10Y1605D01*
X2245Y1605D02*
X2254Y1605D01*
X1Y1604D02*
X10Y1604D01*
X2245Y1604D02*
X2254Y1604D01*
X1Y1603D02*
X10Y1603D01*
X2245Y1603D02*
X2254Y1603D01*
X1Y1602D02*
X10Y1602D01*
X2245Y1602D02*
X2254Y1602D01*
X1Y1601D02*
X10Y1601D01*
X2245Y1601D02*
X2254Y1601D01*
X1Y1600D02*
X10Y1600D01*
X2245Y1600D02*
X2254Y1600D01*
X1Y1599D02*
X10Y1599D01*
X2245Y1599D02*
X2254Y1599D01*
X1Y1598D02*
X10Y1598D01*
X2245Y1598D02*
X2254Y1598D01*
X1Y1597D02*
X10Y1597D01*
X2245Y1597D02*
X2254Y1597D01*
X1Y1596D02*
X10Y1596D01*
X2245Y1596D02*
X2254Y1596D01*
X1Y1595D02*
X10Y1595D01*
X2245Y1595D02*
X2254Y1595D01*
X1Y1594D02*
X10Y1594D01*
X2245Y1594D02*
X2254Y1594D01*
X1Y1593D02*
X10Y1593D01*
X2245Y1593D02*
X2254Y1593D01*
X1Y1592D02*
X10Y1592D01*
X2245Y1592D02*
X2254Y1592D01*
X1Y1591D02*
X10Y1591D01*
X2245Y1591D02*
X2254Y1591D01*
X1Y1590D02*
X10Y1590D01*
X2245Y1590D02*
X2254Y1590D01*
X1Y1589D02*
X10Y1589D01*
X2245Y1589D02*
X2254Y1589D01*
X1Y1588D02*
X10Y1588D01*
X2245Y1588D02*
X2254Y1588D01*
X1Y1587D02*
X10Y1587D01*
X2245Y1587D02*
X2254Y1587D01*
X1Y1586D02*
X10Y1586D01*
X2245Y1586D02*
X2254Y1586D01*
X1Y1585D02*
X10Y1585D01*
X2245Y1585D02*
X2254Y1585D01*
X1Y1584D02*
X10Y1584D01*
X2245Y1584D02*
X2254Y1584D01*
X1Y1583D02*
X10Y1583D01*
X2245Y1583D02*
X2254Y1583D01*
X1Y1582D02*
X10Y1582D01*
X2245Y1582D02*
X2254Y1582D01*
X1Y1581D02*
X10Y1581D01*
X2245Y1581D02*
X2254Y1581D01*
X1Y1580D02*
X10Y1580D01*
X2245Y1580D02*
X2254Y1580D01*
X1Y1579D02*
X10Y1579D01*
X2245Y1579D02*
X2254Y1579D01*
X1Y1578D02*
X10Y1578D01*
X2245Y1578D02*
X2254Y1578D01*
X1Y1577D02*
X10Y1577D01*
X2245Y1577D02*
X2254Y1577D01*
X1Y1576D02*
X10Y1576D01*
X2245Y1576D02*
X2254Y1576D01*
X1Y1575D02*
X10Y1575D01*
X2245Y1575D02*
X2254Y1575D01*
X1Y1574D02*
X10Y1574D01*
X2245Y1574D02*
X2254Y1574D01*
X1Y1573D02*
X10Y1573D01*
X2245Y1573D02*
X2254Y1573D01*
X1Y1572D02*
X10Y1572D01*
X2245Y1572D02*
X2254Y1572D01*
X1Y1571D02*
X10Y1571D01*
X2245Y1571D02*
X2254Y1571D01*
X1Y1570D02*
X10Y1570D01*
X2245Y1570D02*
X2254Y1570D01*
X1Y1569D02*
X10Y1569D01*
X2245Y1569D02*
X2254Y1569D01*
X1Y1568D02*
X10Y1568D01*
X2245Y1568D02*
X2254Y1568D01*
X1Y1567D02*
X10Y1567D01*
X2245Y1567D02*
X2254Y1567D01*
X1Y1566D02*
X10Y1566D01*
X2245Y1566D02*
X2254Y1566D01*
X1Y1565D02*
X10Y1565D01*
X2245Y1565D02*
X2254Y1565D01*
X1Y1564D02*
X10Y1564D01*
X2245Y1564D02*
X2254Y1564D01*
X1Y1563D02*
X10Y1563D01*
X2245Y1563D02*
X2254Y1563D01*
X1Y1562D02*
X10Y1562D01*
X2245Y1562D02*
X2254Y1562D01*
X1Y1561D02*
X10Y1561D01*
X2245Y1561D02*
X2254Y1561D01*
X1Y1560D02*
X10Y1560D01*
X2245Y1560D02*
X2254Y1560D01*
X1Y1559D02*
X10Y1559D01*
X2245Y1559D02*
X2254Y1559D01*
X1Y1558D02*
X10Y1558D01*
X2245Y1558D02*
X2254Y1558D01*
X1Y1557D02*
X10Y1557D01*
X2245Y1557D02*
X2254Y1557D01*
X1Y1556D02*
X10Y1556D01*
X2245Y1556D02*
X2254Y1556D01*
X1Y1555D02*
X10Y1555D01*
X2245Y1555D02*
X2254Y1555D01*
X1Y1554D02*
X10Y1554D01*
X2245Y1554D02*
X2254Y1554D01*
X1Y1553D02*
X10Y1553D01*
X2245Y1553D02*
X2254Y1553D01*
X1Y1552D02*
X10Y1552D01*
X2245Y1552D02*
X2254Y1552D01*
X1Y1551D02*
X10Y1551D01*
X2245Y1551D02*
X2254Y1551D01*
X1Y1550D02*
X10Y1550D01*
X2245Y1550D02*
X2254Y1550D01*
X1Y1549D02*
X10Y1549D01*
X2245Y1549D02*
X2254Y1549D01*
X1Y1548D02*
X10Y1548D01*
X2245Y1548D02*
X2254Y1548D01*
X1Y1547D02*
X10Y1547D01*
X2245Y1547D02*
X2254Y1547D01*
X1Y1546D02*
X10Y1546D01*
X2245Y1546D02*
X2254Y1546D01*
X1Y1545D02*
X10Y1545D01*
X2245Y1545D02*
X2254Y1545D01*
X1Y1544D02*
X10Y1544D01*
X2245Y1544D02*
X2254Y1544D01*
X1Y1543D02*
X10Y1543D01*
X2245Y1543D02*
X2254Y1543D01*
X1Y1542D02*
X10Y1542D01*
X2245Y1542D02*
X2254Y1542D01*
X1Y1541D02*
X10Y1541D01*
X2245Y1541D02*
X2254Y1541D01*
X1Y1540D02*
X10Y1540D01*
X2245Y1540D02*
X2254Y1540D01*
X1Y1539D02*
X10Y1539D01*
X2245Y1539D02*
X2254Y1539D01*
X1Y1538D02*
X10Y1538D01*
X2245Y1538D02*
X2254Y1538D01*
X1Y1537D02*
X10Y1537D01*
X2245Y1537D02*
X2254Y1537D01*
X1Y1536D02*
X10Y1536D01*
X2245Y1536D02*
X2254Y1536D01*
X1Y1535D02*
X10Y1535D01*
X2245Y1535D02*
X2254Y1535D01*
X1Y1534D02*
X10Y1534D01*
X2245Y1534D02*
X2254Y1534D01*
X1Y1533D02*
X10Y1533D01*
X2245Y1533D02*
X2254Y1533D01*
X1Y1532D02*
X10Y1532D01*
X2245Y1532D02*
X2254Y1532D01*
X1Y1531D02*
X10Y1531D01*
X2245Y1531D02*
X2254Y1531D01*
X1Y1530D02*
X10Y1530D01*
X2245Y1530D02*
X2254Y1530D01*
X1Y1529D02*
X10Y1529D01*
X2245Y1529D02*
X2254Y1529D01*
X1Y1528D02*
X10Y1528D01*
X2245Y1528D02*
X2254Y1528D01*
X1Y1527D02*
X10Y1527D01*
X2245Y1527D02*
X2254Y1527D01*
X1Y1526D02*
X10Y1526D01*
X2245Y1526D02*
X2254Y1526D01*
X1Y1525D02*
X10Y1525D01*
X2245Y1525D02*
X2254Y1525D01*
X1Y1524D02*
X10Y1524D01*
X2245Y1524D02*
X2254Y1524D01*
X1Y1523D02*
X10Y1523D01*
X2245Y1523D02*
X2254Y1523D01*
X1Y1522D02*
X10Y1522D01*
X2245Y1522D02*
X2254Y1522D01*
X1Y1521D02*
X10Y1521D01*
X2245Y1521D02*
X2254Y1521D01*
X1Y1520D02*
X10Y1520D01*
X2245Y1520D02*
X2254Y1520D01*
X1Y1519D02*
X10Y1519D01*
X2245Y1519D02*
X2254Y1519D01*
X1Y1518D02*
X10Y1518D01*
X2245Y1518D02*
X2254Y1518D01*
X1Y1517D02*
X10Y1517D01*
X2245Y1517D02*
X2254Y1517D01*
X1Y1516D02*
X10Y1516D01*
X2245Y1516D02*
X2254Y1516D01*
X1Y1515D02*
X10Y1515D01*
X2245Y1515D02*
X2254Y1515D01*
X1Y1514D02*
X10Y1514D01*
X2245Y1514D02*
X2254Y1514D01*
X1Y1513D02*
X10Y1513D01*
X2245Y1513D02*
X2254Y1513D01*
X1Y1512D02*
X10Y1512D01*
X2245Y1512D02*
X2254Y1512D01*
X1Y1511D02*
X10Y1511D01*
X2245Y1511D02*
X2254Y1511D01*
X1Y1510D02*
X10Y1510D01*
X2245Y1510D02*
X2254Y1510D01*
X1Y1509D02*
X10Y1509D01*
X2245Y1509D02*
X2254Y1509D01*
X1Y1508D02*
X10Y1508D01*
X2245Y1508D02*
X2254Y1508D01*
X1Y1507D02*
X10Y1507D01*
X2245Y1507D02*
X2254Y1507D01*
X1Y1506D02*
X10Y1506D01*
X2245Y1506D02*
X2254Y1506D01*
X1Y1505D02*
X10Y1505D01*
X2245Y1505D02*
X2254Y1505D01*
X1Y1504D02*
X10Y1504D01*
X2245Y1504D02*
X2254Y1504D01*
X1Y1503D02*
X10Y1503D01*
X2245Y1503D02*
X2254Y1503D01*
X1Y1502D02*
X10Y1502D01*
X2245Y1502D02*
X2254Y1502D01*
X1Y1501D02*
X10Y1501D01*
X2245Y1501D02*
X2254Y1501D01*
X1Y1500D02*
X10Y1500D01*
X2245Y1500D02*
X2254Y1500D01*
X1Y1499D02*
X10Y1499D01*
X2245Y1499D02*
X2254Y1499D01*
X1Y1498D02*
X10Y1498D01*
X2245Y1498D02*
X2254Y1498D01*
X1Y1497D02*
X10Y1497D01*
X2245Y1497D02*
X2254Y1497D01*
X1Y1496D02*
X10Y1496D01*
X2245Y1496D02*
X2254Y1496D01*
X1Y1495D02*
X10Y1495D01*
X2245Y1495D02*
X2254Y1495D01*
X1Y1494D02*
X10Y1494D01*
X2245Y1494D02*
X2254Y1494D01*
X1Y1493D02*
X10Y1493D01*
X2245Y1493D02*
X2254Y1493D01*
X1Y1492D02*
X10Y1492D01*
X2245Y1492D02*
X2254Y1492D01*
X1Y1491D02*
X10Y1491D01*
X2245Y1491D02*
X2254Y1491D01*
X1Y1490D02*
X10Y1490D01*
X2245Y1490D02*
X2254Y1490D01*
X1Y1489D02*
X10Y1489D01*
X2245Y1489D02*
X2254Y1489D01*
X1Y1488D02*
X10Y1488D01*
X2245Y1488D02*
X2254Y1488D01*
X1Y1487D02*
X10Y1487D01*
X2245Y1487D02*
X2254Y1487D01*
X1Y1486D02*
X10Y1486D01*
X2245Y1486D02*
X2254Y1486D01*
X1Y1485D02*
X10Y1485D01*
X2245Y1485D02*
X2254Y1485D01*
X1Y1484D02*
X10Y1484D01*
X2245Y1484D02*
X2254Y1484D01*
X1Y1483D02*
X10Y1483D01*
X2245Y1483D02*
X2254Y1483D01*
X1Y1482D02*
X10Y1482D01*
X2245Y1482D02*
X2254Y1482D01*
X1Y1481D02*
X10Y1481D01*
X2245Y1481D02*
X2254Y1481D01*
X1Y1480D02*
X10Y1480D01*
X2245Y1480D02*
X2254Y1480D01*
X1Y1479D02*
X10Y1479D01*
X2245Y1479D02*
X2254Y1479D01*
X1Y1478D02*
X10Y1478D01*
X2245Y1478D02*
X2254Y1478D01*
X1Y1477D02*
X10Y1477D01*
X2245Y1477D02*
X2254Y1477D01*
X1Y1476D02*
X10Y1476D01*
X2245Y1476D02*
X2254Y1476D01*
X1Y1475D02*
X10Y1475D01*
X2245Y1475D02*
X2254Y1475D01*
X1Y1474D02*
X10Y1474D01*
X2245Y1474D02*
X2254Y1474D01*
X1Y1473D02*
X10Y1473D01*
X2245Y1473D02*
X2254Y1473D01*
X1Y1472D02*
X10Y1472D01*
X2245Y1472D02*
X2254Y1472D01*
X1Y1471D02*
X10Y1471D01*
X2245Y1471D02*
X2254Y1471D01*
X1Y1470D02*
X10Y1470D01*
X2245Y1470D02*
X2254Y1470D01*
X1Y1469D02*
X10Y1469D01*
X2245Y1469D02*
X2254Y1469D01*
X1Y1468D02*
X10Y1468D01*
X2245Y1468D02*
X2254Y1468D01*
X1Y1467D02*
X10Y1467D01*
X2245Y1467D02*
X2254Y1467D01*
X1Y1466D02*
X10Y1466D01*
X2245Y1466D02*
X2254Y1466D01*
X1Y1465D02*
X10Y1465D01*
X2245Y1465D02*
X2254Y1465D01*
X1Y1464D02*
X10Y1464D01*
X2245Y1464D02*
X2254Y1464D01*
X1Y1463D02*
X10Y1463D01*
X2245Y1463D02*
X2254Y1463D01*
X1Y1462D02*
X10Y1462D01*
X2245Y1462D02*
X2254Y1462D01*
X1Y1461D02*
X10Y1461D01*
X2245Y1461D02*
X2254Y1461D01*
X1Y1460D02*
X10Y1460D01*
X2245Y1460D02*
X2254Y1460D01*
X1Y1459D02*
X10Y1459D01*
X2245Y1459D02*
X2254Y1459D01*
X1Y1458D02*
X10Y1458D01*
X2245Y1458D02*
X2254Y1458D01*
X1Y1457D02*
X10Y1457D01*
X2245Y1457D02*
X2254Y1457D01*
X1Y1456D02*
X10Y1456D01*
X2245Y1456D02*
X2254Y1456D01*
X1Y1455D02*
X10Y1455D01*
X2245Y1455D02*
X2254Y1455D01*
X1Y1454D02*
X10Y1454D01*
X2245Y1454D02*
X2254Y1454D01*
X1Y1453D02*
X10Y1453D01*
X2245Y1453D02*
X2254Y1453D01*
X1Y1452D02*
X10Y1452D01*
X2245Y1452D02*
X2254Y1452D01*
X1Y1451D02*
X10Y1451D01*
X2245Y1451D02*
X2254Y1451D01*
X1Y1450D02*
X10Y1450D01*
X2245Y1450D02*
X2254Y1450D01*
X1Y1449D02*
X10Y1449D01*
X2245Y1449D02*
X2254Y1449D01*
X1Y1448D02*
X10Y1448D01*
X2245Y1448D02*
X2254Y1448D01*
X1Y1447D02*
X10Y1447D01*
X2245Y1447D02*
X2254Y1447D01*
X1Y1446D02*
X10Y1446D01*
X2245Y1446D02*
X2254Y1446D01*
X1Y1445D02*
X10Y1445D01*
X2245Y1445D02*
X2254Y1445D01*
X1Y1444D02*
X10Y1444D01*
X2245Y1444D02*
X2254Y1444D01*
X1Y1443D02*
X10Y1443D01*
X2245Y1443D02*
X2254Y1443D01*
X1Y1442D02*
X10Y1442D01*
X2245Y1442D02*
X2254Y1442D01*
X1Y1441D02*
X10Y1441D01*
X2245Y1441D02*
X2254Y1441D01*
X1Y1440D02*
X10Y1440D01*
X2245Y1440D02*
X2254Y1440D01*
X1Y1439D02*
X10Y1439D01*
X2245Y1439D02*
X2254Y1439D01*
X1Y1438D02*
X10Y1438D01*
X2245Y1438D02*
X2254Y1438D01*
X1Y1437D02*
X10Y1437D01*
X2245Y1437D02*
X2254Y1437D01*
X1Y1436D02*
X10Y1436D01*
X2245Y1436D02*
X2254Y1436D01*
X1Y1435D02*
X10Y1435D01*
X2245Y1435D02*
X2254Y1435D01*
X1Y1434D02*
X10Y1434D01*
X2245Y1434D02*
X2254Y1434D01*
X1Y1433D02*
X10Y1433D01*
X2245Y1433D02*
X2254Y1433D01*
X1Y1432D02*
X10Y1432D01*
X2245Y1432D02*
X2254Y1432D01*
X1Y1431D02*
X10Y1431D01*
X2245Y1431D02*
X2254Y1431D01*
X1Y1430D02*
X10Y1430D01*
X2245Y1430D02*
X2254Y1430D01*
X1Y1429D02*
X10Y1429D01*
X2245Y1429D02*
X2254Y1429D01*
X1Y1428D02*
X10Y1428D01*
X2245Y1428D02*
X2254Y1428D01*
X1Y1427D02*
X10Y1427D01*
X2245Y1427D02*
X2254Y1427D01*
X1Y1426D02*
X10Y1426D01*
X2245Y1426D02*
X2254Y1426D01*
X1Y1425D02*
X10Y1425D01*
X2245Y1425D02*
X2254Y1425D01*
X1Y1424D02*
X10Y1424D01*
X2245Y1424D02*
X2254Y1424D01*
X1Y1423D02*
X10Y1423D01*
X2245Y1423D02*
X2254Y1423D01*
X1Y1422D02*
X10Y1422D01*
X2245Y1422D02*
X2254Y1422D01*
X1Y1421D02*
X10Y1421D01*
X2245Y1421D02*
X2254Y1421D01*
X1Y1420D02*
X10Y1420D01*
X2245Y1420D02*
X2254Y1420D01*
X1Y1419D02*
X10Y1419D01*
X2245Y1419D02*
X2254Y1419D01*
X1Y1418D02*
X10Y1418D01*
X2245Y1418D02*
X2254Y1418D01*
X1Y1417D02*
X10Y1417D01*
X2245Y1417D02*
X2254Y1417D01*
X1Y1416D02*
X10Y1416D01*
X2245Y1416D02*
X2254Y1416D01*
X1Y1415D02*
X10Y1415D01*
X2245Y1415D02*
X2254Y1415D01*
X1Y1414D02*
X10Y1414D01*
X2245Y1414D02*
X2254Y1414D01*
X1Y1413D02*
X10Y1413D01*
X2245Y1413D02*
X2254Y1413D01*
X1Y1412D02*
X10Y1412D01*
X2245Y1412D02*
X2254Y1412D01*
X1Y1411D02*
X10Y1411D01*
X2245Y1411D02*
X2254Y1411D01*
X1Y1410D02*
X10Y1410D01*
X2245Y1410D02*
X2254Y1410D01*
X1Y1409D02*
X10Y1409D01*
X2245Y1409D02*
X2254Y1409D01*
X1Y1408D02*
X10Y1408D01*
X2245Y1408D02*
X2254Y1408D01*
X1Y1407D02*
X10Y1407D01*
X2245Y1407D02*
X2254Y1407D01*
X1Y1406D02*
X10Y1406D01*
X2245Y1406D02*
X2254Y1406D01*
X1Y1405D02*
X10Y1405D01*
X2245Y1405D02*
X2254Y1405D01*
X1Y1404D02*
X10Y1404D01*
X2245Y1404D02*
X2254Y1404D01*
X1Y1403D02*
X10Y1403D01*
X2245Y1403D02*
X2254Y1403D01*
X1Y1402D02*
X10Y1402D01*
X2245Y1402D02*
X2254Y1402D01*
X1Y1401D02*
X10Y1401D01*
X2245Y1401D02*
X2254Y1401D01*
X1Y1400D02*
X10Y1400D01*
X2245Y1400D02*
X2254Y1400D01*
X1Y1399D02*
X10Y1399D01*
X2245Y1399D02*
X2254Y1399D01*
X1Y1398D02*
X10Y1398D01*
X2245Y1398D02*
X2254Y1398D01*
X1Y1397D02*
X10Y1397D01*
X2245Y1397D02*
X2254Y1397D01*
X1Y1396D02*
X10Y1396D01*
X2245Y1396D02*
X2254Y1396D01*
X1Y1395D02*
X10Y1395D01*
X2245Y1395D02*
X2254Y1395D01*
X1Y1394D02*
X10Y1394D01*
X2245Y1394D02*
X2254Y1394D01*
X1Y1393D02*
X10Y1393D01*
X2245Y1393D02*
X2254Y1393D01*
X1Y1392D02*
X10Y1392D01*
X2245Y1392D02*
X2254Y1392D01*
X1Y1391D02*
X10Y1391D01*
X2245Y1391D02*
X2254Y1391D01*
X1Y1390D02*
X10Y1390D01*
X2245Y1390D02*
X2254Y1390D01*
X1Y1389D02*
X10Y1389D01*
X2245Y1389D02*
X2254Y1389D01*
X1Y1388D02*
X10Y1388D01*
X2245Y1388D02*
X2254Y1388D01*
X1Y1387D02*
X10Y1387D01*
X2245Y1387D02*
X2254Y1387D01*
X1Y1386D02*
X10Y1386D01*
X2245Y1386D02*
X2254Y1386D01*
X1Y1385D02*
X10Y1385D01*
X2245Y1385D02*
X2254Y1385D01*
X1Y1384D02*
X10Y1384D01*
X2245Y1384D02*
X2254Y1384D01*
X1Y1383D02*
X10Y1383D01*
X2245Y1383D02*
X2254Y1383D01*
X1Y1382D02*
X10Y1382D01*
X2245Y1382D02*
X2254Y1382D01*
X1Y1381D02*
X10Y1381D01*
X2245Y1381D02*
X2254Y1381D01*
X1Y1380D02*
X10Y1380D01*
X2245Y1380D02*
X2254Y1380D01*
X1Y1379D02*
X10Y1379D01*
X2245Y1379D02*
X2254Y1379D01*
X1Y1378D02*
X10Y1378D01*
X2245Y1378D02*
X2254Y1378D01*
X1Y1377D02*
X10Y1377D01*
X2245Y1377D02*
X2254Y1377D01*
X1Y1376D02*
X10Y1376D01*
X2245Y1376D02*
X2254Y1376D01*
X1Y1375D02*
X10Y1375D01*
X2245Y1375D02*
X2254Y1375D01*
X1Y1374D02*
X10Y1374D01*
X2245Y1374D02*
X2254Y1374D01*
X1Y1373D02*
X10Y1373D01*
X2245Y1373D02*
X2254Y1373D01*
X1Y1372D02*
X10Y1372D01*
X2245Y1372D02*
X2254Y1372D01*
X1Y1371D02*
X10Y1371D01*
X2245Y1371D02*
X2254Y1371D01*
X1Y1370D02*
X10Y1370D01*
X2245Y1370D02*
X2254Y1370D01*
X1Y1369D02*
X10Y1369D01*
X2245Y1369D02*
X2254Y1369D01*
X1Y1368D02*
X10Y1368D01*
X2245Y1368D02*
X2254Y1368D01*
X1Y1367D02*
X10Y1367D01*
X2245Y1367D02*
X2254Y1367D01*
X1Y1366D02*
X10Y1366D01*
X2245Y1366D02*
X2254Y1366D01*
X1Y1365D02*
X10Y1365D01*
X2245Y1365D02*
X2254Y1365D01*
X1Y1364D02*
X10Y1364D01*
X2245Y1364D02*
X2254Y1364D01*
X1Y1363D02*
X10Y1363D01*
X2245Y1363D02*
X2254Y1363D01*
X1Y1362D02*
X10Y1362D01*
X2245Y1362D02*
X2254Y1362D01*
X1Y1361D02*
X10Y1361D01*
X2245Y1361D02*
X2254Y1361D01*
X1Y1360D02*
X10Y1360D01*
X2245Y1360D02*
X2254Y1360D01*
X1Y1359D02*
X10Y1359D01*
X2245Y1359D02*
X2254Y1359D01*
X1Y1358D02*
X10Y1358D01*
X2245Y1358D02*
X2254Y1358D01*
X1Y1357D02*
X10Y1357D01*
X2245Y1357D02*
X2254Y1357D01*
X1Y1356D02*
X10Y1356D01*
X2245Y1356D02*
X2254Y1356D01*
X1Y1355D02*
X10Y1355D01*
X2245Y1355D02*
X2254Y1355D01*
X1Y1354D02*
X10Y1354D01*
X2245Y1354D02*
X2254Y1354D01*
X1Y1353D02*
X10Y1353D01*
X2245Y1353D02*
X2254Y1353D01*
X1Y1352D02*
X10Y1352D01*
X2245Y1352D02*
X2254Y1352D01*
X1Y1351D02*
X10Y1351D01*
X2245Y1351D02*
X2254Y1351D01*
X1Y1350D02*
X10Y1350D01*
X2245Y1350D02*
X2254Y1350D01*
X1Y1349D02*
X10Y1349D01*
X2245Y1349D02*
X2254Y1349D01*
X1Y1348D02*
X10Y1348D01*
X2245Y1348D02*
X2254Y1348D01*
X1Y1347D02*
X10Y1347D01*
X2245Y1347D02*
X2254Y1347D01*
X1Y1346D02*
X10Y1346D01*
X2245Y1346D02*
X2254Y1346D01*
X1Y1345D02*
X10Y1345D01*
X2245Y1345D02*
X2254Y1345D01*
X1Y1344D02*
X10Y1344D01*
X2245Y1344D02*
X2254Y1344D01*
X1Y1343D02*
X10Y1343D01*
X2245Y1343D02*
X2254Y1343D01*
X1Y1342D02*
X10Y1342D01*
X2245Y1342D02*
X2254Y1342D01*
X1Y1341D02*
X10Y1341D01*
X2245Y1341D02*
X2254Y1341D01*
X1Y1340D02*
X10Y1340D01*
X2245Y1340D02*
X2254Y1340D01*
X1Y1339D02*
X10Y1339D01*
X2245Y1339D02*
X2254Y1339D01*
X1Y1338D02*
X10Y1338D01*
X2245Y1338D02*
X2254Y1338D01*
X1Y1337D02*
X10Y1337D01*
X2245Y1337D02*
X2254Y1337D01*
X1Y1336D02*
X10Y1336D01*
X2245Y1336D02*
X2254Y1336D01*
X1Y1335D02*
X10Y1335D01*
X2245Y1335D02*
X2254Y1335D01*
X1Y1334D02*
X10Y1334D01*
X2245Y1334D02*
X2254Y1334D01*
X1Y1333D02*
X10Y1333D01*
X2245Y1333D02*
X2254Y1333D01*
X1Y1332D02*
X10Y1332D01*
X2245Y1332D02*
X2254Y1332D01*
X1Y1331D02*
X10Y1331D01*
X2245Y1331D02*
X2254Y1331D01*
X1Y1330D02*
X10Y1330D01*
X2245Y1330D02*
X2254Y1330D01*
X1Y1329D02*
X10Y1329D01*
X2245Y1329D02*
X2254Y1329D01*
X1Y1328D02*
X10Y1328D01*
X2245Y1328D02*
X2254Y1328D01*
X1Y1327D02*
X10Y1327D01*
X2245Y1327D02*
X2254Y1327D01*
X1Y1326D02*
X10Y1326D01*
X2245Y1326D02*
X2254Y1326D01*
X1Y1325D02*
X10Y1325D01*
X2245Y1325D02*
X2254Y1325D01*
X1Y1324D02*
X10Y1324D01*
X2245Y1324D02*
X2254Y1324D01*
X1Y1323D02*
X10Y1323D01*
X2245Y1323D02*
X2254Y1323D01*
X1Y1322D02*
X10Y1322D01*
X2245Y1322D02*
X2254Y1322D01*
X1Y1321D02*
X10Y1321D01*
X2245Y1321D02*
X2254Y1321D01*
X1Y1320D02*
X10Y1320D01*
X2245Y1320D02*
X2254Y1320D01*
X1Y1319D02*
X10Y1319D01*
X2245Y1319D02*
X2254Y1319D01*
X1Y1318D02*
X10Y1318D01*
X2245Y1318D02*
X2254Y1318D01*
X1Y1317D02*
X10Y1317D01*
X2245Y1317D02*
X2254Y1317D01*
X1Y1316D02*
X10Y1316D01*
X2245Y1316D02*
X2254Y1316D01*
X1Y1315D02*
X10Y1315D01*
X2245Y1315D02*
X2254Y1315D01*
X1Y1314D02*
X10Y1314D01*
X2245Y1314D02*
X2254Y1314D01*
X1Y1313D02*
X10Y1313D01*
X2245Y1313D02*
X2254Y1313D01*
X1Y1312D02*
X10Y1312D01*
X2245Y1312D02*
X2254Y1312D01*
X1Y1311D02*
X10Y1311D01*
X2245Y1311D02*
X2254Y1311D01*
X1Y1310D02*
X10Y1310D01*
X2245Y1310D02*
X2254Y1310D01*
X1Y1309D02*
X10Y1309D01*
X2245Y1309D02*
X2254Y1309D01*
X1Y1308D02*
X10Y1308D01*
X2245Y1308D02*
X2254Y1308D01*
X1Y1307D02*
X10Y1307D01*
X2245Y1307D02*
X2254Y1307D01*
X1Y1306D02*
X10Y1306D01*
X2245Y1306D02*
X2254Y1306D01*
X1Y1305D02*
X10Y1305D01*
X2245Y1305D02*
X2254Y1305D01*
X1Y1304D02*
X10Y1304D01*
X2245Y1304D02*
X2254Y1304D01*
X1Y1303D02*
X10Y1303D01*
X2245Y1303D02*
X2254Y1303D01*
X1Y1302D02*
X10Y1302D01*
X2245Y1302D02*
X2254Y1302D01*
X1Y1301D02*
X10Y1301D01*
X2245Y1301D02*
X2254Y1301D01*
X1Y1300D02*
X10Y1300D01*
X2245Y1300D02*
X2254Y1300D01*
X1Y1299D02*
X10Y1299D01*
X2245Y1299D02*
X2254Y1299D01*
X1Y1298D02*
X10Y1298D01*
X2245Y1298D02*
X2254Y1298D01*
X1Y1297D02*
X10Y1297D01*
X2245Y1297D02*
X2254Y1297D01*
X1Y1296D02*
X10Y1296D01*
X2245Y1296D02*
X2254Y1296D01*
X1Y1295D02*
X10Y1295D01*
X2245Y1295D02*
X2254Y1295D01*
X1Y1294D02*
X10Y1294D01*
X2245Y1294D02*
X2254Y1294D01*
X1Y1293D02*
X10Y1293D01*
X2245Y1293D02*
X2254Y1293D01*
X1Y1292D02*
X10Y1292D01*
X2245Y1292D02*
X2254Y1292D01*
X1Y1291D02*
X10Y1291D01*
X2245Y1291D02*
X2254Y1291D01*
X1Y1290D02*
X10Y1290D01*
X2245Y1290D02*
X2254Y1290D01*
X1Y1289D02*
X10Y1289D01*
X2245Y1289D02*
X2254Y1289D01*
X1Y1288D02*
X10Y1288D01*
X2245Y1288D02*
X2254Y1288D01*
X1Y1287D02*
X10Y1287D01*
X2245Y1287D02*
X2254Y1287D01*
X1Y1286D02*
X10Y1286D01*
X2245Y1286D02*
X2254Y1286D01*
X1Y1285D02*
X10Y1285D01*
X2245Y1285D02*
X2254Y1285D01*
X1Y1284D02*
X10Y1284D01*
X2245Y1284D02*
X2254Y1284D01*
X1Y1283D02*
X10Y1283D01*
X2245Y1283D02*
X2254Y1283D01*
X1Y1282D02*
X10Y1282D01*
X2245Y1282D02*
X2254Y1282D01*
X1Y1281D02*
X10Y1281D01*
X2245Y1281D02*
X2254Y1281D01*
X1Y1280D02*
X10Y1280D01*
X2245Y1280D02*
X2254Y1280D01*
X1Y1279D02*
X10Y1279D01*
X2245Y1279D02*
X2254Y1279D01*
X1Y1278D02*
X10Y1278D01*
X2245Y1278D02*
X2254Y1278D01*
X1Y1277D02*
X10Y1277D01*
X2245Y1277D02*
X2254Y1277D01*
X1Y1276D02*
X10Y1276D01*
X2245Y1276D02*
X2254Y1276D01*
X1Y1275D02*
X10Y1275D01*
X2245Y1275D02*
X2254Y1275D01*
X1Y1274D02*
X10Y1274D01*
X2245Y1274D02*
X2254Y1274D01*
X1Y1273D02*
X10Y1273D01*
X2245Y1273D02*
X2254Y1273D01*
X1Y1272D02*
X10Y1272D01*
X2245Y1272D02*
X2254Y1272D01*
X1Y1271D02*
X10Y1271D01*
X2245Y1271D02*
X2254Y1271D01*
X1Y1270D02*
X10Y1270D01*
X2245Y1270D02*
X2254Y1270D01*
X1Y1269D02*
X10Y1269D01*
X2245Y1269D02*
X2254Y1269D01*
X1Y1268D02*
X10Y1268D01*
X2245Y1268D02*
X2254Y1268D01*
X1Y1267D02*
X10Y1267D01*
X2245Y1267D02*
X2254Y1267D01*
X1Y1266D02*
X10Y1266D01*
X2245Y1266D02*
X2254Y1266D01*
X1Y1265D02*
X10Y1265D01*
X2245Y1265D02*
X2254Y1265D01*
X1Y1264D02*
X10Y1264D01*
X2245Y1264D02*
X2254Y1264D01*
X1Y1263D02*
X10Y1263D01*
X2245Y1263D02*
X2254Y1263D01*
X1Y1262D02*
X10Y1262D01*
X2245Y1262D02*
X2254Y1262D01*
X1Y1261D02*
X10Y1261D01*
X2245Y1261D02*
X2254Y1261D01*
X1Y1260D02*
X10Y1260D01*
X2245Y1260D02*
X2254Y1260D01*
X1Y1259D02*
X10Y1259D01*
X2245Y1259D02*
X2254Y1259D01*
X1Y1258D02*
X10Y1258D01*
X2245Y1258D02*
X2254Y1258D01*
X1Y1257D02*
X10Y1257D01*
X2245Y1257D02*
X2254Y1257D01*
X1Y1256D02*
X10Y1256D01*
X2245Y1256D02*
X2254Y1256D01*
X1Y1255D02*
X10Y1255D01*
X2245Y1255D02*
X2254Y1255D01*
X1Y1254D02*
X10Y1254D01*
X2245Y1254D02*
X2254Y1254D01*
X1Y1253D02*
X10Y1253D01*
X2245Y1253D02*
X2254Y1253D01*
X1Y1252D02*
X10Y1252D01*
X2245Y1252D02*
X2254Y1252D01*
X1Y1251D02*
X10Y1251D01*
X2245Y1251D02*
X2254Y1251D01*
X1Y1250D02*
X10Y1250D01*
X2245Y1250D02*
X2254Y1250D01*
X1Y1249D02*
X10Y1249D01*
X2245Y1249D02*
X2254Y1249D01*
X1Y1248D02*
X10Y1248D01*
X2245Y1248D02*
X2254Y1248D01*
X1Y1247D02*
X10Y1247D01*
X2245Y1247D02*
X2254Y1247D01*
X1Y1246D02*
X10Y1246D01*
X2245Y1246D02*
X2254Y1246D01*
X1Y1245D02*
X10Y1245D01*
X2245Y1245D02*
X2254Y1245D01*
X1Y1244D02*
X10Y1244D01*
X2245Y1244D02*
X2254Y1244D01*
X1Y1243D02*
X10Y1243D01*
X2245Y1243D02*
X2254Y1243D01*
X1Y1242D02*
X10Y1242D01*
X2245Y1242D02*
X2254Y1242D01*
X1Y1241D02*
X10Y1241D01*
X2245Y1241D02*
X2254Y1241D01*
X1Y1240D02*
X10Y1240D01*
X2245Y1240D02*
X2254Y1240D01*
X1Y1239D02*
X10Y1239D01*
X2245Y1239D02*
X2254Y1239D01*
X1Y1238D02*
X10Y1238D01*
X2245Y1238D02*
X2254Y1238D01*
X1Y1237D02*
X10Y1237D01*
X2245Y1237D02*
X2254Y1237D01*
X1Y1236D02*
X10Y1236D01*
X2245Y1236D02*
X2254Y1236D01*
X1Y1235D02*
X10Y1235D01*
X2245Y1235D02*
X2254Y1235D01*
X1Y1234D02*
X10Y1234D01*
X2245Y1234D02*
X2254Y1234D01*
X1Y1233D02*
X10Y1233D01*
X2245Y1233D02*
X2254Y1233D01*
X1Y1232D02*
X10Y1232D01*
X2245Y1232D02*
X2254Y1232D01*
X1Y1231D02*
X10Y1231D01*
X2245Y1231D02*
X2254Y1231D01*
X1Y1230D02*
X10Y1230D01*
X2245Y1230D02*
X2254Y1230D01*
X1Y1229D02*
X10Y1229D01*
X2245Y1229D02*
X2254Y1229D01*
X1Y1228D02*
X10Y1228D01*
X2245Y1228D02*
X2254Y1228D01*
X1Y1227D02*
X10Y1227D01*
X2245Y1227D02*
X2254Y1227D01*
X1Y1226D02*
X10Y1226D01*
X2245Y1226D02*
X2254Y1226D01*
X1Y1225D02*
X10Y1225D01*
X2245Y1225D02*
X2254Y1225D01*
X1Y1224D02*
X10Y1224D01*
X2245Y1224D02*
X2254Y1224D01*
X1Y1223D02*
X10Y1223D01*
X2245Y1223D02*
X2254Y1223D01*
X1Y1222D02*
X10Y1222D01*
X2245Y1222D02*
X2254Y1222D01*
X1Y1221D02*
X10Y1221D01*
X2245Y1221D02*
X2254Y1221D01*
X1Y1220D02*
X10Y1220D01*
X2245Y1220D02*
X2254Y1220D01*
X1Y1219D02*
X10Y1219D01*
X2245Y1219D02*
X2254Y1219D01*
X1Y1218D02*
X10Y1218D01*
X2245Y1218D02*
X2254Y1218D01*
X1Y1217D02*
X10Y1217D01*
X2245Y1217D02*
X2254Y1217D01*
X1Y1216D02*
X10Y1216D01*
X2245Y1216D02*
X2254Y1216D01*
X1Y1215D02*
X10Y1215D01*
X2245Y1215D02*
X2254Y1215D01*
X1Y1214D02*
X10Y1214D01*
X2245Y1214D02*
X2254Y1214D01*
X1Y1213D02*
X10Y1213D01*
X2245Y1213D02*
X2254Y1213D01*
X1Y1212D02*
X10Y1212D01*
X2245Y1212D02*
X2254Y1212D01*
X1Y1211D02*
X10Y1211D01*
X2245Y1211D02*
X2254Y1211D01*
X1Y1210D02*
X10Y1210D01*
X2245Y1210D02*
X2254Y1210D01*
X1Y1209D02*
X10Y1209D01*
X2245Y1209D02*
X2254Y1209D01*
X1Y1208D02*
X10Y1208D01*
X2245Y1208D02*
X2254Y1208D01*
X1Y1207D02*
X10Y1207D01*
X2245Y1207D02*
X2254Y1207D01*
X1Y1206D02*
X10Y1206D01*
X2245Y1206D02*
X2254Y1206D01*
X1Y1205D02*
X10Y1205D01*
X2245Y1205D02*
X2254Y1205D01*
X1Y1204D02*
X10Y1204D01*
X2245Y1204D02*
X2254Y1204D01*
X1Y1203D02*
X10Y1203D01*
X2245Y1203D02*
X2254Y1203D01*
X1Y1202D02*
X10Y1202D01*
X2245Y1202D02*
X2254Y1202D01*
X1Y1201D02*
X10Y1201D01*
X2245Y1201D02*
X2254Y1201D01*
X1Y1200D02*
X10Y1200D01*
X2245Y1200D02*
X2254Y1200D01*
X1Y1199D02*
X10Y1199D01*
X2245Y1199D02*
X2254Y1199D01*
X1Y1198D02*
X10Y1198D01*
X2245Y1198D02*
X2254Y1198D01*
X1Y1197D02*
X10Y1197D01*
X2245Y1197D02*
X2254Y1197D01*
X1Y1196D02*
X10Y1196D01*
X2245Y1196D02*
X2254Y1196D01*
X1Y1195D02*
X10Y1195D01*
X2245Y1195D02*
X2254Y1195D01*
X1Y1194D02*
X10Y1194D01*
X2245Y1194D02*
X2254Y1194D01*
X1Y1193D02*
X10Y1193D01*
X2245Y1193D02*
X2254Y1193D01*
X1Y1192D02*
X10Y1192D01*
X2245Y1192D02*
X2254Y1192D01*
X1Y1191D02*
X10Y1191D01*
X2245Y1191D02*
X2254Y1191D01*
X1Y1190D02*
X10Y1190D01*
X2245Y1190D02*
X2254Y1190D01*
X1Y1189D02*
X10Y1189D01*
X2245Y1189D02*
X2254Y1189D01*
X1Y1188D02*
X10Y1188D01*
X2245Y1188D02*
X2254Y1188D01*
X1Y1187D02*
X10Y1187D01*
X2245Y1187D02*
X2254Y1187D01*
X1Y1186D02*
X10Y1186D01*
X2245Y1186D02*
X2254Y1186D01*
X1Y1185D02*
X10Y1185D01*
X2245Y1185D02*
X2254Y1185D01*
X1Y1184D02*
X10Y1184D01*
X2245Y1184D02*
X2254Y1184D01*
X1Y1183D02*
X10Y1183D01*
X2245Y1183D02*
X2254Y1183D01*
X1Y1182D02*
X10Y1182D01*
X2245Y1182D02*
X2254Y1182D01*
X1Y1181D02*
X10Y1181D01*
X2245Y1181D02*
X2254Y1181D01*
X1Y1180D02*
X10Y1180D01*
X2245Y1180D02*
X2254Y1180D01*
X1Y1179D02*
X10Y1179D01*
X2245Y1179D02*
X2254Y1179D01*
X1Y1178D02*
X10Y1178D01*
X2245Y1178D02*
X2254Y1178D01*
X1Y1177D02*
X10Y1177D01*
X2245Y1177D02*
X2254Y1177D01*
X1Y1176D02*
X10Y1176D01*
X2245Y1176D02*
X2254Y1176D01*
X1Y1175D02*
X10Y1175D01*
X2245Y1175D02*
X2254Y1175D01*
X1Y1174D02*
X10Y1174D01*
X2245Y1174D02*
X2254Y1174D01*
X1Y1173D02*
X10Y1173D01*
X2245Y1173D02*
X2254Y1173D01*
X1Y1172D02*
X10Y1172D01*
X2245Y1172D02*
X2254Y1172D01*
X1Y1171D02*
X10Y1171D01*
X2245Y1171D02*
X2254Y1171D01*
X1Y1170D02*
X10Y1170D01*
X2245Y1170D02*
X2254Y1170D01*
X1Y1169D02*
X10Y1169D01*
X2245Y1169D02*
X2254Y1169D01*
X1Y1168D02*
X10Y1168D01*
X2245Y1168D02*
X2254Y1168D01*
X1Y1167D02*
X10Y1167D01*
X2245Y1167D02*
X2254Y1167D01*
X1Y1166D02*
X10Y1166D01*
X2245Y1166D02*
X2254Y1166D01*
X1Y1165D02*
X10Y1165D01*
X2245Y1165D02*
X2254Y1165D01*
X1Y1164D02*
X10Y1164D01*
X2245Y1164D02*
X2254Y1164D01*
X1Y1163D02*
X10Y1163D01*
X2245Y1163D02*
X2254Y1163D01*
X1Y1162D02*
X10Y1162D01*
X2245Y1162D02*
X2254Y1162D01*
X1Y1161D02*
X10Y1161D01*
X2245Y1161D02*
X2254Y1161D01*
X1Y1160D02*
X10Y1160D01*
X2245Y1160D02*
X2254Y1160D01*
X1Y1159D02*
X10Y1159D01*
X2245Y1159D02*
X2254Y1159D01*
X1Y1158D02*
X10Y1158D01*
X2245Y1158D02*
X2254Y1158D01*
X1Y1157D02*
X10Y1157D01*
X2245Y1157D02*
X2254Y1157D01*
X1Y1156D02*
X10Y1156D01*
X2245Y1156D02*
X2254Y1156D01*
X1Y1155D02*
X10Y1155D01*
X2245Y1155D02*
X2254Y1155D01*
X1Y1154D02*
X10Y1154D01*
X2245Y1154D02*
X2254Y1154D01*
X1Y1153D02*
X10Y1153D01*
X2245Y1153D02*
X2254Y1153D01*
X1Y1152D02*
X10Y1152D01*
X2245Y1152D02*
X2254Y1152D01*
X1Y1151D02*
X10Y1151D01*
X2245Y1151D02*
X2254Y1151D01*
X1Y1150D02*
X10Y1150D01*
X2245Y1150D02*
X2254Y1150D01*
X1Y1149D02*
X10Y1149D01*
X2245Y1149D02*
X2254Y1149D01*
X1Y1148D02*
X10Y1148D01*
X2245Y1148D02*
X2254Y1148D01*
X1Y1147D02*
X10Y1147D01*
X2245Y1147D02*
X2254Y1147D01*
X1Y1146D02*
X10Y1146D01*
X2245Y1146D02*
X2254Y1146D01*
X1Y1145D02*
X10Y1145D01*
X2245Y1145D02*
X2254Y1145D01*
X1Y1144D02*
X10Y1144D01*
X2245Y1144D02*
X2254Y1144D01*
X1Y1143D02*
X10Y1143D01*
X2245Y1143D02*
X2254Y1143D01*
X1Y1142D02*
X10Y1142D01*
X2245Y1142D02*
X2254Y1142D01*
X1Y1141D02*
X10Y1141D01*
X2245Y1141D02*
X2254Y1141D01*
X1Y1140D02*
X10Y1140D01*
X2245Y1140D02*
X2254Y1140D01*
X1Y1139D02*
X10Y1139D01*
X2245Y1139D02*
X2254Y1139D01*
X1Y1138D02*
X10Y1138D01*
X2245Y1138D02*
X2254Y1138D01*
X1Y1137D02*
X10Y1137D01*
X2245Y1137D02*
X2254Y1137D01*
X1Y1136D02*
X10Y1136D01*
X2245Y1136D02*
X2254Y1136D01*
X1Y1135D02*
X10Y1135D01*
X2245Y1135D02*
X2254Y1135D01*
X1Y1134D02*
X10Y1134D01*
X2245Y1134D02*
X2254Y1134D01*
X1Y1133D02*
X10Y1133D01*
X2245Y1133D02*
X2254Y1133D01*
X1Y1132D02*
X10Y1132D01*
X2245Y1132D02*
X2254Y1132D01*
X1Y1131D02*
X10Y1131D01*
X1407Y1131D02*
X1414Y1131D01*
X2245Y1131D02*
X2254Y1131D01*
X1Y1130D02*
X10Y1130D01*
X1406Y1130D02*
X1415Y1130D01*
X2245Y1130D02*
X2254Y1130D01*
X1Y1129D02*
X10Y1129D01*
X1406Y1129D02*
X1415Y1129D01*
X2245Y1129D02*
X2254Y1129D01*
X1Y1128D02*
X10Y1128D01*
X342Y1128D02*
X369Y1128D01*
X396Y1128D02*
X426Y1128D01*
X449Y1128D02*
X476Y1128D01*
X501Y1128D02*
X531Y1128D01*
X656Y1128D02*
X660Y1128D01*
X1242Y1128D02*
X1260Y1128D01*
X1406Y1128D02*
X1416Y1128D01*
X1670Y1128D02*
X1684Y1128D01*
X1737Y1128D02*
X1741Y1128D01*
X2245Y1128D02*
X2254Y1128D01*
X1Y1127D02*
X10Y1127D01*
X341Y1127D02*
X369Y1127D01*
X395Y1127D02*
X427Y1127D01*
X447Y1127D02*
X477Y1127D01*
X500Y1127D02*
X532Y1127D01*
X656Y1127D02*
X661Y1127D01*
X1240Y1127D02*
X1262Y1127D01*
X1406Y1127D02*
X1416Y1127D01*
X1669Y1127D02*
X1685Y1127D01*
X1736Y1127D02*
X1741Y1127D01*
X2245Y1127D02*
X2254Y1127D01*
X1Y1126D02*
X10Y1126D01*
X341Y1126D02*
X369Y1126D01*
X394Y1126D02*
X427Y1126D01*
X446Y1126D02*
X478Y1126D01*
X499Y1126D02*
X532Y1126D01*
X655Y1126D02*
X661Y1126D01*
X1238Y1126D02*
X1264Y1126D01*
X1406Y1126D02*
X1416Y1126D01*
X1669Y1126D02*
X1686Y1126D01*
X1736Y1126D02*
X1742Y1126D01*
X2245Y1126D02*
X2254Y1126D01*
X1Y1125D02*
X10Y1125D01*
X341Y1125D02*
X369Y1125D01*
X393Y1125D02*
X427Y1125D01*
X446Y1125D02*
X479Y1125D01*
X498Y1125D02*
X532Y1125D01*
X655Y1125D02*
X661Y1125D01*
X888Y1125D02*
X892Y1125D01*
X1046Y1125D02*
X1050Y1125D01*
X1237Y1125D02*
X1265Y1125D01*
X1309Y1125D02*
X1313Y1125D01*
X1406Y1125D02*
X1416Y1125D01*
X1669Y1125D02*
X1686Y1125D01*
X1736Y1125D02*
X1742Y1125D01*
X2245Y1125D02*
X2254Y1125D01*
X1Y1124D02*
X10Y1124D01*
X341Y1124D02*
X369Y1124D01*
X392Y1124D02*
X427Y1124D01*
X445Y1124D02*
X479Y1124D01*
X498Y1124D02*
X532Y1124D01*
X655Y1124D02*
X661Y1124D01*
X888Y1124D02*
X893Y1124D01*
X1045Y1124D02*
X1051Y1124D01*
X1236Y1124D02*
X1266Y1124D01*
X1308Y1124D02*
X1314Y1124D01*
X1406Y1124D02*
X1415Y1124D01*
X1669Y1124D02*
X1685Y1124D01*
X1736Y1124D02*
X1742Y1124D01*
X2245Y1124D02*
X2254Y1124D01*
X1Y1123D02*
X10Y1123D01*
X342Y1123D02*
X369Y1123D01*
X392Y1123D02*
X426Y1123D01*
X445Y1123D02*
X480Y1123D01*
X497Y1123D02*
X532Y1123D01*
X655Y1123D02*
X661Y1123D01*
X887Y1123D02*
X893Y1123D01*
X1045Y1123D02*
X1051Y1123D01*
X1236Y1123D02*
X1267Y1123D01*
X1308Y1123D02*
X1314Y1123D01*
X1406Y1123D02*
X1415Y1123D01*
X1669Y1123D02*
X1685Y1123D01*
X1736Y1123D02*
X1742Y1123D01*
X2245Y1123D02*
X2254Y1123D01*
X1Y1122D02*
X10Y1122D01*
X343Y1122D02*
X369Y1122D01*
X392Y1122D02*
X425Y1122D01*
X445Y1122D02*
X480Y1122D01*
X497Y1122D02*
X530Y1122D01*
X655Y1122D02*
X661Y1122D01*
X887Y1122D02*
X893Y1122D01*
X1045Y1122D02*
X1051Y1122D01*
X1235Y1122D02*
X1268Y1122D01*
X1308Y1122D02*
X1314Y1122D01*
X1408Y1122D02*
X1414Y1122D01*
X1669Y1122D02*
X1684Y1122D01*
X1736Y1122D02*
X1742Y1122D01*
X2245Y1122D02*
X2254Y1122D01*
X1Y1121D02*
X10Y1121D01*
X363Y1121D02*
X369Y1121D01*
X392Y1121D02*
X398Y1121D01*
X445Y1121D02*
X451Y1121D01*
X474Y1121D02*
X480Y1121D01*
X497Y1121D02*
X504Y1121D01*
X655Y1121D02*
X661Y1121D01*
X887Y1121D02*
X893Y1121D01*
X1045Y1121D02*
X1051Y1121D01*
X1234Y1121D02*
X1243Y1121D01*
X1259Y1121D02*
X1268Y1121D01*
X1308Y1121D02*
X1314Y1121D01*
X1669Y1121D02*
X1675Y1121D01*
X1736Y1121D02*
X1742Y1121D01*
X2245Y1121D02*
X2254Y1121D01*
X1Y1120D02*
X10Y1120D01*
X363Y1120D02*
X369Y1120D01*
X392Y1120D02*
X398Y1120D01*
X445Y1120D02*
X451Y1120D01*
X474Y1120D02*
X480Y1120D01*
X497Y1120D02*
X504Y1120D01*
X655Y1120D02*
X661Y1120D01*
X887Y1120D02*
X893Y1120D01*
X1045Y1120D02*
X1051Y1120D01*
X1234Y1120D02*
X1242Y1120D01*
X1261Y1120D02*
X1268Y1120D01*
X1308Y1120D02*
X1314Y1120D01*
X1669Y1120D02*
X1675Y1120D01*
X1736Y1120D02*
X1742Y1120D01*
X2245Y1120D02*
X2254Y1120D01*
X1Y1119D02*
X10Y1119D01*
X363Y1119D02*
X369Y1119D01*
X392Y1119D02*
X398Y1119D01*
X445Y1119D02*
X451Y1119D01*
X474Y1119D02*
X480Y1119D01*
X497Y1119D02*
X504Y1119D01*
X655Y1119D02*
X661Y1119D01*
X887Y1119D02*
X893Y1119D01*
X1045Y1119D02*
X1051Y1119D01*
X1234Y1119D02*
X1241Y1119D01*
X1262Y1119D02*
X1269Y1119D01*
X1308Y1119D02*
X1314Y1119D01*
X1669Y1119D02*
X1675Y1119D01*
X1736Y1119D02*
X1742Y1119D01*
X2245Y1119D02*
X2254Y1119D01*
X1Y1118D02*
X10Y1118D01*
X363Y1118D02*
X369Y1118D01*
X392Y1118D02*
X398Y1118D01*
X445Y1118D02*
X451Y1118D01*
X474Y1118D02*
X480Y1118D01*
X497Y1118D02*
X504Y1118D01*
X655Y1118D02*
X661Y1118D01*
X887Y1118D02*
X893Y1118D01*
X1045Y1118D02*
X1051Y1118D01*
X1234Y1118D02*
X1240Y1118D01*
X1262Y1118D02*
X1268Y1118D01*
X1308Y1118D02*
X1314Y1118D01*
X1669Y1118D02*
X1675Y1118D01*
X1736Y1118D02*
X1742Y1118D01*
X2245Y1118D02*
X2254Y1118D01*
X1Y1117D02*
X10Y1117D01*
X363Y1117D02*
X369Y1117D01*
X392Y1117D02*
X398Y1117D01*
X445Y1117D02*
X451Y1117D01*
X474Y1117D02*
X480Y1117D01*
X497Y1117D02*
X504Y1117D01*
X655Y1117D02*
X661Y1117D01*
X887Y1117D02*
X893Y1117D01*
X1045Y1117D02*
X1051Y1117D01*
X1233Y1117D02*
X1240Y1117D01*
X1263Y1117D02*
X1268Y1117D01*
X1308Y1117D02*
X1314Y1117D01*
X1669Y1117D02*
X1675Y1117D01*
X1736Y1117D02*
X1742Y1117D01*
X2245Y1117D02*
X2254Y1117D01*
X1Y1116D02*
X10Y1116D01*
X363Y1116D02*
X369Y1116D01*
X392Y1116D02*
X398Y1116D01*
X445Y1116D02*
X451Y1116D01*
X474Y1116D02*
X480Y1116D01*
X497Y1116D02*
X504Y1116D01*
X655Y1116D02*
X661Y1116D01*
X887Y1116D02*
X893Y1116D01*
X1045Y1116D02*
X1051Y1116D01*
X1233Y1116D02*
X1240Y1116D01*
X1264Y1116D02*
X1267Y1116D01*
X1308Y1116D02*
X1314Y1116D01*
X1669Y1116D02*
X1675Y1116D01*
X1736Y1116D02*
X1742Y1116D01*
X2245Y1116D02*
X2254Y1116D01*
X1Y1115D02*
X10Y1115D01*
X363Y1115D02*
X369Y1115D01*
X392Y1115D02*
X398Y1115D01*
X445Y1115D02*
X451Y1115D01*
X474Y1115D02*
X480Y1115D01*
X497Y1115D02*
X504Y1115D01*
X655Y1115D02*
X661Y1115D01*
X887Y1115D02*
X893Y1115D01*
X1045Y1115D02*
X1051Y1115D01*
X1198Y1115D02*
X1198Y1115D01*
X1233Y1115D02*
X1240Y1115D01*
X1308Y1115D02*
X1314Y1115D01*
X1513Y1115D02*
X1513Y1115D01*
X1669Y1115D02*
X1675Y1115D01*
X1736Y1115D02*
X1742Y1115D01*
X2245Y1115D02*
X2254Y1115D01*
X1Y1114D02*
X10Y1114D01*
X363Y1114D02*
X369Y1114D01*
X392Y1114D02*
X398Y1114D01*
X445Y1114D02*
X451Y1114D01*
X474Y1114D02*
X480Y1114D01*
X497Y1114D02*
X504Y1114D01*
X655Y1114D02*
X661Y1114D01*
X887Y1114D02*
X893Y1114D01*
X1045Y1114D02*
X1051Y1114D01*
X1194Y1114D02*
X1203Y1114D01*
X1211Y1114D02*
X1215Y1114D01*
X1233Y1114D02*
X1240Y1114D01*
X1308Y1114D02*
X1314Y1114D01*
X1509Y1114D02*
X1519Y1114D01*
X1526Y1114D02*
X1530Y1114D01*
X1669Y1114D02*
X1675Y1114D01*
X1736Y1114D02*
X1742Y1114D01*
X2245Y1114D02*
X2254Y1114D01*
X1Y1113D02*
X10Y1113D01*
X363Y1113D02*
X369Y1113D01*
X392Y1113D02*
X398Y1113D01*
X445Y1113D02*
X451Y1113D01*
X474Y1113D02*
X480Y1113D01*
X497Y1113D02*
X504Y1113D01*
X613Y1113D02*
X627Y1113D01*
X655Y1113D02*
X661Y1113D01*
X669Y1113D02*
X680Y1113D01*
X767Y1113D02*
X779Y1113D01*
X791Y1113D02*
X793Y1113D01*
X823Y1113D02*
X837Y1113D01*
X873Y1113D02*
X899Y1113D01*
X925Y1113D02*
X946Y1113D01*
X979Y1113D02*
X999Y1113D01*
X1031Y1113D02*
X1056Y1113D01*
X1086Y1113D02*
X1100Y1113D01*
X1139Y1113D02*
X1153Y1113D01*
X1192Y1113D02*
X1205Y1113D01*
X1210Y1113D02*
X1216Y1113D01*
X1233Y1113D02*
X1240Y1113D01*
X1294Y1113D02*
X1319Y1113D01*
X1347Y1113D02*
X1356Y1113D01*
X1369Y1113D02*
X1371Y1113D01*
X1408Y1113D02*
X1421Y1113D01*
X1451Y1113D02*
X1463Y1113D01*
X1475Y1113D02*
X1477Y1113D01*
X1507Y1113D02*
X1520Y1113D01*
X1526Y1113D02*
X1531Y1113D01*
X1560Y1113D02*
X1573Y1113D01*
X1604Y1113D02*
X1606Y1113D01*
X1632Y1113D02*
X1634Y1113D01*
X1669Y1113D02*
X1675Y1113D01*
X1717Y1113D02*
X1728Y1113D01*
X1736Y1113D02*
X1742Y1113D01*
X2245Y1113D02*
X2254Y1113D01*
X1Y1112D02*
X10Y1112D01*
X363Y1112D02*
X369Y1112D01*
X392Y1112D02*
X398Y1112D01*
X445Y1112D02*
X451Y1112D01*
X474Y1112D02*
X480Y1112D01*
X497Y1112D02*
X504Y1112D01*
X611Y1112D02*
X629Y1112D01*
X655Y1112D02*
X661Y1112D01*
X667Y1112D02*
X682Y1112D01*
X765Y1112D02*
X780Y1112D01*
X790Y1112D02*
X795Y1112D01*
X821Y1112D02*
X840Y1112D01*
X872Y1112D02*
X900Y1112D01*
X923Y1112D02*
X948Y1112D01*
X977Y1112D02*
X1000Y1112D01*
X1030Y1112D02*
X1058Y1112D01*
X1084Y1112D02*
X1103Y1112D01*
X1136Y1112D02*
X1155Y1112D01*
X1190Y1112D02*
X1206Y1112D01*
X1210Y1112D02*
X1216Y1112D01*
X1233Y1112D02*
X1240Y1112D01*
X1293Y1112D02*
X1321Y1112D01*
X1344Y1112D02*
X1358Y1112D01*
X1368Y1112D02*
X1373Y1112D01*
X1406Y1112D02*
X1422Y1112D01*
X1448Y1112D02*
X1464Y1112D01*
X1473Y1112D02*
X1478Y1112D01*
X1506Y1112D02*
X1522Y1112D01*
X1526Y1112D02*
X1531Y1112D01*
X1557Y1112D02*
X1576Y1112D01*
X1603Y1112D02*
X1608Y1112D01*
X1631Y1112D02*
X1635Y1112D01*
X1669Y1112D02*
X1675Y1112D01*
X1715Y1112D02*
X1730Y1112D01*
X1736Y1112D02*
X1742Y1112D01*
X2245Y1112D02*
X2254Y1112D01*
X1Y1111D02*
X10Y1111D01*
X363Y1111D02*
X369Y1111D01*
X392Y1111D02*
X398Y1111D01*
X445Y1111D02*
X451Y1111D01*
X474Y1111D02*
X480Y1111D01*
X497Y1111D02*
X504Y1111D01*
X609Y1111D02*
X631Y1111D01*
X655Y1111D02*
X661Y1111D01*
X665Y1111D02*
X684Y1111D01*
X763Y1111D02*
X782Y1111D01*
X789Y1111D02*
X795Y1111D01*
X819Y1111D02*
X841Y1111D01*
X871Y1111D02*
X900Y1111D01*
X921Y1111D02*
X949Y1111D01*
X975Y1111D02*
X1000Y1111D01*
X1029Y1111D02*
X1058Y1111D01*
X1082Y1111D02*
X1104Y1111D01*
X1135Y1111D02*
X1157Y1111D01*
X1189Y1111D02*
X1207Y1111D01*
X1210Y1111D02*
X1216Y1111D01*
X1233Y1111D02*
X1240Y1111D01*
X1292Y1111D02*
X1321Y1111D01*
X1343Y1111D02*
X1360Y1111D01*
X1367Y1111D02*
X1373Y1111D01*
X1406Y1111D02*
X1423Y1111D01*
X1447Y1111D02*
X1465Y1111D01*
X1473Y1111D02*
X1479Y1111D01*
X1505Y1111D02*
X1523Y1111D01*
X1525Y1111D02*
X1532Y1111D01*
X1555Y1111D02*
X1578Y1111D01*
X1602Y1111D02*
X1608Y1111D01*
X1630Y1111D02*
X1636Y1111D01*
X1669Y1111D02*
X1675Y1111D01*
X1713Y1111D02*
X1732Y1111D01*
X1736Y1111D02*
X1742Y1111D01*
X2245Y1111D02*
X2254Y1111D01*
X1Y1110D02*
X10Y1110D01*
X363Y1110D02*
X369Y1110D01*
X392Y1110D02*
X398Y1110D01*
X445Y1110D02*
X451Y1110D01*
X474Y1110D02*
X480Y1110D01*
X497Y1110D02*
X504Y1110D01*
X608Y1110D02*
X632Y1110D01*
X655Y1110D02*
X661Y1110D01*
X664Y1110D02*
X685Y1110D01*
X762Y1110D02*
X783Y1110D01*
X789Y1110D02*
X795Y1110D01*
X818Y1110D02*
X843Y1110D01*
X871Y1110D02*
X900Y1110D01*
X920Y1110D02*
X950Y1110D01*
X974Y1110D02*
X1001Y1110D01*
X1029Y1110D02*
X1058Y1110D01*
X1081Y1110D02*
X1106Y1110D01*
X1133Y1110D02*
X1158Y1110D01*
X1188Y1110D02*
X1208Y1110D01*
X1210Y1110D02*
X1216Y1110D01*
X1233Y1110D02*
X1240Y1110D01*
X1292Y1110D02*
X1321Y1110D01*
X1342Y1110D02*
X1362Y1110D01*
X1367Y1110D02*
X1373Y1110D01*
X1406Y1110D02*
X1423Y1110D01*
X1446Y1110D02*
X1466Y1110D01*
X1473Y1110D02*
X1479Y1110D01*
X1504Y1110D02*
X1532Y1110D01*
X1554Y1110D02*
X1579Y1110D01*
X1602Y1110D02*
X1608Y1110D01*
X1630Y1110D02*
X1636Y1110D01*
X1669Y1110D02*
X1675Y1110D01*
X1712Y1110D02*
X1733Y1110D01*
X1736Y1110D02*
X1742Y1110D01*
X2245Y1110D02*
X2254Y1110D01*
X1Y1109D02*
X10Y1109D01*
X363Y1109D02*
X369Y1109D01*
X392Y1109D02*
X398Y1109D01*
X445Y1109D02*
X451Y1109D01*
X474Y1109D02*
X480Y1109D01*
X497Y1109D02*
X504Y1109D01*
X606Y1109D02*
X633Y1109D01*
X655Y1109D02*
X686Y1109D01*
X762Y1109D02*
X784Y1109D01*
X789Y1109D02*
X795Y1109D01*
X817Y1109D02*
X844Y1109D01*
X871Y1109D02*
X900Y1109D01*
X919Y1109D02*
X951Y1109D01*
X973Y1109D02*
X1000Y1109D01*
X1029Y1109D02*
X1058Y1109D01*
X1080Y1109D02*
X1107Y1109D01*
X1132Y1109D02*
X1159Y1109D01*
X1187Y1109D02*
X1216Y1109D01*
X1233Y1109D02*
X1240Y1109D01*
X1292Y1109D02*
X1321Y1109D01*
X1341Y1109D02*
X1363Y1109D01*
X1367Y1109D02*
X1373Y1109D01*
X1406Y1109D02*
X1423Y1109D01*
X1445Y1109D02*
X1468Y1109D01*
X1473Y1109D02*
X1479Y1109D01*
X1503Y1109D02*
X1532Y1109D01*
X1553Y1109D02*
X1580Y1109D01*
X1602Y1109D02*
X1608Y1109D01*
X1630Y1109D02*
X1636Y1109D01*
X1669Y1109D02*
X1675Y1109D01*
X1711Y1109D02*
X1742Y1109D01*
X2245Y1109D02*
X2254Y1109D01*
X1Y1108D02*
X10Y1108D01*
X363Y1108D02*
X369Y1108D01*
X392Y1108D02*
X398Y1108D01*
X445Y1108D02*
X451Y1108D01*
X474Y1108D02*
X480Y1108D01*
X497Y1108D02*
X504Y1108D01*
X606Y1108D02*
X634Y1108D01*
X655Y1108D02*
X687Y1108D01*
X761Y1108D02*
X785Y1108D01*
X789Y1108D02*
X795Y1108D01*
X816Y1108D02*
X845Y1108D01*
X872Y1108D02*
X900Y1108D01*
X919Y1108D02*
X951Y1108D01*
X972Y1108D02*
X1000Y1108D01*
X1029Y1108D02*
X1058Y1108D01*
X1079Y1108D02*
X1108Y1108D01*
X1131Y1108D02*
X1160Y1108D01*
X1186Y1108D02*
X1216Y1108D01*
X1233Y1108D02*
X1240Y1108D01*
X1292Y1108D02*
X1321Y1108D01*
X1340Y1108D02*
X1365Y1108D01*
X1367Y1108D02*
X1373Y1108D01*
X1406Y1108D02*
X1422Y1108D01*
X1445Y1108D02*
X1469Y1108D01*
X1473Y1108D02*
X1479Y1108D01*
X1501Y1108D02*
X1532Y1108D01*
X1552Y1108D02*
X1581Y1108D01*
X1602Y1108D02*
X1608Y1108D01*
X1630Y1108D02*
X1636Y1108D01*
X1669Y1108D02*
X1675Y1108D01*
X1710Y1108D02*
X1742Y1108D01*
X2245Y1108D02*
X2254Y1108D01*
X1Y1107D02*
X10Y1107D01*
X363Y1107D02*
X369Y1107D01*
X392Y1107D02*
X398Y1107D01*
X445Y1107D02*
X451Y1107D01*
X474Y1107D02*
X480Y1107D01*
X497Y1107D02*
X504Y1107D01*
X605Y1107D02*
X635Y1107D01*
X655Y1107D02*
X688Y1107D01*
X761Y1107D02*
X786Y1107D01*
X789Y1107D02*
X795Y1107D01*
X815Y1107D02*
X845Y1107D01*
X873Y1107D02*
X899Y1107D01*
X919Y1107D02*
X952Y1107D01*
X971Y1107D02*
X999Y1107D01*
X1030Y1107D02*
X1057Y1107D01*
X1078Y1107D02*
X1108Y1107D01*
X1131Y1107D02*
X1161Y1107D01*
X1185Y1107D02*
X1195Y1107D01*
X1202Y1107D02*
X1216Y1107D01*
X1233Y1107D02*
X1240Y1107D01*
X1250Y1107D02*
X1260Y1107D01*
X1293Y1107D02*
X1320Y1107D01*
X1340Y1107D02*
X1373Y1107D01*
X1406Y1107D02*
X1421Y1107D01*
X1444Y1107D02*
X1470Y1107D01*
X1473Y1107D02*
X1479Y1107D01*
X1500Y1107D02*
X1511Y1107D01*
X1517Y1107D02*
X1532Y1107D01*
X1551Y1107D02*
X1582Y1107D01*
X1602Y1107D02*
X1608Y1107D01*
X1630Y1107D02*
X1636Y1107D01*
X1669Y1107D02*
X1675Y1107D01*
X1709Y1107D02*
X1742Y1107D01*
X2245Y1107D02*
X2254Y1107D01*
X1Y1106D02*
X10Y1106D01*
X363Y1106D02*
X369Y1106D01*
X392Y1106D02*
X398Y1106D01*
X445Y1106D02*
X451Y1106D01*
X474Y1106D02*
X480Y1106D01*
X497Y1106D02*
X504Y1106D01*
X604Y1106D02*
X614Y1106D01*
X626Y1106D02*
X636Y1106D01*
X655Y1106D02*
X670Y1106D01*
X678Y1106D02*
X689Y1106D01*
X760Y1106D02*
X769Y1106D01*
X777Y1106D02*
X787Y1106D01*
X789Y1106D02*
X795Y1106D01*
X814Y1106D02*
X824Y1106D01*
X836Y1106D02*
X846Y1106D01*
X887Y1106D02*
X894Y1106D01*
X919Y1106D02*
X927Y1106D01*
X945Y1106D02*
X952Y1106D01*
X971Y1106D02*
X979Y1106D01*
X1045Y1106D02*
X1051Y1106D01*
X1077Y1106D02*
X1087Y1106D01*
X1099Y1106D02*
X1109Y1106D01*
X1130Y1106D02*
X1140Y1106D01*
X1152Y1106D02*
X1162Y1106D01*
X1184Y1106D02*
X1194Y1106D01*
X1203Y1106D02*
X1216Y1106D01*
X1233Y1106D02*
X1240Y1106D01*
X1249Y1106D02*
X1263Y1106D01*
X1307Y1106D02*
X1314Y1106D01*
X1340Y1106D02*
X1348Y1106D01*
X1355Y1106D02*
X1373Y1106D01*
X1406Y1106D02*
X1412Y1106D01*
X1444Y1106D02*
X1453Y1106D01*
X1461Y1106D02*
X1479Y1106D01*
X1500Y1106D02*
X1509Y1106D01*
X1518Y1106D02*
X1532Y1106D01*
X1551Y1106D02*
X1561Y1106D01*
X1572Y1106D02*
X1582Y1106D01*
X1602Y1106D02*
X1608Y1106D01*
X1630Y1106D02*
X1636Y1106D01*
X1669Y1106D02*
X1675Y1106D01*
X1708Y1106D02*
X1719Y1106D01*
X1727Y1106D02*
X1742Y1106D01*
X2245Y1106D02*
X2254Y1106D01*
X1Y1105D02*
X10Y1105D01*
X363Y1105D02*
X369Y1105D01*
X392Y1105D02*
X398Y1105D01*
X445Y1105D02*
X451Y1105D01*
X474Y1105D02*
X480Y1105D01*
X497Y1105D02*
X504Y1105D01*
X604Y1105D02*
X612Y1105D01*
X628Y1105D02*
X636Y1105D01*
X655Y1105D02*
X669Y1105D01*
X680Y1105D02*
X689Y1105D01*
X760Y1105D02*
X767Y1105D01*
X778Y1105D02*
X795Y1105D01*
X814Y1105D02*
X822Y1105D01*
X838Y1105D02*
X847Y1105D01*
X887Y1105D02*
X893Y1105D01*
X919Y1105D02*
X925Y1105D01*
X946Y1105D02*
X952Y1105D01*
X971Y1105D02*
X978Y1105D01*
X1045Y1105D02*
X1051Y1105D01*
X1077Y1105D02*
X1085Y1105D01*
X1101Y1105D02*
X1110Y1105D01*
X1129Y1105D02*
X1138Y1105D01*
X1154Y1105D02*
X1162Y1105D01*
X1183Y1105D02*
X1193Y1105D01*
X1204Y1105D02*
X1216Y1105D01*
X1233Y1105D02*
X1240Y1105D01*
X1248Y1105D02*
X1264Y1105D01*
X1308Y1105D02*
X1314Y1105D01*
X1339Y1105D02*
X1346Y1105D01*
X1357Y1105D02*
X1373Y1105D01*
X1406Y1105D02*
X1412Y1105D01*
X1444Y1105D02*
X1451Y1105D01*
X1462Y1105D02*
X1479Y1105D01*
X1499Y1105D02*
X1508Y1105D01*
X1519Y1105D02*
X1532Y1105D01*
X1550Y1105D02*
X1559Y1105D01*
X1574Y1105D02*
X1583Y1105D01*
X1602Y1105D02*
X1608Y1105D01*
X1630Y1105D02*
X1636Y1105D01*
X1669Y1105D02*
X1675Y1105D01*
X1708Y1105D02*
X1717Y1105D01*
X1728Y1105D02*
X1742Y1105D01*
X2245Y1105D02*
X2254Y1105D01*
X1Y1104D02*
X10Y1104D01*
X346Y1104D02*
X369Y1104D01*
X392Y1104D02*
X421Y1104D01*
X445Y1104D02*
X451Y1104D01*
X474Y1104D02*
X480Y1104D01*
X497Y1104D02*
X527Y1104D01*
X603Y1104D02*
X611Y1104D01*
X629Y1104D02*
X637Y1104D01*
X655Y1104D02*
X667Y1104D01*
X682Y1104D02*
X690Y1104D01*
X760Y1104D02*
X767Y1104D01*
X779Y1104D02*
X795Y1104D01*
X813Y1104D02*
X821Y1104D01*
X839Y1104D02*
X847Y1104D01*
X887Y1104D02*
X893Y1104D01*
X920Y1104D02*
X924Y1104D01*
X946Y1104D02*
X952Y1104D01*
X971Y1104D02*
X977Y1104D01*
X1045Y1104D02*
X1051Y1104D01*
X1076Y1104D02*
X1084Y1104D01*
X1102Y1104D02*
X1110Y1104D01*
X1129Y1104D02*
X1137Y1104D01*
X1155Y1104D02*
X1163Y1104D01*
X1182Y1104D02*
X1192Y1104D01*
X1205Y1104D02*
X1216Y1104D01*
X1233Y1104D02*
X1240Y1104D01*
X1248Y1104D02*
X1265Y1104D01*
X1308Y1104D02*
X1314Y1104D01*
X1339Y1104D02*
X1346Y1104D01*
X1358Y1104D02*
X1373Y1104D01*
X1406Y1104D02*
X1412Y1104D01*
X1444Y1104D02*
X1450Y1104D01*
X1463Y1104D02*
X1479Y1104D01*
X1498Y1104D02*
X1507Y1104D01*
X1520Y1104D02*
X1532Y1104D01*
X1550Y1104D02*
X1557Y1104D01*
X1576Y1104D02*
X1583Y1104D01*
X1602Y1104D02*
X1608Y1104D01*
X1630Y1104D02*
X1636Y1104D01*
X1669Y1104D02*
X1675Y1104D01*
X1707Y1104D02*
X1715Y1104D01*
X1730Y1104D02*
X1742Y1104D01*
X2245Y1104D02*
X2254Y1104D01*
X1Y1103D02*
X10Y1103D01*
X344Y1103D02*
X369Y1103D01*
X392Y1103D02*
X424Y1103D01*
X445Y1103D02*
X451Y1103D01*
X474Y1103D02*
X480Y1103D01*
X497Y1103D02*
X529Y1103D01*
X603Y1103D02*
X610Y1103D01*
X630Y1103D02*
X637Y1103D01*
X655Y1103D02*
X666Y1103D01*
X683Y1103D02*
X690Y1103D01*
X760Y1103D02*
X766Y1103D01*
X781Y1103D02*
X795Y1103D01*
X813Y1103D02*
X820Y1103D01*
X840Y1103D02*
X847Y1103D01*
X887Y1103D02*
X893Y1103D01*
X946Y1103D02*
X952Y1103D01*
X970Y1103D02*
X977Y1103D01*
X1045Y1103D02*
X1051Y1103D01*
X1076Y1103D02*
X1083Y1103D01*
X1103Y1103D02*
X1110Y1103D01*
X1129Y1103D02*
X1136Y1103D01*
X1156Y1103D02*
X1163Y1103D01*
X1182Y1103D02*
X1190Y1103D01*
X1206Y1103D02*
X1216Y1103D01*
X1233Y1103D02*
X1240Y1103D01*
X1248Y1103D02*
X1266Y1103D01*
X1308Y1103D02*
X1314Y1103D01*
X1339Y1103D02*
X1345Y1103D01*
X1360Y1103D02*
X1373Y1103D01*
X1406Y1103D02*
X1412Y1103D01*
X1444Y1103D02*
X1450Y1103D01*
X1464Y1103D02*
X1479Y1103D01*
X1497Y1103D02*
X1506Y1103D01*
X1521Y1103D02*
X1532Y1103D01*
X1549Y1103D02*
X1556Y1103D01*
X1576Y1103D02*
X1584Y1103D01*
X1602Y1103D02*
X1608Y1103D01*
X1630Y1103D02*
X1636Y1103D01*
X1669Y1103D02*
X1675Y1103D01*
X1707Y1103D02*
X1714Y1103D01*
X1731Y1103D02*
X1742Y1103D01*
X2245Y1103D02*
X2254Y1103D01*
X1Y1102D02*
X10Y1102D01*
X343Y1102D02*
X369Y1102D01*
X392Y1102D02*
X425Y1102D01*
X445Y1102D02*
X451Y1102D01*
X474Y1102D02*
X480Y1102D01*
X498Y1102D02*
X530Y1102D01*
X603Y1102D02*
X609Y1102D01*
X631Y1102D02*
X637Y1102D01*
X655Y1102D02*
X665Y1102D01*
X683Y1102D02*
X690Y1102D01*
X760Y1102D02*
X766Y1102D01*
X782Y1102D02*
X795Y1102D01*
X813Y1102D02*
X819Y1102D01*
X841Y1102D02*
X848Y1102D01*
X887Y1102D02*
X893Y1102D01*
X944Y1102D02*
X952Y1102D01*
X970Y1102D02*
X977Y1102D01*
X1045Y1102D02*
X1051Y1102D01*
X1076Y1102D02*
X1082Y1102D01*
X1104Y1102D02*
X1111Y1102D01*
X1128Y1102D02*
X1135Y1102D01*
X1157Y1102D02*
X1163Y1102D01*
X1181Y1102D02*
X1189Y1102D01*
X1207Y1102D02*
X1216Y1102D01*
X1233Y1102D02*
X1240Y1102D01*
X1248Y1102D02*
X1267Y1102D01*
X1308Y1102D02*
X1314Y1102D01*
X1339Y1102D02*
X1345Y1102D01*
X1362Y1102D02*
X1373Y1102D01*
X1406Y1102D02*
X1412Y1102D01*
X1444Y1102D02*
X1450Y1102D01*
X1465Y1102D02*
X1479Y1102D01*
X1497Y1102D02*
X1505Y1102D01*
X1522Y1102D02*
X1532Y1102D01*
X1549Y1102D02*
X1556Y1102D01*
X1577Y1102D02*
X1584Y1102D01*
X1602Y1102D02*
X1608Y1102D01*
X1630Y1102D02*
X1636Y1102D01*
X1669Y1102D02*
X1675Y1102D01*
X1707Y1102D02*
X1714Y1102D01*
X1732Y1102D02*
X1742Y1102D01*
X2245Y1102D02*
X2254Y1102D01*
X1Y1101D02*
X10Y1101D01*
X342Y1101D02*
X369Y1101D01*
X393Y1101D02*
X426Y1101D01*
X445Y1101D02*
X451Y1101D01*
X474Y1101D02*
X480Y1101D01*
X498Y1101D02*
X531Y1101D01*
X602Y1101D02*
X609Y1101D01*
X631Y1101D02*
X637Y1101D01*
X655Y1101D02*
X664Y1101D01*
X684Y1101D02*
X690Y1101D01*
X760Y1101D02*
X766Y1101D01*
X783Y1101D02*
X795Y1101D01*
X813Y1101D02*
X819Y1101D01*
X841Y1101D02*
X848Y1101D01*
X887Y1101D02*
X893Y1101D01*
X942Y1101D02*
X952Y1101D01*
X970Y1101D02*
X977Y1101D01*
X1045Y1101D02*
X1051Y1101D01*
X1076Y1101D02*
X1082Y1101D01*
X1104Y1101D02*
X1111Y1101D01*
X1128Y1101D02*
X1135Y1101D01*
X1157Y1101D02*
X1163Y1101D01*
X1181Y1101D02*
X1188Y1101D01*
X1208Y1101D02*
X1216Y1101D01*
X1233Y1101D02*
X1240Y1101D01*
X1248Y1101D02*
X1268Y1101D01*
X1308Y1101D02*
X1314Y1101D01*
X1339Y1101D02*
X1345Y1101D01*
X1363Y1101D02*
X1373Y1101D01*
X1406Y1101D02*
X1412Y1101D01*
X1444Y1101D02*
X1450Y1101D01*
X1467Y1101D02*
X1479Y1101D01*
X1497Y1101D02*
X1504Y1101D01*
X1523Y1101D02*
X1532Y1101D01*
X1549Y1101D02*
X1555Y1101D01*
X1578Y1101D02*
X1584Y1101D01*
X1602Y1101D02*
X1608Y1101D01*
X1630Y1101D02*
X1636Y1101D01*
X1669Y1101D02*
X1675Y1101D01*
X1707Y1101D02*
X1713Y1101D01*
X1733Y1101D02*
X1742Y1101D01*
X2245Y1101D02*
X2254Y1101D01*
X1Y1100D02*
X10Y1100D01*
X342Y1100D02*
X369Y1100D01*
X393Y1100D02*
X426Y1100D01*
X445Y1100D02*
X451Y1100D01*
X474Y1100D02*
X480Y1100D01*
X499Y1100D02*
X532Y1100D01*
X602Y1100D02*
X609Y1100D01*
X631Y1100D02*
X638Y1100D01*
X655Y1100D02*
X663Y1100D01*
X684Y1100D02*
X690Y1100D01*
X760Y1100D02*
X766Y1100D01*
X784Y1100D02*
X795Y1100D01*
X813Y1100D02*
X819Y1100D01*
X842Y1100D02*
X848Y1100D01*
X887Y1100D02*
X893Y1100D01*
X939Y1100D02*
X951Y1100D01*
X970Y1100D02*
X977Y1100D01*
X1045Y1100D02*
X1051Y1100D01*
X1076Y1100D02*
X1082Y1100D01*
X1104Y1100D02*
X1111Y1100D01*
X1128Y1100D02*
X1135Y1100D01*
X1157Y1100D02*
X1163Y1100D01*
X1181Y1100D02*
X1188Y1100D01*
X1209Y1100D02*
X1216Y1100D01*
X1233Y1100D02*
X1240Y1100D01*
X1248Y1100D02*
X1268Y1100D01*
X1308Y1100D02*
X1314Y1100D01*
X1339Y1100D02*
X1345Y1100D01*
X1365Y1100D02*
X1373Y1100D01*
X1406Y1100D02*
X1412Y1100D01*
X1444Y1100D02*
X1450Y1100D01*
X1468Y1100D02*
X1479Y1100D01*
X1496Y1100D02*
X1503Y1100D01*
X1524Y1100D02*
X1532Y1100D01*
X1549Y1100D02*
X1555Y1100D01*
X1578Y1100D02*
X1584Y1100D01*
X1602Y1100D02*
X1608Y1100D01*
X1630Y1100D02*
X1636Y1100D01*
X1669Y1100D02*
X1675Y1100D01*
X1707Y1100D02*
X1713Y1100D01*
X1734Y1100D02*
X1742Y1100D01*
X2245Y1100D02*
X2254Y1100D01*
X1Y1099D02*
X10Y1099D01*
X341Y1099D02*
X369Y1099D01*
X394Y1099D02*
X427Y1099D01*
X445Y1099D02*
X451Y1099D01*
X474Y1099D02*
X480Y1099D01*
X499Y1099D02*
X532Y1099D01*
X602Y1099D02*
X609Y1099D01*
X631Y1099D02*
X638Y1099D01*
X655Y1099D02*
X662Y1099D01*
X684Y1099D02*
X690Y1099D01*
X761Y1099D02*
X766Y1099D01*
X785Y1099D02*
X795Y1099D01*
X813Y1099D02*
X819Y1099D01*
X842Y1099D02*
X848Y1099D01*
X887Y1099D02*
X893Y1099D01*
X937Y1099D02*
X951Y1099D01*
X970Y1099D02*
X977Y1099D01*
X1045Y1099D02*
X1051Y1099D01*
X1076Y1099D02*
X1082Y1099D01*
X1104Y1099D02*
X1111Y1099D01*
X1128Y1099D02*
X1135Y1099D01*
X1157Y1099D02*
X1163Y1099D01*
X1181Y1099D02*
X1187Y1099D01*
X1209Y1099D02*
X1216Y1099D01*
X1233Y1099D02*
X1240Y1099D01*
X1248Y1099D02*
X1254Y1099D01*
X1261Y1099D02*
X1268Y1099D01*
X1308Y1099D02*
X1314Y1099D01*
X1339Y1099D02*
X1345Y1099D01*
X1366Y1099D02*
X1373Y1099D01*
X1406Y1099D02*
X1412Y1099D01*
X1444Y1099D02*
X1449Y1099D01*
X1469Y1099D02*
X1479Y1099D01*
X1496Y1099D02*
X1503Y1099D01*
X1525Y1099D02*
X1532Y1099D01*
X1549Y1099D02*
X1555Y1099D01*
X1578Y1099D02*
X1584Y1099D01*
X1602Y1099D02*
X1608Y1099D01*
X1630Y1099D02*
X1636Y1099D01*
X1669Y1099D02*
X1675Y1099D01*
X1707Y1099D02*
X1713Y1099D01*
X1735Y1099D02*
X1742Y1099D01*
X2245Y1099D02*
X2254Y1099D01*
X1Y1098D02*
X10Y1098D01*
X341Y1098D02*
X369Y1098D01*
X396Y1098D02*
X427Y1098D01*
X445Y1098D02*
X451Y1098D01*
X474Y1098D02*
X480Y1098D01*
X501Y1098D02*
X532Y1098D01*
X602Y1098D02*
X609Y1098D01*
X631Y1098D02*
X638Y1098D01*
X655Y1098D02*
X662Y1098D01*
X684Y1098D02*
X690Y1098D01*
X762Y1098D02*
X764Y1098D01*
X786Y1098D02*
X795Y1098D01*
X813Y1098D02*
X819Y1098D01*
X842Y1098D02*
X848Y1098D01*
X887Y1098D02*
X893Y1098D01*
X935Y1098D02*
X950Y1098D01*
X970Y1098D02*
X977Y1098D01*
X982Y1098D02*
X995Y1098D01*
X1045Y1098D02*
X1051Y1098D01*
X1076Y1098D02*
X1082Y1098D01*
X1104Y1098D02*
X1111Y1098D01*
X1128Y1098D02*
X1135Y1098D01*
X1157Y1098D02*
X1163Y1098D01*
X1181Y1098D02*
X1187Y1098D01*
X1210Y1098D02*
X1216Y1098D01*
X1233Y1098D02*
X1240Y1098D01*
X1248Y1098D02*
X1254Y1098D01*
X1262Y1098D02*
X1268Y1098D01*
X1308Y1098D02*
X1314Y1098D01*
X1339Y1098D02*
X1345Y1098D01*
X1367Y1098D02*
X1373Y1098D01*
X1406Y1098D02*
X1412Y1098D01*
X1446Y1098D02*
X1448Y1098D01*
X1470Y1098D02*
X1479Y1098D01*
X1496Y1098D02*
X1503Y1098D01*
X1525Y1098D02*
X1532Y1098D01*
X1549Y1098D02*
X1555Y1098D01*
X1578Y1098D02*
X1584Y1098D01*
X1602Y1098D02*
X1608Y1098D01*
X1630Y1098D02*
X1636Y1098D01*
X1669Y1098D02*
X1675Y1098D01*
X1707Y1098D02*
X1713Y1098D01*
X1735Y1098D02*
X1742Y1098D01*
X2245Y1098D02*
X2254Y1098D01*
X1Y1097D02*
X10Y1097D01*
X341Y1097D02*
X369Y1097D01*
X398Y1097D02*
X427Y1097D01*
X445Y1097D02*
X451Y1097D01*
X474Y1097D02*
X480Y1097D01*
X504Y1097D02*
X532Y1097D01*
X602Y1097D02*
X609Y1097D01*
X631Y1097D02*
X638Y1097D01*
X655Y1097D02*
X661Y1097D01*
X684Y1097D02*
X690Y1097D01*
X788Y1097D02*
X795Y1097D01*
X813Y1097D02*
X819Y1097D01*
X842Y1097D02*
X848Y1097D01*
X887Y1097D02*
X893Y1097D01*
X932Y1097D02*
X949Y1097D01*
X970Y1097D02*
X999Y1097D01*
X1045Y1097D02*
X1051Y1097D01*
X1076Y1097D02*
X1082Y1097D01*
X1104Y1097D02*
X1111Y1097D01*
X1128Y1097D02*
X1135Y1097D01*
X1157Y1097D02*
X1163Y1097D01*
X1181Y1097D02*
X1187Y1097D01*
X1210Y1097D02*
X1216Y1097D01*
X1233Y1097D02*
X1240Y1097D01*
X1248Y1097D02*
X1254Y1097D01*
X1262Y1097D02*
X1269Y1097D01*
X1308Y1097D02*
X1314Y1097D01*
X1339Y1097D02*
X1345Y1097D01*
X1367Y1097D02*
X1373Y1097D01*
X1406Y1097D02*
X1412Y1097D01*
X1471Y1097D02*
X1479Y1097D01*
X1496Y1097D02*
X1503Y1097D01*
X1525Y1097D02*
X1532Y1097D01*
X1549Y1097D02*
X1555Y1097D01*
X1578Y1097D02*
X1584Y1097D01*
X1602Y1097D02*
X1608Y1097D01*
X1630Y1097D02*
X1636Y1097D01*
X1669Y1097D02*
X1675Y1097D01*
X1707Y1097D02*
X1713Y1097D01*
X1736Y1097D02*
X1742Y1097D01*
X2245Y1097D02*
X2254Y1097D01*
X1Y1096D02*
X10Y1096D01*
X341Y1096D02*
X347Y1096D01*
X421Y1096D02*
X427Y1096D01*
X445Y1096D02*
X451Y1096D01*
X474Y1096D02*
X480Y1096D01*
X526Y1096D02*
X532Y1096D01*
X602Y1096D02*
X638Y1096D01*
X655Y1096D02*
X661Y1096D01*
X684Y1096D02*
X690Y1096D01*
X789Y1096D02*
X795Y1096D01*
X813Y1096D02*
X848Y1096D01*
X887Y1096D02*
X893Y1096D01*
X930Y1096D02*
X947Y1096D01*
X970Y1096D02*
X1001Y1096D01*
X1045Y1096D02*
X1051Y1096D01*
X1076Y1096D02*
X1111Y1096D01*
X1128Y1096D02*
X1135Y1096D01*
X1157Y1096D02*
X1163Y1096D01*
X1181Y1096D02*
X1187Y1096D01*
X1210Y1096D02*
X1216Y1096D01*
X1233Y1096D02*
X1240Y1096D01*
X1248Y1096D02*
X1254Y1096D01*
X1262Y1096D02*
X1269Y1096D01*
X1308Y1096D02*
X1314Y1096D01*
X1339Y1096D02*
X1345Y1096D01*
X1367Y1096D02*
X1373Y1096D01*
X1406Y1096D02*
X1412Y1096D01*
X1472Y1096D02*
X1479Y1096D01*
X1496Y1096D02*
X1503Y1096D01*
X1525Y1096D02*
X1532Y1096D01*
X1549Y1096D02*
X1584Y1096D01*
X1602Y1096D02*
X1608Y1096D01*
X1630Y1096D02*
X1636Y1096D01*
X1669Y1096D02*
X1675Y1096D01*
X1707Y1096D02*
X1713Y1096D01*
X1736Y1096D02*
X1742Y1096D01*
X2245Y1096D02*
X2254Y1096D01*
X1Y1095D02*
X10Y1095D01*
X341Y1095D02*
X347Y1095D01*
X421Y1095D02*
X427Y1095D01*
X445Y1095D02*
X451Y1095D01*
X474Y1095D02*
X480Y1095D01*
X526Y1095D02*
X532Y1095D01*
X602Y1095D02*
X638Y1095D01*
X655Y1095D02*
X661Y1095D01*
X684Y1095D02*
X690Y1095D01*
X789Y1095D02*
X795Y1095D01*
X813Y1095D02*
X848Y1095D01*
X887Y1095D02*
X893Y1095D01*
X928Y1095D02*
X945Y1095D01*
X970Y1095D02*
X1002Y1095D01*
X1045Y1095D02*
X1051Y1095D01*
X1076Y1095D02*
X1111Y1095D01*
X1128Y1095D02*
X1135Y1095D01*
X1157Y1095D02*
X1163Y1095D01*
X1181Y1095D02*
X1187Y1095D01*
X1210Y1095D02*
X1216Y1095D01*
X1233Y1095D02*
X1240Y1095D01*
X1248Y1095D02*
X1254Y1095D01*
X1262Y1095D02*
X1269Y1095D01*
X1308Y1095D02*
X1314Y1095D01*
X1339Y1095D02*
X1345Y1095D01*
X1367Y1095D02*
X1373Y1095D01*
X1406Y1095D02*
X1412Y1095D01*
X1473Y1095D02*
X1479Y1095D01*
X1496Y1095D02*
X1503Y1095D01*
X1525Y1095D02*
X1532Y1095D01*
X1549Y1095D02*
X1584Y1095D01*
X1602Y1095D02*
X1608Y1095D01*
X1630Y1095D02*
X1636Y1095D01*
X1669Y1095D02*
X1675Y1095D01*
X1707Y1095D02*
X1713Y1095D01*
X1736Y1095D02*
X1742Y1095D01*
X2245Y1095D02*
X2254Y1095D01*
X1Y1094D02*
X10Y1094D01*
X341Y1094D02*
X347Y1094D01*
X421Y1094D02*
X427Y1094D01*
X445Y1094D02*
X451Y1094D01*
X474Y1094D02*
X480Y1094D01*
X526Y1094D02*
X532Y1094D01*
X602Y1094D02*
X638Y1094D01*
X655Y1094D02*
X661Y1094D01*
X684Y1094D02*
X690Y1094D01*
X789Y1094D02*
X795Y1094D01*
X813Y1094D02*
X848Y1094D01*
X887Y1094D02*
X893Y1094D01*
X926Y1094D02*
X943Y1094D01*
X970Y1094D02*
X1003Y1094D01*
X1045Y1094D02*
X1051Y1094D01*
X1076Y1094D02*
X1111Y1094D01*
X1128Y1094D02*
X1135Y1094D01*
X1157Y1094D02*
X1163Y1094D01*
X1181Y1094D02*
X1187Y1094D01*
X1210Y1094D02*
X1216Y1094D01*
X1233Y1094D02*
X1240Y1094D01*
X1248Y1094D02*
X1254Y1094D01*
X1262Y1094D02*
X1269Y1094D01*
X1308Y1094D02*
X1314Y1094D01*
X1339Y1094D02*
X1345Y1094D01*
X1367Y1094D02*
X1373Y1094D01*
X1406Y1094D02*
X1412Y1094D01*
X1473Y1094D02*
X1479Y1094D01*
X1496Y1094D02*
X1503Y1094D01*
X1525Y1094D02*
X1532Y1094D01*
X1549Y1094D02*
X1584Y1094D01*
X1602Y1094D02*
X1608Y1094D01*
X1630Y1094D02*
X1636Y1094D01*
X1669Y1094D02*
X1675Y1094D01*
X1707Y1094D02*
X1713Y1094D01*
X1736Y1094D02*
X1742Y1094D01*
X2245Y1094D02*
X2254Y1094D01*
X1Y1093D02*
X10Y1093D01*
X341Y1093D02*
X347Y1093D01*
X421Y1093D02*
X427Y1093D01*
X445Y1093D02*
X451Y1093D01*
X474Y1093D02*
X480Y1093D01*
X526Y1093D02*
X532Y1093D01*
X602Y1093D02*
X638Y1093D01*
X655Y1093D02*
X661Y1093D01*
X684Y1093D02*
X690Y1093D01*
X789Y1093D02*
X795Y1093D01*
X813Y1093D02*
X848Y1093D01*
X887Y1093D02*
X893Y1093D01*
X924Y1093D02*
X941Y1093D01*
X970Y1093D02*
X1004Y1093D01*
X1045Y1093D02*
X1051Y1093D01*
X1076Y1093D02*
X1111Y1093D01*
X1128Y1093D02*
X1135Y1093D01*
X1157Y1093D02*
X1163Y1093D01*
X1181Y1093D02*
X1187Y1093D01*
X1210Y1093D02*
X1216Y1093D01*
X1233Y1093D02*
X1240Y1093D01*
X1248Y1093D02*
X1254Y1093D01*
X1262Y1093D02*
X1269Y1093D01*
X1308Y1093D02*
X1314Y1093D01*
X1339Y1093D02*
X1345Y1093D01*
X1367Y1093D02*
X1373Y1093D01*
X1406Y1093D02*
X1412Y1093D01*
X1473Y1093D02*
X1479Y1093D01*
X1496Y1093D02*
X1503Y1093D01*
X1525Y1093D02*
X1532Y1093D01*
X1549Y1093D02*
X1584Y1093D01*
X1602Y1093D02*
X1608Y1093D01*
X1630Y1093D02*
X1636Y1093D01*
X1669Y1093D02*
X1675Y1093D01*
X1707Y1093D02*
X1713Y1093D01*
X1736Y1093D02*
X1742Y1093D01*
X2245Y1093D02*
X2254Y1093D01*
X1Y1092D02*
X10Y1092D01*
X341Y1092D02*
X347Y1092D01*
X421Y1092D02*
X427Y1092D01*
X445Y1092D02*
X451Y1092D01*
X474Y1092D02*
X480Y1092D01*
X526Y1092D02*
X532Y1092D01*
X602Y1092D02*
X638Y1092D01*
X655Y1092D02*
X661Y1092D01*
X684Y1092D02*
X690Y1092D01*
X789Y1092D02*
X795Y1092D01*
X813Y1092D02*
X848Y1092D01*
X887Y1092D02*
X893Y1092D01*
X922Y1092D02*
X938Y1092D01*
X970Y1092D02*
X1004Y1092D01*
X1045Y1092D02*
X1051Y1092D01*
X1076Y1092D02*
X1111Y1092D01*
X1128Y1092D02*
X1135Y1092D01*
X1157Y1092D02*
X1163Y1092D01*
X1181Y1092D02*
X1187Y1092D01*
X1210Y1092D02*
X1216Y1092D01*
X1233Y1092D02*
X1240Y1092D01*
X1248Y1092D02*
X1254Y1092D01*
X1262Y1092D02*
X1269Y1092D01*
X1308Y1092D02*
X1314Y1092D01*
X1339Y1092D02*
X1345Y1092D01*
X1367Y1092D02*
X1373Y1092D01*
X1406Y1092D02*
X1412Y1092D01*
X1473Y1092D02*
X1479Y1092D01*
X1496Y1092D02*
X1503Y1092D01*
X1525Y1092D02*
X1532Y1092D01*
X1549Y1092D02*
X1584Y1092D01*
X1602Y1092D02*
X1608Y1092D01*
X1630Y1092D02*
X1636Y1092D01*
X1669Y1092D02*
X1675Y1092D01*
X1707Y1092D02*
X1713Y1092D01*
X1736Y1092D02*
X1742Y1092D01*
X2245Y1092D02*
X2254Y1092D01*
X1Y1091D02*
X10Y1091D01*
X341Y1091D02*
X347Y1091D01*
X421Y1091D02*
X427Y1091D01*
X445Y1091D02*
X451Y1091D01*
X474Y1091D02*
X480Y1091D01*
X526Y1091D02*
X532Y1091D01*
X603Y1091D02*
X638Y1091D01*
X655Y1091D02*
X661Y1091D01*
X684Y1091D02*
X690Y1091D01*
X721Y1091D02*
X729Y1091D01*
X789Y1091D02*
X795Y1091D01*
X813Y1091D02*
X848Y1091D01*
X887Y1091D02*
X893Y1091D01*
X921Y1091D02*
X936Y1091D01*
X970Y1091D02*
X980Y1091D01*
X996Y1091D02*
X1005Y1091D01*
X1045Y1091D02*
X1051Y1091D01*
X1076Y1091D02*
X1111Y1091D01*
X1128Y1091D02*
X1135Y1091D01*
X1157Y1091D02*
X1163Y1091D01*
X1181Y1091D02*
X1187Y1091D01*
X1210Y1091D02*
X1216Y1091D01*
X1233Y1091D02*
X1240Y1091D01*
X1248Y1091D02*
X1254Y1091D01*
X1262Y1091D02*
X1269Y1091D01*
X1308Y1091D02*
X1314Y1091D01*
X1339Y1091D02*
X1345Y1091D01*
X1367Y1091D02*
X1373Y1091D01*
X1406Y1091D02*
X1412Y1091D01*
X1473Y1091D02*
X1479Y1091D01*
X1496Y1091D02*
X1503Y1091D01*
X1525Y1091D02*
X1532Y1091D01*
X1549Y1091D02*
X1584Y1091D01*
X1602Y1091D02*
X1608Y1091D01*
X1630Y1091D02*
X1636Y1091D01*
X1669Y1091D02*
X1675Y1091D01*
X1707Y1091D02*
X1713Y1091D01*
X1736Y1091D02*
X1742Y1091D01*
X2245Y1091D02*
X2254Y1091D01*
X1Y1090D02*
X10Y1090D01*
X341Y1090D02*
X347Y1090D01*
X421Y1090D02*
X427Y1090D01*
X445Y1090D02*
X451Y1090D01*
X474Y1090D02*
X480Y1090D01*
X526Y1090D02*
X532Y1090D01*
X604Y1090D02*
X638Y1090D01*
X655Y1090D02*
X661Y1090D01*
X684Y1090D02*
X690Y1090D01*
X719Y1090D02*
X731Y1090D01*
X789Y1090D02*
X795Y1090D01*
X814Y1090D02*
X848Y1090D01*
X887Y1090D02*
X893Y1090D01*
X920Y1090D02*
X934Y1090D01*
X970Y1090D02*
X978Y1090D01*
X999Y1090D02*
X1005Y1090D01*
X1045Y1090D02*
X1051Y1090D01*
X1077Y1090D02*
X1111Y1090D01*
X1128Y1090D02*
X1135Y1090D01*
X1157Y1090D02*
X1163Y1090D01*
X1181Y1090D02*
X1187Y1090D01*
X1210Y1090D02*
X1216Y1090D01*
X1233Y1090D02*
X1240Y1090D01*
X1248Y1090D02*
X1254Y1090D01*
X1262Y1090D02*
X1269Y1090D01*
X1308Y1090D02*
X1314Y1090D01*
X1339Y1090D02*
X1345Y1090D01*
X1367Y1090D02*
X1373Y1090D01*
X1406Y1090D02*
X1412Y1090D01*
X1473Y1090D02*
X1479Y1090D01*
X1496Y1090D02*
X1503Y1090D01*
X1525Y1090D02*
X1532Y1090D01*
X1550Y1090D02*
X1584Y1090D01*
X1602Y1090D02*
X1608Y1090D01*
X1630Y1090D02*
X1636Y1090D01*
X1669Y1090D02*
X1675Y1090D01*
X1707Y1090D02*
X1713Y1090D01*
X1736Y1090D02*
X1742Y1090D01*
X2245Y1090D02*
X2254Y1090D01*
X1Y1089D02*
X10Y1089D01*
X341Y1089D02*
X347Y1089D01*
X421Y1089D02*
X427Y1089D01*
X445Y1089D02*
X451Y1089D01*
X474Y1089D02*
X480Y1089D01*
X526Y1089D02*
X532Y1089D01*
X631Y1089D02*
X638Y1089D01*
X655Y1089D02*
X661Y1089D01*
X684Y1089D02*
X690Y1089D01*
X719Y1089D02*
X732Y1089D01*
X789Y1089D02*
X795Y1089D01*
X841Y1089D02*
X848Y1089D01*
X887Y1089D02*
X893Y1089D01*
X920Y1089D02*
X931Y1089D01*
X970Y1089D02*
X977Y1089D01*
X999Y1089D02*
X1005Y1089D01*
X1045Y1089D02*
X1051Y1089D01*
X1104Y1089D02*
X1111Y1089D01*
X1128Y1089D02*
X1135Y1089D01*
X1157Y1089D02*
X1163Y1089D01*
X1181Y1089D02*
X1187Y1089D01*
X1210Y1089D02*
X1216Y1089D01*
X1233Y1089D02*
X1240Y1089D01*
X1248Y1089D02*
X1254Y1089D01*
X1262Y1089D02*
X1269Y1089D01*
X1308Y1089D02*
X1314Y1089D01*
X1339Y1089D02*
X1345Y1089D01*
X1367Y1089D02*
X1373Y1089D01*
X1406Y1089D02*
X1412Y1089D01*
X1473Y1089D02*
X1479Y1089D01*
X1496Y1089D02*
X1503Y1089D01*
X1525Y1089D02*
X1532Y1089D01*
X1577Y1089D02*
X1584Y1089D01*
X1602Y1089D02*
X1608Y1089D01*
X1630Y1089D02*
X1636Y1089D01*
X1669Y1089D02*
X1675Y1089D01*
X1707Y1089D02*
X1713Y1089D01*
X1736Y1089D02*
X1742Y1089D01*
X2245Y1089D02*
X2254Y1089D01*
X1Y1088D02*
X10Y1088D01*
X341Y1088D02*
X347Y1088D01*
X421Y1088D02*
X427Y1088D01*
X445Y1088D02*
X451Y1088D01*
X474Y1088D02*
X480Y1088D01*
X526Y1088D02*
X532Y1088D01*
X631Y1088D02*
X638Y1088D01*
X655Y1088D02*
X661Y1088D01*
X684Y1088D02*
X690Y1088D01*
X718Y1088D02*
X732Y1088D01*
X789Y1088D02*
X795Y1088D01*
X842Y1088D02*
X848Y1088D01*
X887Y1088D02*
X893Y1088D01*
X919Y1088D02*
X929Y1088D01*
X970Y1088D02*
X977Y1088D01*
X1000Y1088D02*
X1006Y1088D01*
X1045Y1088D02*
X1051Y1088D01*
X1104Y1088D02*
X1111Y1088D01*
X1128Y1088D02*
X1135Y1088D01*
X1157Y1088D02*
X1163Y1088D01*
X1181Y1088D02*
X1187Y1088D01*
X1210Y1088D02*
X1216Y1088D01*
X1233Y1088D02*
X1240Y1088D01*
X1248Y1088D02*
X1254Y1088D01*
X1262Y1088D02*
X1269Y1088D01*
X1308Y1088D02*
X1314Y1088D01*
X1339Y1088D02*
X1345Y1088D01*
X1367Y1088D02*
X1373Y1088D01*
X1406Y1088D02*
X1412Y1088D01*
X1473Y1088D02*
X1479Y1088D01*
X1496Y1088D02*
X1503Y1088D01*
X1525Y1088D02*
X1532Y1088D01*
X1578Y1088D02*
X1584Y1088D01*
X1602Y1088D02*
X1608Y1088D01*
X1630Y1088D02*
X1636Y1088D01*
X1669Y1088D02*
X1675Y1088D01*
X1707Y1088D02*
X1713Y1088D01*
X1735Y1088D02*
X1742Y1088D01*
X2245Y1088D02*
X2254Y1088D01*
X1Y1087D02*
X10Y1087D01*
X341Y1087D02*
X347Y1087D01*
X421Y1087D02*
X427Y1087D01*
X445Y1087D02*
X451Y1087D01*
X474Y1087D02*
X480Y1087D01*
X526Y1087D02*
X532Y1087D01*
X631Y1087D02*
X638Y1087D01*
X655Y1087D02*
X662Y1087D01*
X684Y1087D02*
X690Y1087D01*
X718Y1087D02*
X732Y1087D01*
X789Y1087D02*
X795Y1087D01*
X842Y1087D02*
X848Y1087D01*
X887Y1087D02*
X893Y1087D01*
X919Y1087D02*
X927Y1087D01*
X970Y1087D02*
X977Y1087D01*
X1000Y1087D02*
X1006Y1087D01*
X1045Y1087D02*
X1051Y1087D01*
X1104Y1087D02*
X1111Y1087D01*
X1128Y1087D02*
X1135Y1087D01*
X1157Y1087D02*
X1163Y1087D01*
X1181Y1087D02*
X1187Y1087D01*
X1210Y1087D02*
X1216Y1087D01*
X1233Y1087D02*
X1240Y1087D01*
X1248Y1087D02*
X1254Y1087D01*
X1262Y1087D02*
X1269Y1087D01*
X1308Y1087D02*
X1314Y1087D01*
X1339Y1087D02*
X1345Y1087D01*
X1367Y1087D02*
X1373Y1087D01*
X1406Y1087D02*
X1412Y1087D01*
X1473Y1087D02*
X1479Y1087D01*
X1496Y1087D02*
X1503Y1087D01*
X1525Y1087D02*
X1532Y1087D01*
X1578Y1087D02*
X1584Y1087D01*
X1602Y1087D02*
X1609Y1087D01*
X1630Y1087D02*
X1636Y1087D01*
X1669Y1087D02*
X1675Y1087D01*
X1707Y1087D02*
X1713Y1087D01*
X1735Y1087D02*
X1742Y1087D01*
X2245Y1087D02*
X2254Y1087D01*
X1Y1086D02*
X10Y1086D01*
X341Y1086D02*
X347Y1086D01*
X421Y1086D02*
X427Y1086D01*
X445Y1086D02*
X451Y1086D01*
X474Y1086D02*
X480Y1086D01*
X526Y1086D02*
X532Y1086D01*
X631Y1086D02*
X638Y1086D01*
X655Y1086D02*
X662Y1086D01*
X684Y1086D02*
X690Y1086D01*
X718Y1086D02*
X732Y1086D01*
X789Y1086D02*
X795Y1086D01*
X842Y1086D02*
X848Y1086D01*
X887Y1086D02*
X893Y1086D01*
X918Y1086D02*
X925Y1086D01*
X970Y1086D02*
X977Y1086D01*
X1000Y1086D02*
X1006Y1086D01*
X1045Y1086D02*
X1051Y1086D01*
X1104Y1086D02*
X1111Y1086D01*
X1128Y1086D02*
X1135Y1086D01*
X1157Y1086D02*
X1163Y1086D01*
X1181Y1086D02*
X1187Y1086D01*
X1209Y1086D02*
X1216Y1086D01*
X1233Y1086D02*
X1240Y1086D01*
X1248Y1086D02*
X1254Y1086D01*
X1262Y1086D02*
X1269Y1086D01*
X1308Y1086D02*
X1314Y1086D01*
X1339Y1086D02*
X1345Y1086D01*
X1367Y1086D02*
X1373Y1086D01*
X1406Y1086D02*
X1412Y1086D01*
X1473Y1086D02*
X1479Y1086D01*
X1496Y1086D02*
X1503Y1086D01*
X1525Y1086D02*
X1532Y1086D01*
X1578Y1086D02*
X1584Y1086D01*
X1602Y1086D02*
X1610Y1086D01*
X1630Y1086D02*
X1636Y1086D01*
X1669Y1086D02*
X1675Y1086D01*
X1707Y1086D02*
X1713Y1086D01*
X1734Y1086D02*
X1742Y1086D01*
X2245Y1086D02*
X2254Y1086D01*
X1Y1085D02*
X10Y1085D01*
X341Y1085D02*
X347Y1085D01*
X421Y1085D02*
X427Y1085D01*
X445Y1085D02*
X451Y1085D01*
X474Y1085D02*
X480Y1085D01*
X526Y1085D02*
X532Y1085D01*
X631Y1085D02*
X638Y1085D01*
X655Y1085D02*
X664Y1085D01*
X684Y1085D02*
X690Y1085D01*
X718Y1085D02*
X732Y1085D01*
X789Y1085D02*
X795Y1085D01*
X841Y1085D02*
X848Y1085D01*
X867Y1085D02*
X870Y1085D01*
X887Y1085D02*
X893Y1085D01*
X918Y1085D02*
X925Y1085D01*
X970Y1085D02*
X977Y1085D01*
X1000Y1085D02*
X1006Y1085D01*
X1025Y1085D02*
X1028Y1085D01*
X1045Y1085D02*
X1051Y1085D01*
X1104Y1085D02*
X1111Y1085D01*
X1128Y1085D02*
X1135Y1085D01*
X1157Y1085D02*
X1163Y1085D01*
X1181Y1085D02*
X1188Y1085D01*
X1208Y1085D02*
X1216Y1085D01*
X1233Y1085D02*
X1240Y1085D01*
X1248Y1085D02*
X1254Y1085D01*
X1262Y1085D02*
X1269Y1085D01*
X1288Y1085D02*
X1291Y1085D01*
X1308Y1085D02*
X1314Y1085D01*
X1339Y1085D02*
X1345Y1085D01*
X1367Y1085D02*
X1373Y1085D01*
X1406Y1085D02*
X1412Y1085D01*
X1473Y1085D02*
X1479Y1085D01*
X1497Y1085D02*
X1503Y1085D01*
X1524Y1085D02*
X1532Y1085D01*
X1578Y1085D02*
X1584Y1085D01*
X1602Y1085D02*
X1612Y1085D01*
X1630Y1085D02*
X1636Y1085D01*
X1669Y1085D02*
X1675Y1085D01*
X1707Y1085D02*
X1713Y1085D01*
X1733Y1085D02*
X1742Y1085D01*
X2245Y1085D02*
X2254Y1085D01*
X1Y1084D02*
X10Y1084D01*
X341Y1084D02*
X347Y1084D01*
X421Y1084D02*
X427Y1084D01*
X445Y1084D02*
X451Y1084D01*
X474Y1084D02*
X480Y1084D01*
X526Y1084D02*
X532Y1084D01*
X631Y1084D02*
X637Y1084D01*
X655Y1084D02*
X665Y1084D01*
X683Y1084D02*
X690Y1084D01*
X718Y1084D02*
X732Y1084D01*
X789Y1084D02*
X795Y1084D01*
X841Y1084D02*
X848Y1084D01*
X866Y1084D02*
X871Y1084D01*
X887Y1084D02*
X893Y1084D01*
X918Y1084D02*
X924Y1084D01*
X970Y1084D02*
X977Y1084D01*
X1000Y1084D02*
X1006Y1084D01*
X1024Y1084D02*
X1029Y1084D01*
X1045Y1084D02*
X1051Y1084D01*
X1104Y1084D02*
X1111Y1084D01*
X1128Y1084D02*
X1135Y1084D01*
X1157Y1084D02*
X1163Y1084D01*
X1181Y1084D02*
X1189Y1084D01*
X1207Y1084D02*
X1216Y1084D01*
X1233Y1084D02*
X1240Y1084D01*
X1248Y1084D02*
X1254Y1084D01*
X1262Y1084D02*
X1269Y1084D01*
X1287Y1084D02*
X1292Y1084D01*
X1308Y1084D02*
X1314Y1084D01*
X1339Y1084D02*
X1345Y1084D01*
X1367Y1084D02*
X1373Y1084D01*
X1406Y1084D02*
X1412Y1084D01*
X1473Y1084D02*
X1479Y1084D01*
X1497Y1084D02*
X1504Y1084D01*
X1523Y1084D02*
X1532Y1084D01*
X1577Y1084D02*
X1584Y1084D01*
X1602Y1084D02*
X1613Y1084D01*
X1630Y1084D02*
X1636Y1084D01*
X1669Y1084D02*
X1675Y1084D01*
X1707Y1084D02*
X1713Y1084D01*
X1732Y1084D02*
X1742Y1084D01*
X2245Y1084D02*
X2254Y1084D01*
X1Y1083D02*
X10Y1083D01*
X341Y1083D02*
X347Y1083D01*
X421Y1083D02*
X427Y1083D01*
X445Y1083D02*
X451Y1083D01*
X474Y1083D02*
X480Y1083D01*
X526Y1083D02*
X532Y1083D01*
X630Y1083D02*
X637Y1083D01*
X655Y1083D02*
X666Y1083D01*
X683Y1083D02*
X690Y1083D01*
X718Y1083D02*
X732Y1083D01*
X789Y1083D02*
X795Y1083D01*
X841Y1083D02*
X848Y1083D01*
X866Y1083D02*
X871Y1083D01*
X887Y1083D02*
X893Y1083D01*
X918Y1083D02*
X925Y1083D01*
X970Y1083D02*
X978Y1083D01*
X1000Y1083D02*
X1006Y1083D01*
X1023Y1083D02*
X1029Y1083D01*
X1045Y1083D02*
X1051Y1083D01*
X1103Y1083D02*
X1111Y1083D01*
X1129Y1083D02*
X1136Y1083D01*
X1156Y1083D02*
X1163Y1083D01*
X1182Y1083D02*
X1190Y1083D01*
X1206Y1083D02*
X1216Y1083D01*
X1233Y1083D02*
X1240Y1083D01*
X1248Y1083D02*
X1254Y1083D01*
X1262Y1083D02*
X1269Y1083D01*
X1286Y1083D02*
X1292Y1083D01*
X1308Y1083D02*
X1314Y1083D01*
X1339Y1083D02*
X1345Y1083D01*
X1367Y1083D02*
X1373Y1083D01*
X1406Y1083D02*
X1412Y1083D01*
X1473Y1083D02*
X1479Y1083D01*
X1497Y1083D02*
X1505Y1083D01*
X1522Y1083D02*
X1532Y1083D01*
X1577Y1083D02*
X1584Y1083D01*
X1602Y1083D02*
X1615Y1083D01*
X1630Y1083D02*
X1636Y1083D01*
X1669Y1083D02*
X1675Y1083D01*
X1707Y1083D02*
X1714Y1083D01*
X1731Y1083D02*
X1742Y1083D01*
X2245Y1083D02*
X2254Y1083D01*
X1Y1082D02*
X10Y1082D01*
X341Y1082D02*
X347Y1082D01*
X421Y1082D02*
X427Y1082D01*
X445Y1082D02*
X451Y1082D01*
X474Y1082D02*
X480Y1082D01*
X526Y1082D02*
X532Y1082D01*
X629Y1082D02*
X637Y1082D01*
X655Y1082D02*
X667Y1082D01*
X682Y1082D02*
X690Y1082D01*
X718Y1082D02*
X732Y1082D01*
X789Y1082D02*
X795Y1082D01*
X840Y1082D02*
X847Y1082D01*
X865Y1082D02*
X872Y1082D01*
X887Y1082D02*
X893Y1082D01*
X918Y1082D02*
X925Y1082D01*
X949Y1082D02*
X951Y1082D01*
X970Y1082D02*
X980Y1082D01*
X1000Y1082D02*
X1006Y1082D01*
X1023Y1082D02*
X1030Y1082D01*
X1045Y1082D02*
X1051Y1082D01*
X1103Y1082D02*
X1110Y1082D01*
X1129Y1082D02*
X1136Y1082D01*
X1155Y1082D02*
X1163Y1082D01*
X1182Y1082D02*
X1191Y1082D01*
X1205Y1082D02*
X1216Y1082D01*
X1233Y1082D02*
X1240Y1082D01*
X1248Y1082D02*
X1254Y1082D01*
X1262Y1082D02*
X1268Y1082D01*
X1286Y1082D02*
X1293Y1082D01*
X1307Y1082D02*
X1314Y1082D01*
X1339Y1082D02*
X1345Y1082D01*
X1367Y1082D02*
X1373Y1082D01*
X1406Y1082D02*
X1412Y1082D01*
X1473Y1082D02*
X1479Y1082D01*
X1498Y1082D02*
X1507Y1082D01*
X1521Y1082D02*
X1532Y1082D01*
X1576Y1082D02*
X1584Y1082D01*
X1602Y1082D02*
X1616Y1082D01*
X1630Y1082D02*
X1636Y1082D01*
X1669Y1082D02*
X1675Y1082D01*
X1707Y1082D02*
X1715Y1082D01*
X1730Y1082D02*
X1742Y1082D01*
X2245Y1082D02*
X2254Y1082D01*
X1Y1081D02*
X10Y1081D01*
X341Y1081D02*
X347Y1081D01*
X368Y1081D02*
X372Y1081D01*
X421Y1081D02*
X427Y1081D01*
X445Y1081D02*
X451Y1081D01*
X474Y1081D02*
X480Y1081D01*
X526Y1081D02*
X532Y1081D01*
X628Y1081D02*
X637Y1081D01*
X655Y1081D02*
X668Y1081D01*
X681Y1081D02*
X689Y1081D01*
X718Y1081D02*
X732Y1081D01*
X789Y1081D02*
X795Y1081D01*
X838Y1081D02*
X847Y1081D01*
X865Y1081D02*
X873Y1081D01*
X886Y1081D02*
X893Y1081D01*
X918Y1081D02*
X925Y1081D01*
X947Y1081D02*
X952Y1081D01*
X970Y1081D02*
X982Y1081D01*
X999Y1081D02*
X1005Y1081D01*
X1023Y1081D02*
X1030Y1081D01*
X1044Y1081D02*
X1051Y1081D01*
X1101Y1081D02*
X1110Y1081D01*
X1129Y1081D02*
X1138Y1081D01*
X1154Y1081D02*
X1163Y1081D01*
X1183Y1081D02*
X1192Y1081D01*
X1204Y1081D02*
X1216Y1081D01*
X1234Y1081D02*
X1241Y1081D01*
X1247Y1081D02*
X1255Y1081D01*
X1261Y1081D02*
X1268Y1081D01*
X1286Y1081D02*
X1293Y1081D01*
X1307Y1081D02*
X1314Y1081D01*
X1339Y1081D02*
X1345Y1081D01*
X1367Y1081D02*
X1373Y1081D01*
X1406Y1081D02*
X1412Y1081D01*
X1473Y1081D02*
X1479Y1081D01*
X1498Y1081D02*
X1508Y1081D01*
X1520Y1081D02*
X1532Y1081D01*
X1575Y1081D02*
X1583Y1081D01*
X1602Y1081D02*
X1618Y1081D01*
X1629Y1081D02*
X1636Y1081D01*
X1669Y1081D02*
X1675Y1081D01*
X1708Y1081D02*
X1716Y1081D01*
X1729Y1081D02*
X1742Y1081D01*
X2245Y1081D02*
X2254Y1081D01*
X1Y1080D02*
X10Y1080D01*
X341Y1080D02*
X347Y1080D01*
X366Y1080D02*
X373Y1080D01*
X421Y1080D02*
X427Y1080D01*
X445Y1080D02*
X451Y1080D01*
X473Y1080D02*
X480Y1080D01*
X526Y1080D02*
X532Y1080D01*
X627Y1080D02*
X636Y1080D01*
X655Y1080D02*
X670Y1080D01*
X679Y1080D02*
X689Y1080D01*
X719Y1080D02*
X732Y1080D01*
X789Y1080D02*
X795Y1080D01*
X837Y1080D02*
X847Y1080D01*
X866Y1080D02*
X874Y1080D01*
X885Y1080D02*
X893Y1080D01*
X918Y1080D02*
X926Y1080D01*
X945Y1080D02*
X953Y1080D01*
X970Y1080D02*
X983Y1080D01*
X998Y1080D02*
X1005Y1080D01*
X1023Y1080D02*
X1031Y1080D01*
X1043Y1080D02*
X1051Y1080D01*
X1100Y1080D02*
X1109Y1080D01*
X1130Y1080D02*
X1139Y1080D01*
X1152Y1080D02*
X1162Y1080D01*
X1183Y1080D02*
X1193Y1080D01*
X1203Y1080D02*
X1216Y1080D01*
X1234Y1080D02*
X1242Y1080D01*
X1246Y1080D02*
X1256Y1080D01*
X1260Y1080D02*
X1268Y1080D01*
X1286Y1080D02*
X1294Y1080D01*
X1306Y1080D02*
X1314Y1080D01*
X1339Y1080D02*
X1345Y1080D01*
X1367Y1080D02*
X1373Y1080D01*
X1406Y1080D02*
X1412Y1080D01*
X1473Y1080D02*
X1479Y1080D01*
X1499Y1080D02*
X1509Y1080D01*
X1519Y1080D02*
X1532Y1080D01*
X1573Y1080D02*
X1583Y1080D01*
X1602Y1080D02*
X1619Y1080D01*
X1628Y1080D02*
X1636Y1080D01*
X1669Y1080D02*
X1675Y1080D01*
X1708Y1080D02*
X1718Y1080D01*
X1727Y1080D02*
X1742Y1080D01*
X2245Y1080D02*
X2254Y1080D01*
X1Y1079D02*
X10Y1079D01*
X341Y1079D02*
X373Y1079D01*
X394Y1079D02*
X427Y1079D01*
X445Y1079D02*
X480Y1079D01*
X499Y1079D02*
X532Y1079D01*
X604Y1079D02*
X636Y1079D01*
X655Y1079D02*
X688Y1079D01*
X719Y1079D02*
X731Y1079D01*
X789Y1079D02*
X795Y1079D01*
X815Y1079D02*
X846Y1079D01*
X866Y1079D02*
X893Y1079D01*
X919Y1079D02*
X953Y1079D01*
X970Y1079D02*
X1005Y1079D01*
X1024Y1079D02*
X1050Y1079D01*
X1078Y1079D02*
X1109Y1079D01*
X1130Y1079D02*
X1161Y1079D01*
X1184Y1079D02*
X1195Y1079D01*
X1202Y1079D02*
X1216Y1079D01*
X1234Y1079D02*
X1268Y1079D01*
X1287Y1079D02*
X1313Y1079D01*
X1339Y1079D02*
X1345Y1079D01*
X1367Y1079D02*
X1373Y1079D01*
X1397Y1079D02*
X1421Y1079D01*
X1473Y1079D02*
X1479Y1079D01*
X1500Y1079D02*
X1510Y1079D01*
X1518Y1079D02*
X1532Y1079D01*
X1551Y1079D02*
X1582Y1079D01*
X1602Y1079D02*
X1636Y1079D01*
X1660Y1079D02*
X1684Y1079D01*
X1709Y1079D02*
X1742Y1079D01*
X2245Y1079D02*
X2254Y1079D01*
X1Y1078D02*
X10Y1078D01*
X341Y1078D02*
X373Y1078D01*
X393Y1078D02*
X427Y1078D01*
X445Y1078D02*
X480Y1078D01*
X498Y1078D02*
X532Y1078D01*
X603Y1078D02*
X635Y1078D01*
X655Y1078D02*
X687Y1078D01*
X721Y1078D02*
X730Y1078D01*
X789Y1078D02*
X795Y1078D01*
X813Y1078D02*
X845Y1078D01*
X867Y1078D02*
X892Y1078D01*
X919Y1078D02*
X953Y1078D01*
X970Y1078D02*
X1004Y1078D01*
X1024Y1078D02*
X1050Y1078D01*
X1076Y1078D02*
X1108Y1078D01*
X1131Y1078D02*
X1161Y1078D01*
X1185Y1078D02*
X1216Y1078D01*
X1235Y1078D02*
X1267Y1078D01*
X1287Y1078D02*
X1313Y1078D01*
X1339Y1078D02*
X1345Y1078D01*
X1367Y1078D02*
X1373Y1078D01*
X1396Y1078D02*
X1422Y1078D01*
X1473Y1078D02*
X1479Y1078D01*
X1501Y1078D02*
X1532Y1078D01*
X1550Y1078D02*
X1581Y1078D01*
X1602Y1078D02*
X1635Y1078D01*
X1659Y1078D02*
X1685Y1078D01*
X1710Y1078D02*
X1742Y1078D01*
X2245Y1078D02*
X2254Y1078D01*
X1Y1077D02*
X10Y1077D01*
X341Y1077D02*
X373Y1077D01*
X392Y1077D02*
X427Y1077D01*
X445Y1077D02*
X479Y1077D01*
X497Y1077D02*
X532Y1077D01*
X603Y1077D02*
X634Y1077D01*
X655Y1077D02*
X686Y1077D01*
X789Y1077D02*
X795Y1077D01*
X813Y1077D02*
X844Y1077D01*
X867Y1077D02*
X891Y1077D01*
X920Y1077D02*
X952Y1077D01*
X970Y1077D02*
X1004Y1077D01*
X1025Y1077D02*
X1049Y1077D01*
X1076Y1077D02*
X1107Y1077D01*
X1132Y1077D02*
X1160Y1077D01*
X1187Y1077D02*
X1216Y1077D01*
X1235Y1077D02*
X1267Y1077D01*
X1288Y1077D02*
X1312Y1077D01*
X1339Y1077D02*
X1345Y1077D01*
X1367Y1077D02*
X1373Y1077D01*
X1395Y1077D02*
X1423Y1077D01*
X1473Y1077D02*
X1479Y1077D01*
X1502Y1077D02*
X1532Y1077D01*
X1549Y1077D02*
X1580Y1077D01*
X1602Y1077D02*
X1608Y1077D01*
X1611Y1077D02*
X1635Y1077D01*
X1658Y1077D02*
X1685Y1077D01*
X1711Y1077D02*
X1742Y1077D01*
X2245Y1077D02*
X2254Y1077D01*
X1Y1076D02*
X10Y1076D01*
X342Y1076D02*
X372Y1076D01*
X392Y1076D02*
X427Y1076D01*
X446Y1076D02*
X479Y1076D01*
X497Y1076D02*
X532Y1076D01*
X602Y1076D02*
X633Y1076D01*
X655Y1076D02*
X661Y1076D01*
X663Y1076D02*
X685Y1076D01*
X789Y1076D02*
X795Y1076D01*
X813Y1076D02*
X843Y1076D01*
X868Y1076D02*
X891Y1076D01*
X921Y1076D02*
X952Y1076D01*
X970Y1076D02*
X1003Y1076D01*
X1026Y1076D02*
X1048Y1076D01*
X1076Y1076D02*
X1106Y1076D01*
X1133Y1076D02*
X1158Y1076D01*
X1188Y1076D02*
X1216Y1076D01*
X1236Y1076D02*
X1266Y1076D01*
X1289Y1076D02*
X1311Y1076D01*
X1339Y1076D02*
X1345Y1076D01*
X1367Y1076D02*
X1373Y1076D01*
X1395Y1076D02*
X1423Y1076D01*
X1473Y1076D02*
X1479Y1076D01*
X1503Y1076D02*
X1532Y1076D01*
X1549Y1076D02*
X1579Y1076D01*
X1602Y1076D02*
X1608Y1076D01*
X1613Y1076D02*
X1634Y1076D01*
X1658Y1076D02*
X1686Y1076D01*
X1712Y1076D02*
X1733Y1076D01*
X1736Y1076D02*
X1742Y1076D01*
X2245Y1076D02*
X2254Y1076D01*
X1Y1075D02*
X10Y1075D01*
X342Y1075D02*
X371Y1075D01*
X392Y1075D02*
X427Y1075D01*
X446Y1075D02*
X478Y1075D01*
X497Y1075D02*
X532Y1075D01*
X602Y1075D02*
X631Y1075D01*
X655Y1075D02*
X661Y1075D01*
X665Y1075D02*
X684Y1075D01*
X789Y1075D02*
X795Y1075D01*
X813Y1075D02*
X842Y1075D01*
X869Y1075D02*
X890Y1075D01*
X922Y1075D02*
X950Y1075D01*
X971Y1075D02*
X976Y1075D01*
X979Y1075D02*
X1002Y1075D01*
X1027Y1075D02*
X1047Y1075D01*
X1076Y1075D02*
X1105Y1075D01*
X1135Y1075D02*
X1157Y1075D01*
X1189Y1075D02*
X1208Y1075D01*
X1210Y1075D02*
X1216Y1075D01*
X1237Y1075D02*
X1265Y1075D01*
X1290Y1075D02*
X1310Y1075D01*
X1339Y1075D02*
X1345Y1075D01*
X1367Y1075D02*
X1373Y1075D01*
X1395Y1075D02*
X1423Y1075D01*
X1473Y1075D02*
X1479Y1075D01*
X1504Y1075D02*
X1523Y1075D01*
X1525Y1075D02*
X1532Y1075D01*
X1549Y1075D02*
X1578Y1075D01*
X1602Y1075D02*
X1608Y1075D01*
X1615Y1075D02*
X1633Y1075D01*
X1658Y1075D02*
X1686Y1075D01*
X1713Y1075D02*
X1732Y1075D01*
X1736Y1075D02*
X1742Y1075D01*
X2245Y1075D02*
X2254Y1075D01*
X1Y1074D02*
X10Y1074D01*
X343Y1074D02*
X370Y1074D01*
X393Y1074D02*
X427Y1074D01*
X447Y1074D02*
X477Y1074D01*
X498Y1074D02*
X532Y1074D01*
X603Y1074D02*
X630Y1074D01*
X656Y1074D02*
X661Y1074D01*
X666Y1074D02*
X683Y1074D01*
X790Y1074D02*
X795Y1074D01*
X813Y1074D02*
X840Y1074D01*
X870Y1074D02*
X888Y1074D01*
X923Y1074D02*
X949Y1074D01*
X971Y1074D02*
X976Y1074D01*
X981Y1074D02*
X1001Y1074D01*
X1028Y1074D02*
X1046Y1074D01*
X1076Y1074D02*
X1103Y1074D01*
X1136Y1074D02*
X1156Y1074D01*
X1190Y1074D02*
X1207Y1074D01*
X1210Y1074D02*
X1216Y1074D01*
X1238Y1074D02*
X1249Y1074D01*
X1253Y1074D02*
X1264Y1074D01*
X1291Y1074D02*
X1309Y1074D01*
X1340Y1074D02*
X1345Y1074D01*
X1368Y1074D02*
X1373Y1074D01*
X1395Y1074D02*
X1422Y1074D01*
X1473Y1074D02*
X1478Y1074D01*
X1506Y1074D02*
X1522Y1074D01*
X1525Y1074D02*
X1532Y1074D01*
X1550Y1074D02*
X1576Y1074D01*
X1603Y1074D02*
X1608Y1074D01*
X1616Y1074D02*
X1631Y1074D01*
X1658Y1074D02*
X1685Y1074D01*
X1714Y1074D02*
X1731Y1074D01*
X1736Y1074D02*
X1741Y1074D01*
X2245Y1074D02*
X2254Y1074D01*
X1Y1073D02*
X10Y1073D01*
X345Y1073D02*
X368Y1073D01*
X393Y1073D02*
X427Y1073D01*
X449Y1073D02*
X476Y1073D01*
X499Y1073D02*
X532Y1073D01*
X604Y1073D02*
X628Y1073D01*
X656Y1073D02*
X660Y1073D01*
X668Y1073D02*
X681Y1073D01*
X791Y1073D02*
X794Y1073D01*
X814Y1073D02*
X838Y1073D01*
X872Y1073D02*
X887Y1073D01*
X925Y1073D02*
X946Y1073D01*
X972Y1073D02*
X975Y1073D01*
X982Y1073D02*
X999Y1073D01*
X1030Y1073D02*
X1044Y1073D01*
X1077Y1073D02*
X1101Y1073D01*
X1138Y1073D02*
X1154Y1073D01*
X1191Y1073D02*
X1205Y1073D01*
X1210Y1073D02*
X1216Y1073D01*
X1240Y1073D02*
X1247Y1073D01*
X1255Y1073D02*
X1262Y1073D01*
X1293Y1073D02*
X1307Y1073D01*
X1341Y1073D02*
X1344Y1073D01*
X1369Y1073D02*
X1372Y1073D01*
X1396Y1073D02*
X1421Y1073D01*
X1474Y1073D02*
X1478Y1073D01*
X1507Y1073D02*
X1521Y1073D01*
X1525Y1073D02*
X1532Y1073D01*
X1550Y1073D02*
X1574Y1073D01*
X1603Y1073D02*
X1607Y1073D01*
X1618Y1073D02*
X1630Y1073D01*
X1659Y1073D02*
X1684Y1073D01*
X1716Y1073D02*
X1729Y1073D01*
X1737Y1073D02*
X1740Y1073D01*
X2245Y1073D02*
X2254Y1073D01*
X1Y1072D02*
X10Y1072D01*
X1193Y1072D02*
X1204Y1072D01*
X1210Y1072D02*
X1216Y1072D01*
X1508Y1072D02*
X1519Y1072D01*
X1525Y1072D02*
X1532Y1072D01*
X2245Y1072D02*
X2254Y1072D01*
X1Y1071D02*
X10Y1071D01*
X1196Y1071D02*
X1201Y1071D01*
X1210Y1071D02*
X1216Y1071D01*
X1511Y1071D02*
X1517Y1071D01*
X1525Y1071D02*
X1532Y1071D01*
X2245Y1071D02*
X2254Y1071D01*
X1Y1070D02*
X10Y1070D01*
X1210Y1070D02*
X1216Y1070D01*
X1525Y1070D02*
X1532Y1070D01*
X2245Y1070D02*
X2254Y1070D01*
X1Y1069D02*
X10Y1069D01*
X1210Y1069D02*
X1216Y1069D01*
X1525Y1069D02*
X1532Y1069D01*
X2245Y1069D02*
X2254Y1069D01*
X1Y1068D02*
X10Y1068D01*
X1210Y1068D02*
X1216Y1068D01*
X1525Y1068D02*
X1532Y1068D01*
X2245Y1068D02*
X2254Y1068D01*
X1Y1067D02*
X10Y1067D01*
X1210Y1067D02*
X1216Y1067D01*
X1525Y1067D02*
X1532Y1067D01*
X2245Y1067D02*
X2254Y1067D01*
X1Y1066D02*
X10Y1066D01*
X1210Y1066D02*
X1216Y1066D01*
X1525Y1066D02*
X1532Y1066D01*
X2245Y1066D02*
X2254Y1066D01*
X1Y1065D02*
X10Y1065D01*
X1210Y1065D02*
X1216Y1065D01*
X1525Y1065D02*
X1532Y1065D01*
X2245Y1065D02*
X2254Y1065D01*
X1Y1064D02*
X10Y1064D01*
X1210Y1064D02*
X1216Y1064D01*
X1525Y1064D02*
X1532Y1064D01*
X2245Y1064D02*
X2254Y1064D01*
X1Y1063D02*
X10Y1063D01*
X1210Y1063D02*
X1216Y1063D01*
X1525Y1063D02*
X1532Y1063D01*
X2245Y1063D02*
X2254Y1063D01*
X1Y1062D02*
X10Y1062D01*
X1210Y1062D02*
X1216Y1062D01*
X1525Y1062D02*
X1532Y1062D01*
X2245Y1062D02*
X2254Y1062D01*
X1Y1061D02*
X10Y1061D01*
X1210Y1061D02*
X1216Y1061D01*
X1525Y1061D02*
X1532Y1061D01*
X2245Y1061D02*
X2254Y1061D01*
X1Y1060D02*
X10Y1060D01*
X1210Y1060D02*
X1216Y1060D01*
X1525Y1060D02*
X1532Y1060D01*
X2245Y1060D02*
X2254Y1060D01*
X1Y1059D02*
X10Y1059D01*
X1210Y1059D02*
X1216Y1059D01*
X1526Y1059D02*
X1531Y1059D01*
X2245Y1059D02*
X2254Y1059D01*
X1Y1058D02*
X10Y1058D01*
X1211Y1058D02*
X1215Y1058D01*
X1526Y1058D02*
X1531Y1058D01*
X2245Y1058D02*
X2254Y1058D01*
X1Y1057D02*
X10Y1057D01*
X1212Y1057D02*
X1214Y1057D01*
X1528Y1057D02*
X1529Y1057D01*
X2245Y1057D02*
X2254Y1057D01*
X1Y1056D02*
X10Y1056D01*
X2245Y1056D02*
X2254Y1056D01*
X1Y1055D02*
X10Y1055D01*
X2245Y1055D02*
X2254Y1055D01*
X1Y1054D02*
X10Y1054D01*
X2245Y1054D02*
X2254Y1054D01*
X1Y1053D02*
X10Y1053D01*
X2245Y1053D02*
X2254Y1053D01*
X1Y1052D02*
X10Y1052D01*
X2245Y1052D02*
X2254Y1052D01*
X1Y1051D02*
X10Y1051D01*
X2245Y1051D02*
X2254Y1051D01*
X1Y1050D02*
X10Y1050D01*
X2245Y1050D02*
X2254Y1050D01*
X1Y1049D02*
X10Y1049D01*
X2245Y1049D02*
X2254Y1049D01*
X1Y1048D02*
X10Y1048D01*
X2245Y1048D02*
X2254Y1048D01*
X1Y1047D02*
X10Y1047D01*
X2245Y1047D02*
X2254Y1047D01*
X1Y1046D02*
X10Y1046D01*
X2245Y1046D02*
X2254Y1046D01*
X1Y1045D02*
X10Y1045D01*
X2245Y1045D02*
X2254Y1045D01*
X1Y1044D02*
X10Y1044D01*
X2245Y1044D02*
X2254Y1044D01*
X1Y1043D02*
X10Y1043D01*
X2245Y1043D02*
X2254Y1043D01*
X1Y1042D02*
X10Y1042D01*
X2245Y1042D02*
X2254Y1042D01*
X1Y1041D02*
X10Y1041D01*
X2245Y1041D02*
X2254Y1041D01*
X1Y1040D02*
X10Y1040D01*
X2245Y1040D02*
X2254Y1040D01*
X1Y1039D02*
X10Y1039D01*
X2245Y1039D02*
X2254Y1039D01*
X1Y1038D02*
X10Y1038D01*
X2245Y1038D02*
X2254Y1038D01*
X1Y1037D02*
X10Y1037D01*
X2245Y1037D02*
X2254Y1037D01*
X1Y1036D02*
X10Y1036D01*
X2245Y1036D02*
X2254Y1036D01*
X1Y1035D02*
X10Y1035D01*
X2245Y1035D02*
X2254Y1035D01*
X1Y1034D02*
X10Y1034D01*
X2245Y1034D02*
X2254Y1034D01*
X1Y1033D02*
X10Y1033D01*
X2245Y1033D02*
X2254Y1033D01*
X1Y1032D02*
X10Y1032D01*
X2245Y1032D02*
X2254Y1032D01*
X1Y1031D02*
X10Y1031D01*
X2245Y1031D02*
X2254Y1031D01*
X1Y1030D02*
X10Y1030D01*
X2245Y1030D02*
X2254Y1030D01*
X1Y1029D02*
X10Y1029D01*
X2245Y1029D02*
X2254Y1029D01*
X1Y1028D02*
X10Y1028D01*
X2245Y1028D02*
X2254Y1028D01*
X1Y1027D02*
X10Y1027D01*
X2245Y1027D02*
X2254Y1027D01*
X1Y1026D02*
X10Y1026D01*
X2245Y1026D02*
X2254Y1026D01*
X1Y1025D02*
X10Y1025D01*
X2245Y1025D02*
X2254Y1025D01*
X1Y1024D02*
X10Y1024D01*
X2245Y1024D02*
X2254Y1024D01*
X1Y1023D02*
X10Y1023D01*
X2245Y1023D02*
X2254Y1023D01*
X1Y1022D02*
X10Y1022D01*
X2245Y1022D02*
X2254Y1022D01*
X1Y1021D02*
X10Y1021D01*
X2245Y1021D02*
X2254Y1021D01*
X1Y1020D02*
X10Y1020D01*
X2245Y1020D02*
X2254Y1020D01*
X1Y1019D02*
X10Y1019D01*
X2245Y1019D02*
X2254Y1019D01*
X1Y1018D02*
X10Y1018D01*
X2245Y1018D02*
X2254Y1018D01*
X1Y1017D02*
X10Y1017D01*
X2245Y1017D02*
X2254Y1017D01*
X1Y1016D02*
X10Y1016D01*
X2245Y1016D02*
X2254Y1016D01*
X1Y1015D02*
X10Y1015D01*
X2245Y1015D02*
X2254Y1015D01*
X1Y1014D02*
X10Y1014D01*
X2245Y1014D02*
X2254Y1014D01*
X1Y1013D02*
X10Y1013D01*
X2245Y1013D02*
X2254Y1013D01*
X1Y1012D02*
X10Y1012D01*
X2245Y1012D02*
X2254Y1012D01*
X1Y1011D02*
X10Y1011D01*
X2245Y1011D02*
X2254Y1011D01*
X1Y1010D02*
X10Y1010D01*
X2245Y1010D02*
X2254Y1010D01*
X1Y1009D02*
X10Y1009D01*
X2245Y1009D02*
X2254Y1009D01*
X1Y1008D02*
X10Y1008D01*
X2245Y1008D02*
X2254Y1008D01*
X1Y1007D02*
X10Y1007D01*
X2245Y1007D02*
X2254Y1007D01*
X1Y1006D02*
X10Y1006D01*
X2245Y1006D02*
X2254Y1006D01*
X1Y1005D02*
X10Y1005D01*
X2245Y1005D02*
X2254Y1005D01*
X1Y1004D02*
X10Y1004D01*
X2245Y1004D02*
X2254Y1004D01*
X1Y1003D02*
X10Y1003D01*
X2245Y1003D02*
X2254Y1003D01*
X1Y1002D02*
X10Y1002D01*
X2245Y1002D02*
X2254Y1002D01*
X1Y1001D02*
X10Y1001D01*
X2245Y1001D02*
X2254Y1001D01*
X1Y1000D02*
X10Y1000D01*
X2245Y1000D02*
X2254Y1000D01*
X1Y999D02*
X10Y999D01*
X2245Y999D02*
X2254Y999D01*
X1Y998D02*
X10Y998D01*
X2245Y998D02*
X2254Y998D01*
X1Y997D02*
X10Y997D01*
X2245Y997D02*
X2254Y997D01*
X1Y996D02*
X10Y996D01*
X2245Y996D02*
X2254Y996D01*
X1Y995D02*
X10Y995D01*
X2245Y995D02*
X2254Y995D01*
X1Y994D02*
X10Y994D01*
X2245Y994D02*
X2254Y994D01*
X1Y993D02*
X10Y993D01*
X2245Y993D02*
X2254Y993D01*
X1Y992D02*
X10Y992D01*
X2245Y992D02*
X2254Y992D01*
X1Y991D02*
X10Y991D01*
X2245Y991D02*
X2254Y991D01*
X1Y990D02*
X10Y990D01*
X2245Y990D02*
X2254Y990D01*
X1Y989D02*
X10Y989D01*
X2245Y989D02*
X2254Y989D01*
X1Y988D02*
X10Y988D01*
X2245Y988D02*
X2254Y988D01*
X1Y987D02*
X10Y987D01*
X2245Y987D02*
X2254Y987D01*
X1Y986D02*
X10Y986D01*
X2245Y986D02*
X2254Y986D01*
X1Y985D02*
X10Y985D01*
X2245Y985D02*
X2254Y985D01*
X1Y984D02*
X10Y984D01*
X2245Y984D02*
X2254Y984D01*
X1Y983D02*
X10Y983D01*
X2245Y983D02*
X2254Y983D01*
X1Y982D02*
X10Y982D01*
X2245Y982D02*
X2254Y982D01*
X1Y981D02*
X10Y981D01*
X2245Y981D02*
X2254Y981D01*
X1Y980D02*
X10Y980D01*
X2245Y980D02*
X2254Y980D01*
X1Y979D02*
X10Y979D01*
X2245Y979D02*
X2254Y979D01*
X1Y978D02*
X10Y978D01*
X2245Y978D02*
X2254Y978D01*
X1Y977D02*
X10Y977D01*
X2245Y977D02*
X2254Y977D01*
X1Y976D02*
X10Y976D01*
X2245Y976D02*
X2254Y976D01*
X1Y975D02*
X10Y975D01*
X2245Y975D02*
X2254Y975D01*
X1Y974D02*
X10Y974D01*
X2245Y974D02*
X2254Y974D01*
X1Y973D02*
X10Y973D01*
X2245Y973D02*
X2254Y973D01*
X1Y972D02*
X10Y972D01*
X2245Y972D02*
X2254Y972D01*
X1Y971D02*
X10Y971D01*
X2245Y971D02*
X2254Y971D01*
X1Y970D02*
X10Y970D01*
X2245Y970D02*
X2254Y970D01*
X1Y969D02*
X10Y969D01*
X2245Y969D02*
X2254Y969D01*
X1Y968D02*
X10Y968D01*
X2245Y968D02*
X2254Y968D01*
X1Y967D02*
X10Y967D01*
X2245Y967D02*
X2254Y967D01*
X1Y966D02*
X10Y966D01*
X2245Y966D02*
X2254Y966D01*
X1Y965D02*
X10Y965D01*
X2245Y965D02*
X2254Y965D01*
X1Y964D02*
X10Y964D01*
X2245Y964D02*
X2254Y964D01*
X1Y963D02*
X10Y963D01*
X2245Y963D02*
X2254Y963D01*
X1Y962D02*
X10Y962D01*
X2245Y962D02*
X2254Y962D01*
X1Y961D02*
X10Y961D01*
X2245Y961D02*
X2254Y961D01*
X1Y960D02*
X10Y960D01*
X2245Y960D02*
X2254Y960D01*
X1Y959D02*
X10Y959D01*
X2245Y959D02*
X2254Y959D01*
X1Y958D02*
X10Y958D01*
X2245Y958D02*
X2254Y958D01*
X1Y957D02*
X10Y957D01*
X2245Y957D02*
X2254Y957D01*
X1Y956D02*
X10Y956D01*
X2245Y956D02*
X2254Y956D01*
X1Y955D02*
X10Y955D01*
X2245Y955D02*
X2254Y955D01*
X1Y954D02*
X10Y954D01*
X2245Y954D02*
X2254Y954D01*
X1Y953D02*
X10Y953D01*
X2245Y953D02*
X2254Y953D01*
X1Y952D02*
X10Y952D01*
X2245Y952D02*
X2254Y952D01*
X1Y951D02*
X10Y951D01*
X2245Y951D02*
X2254Y951D01*
X1Y950D02*
X10Y950D01*
X2245Y950D02*
X2254Y950D01*
X1Y949D02*
X10Y949D01*
X2245Y949D02*
X2254Y949D01*
X1Y948D02*
X10Y948D01*
X2245Y948D02*
X2254Y948D01*
X1Y947D02*
X10Y947D01*
X2245Y947D02*
X2254Y947D01*
X1Y946D02*
X10Y946D01*
X2245Y946D02*
X2254Y946D01*
X1Y945D02*
X10Y945D01*
X2245Y945D02*
X2254Y945D01*
X1Y944D02*
X10Y944D01*
X2245Y944D02*
X2254Y944D01*
X1Y943D02*
X10Y943D01*
X2245Y943D02*
X2254Y943D01*
X1Y942D02*
X10Y942D01*
X2245Y942D02*
X2254Y942D01*
X1Y941D02*
X10Y941D01*
X2245Y941D02*
X2254Y941D01*
X1Y940D02*
X10Y940D01*
X2245Y940D02*
X2254Y940D01*
X1Y939D02*
X10Y939D01*
X2245Y939D02*
X2254Y939D01*
X1Y938D02*
X10Y938D01*
X2245Y938D02*
X2254Y938D01*
X1Y937D02*
X10Y937D01*
X2245Y937D02*
X2254Y937D01*
X1Y936D02*
X10Y936D01*
X2245Y936D02*
X2254Y936D01*
X1Y935D02*
X10Y935D01*
X2245Y935D02*
X2254Y935D01*
X1Y934D02*
X10Y934D01*
X2245Y934D02*
X2254Y934D01*
X1Y933D02*
X10Y933D01*
X2245Y933D02*
X2254Y933D01*
X1Y932D02*
X10Y932D01*
X2245Y932D02*
X2254Y932D01*
X1Y931D02*
X10Y931D01*
X2245Y931D02*
X2254Y931D01*
X1Y930D02*
X10Y930D01*
X2245Y930D02*
X2254Y930D01*
X1Y929D02*
X10Y929D01*
X2245Y929D02*
X2254Y929D01*
X1Y928D02*
X10Y928D01*
X2245Y928D02*
X2254Y928D01*
X1Y927D02*
X10Y927D01*
X2245Y927D02*
X2254Y927D01*
X1Y926D02*
X10Y926D01*
X2245Y926D02*
X2254Y926D01*
X1Y925D02*
X10Y925D01*
X2245Y925D02*
X2254Y925D01*
X1Y924D02*
X10Y924D01*
X2245Y924D02*
X2254Y924D01*
X1Y923D02*
X10Y923D01*
X2245Y923D02*
X2254Y923D01*
X1Y922D02*
X10Y922D01*
X2245Y922D02*
X2254Y922D01*
X1Y921D02*
X10Y921D01*
X2245Y921D02*
X2254Y921D01*
X1Y920D02*
X10Y920D01*
X2245Y920D02*
X2254Y920D01*
X1Y919D02*
X10Y919D01*
X2245Y919D02*
X2254Y919D01*
X1Y918D02*
X10Y918D01*
X2245Y918D02*
X2254Y918D01*
X1Y917D02*
X10Y917D01*
X2245Y917D02*
X2254Y917D01*
X1Y916D02*
X10Y916D01*
X2245Y916D02*
X2254Y916D01*
X1Y915D02*
X10Y915D01*
X2245Y915D02*
X2254Y915D01*
X1Y914D02*
X10Y914D01*
X2245Y914D02*
X2254Y914D01*
X1Y913D02*
X10Y913D01*
X2245Y913D02*
X2254Y913D01*
X1Y912D02*
X10Y912D01*
X2245Y912D02*
X2254Y912D01*
X1Y911D02*
X10Y911D01*
X2245Y911D02*
X2254Y911D01*
X1Y910D02*
X10Y910D01*
X2245Y910D02*
X2254Y910D01*
X1Y909D02*
X10Y909D01*
X2245Y909D02*
X2254Y909D01*
X1Y908D02*
X10Y908D01*
X2245Y908D02*
X2254Y908D01*
X1Y907D02*
X10Y907D01*
X2245Y907D02*
X2254Y907D01*
X1Y906D02*
X10Y906D01*
X2245Y906D02*
X2254Y906D01*
X1Y905D02*
X10Y905D01*
X2245Y905D02*
X2254Y905D01*
X1Y904D02*
X10Y904D01*
X2245Y904D02*
X2254Y904D01*
X1Y903D02*
X10Y903D01*
X2245Y903D02*
X2254Y903D01*
X1Y902D02*
X10Y902D01*
X2245Y902D02*
X2254Y902D01*
X1Y901D02*
X10Y901D01*
X2245Y901D02*
X2254Y901D01*
X1Y900D02*
X10Y900D01*
X2245Y900D02*
X2254Y900D01*
X1Y899D02*
X10Y899D01*
X2245Y899D02*
X2254Y899D01*
X1Y898D02*
X10Y898D01*
X2245Y898D02*
X2254Y898D01*
X1Y897D02*
X10Y897D01*
X2245Y897D02*
X2254Y897D01*
X1Y896D02*
X10Y896D01*
X2245Y896D02*
X2254Y896D01*
X1Y895D02*
X10Y895D01*
X2245Y895D02*
X2254Y895D01*
X1Y894D02*
X10Y894D01*
X2245Y894D02*
X2254Y894D01*
X1Y893D02*
X10Y893D01*
X2245Y893D02*
X2254Y893D01*
X1Y892D02*
X10Y892D01*
X2245Y892D02*
X2254Y892D01*
X1Y891D02*
X10Y891D01*
X2245Y891D02*
X2254Y891D01*
X1Y890D02*
X10Y890D01*
X2245Y890D02*
X2254Y890D01*
X1Y889D02*
X10Y889D01*
X2245Y889D02*
X2254Y889D01*
X1Y888D02*
X10Y888D01*
X2245Y888D02*
X2254Y888D01*
X1Y887D02*
X10Y887D01*
X2245Y887D02*
X2254Y887D01*
X1Y886D02*
X10Y886D01*
X2245Y886D02*
X2254Y886D01*
X1Y885D02*
X10Y885D01*
X2245Y885D02*
X2254Y885D01*
X1Y884D02*
X10Y884D01*
X2245Y884D02*
X2254Y884D01*
X1Y883D02*
X10Y883D01*
X2245Y883D02*
X2254Y883D01*
X1Y882D02*
X10Y882D01*
X2245Y882D02*
X2254Y882D01*
X1Y881D02*
X10Y881D01*
X2245Y881D02*
X2254Y881D01*
X1Y880D02*
X10Y880D01*
X2245Y880D02*
X2254Y880D01*
X1Y879D02*
X10Y879D01*
X2245Y879D02*
X2254Y879D01*
X1Y878D02*
X10Y878D01*
X2245Y878D02*
X2254Y878D01*
X1Y877D02*
X10Y877D01*
X2245Y877D02*
X2254Y877D01*
X1Y876D02*
X10Y876D01*
X2245Y876D02*
X2254Y876D01*
X1Y875D02*
X10Y875D01*
X2245Y875D02*
X2254Y875D01*
X1Y874D02*
X10Y874D01*
X2245Y874D02*
X2254Y874D01*
X1Y873D02*
X10Y873D01*
X2245Y873D02*
X2254Y873D01*
X1Y872D02*
X10Y872D01*
X2245Y872D02*
X2254Y872D01*
X1Y871D02*
X10Y871D01*
X2245Y871D02*
X2254Y871D01*
X1Y870D02*
X10Y870D01*
X2245Y870D02*
X2254Y870D01*
X1Y869D02*
X10Y869D01*
X2245Y869D02*
X2254Y869D01*
X1Y868D02*
X10Y868D01*
X2245Y868D02*
X2254Y868D01*
X1Y867D02*
X10Y867D01*
X2245Y867D02*
X2254Y867D01*
X1Y866D02*
X10Y866D01*
X2245Y866D02*
X2254Y866D01*
X1Y865D02*
X10Y865D01*
X2245Y865D02*
X2254Y865D01*
X1Y864D02*
X10Y864D01*
X2245Y864D02*
X2254Y864D01*
X1Y863D02*
X10Y863D01*
X2245Y863D02*
X2254Y863D01*
X1Y862D02*
X10Y862D01*
X2245Y862D02*
X2254Y862D01*
X1Y861D02*
X10Y861D01*
X2245Y861D02*
X2254Y861D01*
X1Y860D02*
X10Y860D01*
X2245Y860D02*
X2254Y860D01*
X1Y859D02*
X10Y859D01*
X2245Y859D02*
X2254Y859D01*
X1Y858D02*
X10Y858D01*
X2245Y858D02*
X2254Y858D01*
X1Y857D02*
X10Y857D01*
X2245Y857D02*
X2254Y857D01*
X1Y856D02*
X10Y856D01*
X2245Y856D02*
X2254Y856D01*
X1Y855D02*
X10Y855D01*
X2245Y855D02*
X2254Y855D01*
X1Y854D02*
X10Y854D01*
X2245Y854D02*
X2254Y854D01*
X1Y853D02*
X10Y853D01*
X2245Y853D02*
X2254Y853D01*
X1Y852D02*
X10Y852D01*
X2245Y852D02*
X2254Y852D01*
X1Y851D02*
X10Y851D01*
X2245Y851D02*
X2254Y851D01*
X1Y850D02*
X10Y850D01*
X2245Y850D02*
X2254Y850D01*
X1Y849D02*
X10Y849D01*
X2245Y849D02*
X2254Y849D01*
X1Y848D02*
X10Y848D01*
X2245Y848D02*
X2254Y848D01*
X1Y847D02*
X10Y847D01*
X2245Y847D02*
X2254Y847D01*
X1Y846D02*
X10Y846D01*
X2245Y846D02*
X2254Y846D01*
X1Y845D02*
X10Y845D01*
X2245Y845D02*
X2254Y845D01*
X1Y844D02*
X10Y844D01*
X2245Y844D02*
X2254Y844D01*
X1Y843D02*
X10Y843D01*
X2245Y843D02*
X2254Y843D01*
X1Y842D02*
X10Y842D01*
X2245Y842D02*
X2254Y842D01*
X1Y841D02*
X10Y841D01*
X2245Y841D02*
X2254Y841D01*
X1Y840D02*
X10Y840D01*
X2245Y840D02*
X2254Y840D01*
X1Y839D02*
X10Y839D01*
X2245Y839D02*
X2254Y839D01*
X1Y838D02*
X10Y838D01*
X2245Y838D02*
X2254Y838D01*
X1Y837D02*
X10Y837D01*
X2245Y837D02*
X2254Y837D01*
X1Y836D02*
X10Y836D01*
X2245Y836D02*
X2254Y836D01*
X1Y835D02*
X10Y835D01*
X2245Y835D02*
X2254Y835D01*
X1Y834D02*
X10Y834D01*
X2245Y834D02*
X2254Y834D01*
X1Y833D02*
X10Y833D01*
X2245Y833D02*
X2254Y833D01*
X1Y832D02*
X10Y832D01*
X2245Y832D02*
X2254Y832D01*
X1Y831D02*
X10Y831D01*
X2245Y831D02*
X2254Y831D01*
X1Y830D02*
X10Y830D01*
X2245Y830D02*
X2254Y830D01*
X1Y829D02*
X10Y829D01*
X2245Y829D02*
X2254Y829D01*
X1Y828D02*
X10Y828D01*
X2245Y828D02*
X2254Y828D01*
X1Y827D02*
X10Y827D01*
X2245Y827D02*
X2254Y827D01*
X1Y826D02*
X10Y826D01*
X2245Y826D02*
X2254Y826D01*
X1Y825D02*
X10Y825D01*
X2245Y825D02*
X2254Y825D01*
X1Y824D02*
X10Y824D01*
X2245Y824D02*
X2254Y824D01*
X1Y823D02*
X10Y823D01*
X2245Y823D02*
X2254Y823D01*
X1Y822D02*
X10Y822D01*
X2245Y822D02*
X2254Y822D01*
X1Y821D02*
X10Y821D01*
X2245Y821D02*
X2254Y821D01*
X1Y820D02*
X10Y820D01*
X2245Y820D02*
X2254Y820D01*
X1Y819D02*
X10Y819D01*
X2245Y819D02*
X2254Y819D01*
X1Y818D02*
X10Y818D01*
X2245Y818D02*
X2254Y818D01*
X1Y817D02*
X10Y817D01*
X2245Y817D02*
X2254Y817D01*
X1Y816D02*
X10Y816D01*
X2245Y816D02*
X2254Y816D01*
X1Y815D02*
X10Y815D01*
X2245Y815D02*
X2254Y815D01*
X1Y814D02*
X10Y814D01*
X2245Y814D02*
X2254Y814D01*
X1Y813D02*
X10Y813D01*
X2245Y813D02*
X2254Y813D01*
X1Y812D02*
X10Y812D01*
X2245Y812D02*
X2254Y812D01*
X1Y811D02*
X10Y811D01*
X2245Y811D02*
X2254Y811D01*
X1Y810D02*
X10Y810D01*
X2245Y810D02*
X2254Y810D01*
X1Y809D02*
X10Y809D01*
X2245Y809D02*
X2254Y809D01*
X1Y808D02*
X10Y808D01*
X2245Y808D02*
X2254Y808D01*
X1Y807D02*
X10Y807D01*
X2245Y807D02*
X2254Y807D01*
X1Y806D02*
X10Y806D01*
X2245Y806D02*
X2254Y806D01*
X1Y805D02*
X10Y805D01*
X2245Y805D02*
X2254Y805D01*
X1Y804D02*
X10Y804D01*
X2245Y804D02*
X2254Y804D01*
X1Y803D02*
X10Y803D01*
X2245Y803D02*
X2254Y803D01*
X1Y802D02*
X10Y802D01*
X2245Y802D02*
X2254Y802D01*
X1Y801D02*
X10Y801D01*
X2245Y801D02*
X2254Y801D01*
X1Y800D02*
X10Y800D01*
X2245Y800D02*
X2254Y800D01*
X1Y799D02*
X10Y799D01*
X2245Y799D02*
X2254Y799D01*
X1Y798D02*
X10Y798D01*
X2245Y798D02*
X2254Y798D01*
X1Y797D02*
X10Y797D01*
X2245Y797D02*
X2254Y797D01*
X1Y796D02*
X10Y796D01*
X2245Y796D02*
X2254Y796D01*
X1Y795D02*
X10Y795D01*
X2245Y795D02*
X2254Y795D01*
X1Y794D02*
X10Y794D01*
X2245Y794D02*
X2254Y794D01*
X1Y793D02*
X10Y793D01*
X2245Y793D02*
X2254Y793D01*
X1Y792D02*
X10Y792D01*
X2245Y792D02*
X2254Y792D01*
X1Y791D02*
X10Y791D01*
X2245Y791D02*
X2254Y791D01*
X1Y790D02*
X10Y790D01*
X2245Y790D02*
X2254Y790D01*
X1Y789D02*
X10Y789D01*
X2245Y789D02*
X2254Y789D01*
X1Y788D02*
X10Y788D01*
X2245Y788D02*
X2254Y788D01*
X1Y787D02*
X10Y787D01*
X2245Y787D02*
X2254Y787D01*
X1Y786D02*
X10Y786D01*
X2245Y786D02*
X2254Y786D01*
X1Y785D02*
X10Y785D01*
X2245Y785D02*
X2254Y785D01*
X1Y784D02*
X10Y784D01*
X2245Y784D02*
X2254Y784D01*
X1Y783D02*
X10Y783D01*
X2245Y783D02*
X2254Y783D01*
X1Y782D02*
X10Y782D01*
X2245Y782D02*
X2254Y782D01*
X1Y781D02*
X10Y781D01*
X2245Y781D02*
X2254Y781D01*
X1Y780D02*
X10Y780D01*
X2245Y780D02*
X2254Y780D01*
X1Y779D02*
X10Y779D01*
X2245Y779D02*
X2254Y779D01*
X1Y778D02*
X10Y778D01*
X2245Y778D02*
X2254Y778D01*
X1Y777D02*
X10Y777D01*
X2245Y777D02*
X2254Y777D01*
X1Y776D02*
X10Y776D01*
X2245Y776D02*
X2254Y776D01*
X1Y775D02*
X10Y775D01*
X2245Y775D02*
X2254Y775D01*
X1Y774D02*
X10Y774D01*
X2245Y774D02*
X2254Y774D01*
X1Y773D02*
X10Y773D01*
X2245Y773D02*
X2254Y773D01*
X1Y772D02*
X10Y772D01*
X2245Y772D02*
X2254Y772D01*
X1Y771D02*
X10Y771D01*
X2245Y771D02*
X2254Y771D01*
X1Y770D02*
X10Y770D01*
X2245Y770D02*
X2254Y770D01*
X1Y769D02*
X10Y769D01*
X2245Y769D02*
X2254Y769D01*
X1Y768D02*
X10Y768D01*
X2245Y768D02*
X2254Y768D01*
X1Y767D02*
X10Y767D01*
X2245Y767D02*
X2254Y767D01*
X1Y766D02*
X10Y766D01*
X2245Y766D02*
X2254Y766D01*
X1Y765D02*
X10Y765D01*
X2245Y765D02*
X2254Y765D01*
X1Y764D02*
X10Y764D01*
X2245Y764D02*
X2254Y764D01*
X1Y763D02*
X10Y763D01*
X2245Y763D02*
X2254Y763D01*
X1Y762D02*
X10Y762D01*
X2245Y762D02*
X2254Y762D01*
X1Y761D02*
X10Y761D01*
X2245Y761D02*
X2254Y761D01*
X1Y760D02*
X10Y760D01*
X2245Y760D02*
X2254Y760D01*
X1Y759D02*
X10Y759D01*
X2245Y759D02*
X2254Y759D01*
X1Y758D02*
X10Y758D01*
X2245Y758D02*
X2254Y758D01*
X1Y757D02*
X10Y757D01*
X2245Y757D02*
X2254Y757D01*
X1Y756D02*
X10Y756D01*
X2245Y756D02*
X2254Y756D01*
X1Y755D02*
X10Y755D01*
X2245Y755D02*
X2254Y755D01*
X1Y754D02*
X10Y754D01*
X2245Y754D02*
X2254Y754D01*
X1Y753D02*
X10Y753D01*
X2245Y753D02*
X2254Y753D01*
X1Y752D02*
X10Y752D01*
X2245Y752D02*
X2254Y752D01*
X1Y751D02*
X10Y751D01*
X2245Y751D02*
X2254Y751D01*
X1Y750D02*
X10Y750D01*
X2245Y750D02*
X2254Y750D01*
X1Y749D02*
X10Y749D01*
X2245Y749D02*
X2254Y749D01*
X1Y748D02*
X10Y748D01*
X2245Y748D02*
X2254Y748D01*
X1Y747D02*
X10Y747D01*
X2245Y747D02*
X2254Y747D01*
X1Y746D02*
X10Y746D01*
X2245Y746D02*
X2254Y746D01*
X1Y745D02*
X10Y745D01*
X2245Y745D02*
X2254Y745D01*
X1Y744D02*
X10Y744D01*
X2245Y744D02*
X2254Y744D01*
X1Y743D02*
X10Y743D01*
X2245Y743D02*
X2254Y743D01*
X1Y742D02*
X10Y742D01*
X2245Y742D02*
X2254Y742D01*
X1Y741D02*
X10Y741D01*
X2245Y741D02*
X2254Y741D01*
X1Y740D02*
X10Y740D01*
X2245Y740D02*
X2254Y740D01*
X1Y739D02*
X10Y739D01*
X2245Y739D02*
X2254Y739D01*
X1Y738D02*
X10Y738D01*
X2245Y738D02*
X2254Y738D01*
X1Y737D02*
X10Y737D01*
X2245Y737D02*
X2254Y737D01*
X1Y736D02*
X10Y736D01*
X2245Y736D02*
X2254Y736D01*
X1Y735D02*
X10Y735D01*
X2245Y735D02*
X2254Y735D01*
X1Y734D02*
X10Y734D01*
X2245Y734D02*
X2254Y734D01*
X1Y733D02*
X10Y733D01*
X2245Y733D02*
X2254Y733D01*
X1Y732D02*
X10Y732D01*
X2245Y732D02*
X2254Y732D01*
X1Y731D02*
X10Y731D01*
X2245Y731D02*
X2254Y731D01*
X1Y730D02*
X10Y730D01*
X2245Y730D02*
X2254Y730D01*
X1Y729D02*
X10Y729D01*
X2245Y729D02*
X2254Y729D01*
X1Y728D02*
X10Y728D01*
X2245Y728D02*
X2254Y728D01*
X1Y727D02*
X10Y727D01*
X2245Y727D02*
X2254Y727D01*
X1Y726D02*
X10Y726D01*
X2245Y726D02*
X2254Y726D01*
X1Y725D02*
X10Y725D01*
X2245Y725D02*
X2254Y725D01*
X1Y724D02*
X10Y724D01*
X2245Y724D02*
X2254Y724D01*
X1Y723D02*
X10Y723D01*
X2245Y723D02*
X2254Y723D01*
X1Y722D02*
X10Y722D01*
X2245Y722D02*
X2254Y722D01*
X1Y721D02*
X10Y721D01*
X2245Y721D02*
X2254Y721D01*
X1Y720D02*
X10Y720D01*
X2245Y720D02*
X2254Y720D01*
X1Y719D02*
X10Y719D01*
X2245Y719D02*
X2254Y719D01*
X1Y718D02*
X10Y718D01*
X2245Y718D02*
X2254Y718D01*
X1Y717D02*
X10Y717D01*
X2245Y717D02*
X2254Y717D01*
X1Y716D02*
X10Y716D01*
X2245Y716D02*
X2254Y716D01*
X1Y715D02*
X10Y715D01*
X2245Y715D02*
X2254Y715D01*
X1Y714D02*
X10Y714D01*
X2245Y714D02*
X2254Y714D01*
X1Y713D02*
X10Y713D01*
X2245Y713D02*
X2254Y713D01*
X1Y712D02*
X10Y712D01*
X2245Y712D02*
X2254Y712D01*
X1Y711D02*
X10Y711D01*
X2245Y711D02*
X2254Y711D01*
X1Y710D02*
X10Y710D01*
X2245Y710D02*
X2254Y710D01*
X1Y709D02*
X10Y709D01*
X2245Y709D02*
X2254Y709D01*
X1Y708D02*
X10Y708D01*
X2245Y708D02*
X2254Y708D01*
X1Y707D02*
X10Y707D01*
X2245Y707D02*
X2254Y707D01*
X1Y706D02*
X10Y706D01*
X2245Y706D02*
X2254Y706D01*
X1Y705D02*
X10Y705D01*
X2245Y705D02*
X2254Y705D01*
X1Y704D02*
X10Y704D01*
X2245Y704D02*
X2254Y704D01*
X1Y703D02*
X10Y703D01*
X2245Y703D02*
X2254Y703D01*
X1Y702D02*
X10Y702D01*
X2245Y702D02*
X2254Y702D01*
X1Y701D02*
X10Y701D01*
X2245Y701D02*
X2254Y701D01*
X1Y700D02*
X10Y700D01*
X2245Y700D02*
X2254Y700D01*
X1Y699D02*
X10Y699D01*
X2245Y699D02*
X2254Y699D01*
X1Y698D02*
X10Y698D01*
X2245Y698D02*
X2254Y698D01*
X1Y697D02*
X10Y697D01*
X2245Y697D02*
X2254Y697D01*
X1Y696D02*
X10Y696D01*
X2245Y696D02*
X2254Y696D01*
X1Y695D02*
X10Y695D01*
X2245Y695D02*
X2254Y695D01*
X1Y694D02*
X10Y694D01*
X2245Y694D02*
X2254Y694D01*
X1Y693D02*
X10Y693D01*
X2245Y693D02*
X2254Y693D01*
X1Y692D02*
X10Y692D01*
X2245Y692D02*
X2254Y692D01*
X1Y691D02*
X10Y691D01*
X2245Y691D02*
X2254Y691D01*
X1Y690D02*
X10Y690D01*
X2245Y690D02*
X2254Y690D01*
X1Y689D02*
X10Y689D01*
X2245Y689D02*
X2254Y689D01*
X1Y688D02*
X10Y688D01*
X2245Y688D02*
X2254Y688D01*
X1Y687D02*
X10Y687D01*
X2245Y687D02*
X2254Y687D01*
X1Y686D02*
X10Y686D01*
X2245Y686D02*
X2254Y686D01*
X1Y685D02*
X10Y685D01*
X2245Y685D02*
X2254Y685D01*
X1Y684D02*
X10Y684D01*
X2245Y684D02*
X2254Y684D01*
X1Y683D02*
X10Y683D01*
X2245Y683D02*
X2254Y683D01*
X1Y682D02*
X10Y682D01*
X2245Y682D02*
X2254Y682D01*
X1Y681D02*
X10Y681D01*
X2245Y681D02*
X2254Y681D01*
X1Y680D02*
X10Y680D01*
X2245Y680D02*
X2254Y680D01*
X1Y679D02*
X10Y679D01*
X2245Y679D02*
X2254Y679D01*
X1Y678D02*
X10Y678D01*
X2245Y678D02*
X2254Y678D01*
X1Y677D02*
X10Y677D01*
X2245Y677D02*
X2254Y677D01*
X1Y676D02*
X10Y676D01*
X2245Y676D02*
X2254Y676D01*
X1Y675D02*
X10Y675D01*
X2245Y675D02*
X2254Y675D01*
X1Y674D02*
X10Y674D01*
X2245Y674D02*
X2254Y674D01*
X1Y673D02*
X10Y673D01*
X2245Y673D02*
X2254Y673D01*
X1Y672D02*
X10Y672D01*
X2245Y672D02*
X2254Y672D01*
X1Y671D02*
X10Y671D01*
X2245Y671D02*
X2254Y671D01*
X1Y670D02*
X10Y670D01*
X2245Y670D02*
X2254Y670D01*
X1Y669D02*
X10Y669D01*
X2245Y669D02*
X2254Y669D01*
X1Y668D02*
X10Y668D01*
X2245Y668D02*
X2254Y668D01*
X1Y667D02*
X10Y667D01*
X2245Y667D02*
X2254Y667D01*
X1Y666D02*
X10Y666D01*
X2245Y666D02*
X2254Y666D01*
X1Y665D02*
X10Y665D01*
X2245Y665D02*
X2254Y665D01*
X1Y664D02*
X10Y664D01*
X2245Y664D02*
X2254Y664D01*
X1Y663D02*
X10Y663D01*
X2245Y663D02*
X2254Y663D01*
X1Y662D02*
X10Y662D01*
X2245Y662D02*
X2254Y662D01*
X1Y661D02*
X10Y661D01*
X2245Y661D02*
X2254Y661D01*
X1Y660D02*
X10Y660D01*
X2245Y660D02*
X2254Y660D01*
X1Y659D02*
X10Y659D01*
X2245Y659D02*
X2254Y659D01*
X1Y658D02*
X10Y658D01*
X2245Y658D02*
X2254Y658D01*
X1Y657D02*
X10Y657D01*
X2245Y657D02*
X2254Y657D01*
X1Y656D02*
X10Y656D01*
X2245Y656D02*
X2254Y656D01*
X1Y655D02*
X10Y655D01*
X2245Y655D02*
X2254Y655D01*
X1Y654D02*
X10Y654D01*
X2245Y654D02*
X2254Y654D01*
X1Y653D02*
X10Y653D01*
X2245Y653D02*
X2254Y653D01*
X1Y652D02*
X10Y652D01*
X2245Y652D02*
X2254Y652D01*
X1Y651D02*
X10Y651D01*
X2245Y651D02*
X2254Y651D01*
X1Y650D02*
X10Y650D01*
X2245Y650D02*
X2254Y650D01*
X1Y649D02*
X10Y649D01*
X2245Y649D02*
X2254Y649D01*
X1Y648D02*
X10Y648D01*
X2245Y648D02*
X2254Y648D01*
X1Y647D02*
X10Y647D01*
X2245Y647D02*
X2254Y647D01*
X1Y646D02*
X10Y646D01*
X2245Y646D02*
X2254Y646D01*
X1Y645D02*
X10Y645D01*
X2245Y645D02*
X2254Y645D01*
X1Y644D02*
X10Y644D01*
X2245Y644D02*
X2254Y644D01*
X1Y643D02*
X10Y643D01*
X2245Y643D02*
X2254Y643D01*
X1Y642D02*
X10Y642D01*
X2245Y642D02*
X2254Y642D01*
X1Y641D02*
X10Y641D01*
X2245Y641D02*
X2254Y641D01*
X1Y640D02*
X10Y640D01*
X2245Y640D02*
X2254Y640D01*
X1Y639D02*
X10Y639D01*
X2245Y639D02*
X2254Y639D01*
X1Y638D02*
X10Y638D01*
X2245Y638D02*
X2254Y638D01*
X1Y637D02*
X10Y637D01*
X2245Y637D02*
X2254Y637D01*
X1Y636D02*
X10Y636D01*
X2245Y636D02*
X2254Y636D01*
X1Y635D02*
X10Y635D01*
X2245Y635D02*
X2254Y635D01*
X1Y634D02*
X10Y634D01*
X2245Y634D02*
X2254Y634D01*
X1Y633D02*
X10Y633D01*
X2245Y633D02*
X2254Y633D01*
X1Y632D02*
X10Y632D01*
X2245Y632D02*
X2254Y632D01*
X1Y631D02*
X10Y631D01*
X2245Y631D02*
X2254Y631D01*
X1Y630D02*
X10Y630D01*
X2245Y630D02*
X2254Y630D01*
X1Y629D02*
X10Y629D01*
X2245Y629D02*
X2254Y629D01*
X1Y628D02*
X10Y628D01*
X2245Y628D02*
X2254Y628D01*
X1Y627D02*
X10Y627D01*
X2245Y627D02*
X2254Y627D01*
X1Y626D02*
X10Y626D01*
X2245Y626D02*
X2254Y626D01*
X1Y625D02*
X10Y625D01*
X2245Y625D02*
X2254Y625D01*
X1Y624D02*
X10Y624D01*
X2245Y624D02*
X2254Y624D01*
X1Y623D02*
X10Y623D01*
X2245Y623D02*
X2254Y623D01*
X1Y622D02*
X10Y622D01*
X2245Y622D02*
X2254Y622D01*
X1Y621D02*
X10Y621D01*
X2245Y621D02*
X2254Y621D01*
X1Y620D02*
X10Y620D01*
X2245Y620D02*
X2254Y620D01*
X1Y619D02*
X10Y619D01*
X2245Y619D02*
X2254Y619D01*
X1Y618D02*
X10Y618D01*
X2245Y618D02*
X2254Y618D01*
X1Y617D02*
X10Y617D01*
X2245Y617D02*
X2254Y617D01*
X1Y616D02*
X10Y616D01*
X2245Y616D02*
X2254Y616D01*
X1Y615D02*
X10Y615D01*
X2245Y615D02*
X2254Y615D01*
X1Y614D02*
X10Y614D01*
X2245Y614D02*
X2254Y614D01*
X1Y613D02*
X10Y613D01*
X2245Y613D02*
X2254Y613D01*
X1Y612D02*
X10Y612D01*
X2245Y612D02*
X2254Y612D01*
X1Y611D02*
X10Y611D01*
X2245Y611D02*
X2254Y611D01*
X1Y610D02*
X10Y610D01*
X2245Y610D02*
X2254Y610D01*
X1Y609D02*
X10Y609D01*
X2245Y609D02*
X2254Y609D01*
X1Y608D02*
X10Y608D01*
X2245Y608D02*
X2254Y608D01*
X1Y607D02*
X10Y607D01*
X2245Y607D02*
X2254Y607D01*
X1Y606D02*
X10Y606D01*
X2245Y606D02*
X2254Y606D01*
X1Y605D02*
X10Y605D01*
X2245Y605D02*
X2254Y605D01*
X1Y604D02*
X10Y604D01*
X2245Y604D02*
X2254Y604D01*
X1Y603D02*
X10Y603D01*
X2245Y603D02*
X2254Y603D01*
X1Y602D02*
X10Y602D01*
X2245Y602D02*
X2254Y602D01*
X1Y601D02*
X10Y601D01*
X2245Y601D02*
X2254Y601D01*
X1Y600D02*
X10Y600D01*
X2245Y600D02*
X2254Y600D01*
X1Y599D02*
X10Y599D01*
X2245Y599D02*
X2254Y599D01*
X1Y598D02*
X10Y598D01*
X2245Y598D02*
X2254Y598D01*
X1Y597D02*
X10Y597D01*
X2245Y597D02*
X2254Y597D01*
X1Y596D02*
X10Y596D01*
X2245Y596D02*
X2254Y596D01*
X1Y595D02*
X10Y595D01*
X2245Y595D02*
X2254Y595D01*
X1Y594D02*
X10Y594D01*
X2245Y594D02*
X2254Y594D01*
X1Y593D02*
X10Y593D01*
X2245Y593D02*
X2254Y593D01*
X1Y592D02*
X10Y592D01*
X2245Y592D02*
X2254Y592D01*
X1Y591D02*
X10Y591D01*
X2245Y591D02*
X2254Y591D01*
X1Y590D02*
X10Y590D01*
X2245Y590D02*
X2254Y590D01*
X1Y589D02*
X10Y589D01*
X2245Y589D02*
X2254Y589D01*
X1Y588D02*
X10Y588D01*
X2245Y588D02*
X2254Y588D01*
X1Y587D02*
X10Y587D01*
X2245Y587D02*
X2254Y587D01*
X1Y586D02*
X10Y586D01*
X2245Y586D02*
X2254Y586D01*
X1Y585D02*
X10Y585D01*
X2245Y585D02*
X2254Y585D01*
X1Y584D02*
X10Y584D01*
X2245Y584D02*
X2254Y584D01*
X1Y583D02*
X10Y583D01*
X2245Y583D02*
X2254Y583D01*
X1Y582D02*
X10Y582D01*
X2245Y582D02*
X2254Y582D01*
X1Y581D02*
X10Y581D01*
X2245Y581D02*
X2254Y581D01*
X1Y580D02*
X10Y580D01*
X2245Y580D02*
X2254Y580D01*
X1Y579D02*
X10Y579D01*
X2245Y579D02*
X2254Y579D01*
X1Y578D02*
X10Y578D01*
X2245Y578D02*
X2254Y578D01*
X1Y577D02*
X10Y577D01*
X2245Y577D02*
X2254Y577D01*
X1Y576D02*
X10Y576D01*
X2245Y576D02*
X2254Y576D01*
X1Y575D02*
X10Y575D01*
X2245Y575D02*
X2254Y575D01*
X1Y574D02*
X10Y574D01*
X2245Y574D02*
X2254Y574D01*
X1Y573D02*
X10Y573D01*
X2245Y573D02*
X2254Y573D01*
X1Y572D02*
X10Y572D01*
X2245Y572D02*
X2254Y572D01*
X1Y571D02*
X10Y571D01*
X2245Y571D02*
X2254Y571D01*
X1Y570D02*
X10Y570D01*
X2245Y570D02*
X2254Y570D01*
X1Y569D02*
X10Y569D01*
X2245Y569D02*
X2254Y569D01*
X1Y568D02*
X10Y568D01*
X2245Y568D02*
X2254Y568D01*
X1Y567D02*
X10Y567D01*
X2245Y567D02*
X2254Y567D01*
X1Y566D02*
X10Y566D01*
X2245Y566D02*
X2254Y566D01*
X1Y565D02*
X10Y565D01*
X2245Y565D02*
X2254Y565D01*
X1Y564D02*
X10Y564D01*
X2245Y564D02*
X2254Y564D01*
X1Y563D02*
X10Y563D01*
X2245Y563D02*
X2254Y563D01*
X1Y562D02*
X10Y562D01*
X2245Y562D02*
X2254Y562D01*
X1Y561D02*
X10Y561D01*
X2245Y561D02*
X2254Y561D01*
X1Y560D02*
X10Y560D01*
X2245Y560D02*
X2254Y560D01*
X1Y559D02*
X10Y559D01*
X2245Y559D02*
X2254Y559D01*
X1Y558D02*
X10Y558D01*
X2245Y558D02*
X2254Y558D01*
X1Y557D02*
X10Y557D01*
X2245Y557D02*
X2254Y557D01*
X1Y556D02*
X10Y556D01*
X2245Y556D02*
X2254Y556D01*
X1Y555D02*
X10Y555D01*
X2245Y555D02*
X2254Y555D01*
X1Y554D02*
X10Y554D01*
X2245Y554D02*
X2254Y554D01*
X1Y553D02*
X10Y553D01*
X2245Y553D02*
X2254Y553D01*
X1Y552D02*
X10Y552D01*
X2245Y552D02*
X2254Y552D01*
X1Y551D02*
X10Y551D01*
X2245Y551D02*
X2254Y551D01*
X1Y550D02*
X10Y550D01*
X2245Y550D02*
X2254Y550D01*
X1Y549D02*
X10Y549D01*
X2245Y549D02*
X2254Y549D01*
X1Y548D02*
X10Y548D01*
X2245Y548D02*
X2254Y548D01*
X1Y547D02*
X10Y547D01*
X2245Y547D02*
X2254Y547D01*
X1Y546D02*
X10Y546D01*
X2245Y546D02*
X2254Y546D01*
X1Y545D02*
X10Y545D01*
X2245Y545D02*
X2254Y545D01*
X1Y544D02*
X10Y544D01*
X2245Y544D02*
X2254Y544D01*
X1Y543D02*
X10Y543D01*
X2245Y543D02*
X2254Y543D01*
X1Y542D02*
X10Y542D01*
X2245Y542D02*
X2254Y542D01*
X1Y541D02*
X10Y541D01*
X2245Y541D02*
X2254Y541D01*
X1Y540D02*
X10Y540D01*
X2245Y540D02*
X2254Y540D01*
X1Y539D02*
X10Y539D01*
X2245Y539D02*
X2254Y539D01*
X1Y538D02*
X10Y538D01*
X2245Y538D02*
X2254Y538D01*
X1Y537D02*
X10Y537D01*
X2245Y537D02*
X2254Y537D01*
X1Y536D02*
X10Y536D01*
X2245Y536D02*
X2254Y536D01*
X1Y535D02*
X10Y535D01*
X2245Y535D02*
X2254Y535D01*
X1Y534D02*
X10Y534D01*
X2245Y534D02*
X2254Y534D01*
X1Y533D02*
X10Y533D01*
X2245Y533D02*
X2254Y533D01*
X1Y532D02*
X10Y532D01*
X2245Y532D02*
X2254Y532D01*
X1Y531D02*
X10Y531D01*
X2245Y531D02*
X2254Y531D01*
X1Y530D02*
X10Y530D01*
X2245Y530D02*
X2254Y530D01*
X1Y529D02*
X10Y529D01*
X2245Y529D02*
X2254Y529D01*
X1Y528D02*
X10Y528D01*
X2245Y528D02*
X2254Y528D01*
X1Y527D02*
X10Y527D01*
X2245Y527D02*
X2254Y527D01*
X1Y526D02*
X10Y526D01*
X2245Y526D02*
X2254Y526D01*
X1Y525D02*
X10Y525D01*
X2245Y525D02*
X2254Y525D01*
X1Y524D02*
X10Y524D01*
X2245Y524D02*
X2254Y524D01*
X1Y523D02*
X10Y523D01*
X2245Y523D02*
X2254Y523D01*
X1Y522D02*
X10Y522D01*
X2245Y522D02*
X2254Y522D01*
X1Y521D02*
X10Y521D01*
X2245Y521D02*
X2254Y521D01*
X1Y520D02*
X10Y520D01*
X2245Y520D02*
X2254Y520D01*
X1Y519D02*
X10Y519D01*
X2245Y519D02*
X2254Y519D01*
X1Y518D02*
X10Y518D01*
X2245Y518D02*
X2254Y518D01*
X1Y517D02*
X10Y517D01*
X2245Y517D02*
X2254Y517D01*
X1Y516D02*
X10Y516D01*
X2245Y516D02*
X2254Y516D01*
X1Y515D02*
X10Y515D01*
X2245Y515D02*
X2254Y515D01*
X1Y514D02*
X10Y514D01*
X2245Y514D02*
X2254Y514D01*
X1Y513D02*
X10Y513D01*
X2245Y513D02*
X2254Y513D01*
X1Y512D02*
X10Y512D01*
X2245Y512D02*
X2254Y512D01*
X1Y511D02*
X10Y511D01*
X2245Y511D02*
X2254Y511D01*
X1Y510D02*
X10Y510D01*
X2245Y510D02*
X2254Y510D01*
X1Y509D02*
X10Y509D01*
X2245Y509D02*
X2254Y509D01*
X1Y508D02*
X10Y508D01*
X2245Y508D02*
X2254Y508D01*
X1Y507D02*
X10Y507D01*
X2245Y507D02*
X2254Y507D01*
X1Y506D02*
X10Y506D01*
X2245Y506D02*
X2254Y506D01*
X1Y505D02*
X10Y505D01*
X2245Y505D02*
X2254Y505D01*
X1Y504D02*
X10Y504D01*
X2245Y504D02*
X2254Y504D01*
X1Y503D02*
X10Y503D01*
X2245Y503D02*
X2254Y503D01*
X1Y502D02*
X10Y502D01*
X2245Y502D02*
X2254Y502D01*
X1Y501D02*
X10Y501D01*
X2245Y501D02*
X2254Y501D01*
X1Y500D02*
X10Y500D01*
X2245Y500D02*
X2254Y500D01*
X1Y499D02*
X10Y499D01*
X2245Y499D02*
X2254Y499D01*
X1Y498D02*
X10Y498D01*
X2245Y498D02*
X2254Y498D01*
X1Y497D02*
X10Y497D01*
X2245Y497D02*
X2254Y497D01*
X1Y496D02*
X10Y496D01*
X2245Y496D02*
X2254Y496D01*
X1Y495D02*
X10Y495D01*
X2245Y495D02*
X2254Y495D01*
X1Y494D02*
X10Y494D01*
X2245Y494D02*
X2254Y494D01*
X1Y493D02*
X10Y493D01*
X2245Y493D02*
X2254Y493D01*
X1Y492D02*
X10Y492D01*
X2245Y492D02*
X2254Y492D01*
X1Y491D02*
X10Y491D01*
X2245Y491D02*
X2254Y491D01*
X1Y490D02*
X10Y490D01*
X2245Y490D02*
X2254Y490D01*
X1Y489D02*
X10Y489D01*
X2245Y489D02*
X2254Y489D01*
X1Y488D02*
X10Y488D01*
X2245Y488D02*
X2254Y488D01*
X1Y487D02*
X10Y487D01*
X2245Y487D02*
X2254Y487D01*
X1Y486D02*
X10Y486D01*
X2245Y486D02*
X2254Y486D01*
X1Y485D02*
X10Y485D01*
X2245Y485D02*
X2254Y485D01*
X1Y484D02*
X10Y484D01*
X2245Y484D02*
X2254Y484D01*
X1Y483D02*
X10Y483D01*
X2245Y483D02*
X2254Y483D01*
X1Y482D02*
X10Y482D01*
X2245Y482D02*
X2254Y482D01*
X1Y481D02*
X10Y481D01*
X2245Y481D02*
X2254Y481D01*
X1Y480D02*
X10Y480D01*
X2245Y480D02*
X2254Y480D01*
X1Y479D02*
X10Y479D01*
X2245Y479D02*
X2254Y479D01*
X1Y478D02*
X10Y478D01*
X2245Y478D02*
X2254Y478D01*
X1Y477D02*
X10Y477D01*
X2245Y477D02*
X2254Y477D01*
X1Y476D02*
X10Y476D01*
X2245Y476D02*
X2254Y476D01*
X1Y475D02*
X10Y475D01*
X2245Y475D02*
X2254Y475D01*
X1Y474D02*
X10Y474D01*
X2245Y474D02*
X2254Y474D01*
X1Y473D02*
X10Y473D01*
X2245Y473D02*
X2254Y473D01*
X1Y472D02*
X10Y472D01*
X2245Y472D02*
X2254Y472D01*
X1Y471D02*
X10Y471D01*
X2245Y471D02*
X2254Y471D01*
X1Y470D02*
X10Y470D01*
X2245Y470D02*
X2254Y470D01*
X1Y469D02*
X10Y469D01*
X2245Y469D02*
X2254Y469D01*
X1Y468D02*
X10Y468D01*
X2245Y468D02*
X2254Y468D01*
X1Y467D02*
X10Y467D01*
X2245Y467D02*
X2254Y467D01*
X1Y466D02*
X10Y466D01*
X2245Y466D02*
X2254Y466D01*
X1Y465D02*
X10Y465D01*
X2245Y465D02*
X2254Y465D01*
X1Y464D02*
X10Y464D01*
X2245Y464D02*
X2254Y464D01*
X1Y463D02*
X10Y463D01*
X2245Y463D02*
X2254Y463D01*
X1Y462D02*
X10Y462D01*
X2245Y462D02*
X2254Y462D01*
X1Y461D02*
X10Y461D01*
X2245Y461D02*
X2254Y461D01*
X1Y460D02*
X10Y460D01*
X2245Y460D02*
X2254Y460D01*
X1Y459D02*
X10Y459D01*
X2245Y459D02*
X2254Y459D01*
X1Y458D02*
X10Y458D01*
X2245Y458D02*
X2254Y458D01*
X1Y457D02*
X10Y457D01*
X2245Y457D02*
X2254Y457D01*
X1Y456D02*
X10Y456D01*
X2245Y456D02*
X2254Y456D01*
X1Y455D02*
X10Y455D01*
X2245Y455D02*
X2254Y455D01*
X1Y454D02*
X10Y454D01*
X2245Y454D02*
X2254Y454D01*
X1Y453D02*
X10Y453D01*
X2245Y453D02*
X2254Y453D01*
X1Y452D02*
X10Y452D01*
X2245Y452D02*
X2254Y452D01*
X1Y451D02*
X10Y451D01*
X2245Y451D02*
X2254Y451D01*
X1Y450D02*
X10Y450D01*
X2245Y450D02*
X2254Y450D01*
X1Y449D02*
X10Y449D01*
X2245Y449D02*
X2254Y449D01*
X1Y448D02*
X10Y448D01*
X2245Y448D02*
X2254Y448D01*
X1Y447D02*
X10Y447D01*
X2245Y447D02*
X2254Y447D01*
X1Y446D02*
X10Y446D01*
X2245Y446D02*
X2254Y446D01*
X1Y445D02*
X10Y445D01*
X2245Y445D02*
X2254Y445D01*
X1Y444D02*
X10Y444D01*
X2245Y444D02*
X2254Y444D01*
X1Y443D02*
X10Y443D01*
X2245Y443D02*
X2254Y443D01*
X1Y442D02*
X10Y442D01*
X2245Y442D02*
X2254Y442D01*
X1Y441D02*
X10Y441D01*
X2245Y441D02*
X2254Y441D01*
X1Y440D02*
X10Y440D01*
X2245Y440D02*
X2254Y440D01*
X1Y439D02*
X10Y439D01*
X2245Y439D02*
X2254Y439D01*
X1Y438D02*
X10Y438D01*
X2245Y438D02*
X2254Y438D01*
X1Y437D02*
X10Y437D01*
X2245Y437D02*
X2254Y437D01*
X1Y436D02*
X10Y436D01*
X2245Y436D02*
X2254Y436D01*
X1Y435D02*
X10Y435D01*
X2245Y435D02*
X2254Y435D01*
X1Y434D02*
X10Y434D01*
X2245Y434D02*
X2254Y434D01*
X1Y433D02*
X10Y433D01*
X2245Y433D02*
X2254Y433D01*
X1Y432D02*
X10Y432D01*
X2245Y432D02*
X2254Y432D01*
X1Y431D02*
X10Y431D01*
X2245Y431D02*
X2254Y431D01*
X1Y430D02*
X10Y430D01*
X2245Y430D02*
X2254Y430D01*
X1Y429D02*
X10Y429D01*
X2245Y429D02*
X2254Y429D01*
X1Y428D02*
X10Y428D01*
X2245Y428D02*
X2254Y428D01*
X1Y427D02*
X10Y427D01*
X2245Y427D02*
X2254Y427D01*
X1Y426D02*
X10Y426D01*
X2245Y426D02*
X2254Y426D01*
X1Y425D02*
X10Y425D01*
X2245Y425D02*
X2254Y425D01*
X1Y424D02*
X10Y424D01*
X2245Y424D02*
X2254Y424D01*
X1Y423D02*
X10Y423D01*
X2245Y423D02*
X2254Y423D01*
X1Y422D02*
X10Y422D01*
X2245Y422D02*
X2254Y422D01*
X1Y421D02*
X10Y421D01*
X2245Y421D02*
X2254Y421D01*
X1Y420D02*
X10Y420D01*
X2245Y420D02*
X2254Y420D01*
X1Y419D02*
X10Y419D01*
X2245Y419D02*
X2254Y419D01*
X1Y418D02*
X10Y418D01*
X2245Y418D02*
X2254Y418D01*
X1Y417D02*
X10Y417D01*
X2245Y417D02*
X2254Y417D01*
X1Y416D02*
X10Y416D01*
X2245Y416D02*
X2254Y416D01*
X1Y415D02*
X10Y415D01*
X2245Y415D02*
X2254Y415D01*
X1Y414D02*
X10Y414D01*
X2245Y414D02*
X2254Y414D01*
X1Y413D02*
X10Y413D01*
X2245Y413D02*
X2254Y413D01*
X1Y412D02*
X10Y412D01*
X2245Y412D02*
X2254Y412D01*
X1Y411D02*
X10Y411D01*
X2245Y411D02*
X2254Y411D01*
X1Y410D02*
X10Y410D01*
X2245Y410D02*
X2254Y410D01*
X1Y409D02*
X10Y409D01*
X2245Y409D02*
X2254Y409D01*
X1Y408D02*
X10Y408D01*
X2245Y408D02*
X2254Y408D01*
X1Y407D02*
X10Y407D01*
X2245Y407D02*
X2254Y407D01*
X1Y406D02*
X10Y406D01*
X2245Y406D02*
X2254Y406D01*
X1Y405D02*
X10Y405D01*
X2245Y405D02*
X2254Y405D01*
X1Y404D02*
X10Y404D01*
X2245Y404D02*
X2254Y404D01*
X1Y403D02*
X10Y403D01*
X2245Y403D02*
X2254Y403D01*
X1Y402D02*
X10Y402D01*
X2245Y402D02*
X2254Y402D01*
X1Y401D02*
X10Y401D01*
X2245Y401D02*
X2254Y401D01*
X1Y400D02*
X10Y400D01*
X2245Y400D02*
X2254Y400D01*
X1Y399D02*
X10Y399D01*
X2245Y399D02*
X2254Y399D01*
X1Y398D02*
X10Y398D01*
X2245Y398D02*
X2254Y398D01*
X1Y397D02*
X10Y397D01*
X2245Y397D02*
X2254Y397D01*
X1Y396D02*
X10Y396D01*
X2245Y396D02*
X2254Y396D01*
X1Y395D02*
X10Y395D01*
X2245Y395D02*
X2254Y395D01*
X1Y394D02*
X10Y394D01*
X2245Y394D02*
X2254Y394D01*
X1Y393D02*
X10Y393D01*
X2245Y393D02*
X2254Y393D01*
X1Y392D02*
X10Y392D01*
X2245Y392D02*
X2254Y392D01*
X1Y391D02*
X10Y391D01*
X2245Y391D02*
X2254Y391D01*
X1Y390D02*
X10Y390D01*
X2245Y390D02*
X2254Y390D01*
X1Y389D02*
X10Y389D01*
X2245Y389D02*
X2254Y389D01*
X1Y388D02*
X10Y388D01*
X2245Y388D02*
X2254Y388D01*
X1Y387D02*
X10Y387D01*
X2245Y387D02*
X2254Y387D01*
X1Y386D02*
X10Y386D01*
X2245Y386D02*
X2254Y386D01*
X1Y385D02*
X10Y385D01*
X2245Y385D02*
X2254Y385D01*
X1Y384D02*
X10Y384D01*
X2245Y384D02*
X2254Y384D01*
X1Y383D02*
X10Y383D01*
X2245Y383D02*
X2254Y383D01*
X1Y382D02*
X10Y382D01*
X2245Y382D02*
X2254Y382D01*
X1Y381D02*
X10Y381D01*
X2245Y381D02*
X2254Y381D01*
X1Y380D02*
X10Y380D01*
X2245Y380D02*
X2254Y380D01*
X1Y379D02*
X10Y379D01*
X2245Y379D02*
X2254Y379D01*
X1Y378D02*
X10Y378D01*
X2245Y378D02*
X2254Y378D01*
X1Y377D02*
X10Y377D01*
X2245Y377D02*
X2254Y377D01*
X1Y376D02*
X10Y376D01*
X2245Y376D02*
X2254Y376D01*
X1Y375D02*
X10Y375D01*
X2245Y375D02*
X2254Y375D01*
X1Y374D02*
X10Y374D01*
X2245Y374D02*
X2254Y374D01*
X1Y373D02*
X10Y373D01*
X2245Y373D02*
X2254Y373D01*
X1Y372D02*
X10Y372D01*
X2245Y372D02*
X2254Y372D01*
X1Y371D02*
X10Y371D01*
X2245Y371D02*
X2254Y371D01*
X1Y370D02*
X10Y370D01*
X2245Y370D02*
X2254Y370D01*
X1Y369D02*
X10Y369D01*
X2245Y369D02*
X2254Y369D01*
X1Y368D02*
X10Y368D01*
X2245Y368D02*
X2254Y368D01*
X1Y367D02*
X10Y367D01*
X2245Y367D02*
X2254Y367D01*
X1Y366D02*
X10Y366D01*
X2245Y366D02*
X2254Y366D01*
X1Y365D02*
X10Y365D01*
X2245Y365D02*
X2254Y365D01*
X1Y364D02*
X10Y364D01*
X2245Y364D02*
X2254Y364D01*
X1Y363D02*
X10Y363D01*
X2245Y363D02*
X2254Y363D01*
X1Y362D02*
X10Y362D01*
X2245Y362D02*
X2254Y362D01*
X1Y361D02*
X10Y361D01*
X2245Y361D02*
X2254Y361D01*
X1Y360D02*
X10Y360D01*
X2245Y360D02*
X2254Y360D01*
X1Y359D02*
X10Y359D01*
X2245Y359D02*
X2254Y359D01*
X1Y358D02*
X10Y358D01*
X2245Y358D02*
X2254Y358D01*
X1Y357D02*
X10Y357D01*
X2245Y357D02*
X2254Y357D01*
X1Y356D02*
X10Y356D01*
X2245Y356D02*
X2254Y356D01*
X1Y355D02*
X10Y355D01*
X2245Y355D02*
X2254Y355D01*
X1Y354D02*
X10Y354D01*
X2245Y354D02*
X2254Y354D01*
X1Y353D02*
X10Y353D01*
X2245Y353D02*
X2254Y353D01*
X1Y352D02*
X10Y352D01*
X2245Y352D02*
X2254Y352D01*
X1Y351D02*
X10Y351D01*
X2245Y351D02*
X2254Y351D01*
X1Y350D02*
X10Y350D01*
X2245Y350D02*
X2254Y350D01*
X1Y349D02*
X10Y349D01*
X2245Y349D02*
X2254Y349D01*
X1Y348D02*
X10Y348D01*
X2245Y348D02*
X2254Y348D01*
X1Y347D02*
X10Y347D01*
X2245Y347D02*
X2254Y347D01*
X1Y346D02*
X10Y346D01*
X2245Y346D02*
X2254Y346D01*
X1Y345D02*
X10Y345D01*
X2245Y345D02*
X2254Y345D01*
X1Y344D02*
X10Y344D01*
X2245Y344D02*
X2254Y344D01*
X1Y343D02*
X10Y343D01*
X2245Y343D02*
X2254Y343D01*
X1Y342D02*
X10Y342D01*
X2245Y342D02*
X2254Y342D01*
X1Y341D02*
X10Y341D01*
X2245Y341D02*
X2254Y341D01*
X1Y340D02*
X10Y340D01*
X2245Y340D02*
X2254Y340D01*
X1Y339D02*
X10Y339D01*
X2245Y339D02*
X2254Y339D01*
X1Y338D02*
X10Y338D01*
X2245Y338D02*
X2254Y338D01*
X1Y337D02*
X10Y337D01*
X2245Y337D02*
X2254Y337D01*
X1Y336D02*
X10Y336D01*
X2245Y336D02*
X2254Y336D01*
X1Y335D02*
X10Y335D01*
X2245Y335D02*
X2254Y335D01*
X1Y334D02*
X10Y334D01*
X2245Y334D02*
X2254Y334D01*
X1Y333D02*
X10Y333D01*
X2245Y333D02*
X2254Y333D01*
X1Y332D02*
X10Y332D01*
X2245Y332D02*
X2254Y332D01*
X1Y331D02*
X10Y331D01*
X2245Y331D02*
X2254Y331D01*
X1Y330D02*
X10Y330D01*
X2245Y330D02*
X2254Y330D01*
X1Y329D02*
X10Y329D01*
X2245Y329D02*
X2254Y329D01*
X1Y328D02*
X10Y328D01*
X2245Y328D02*
X2254Y328D01*
X1Y327D02*
X10Y327D01*
X2245Y327D02*
X2254Y327D01*
X1Y326D02*
X10Y326D01*
X2245Y326D02*
X2254Y326D01*
X1Y325D02*
X10Y325D01*
X2245Y325D02*
X2254Y325D01*
X1Y324D02*
X10Y324D01*
X2245Y324D02*
X2254Y324D01*
X1Y323D02*
X10Y323D01*
X2245Y323D02*
X2254Y323D01*
X1Y322D02*
X10Y322D01*
X2245Y322D02*
X2254Y322D01*
X1Y321D02*
X10Y321D01*
X2245Y321D02*
X2254Y321D01*
X1Y320D02*
X10Y320D01*
X2245Y320D02*
X2254Y320D01*
X1Y319D02*
X10Y319D01*
X2245Y319D02*
X2254Y319D01*
X1Y318D02*
X10Y318D01*
X2245Y318D02*
X2254Y318D01*
X1Y317D02*
X10Y317D01*
X2245Y317D02*
X2254Y317D01*
X1Y316D02*
X10Y316D01*
X2245Y316D02*
X2254Y316D01*
X1Y315D02*
X10Y315D01*
X2245Y315D02*
X2254Y315D01*
X1Y314D02*
X10Y314D01*
X2245Y314D02*
X2254Y314D01*
X1Y313D02*
X10Y313D01*
X2245Y313D02*
X2254Y313D01*
X1Y312D02*
X10Y312D01*
X2245Y312D02*
X2254Y312D01*
X1Y311D02*
X10Y311D01*
X2245Y311D02*
X2254Y311D01*
X1Y310D02*
X10Y310D01*
X2245Y310D02*
X2254Y310D01*
X1Y309D02*
X10Y309D01*
X2245Y309D02*
X2254Y309D01*
X1Y308D02*
X10Y308D01*
X2245Y308D02*
X2254Y308D01*
X1Y307D02*
X10Y307D01*
X2245Y307D02*
X2254Y307D01*
X1Y306D02*
X10Y306D01*
X2245Y306D02*
X2254Y306D01*
X1Y305D02*
X10Y305D01*
X2245Y305D02*
X2254Y305D01*
X1Y304D02*
X10Y304D01*
X2245Y304D02*
X2254Y304D01*
X1Y303D02*
X10Y303D01*
X2245Y303D02*
X2254Y303D01*
X1Y302D02*
X10Y302D01*
X2245Y302D02*
X2254Y302D01*
X1Y301D02*
X10Y301D01*
X2245Y301D02*
X2254Y301D01*
X1Y300D02*
X10Y300D01*
X2245Y300D02*
X2254Y300D01*
X1Y299D02*
X10Y299D01*
X2245Y299D02*
X2254Y299D01*
X1Y298D02*
X10Y298D01*
X2245Y298D02*
X2254Y298D01*
X1Y297D02*
X10Y297D01*
X2245Y297D02*
X2254Y297D01*
X1Y296D02*
X10Y296D01*
X2245Y296D02*
X2254Y296D01*
X1Y295D02*
X10Y295D01*
X2245Y295D02*
X2254Y295D01*
X1Y294D02*
X10Y294D01*
X2245Y294D02*
X2254Y294D01*
X1Y293D02*
X10Y293D01*
X2245Y293D02*
X2254Y293D01*
X1Y292D02*
X10Y292D01*
X2245Y292D02*
X2254Y292D01*
X1Y291D02*
X10Y291D01*
X2245Y291D02*
X2254Y291D01*
X1Y290D02*
X10Y290D01*
X2245Y290D02*
X2254Y290D01*
X1Y289D02*
X10Y289D01*
X2245Y289D02*
X2254Y289D01*
X1Y288D02*
X10Y288D01*
X2245Y288D02*
X2254Y288D01*
X1Y287D02*
X10Y287D01*
X2245Y287D02*
X2254Y287D01*
X1Y286D02*
X10Y286D01*
X2245Y286D02*
X2254Y286D01*
X1Y285D02*
X10Y285D01*
X2245Y285D02*
X2254Y285D01*
X1Y284D02*
X10Y284D01*
X2245Y284D02*
X2254Y284D01*
X1Y283D02*
X10Y283D01*
X2245Y283D02*
X2254Y283D01*
X1Y282D02*
X10Y282D01*
X2245Y282D02*
X2254Y282D01*
X1Y281D02*
X10Y281D01*
X2245Y281D02*
X2254Y281D01*
X1Y280D02*
X10Y280D01*
X2245Y280D02*
X2254Y280D01*
X1Y279D02*
X10Y279D01*
X2245Y279D02*
X2254Y279D01*
X1Y278D02*
X10Y278D01*
X2245Y278D02*
X2254Y278D01*
X1Y277D02*
X10Y277D01*
X2245Y277D02*
X2254Y277D01*
X1Y276D02*
X10Y276D01*
X2245Y276D02*
X2254Y276D01*
X1Y275D02*
X10Y275D01*
X2245Y275D02*
X2254Y275D01*
X1Y274D02*
X10Y274D01*
X2245Y274D02*
X2254Y274D01*
X1Y273D02*
X10Y273D01*
X2245Y273D02*
X2254Y273D01*
X1Y272D02*
X10Y272D01*
X2245Y272D02*
X2254Y272D01*
X1Y271D02*
X10Y271D01*
X2245Y271D02*
X2254Y271D01*
X1Y270D02*
X10Y270D01*
X2245Y270D02*
X2254Y270D01*
X1Y269D02*
X10Y269D01*
X2245Y269D02*
X2254Y269D01*
X1Y268D02*
X10Y268D01*
X2245Y268D02*
X2254Y268D01*
X1Y267D02*
X10Y267D01*
X2245Y267D02*
X2254Y267D01*
X1Y266D02*
X10Y266D01*
X2245Y266D02*
X2254Y266D01*
X1Y265D02*
X10Y265D01*
X2245Y265D02*
X2254Y265D01*
X1Y264D02*
X10Y264D01*
X2245Y264D02*
X2254Y264D01*
X1Y263D02*
X10Y263D01*
X2245Y263D02*
X2254Y263D01*
X1Y262D02*
X10Y262D01*
X2245Y262D02*
X2254Y262D01*
X1Y261D02*
X10Y261D01*
X2245Y261D02*
X2254Y261D01*
X1Y260D02*
X10Y260D01*
X2245Y260D02*
X2254Y260D01*
X1Y259D02*
X10Y259D01*
X2245Y259D02*
X2254Y259D01*
X1Y258D02*
X10Y258D01*
X2245Y258D02*
X2254Y258D01*
X1Y257D02*
X10Y257D01*
X2245Y257D02*
X2254Y257D01*
X1Y256D02*
X10Y256D01*
X2245Y256D02*
X2254Y256D01*
X1Y255D02*
X10Y255D01*
X2245Y255D02*
X2254Y255D01*
X1Y254D02*
X10Y254D01*
X2245Y254D02*
X2254Y254D01*
X1Y253D02*
X10Y253D01*
X2245Y253D02*
X2254Y253D01*
X1Y252D02*
X10Y252D01*
X2245Y252D02*
X2254Y252D01*
X1Y251D02*
X10Y251D01*
X2245Y251D02*
X2254Y251D01*
X1Y250D02*
X10Y250D01*
X2245Y250D02*
X2254Y250D01*
X1Y249D02*
X10Y249D01*
X2245Y249D02*
X2254Y249D01*
X1Y248D02*
X10Y248D01*
X2245Y248D02*
X2254Y248D01*
X1Y247D02*
X10Y247D01*
X2245Y247D02*
X2254Y247D01*
X1Y246D02*
X10Y246D01*
X2245Y246D02*
X2254Y246D01*
X1Y245D02*
X10Y245D01*
X2245Y245D02*
X2254Y245D01*
X1Y244D02*
X10Y244D01*
X2245Y244D02*
X2254Y244D01*
X1Y243D02*
X10Y243D01*
X2245Y243D02*
X2254Y243D01*
X1Y242D02*
X10Y242D01*
X2245Y242D02*
X2254Y242D01*
X1Y241D02*
X10Y241D01*
X2245Y241D02*
X2254Y241D01*
X1Y240D02*
X10Y240D01*
X2245Y240D02*
X2254Y240D01*
X1Y239D02*
X10Y239D01*
X2245Y239D02*
X2254Y239D01*
X1Y238D02*
X10Y238D01*
X2245Y238D02*
X2254Y238D01*
X1Y237D02*
X10Y237D01*
X2245Y237D02*
X2254Y237D01*
X1Y236D02*
X10Y236D01*
X2245Y236D02*
X2254Y236D01*
X1Y235D02*
X10Y235D01*
X2245Y235D02*
X2254Y235D01*
X1Y234D02*
X10Y234D01*
X2245Y234D02*
X2254Y234D01*
X1Y233D02*
X10Y233D01*
X2245Y233D02*
X2254Y233D01*
X1Y232D02*
X10Y232D01*
X2245Y232D02*
X2254Y232D01*
X1Y231D02*
X10Y231D01*
X2245Y231D02*
X2254Y231D01*
X1Y230D02*
X10Y230D01*
X2245Y230D02*
X2254Y230D01*
X1Y229D02*
X10Y229D01*
X2245Y229D02*
X2254Y229D01*
X1Y228D02*
X10Y228D01*
X2245Y228D02*
X2254Y228D01*
X1Y227D02*
X10Y227D01*
X2245Y227D02*
X2254Y227D01*
X1Y226D02*
X10Y226D01*
X2245Y226D02*
X2254Y226D01*
X1Y225D02*
X10Y225D01*
X2245Y225D02*
X2254Y225D01*
X1Y224D02*
X10Y224D01*
X2245Y224D02*
X2254Y224D01*
X1Y223D02*
X10Y223D01*
X2245Y223D02*
X2254Y223D01*
X1Y222D02*
X10Y222D01*
X2245Y222D02*
X2254Y222D01*
X1Y221D02*
X10Y221D01*
X2245Y221D02*
X2254Y221D01*
X1Y220D02*
X10Y220D01*
X2245Y220D02*
X2254Y220D01*
X1Y219D02*
X10Y219D01*
X2245Y219D02*
X2254Y219D01*
X1Y218D02*
X10Y218D01*
X2245Y218D02*
X2254Y218D01*
X1Y217D02*
X10Y217D01*
X2245Y217D02*
X2254Y217D01*
X1Y216D02*
X10Y216D01*
X2245Y216D02*
X2254Y216D01*
X1Y215D02*
X10Y215D01*
X2245Y215D02*
X2254Y215D01*
X1Y214D02*
X10Y214D01*
X2245Y214D02*
X2254Y214D01*
X1Y213D02*
X10Y213D01*
X2245Y213D02*
X2254Y213D01*
X1Y212D02*
X10Y212D01*
X2245Y212D02*
X2254Y212D01*
X1Y211D02*
X10Y211D01*
X2245Y211D02*
X2254Y211D01*
X1Y210D02*
X10Y210D01*
X2245Y210D02*
X2254Y210D01*
X1Y209D02*
X10Y209D01*
X2245Y209D02*
X2254Y209D01*
X1Y208D02*
X10Y208D01*
X2245Y208D02*
X2254Y208D01*
X1Y207D02*
X10Y207D01*
X2245Y207D02*
X2254Y207D01*
X1Y206D02*
X10Y206D01*
X2245Y206D02*
X2254Y206D01*
X1Y205D02*
X10Y205D01*
X2245Y205D02*
X2254Y205D01*
X1Y204D02*
X10Y204D01*
X2245Y204D02*
X2254Y204D01*
X1Y203D02*
X10Y203D01*
X2245Y203D02*
X2254Y203D01*
X1Y202D02*
X10Y202D01*
X2245Y202D02*
X2254Y202D01*
X1Y201D02*
X10Y201D01*
X2245Y201D02*
X2254Y201D01*
X1Y200D02*
X10Y200D01*
X2245Y200D02*
X2254Y200D01*
X1Y199D02*
X10Y199D01*
X2245Y199D02*
X2254Y199D01*
X1Y198D02*
X10Y198D01*
X2245Y198D02*
X2254Y198D01*
X1Y197D02*
X10Y197D01*
X2245Y197D02*
X2254Y197D01*
X1Y196D02*
X10Y196D01*
X2245Y196D02*
X2254Y196D01*
X1Y195D02*
X10Y195D01*
X2245Y195D02*
X2254Y195D01*
X1Y194D02*
X10Y194D01*
X2245Y194D02*
X2254Y194D01*
X1Y193D02*
X10Y193D01*
X2245Y193D02*
X2254Y193D01*
X1Y192D02*
X10Y192D01*
X2245Y192D02*
X2254Y192D01*
X1Y191D02*
X10Y191D01*
X2245Y191D02*
X2254Y191D01*
X1Y190D02*
X10Y190D01*
X2245Y190D02*
X2254Y190D01*
X1Y189D02*
X10Y189D01*
X2245Y189D02*
X2254Y189D01*
X1Y188D02*
X10Y188D01*
X2245Y188D02*
X2254Y188D01*
X1Y187D02*
X10Y187D01*
X2245Y187D02*
X2254Y187D01*
X1Y186D02*
X10Y186D01*
X2245Y186D02*
X2254Y186D01*
X1Y185D02*
X10Y185D01*
X2245Y185D02*
X2254Y185D01*
X1Y184D02*
X10Y184D01*
X2245Y184D02*
X2254Y184D01*
X1Y183D02*
X10Y183D01*
X2245Y183D02*
X2254Y183D01*
X1Y182D02*
X10Y182D01*
X2245Y182D02*
X2254Y182D01*
X1Y181D02*
X10Y181D01*
X2245Y181D02*
X2254Y181D01*
X1Y180D02*
X10Y180D01*
X2245Y180D02*
X2254Y180D01*
X1Y179D02*
X10Y179D01*
X2245Y179D02*
X2254Y179D01*
X1Y178D02*
X10Y178D01*
X2245Y178D02*
X2254Y178D01*
X1Y177D02*
X10Y177D01*
X2245Y177D02*
X2254Y177D01*
X1Y176D02*
X10Y176D01*
X2245Y176D02*
X2254Y176D01*
X1Y175D02*
X10Y175D01*
X2245Y175D02*
X2254Y175D01*
X1Y174D02*
X10Y174D01*
X2245Y174D02*
X2254Y174D01*
X1Y173D02*
X10Y173D01*
X2245Y173D02*
X2254Y173D01*
X1Y172D02*
X10Y172D01*
X2245Y172D02*
X2254Y172D01*
X1Y171D02*
X10Y171D01*
X2245Y171D02*
X2254Y171D01*
X1Y170D02*
X10Y170D01*
X2245Y170D02*
X2254Y170D01*
X1Y169D02*
X10Y169D01*
X2245Y169D02*
X2254Y169D01*
X1Y168D02*
X10Y168D01*
X2245Y168D02*
X2254Y168D01*
X1Y167D02*
X10Y167D01*
X2245Y167D02*
X2254Y167D01*
X1Y166D02*
X10Y166D01*
X2245Y166D02*
X2254Y166D01*
X1Y165D02*
X10Y165D01*
X2245Y165D02*
X2254Y165D01*
X1Y164D02*
X10Y164D01*
X2245Y164D02*
X2254Y164D01*
X1Y163D02*
X10Y163D01*
X2245Y163D02*
X2254Y163D01*
X1Y162D02*
X10Y162D01*
X2245Y162D02*
X2254Y162D01*
X1Y161D02*
X10Y161D01*
X2245Y161D02*
X2254Y161D01*
X1Y160D02*
X10Y160D01*
X2245Y160D02*
X2254Y160D01*
X1Y159D02*
X10Y159D01*
X2245Y159D02*
X2254Y159D01*
X1Y158D02*
X10Y158D01*
X2245Y158D02*
X2254Y158D01*
X1Y157D02*
X10Y157D01*
X2245Y157D02*
X2254Y157D01*
X1Y156D02*
X10Y156D01*
X2245Y156D02*
X2254Y156D01*
X1Y155D02*
X10Y155D01*
X2245Y155D02*
X2254Y155D01*
X1Y154D02*
X10Y154D01*
X2245Y154D02*
X2254Y154D01*
X1Y153D02*
X10Y153D01*
X2245Y153D02*
X2254Y153D01*
X1Y152D02*
X10Y152D01*
X2245Y152D02*
X2254Y152D01*
X1Y151D02*
X10Y151D01*
X2245Y151D02*
X2254Y151D01*
X1Y150D02*
X10Y150D01*
X2245Y150D02*
X2254Y150D01*
X1Y149D02*
X10Y149D01*
X2245Y149D02*
X2254Y149D01*
X1Y148D02*
X10Y148D01*
X2245Y148D02*
X2254Y148D01*
X1Y147D02*
X10Y147D01*
X2245Y147D02*
X2254Y147D01*
X1Y146D02*
X10Y146D01*
X2245Y146D02*
X2254Y146D01*
X1Y145D02*
X10Y145D01*
X2245Y145D02*
X2254Y145D01*
X1Y144D02*
X10Y144D01*
X2245Y144D02*
X2254Y144D01*
X1Y143D02*
X10Y143D01*
X2245Y143D02*
X2254Y143D01*
X1Y142D02*
X10Y142D01*
X2245Y142D02*
X2254Y142D01*
X1Y141D02*
X10Y141D01*
X2245Y141D02*
X2254Y141D01*
X1Y140D02*
X10Y140D01*
X2245Y140D02*
X2254Y140D01*
X1Y139D02*
X10Y139D01*
X2245Y139D02*
X2254Y139D01*
X1Y138D02*
X10Y138D01*
X2245Y138D02*
X2254Y138D01*
X1Y137D02*
X10Y137D01*
X2245Y137D02*
X2254Y137D01*
X1Y136D02*
X10Y136D01*
X2245Y136D02*
X2254Y136D01*
X1Y135D02*
X10Y135D01*
X2245Y135D02*
X2254Y135D01*
X1Y134D02*
X10Y134D01*
X2245Y134D02*
X2254Y134D01*
X1Y133D02*
X10Y133D01*
X2245Y133D02*
X2254Y133D01*
X1Y132D02*
X10Y132D01*
X2245Y132D02*
X2254Y132D01*
X1Y131D02*
X10Y131D01*
X2245Y131D02*
X2254Y131D01*
X1Y130D02*
X10Y130D01*
X2245Y130D02*
X2254Y130D01*
X1Y129D02*
X10Y129D01*
X2245Y129D02*
X2254Y129D01*
X1Y128D02*
X10Y128D01*
X2245Y128D02*
X2254Y128D01*
X1Y127D02*
X10Y127D01*
X2245Y127D02*
X2254Y127D01*
X1Y126D02*
X10Y126D01*
X2245Y126D02*
X2254Y126D01*
X1Y125D02*
X10Y125D01*
X2245Y125D02*
X2254Y125D01*
X1Y124D02*
X10Y124D01*
X2245Y124D02*
X2254Y124D01*
X1Y123D02*
X10Y123D01*
X2245Y123D02*
X2254Y123D01*
X1Y122D02*
X10Y122D01*
X2245Y122D02*
X2254Y122D01*
X1Y121D02*
X10Y121D01*
X2245Y121D02*
X2254Y121D01*
X1Y120D02*
X10Y120D01*
X2245Y120D02*
X2254Y120D01*
X1Y119D02*
X10Y119D01*
X2245Y119D02*
X2254Y119D01*
X1Y118D02*
X10Y118D01*
X2245Y118D02*
X2254Y118D01*
X1Y117D02*
X10Y117D01*
X2245Y117D02*
X2254Y117D01*
X1Y116D02*
X10Y116D01*
X2245Y116D02*
X2254Y116D01*
X1Y115D02*
X10Y115D01*
X2245Y115D02*
X2254Y115D01*
X1Y114D02*
X10Y114D01*
X2245Y114D02*
X2254Y114D01*
X1Y113D02*
X10Y113D01*
X2245Y113D02*
X2254Y113D01*
X1Y112D02*
X10Y112D01*
X2245Y112D02*
X2254Y112D01*
X1Y111D02*
X10Y111D01*
X2245Y111D02*
X2254Y111D01*
X1Y110D02*
X10Y110D01*
X2245Y110D02*
X2254Y110D01*
X1Y109D02*
X10Y109D01*
X2245Y109D02*
X2254Y109D01*
X1Y108D02*
X10Y108D01*
X2245Y108D02*
X2254Y108D01*
X1Y107D02*
X10Y107D01*
X2245Y107D02*
X2254Y107D01*
X1Y106D02*
X10Y106D01*
X2245Y106D02*
X2254Y106D01*
X1Y105D02*
X10Y105D01*
X2245Y105D02*
X2254Y105D01*
X1Y104D02*
X10Y104D01*
X2245Y104D02*
X2254Y104D01*
X1Y103D02*
X10Y103D01*
X2245Y103D02*
X2254Y103D01*
X1Y102D02*
X10Y102D01*
X2245Y102D02*
X2254Y102D01*
X1Y101D02*
X10Y101D01*
X2245Y101D02*
X2254Y101D01*
X1Y100D02*
X10Y100D01*
X2245Y100D02*
X2254Y100D01*
X1Y99D02*
X10Y99D01*
X2245Y99D02*
X2254Y99D01*
X1Y98D02*
X10Y98D01*
X2245Y98D02*
X2254Y98D01*
X1Y97D02*
X10Y97D01*
X2245Y97D02*
X2254Y97D01*
X1Y96D02*
X10Y96D01*
X2245Y96D02*
X2254Y96D01*
X1Y95D02*
X10Y95D01*
X2245Y95D02*
X2254Y95D01*
X1Y94D02*
X10Y94D01*
X2245Y94D02*
X2254Y94D01*
X1Y93D02*
X10Y93D01*
X2245Y93D02*
X2254Y93D01*
X1Y92D02*
X10Y92D01*
X2245Y92D02*
X2254Y92D01*
X1Y91D02*
X10Y91D01*
X2245Y91D02*
X2254Y91D01*
X1Y90D02*
X10Y90D01*
X2245Y90D02*
X2254Y90D01*
X1Y89D02*
X10Y89D01*
X2245Y89D02*
X2254Y89D01*
X1Y88D02*
X10Y88D01*
X2245Y88D02*
X2254Y88D01*
X1Y87D02*
X10Y87D01*
X2245Y87D02*
X2254Y87D01*
X1Y86D02*
X10Y86D01*
X2245Y86D02*
X2254Y86D01*
X1Y85D02*
X10Y85D01*
X2245Y85D02*
X2254Y85D01*
X1Y84D02*
X10Y84D01*
X2245Y84D02*
X2254Y84D01*
X1Y83D02*
X10Y83D01*
X2245Y83D02*
X2254Y83D01*
X1Y82D02*
X10Y82D01*
X2245Y82D02*
X2254Y82D01*
X1Y81D02*
X10Y81D01*
X2245Y81D02*
X2254Y81D01*
X1Y80D02*
X10Y80D01*
X2245Y80D02*
X2254Y80D01*
X1Y79D02*
X10Y79D01*
X2245Y79D02*
X2254Y79D01*
X1Y78D02*
X10Y78D01*
X2245Y78D02*
X2254Y78D01*
X1Y77D02*
X10Y77D01*
X2245Y77D02*
X2254Y77D01*
X1Y76D02*
X10Y76D01*
X2245Y76D02*
X2254Y76D01*
X1Y75D02*
X10Y75D01*
X2245Y75D02*
X2254Y75D01*
X1Y74D02*
X10Y74D01*
X2245Y74D02*
X2254Y74D01*
X1Y73D02*
X10Y73D01*
X2245Y73D02*
X2254Y73D01*
X1Y72D02*
X10Y72D01*
X2245Y72D02*
X2254Y72D01*
X1Y71D02*
X10Y71D01*
X2245Y71D02*
X2254Y71D01*
X1Y70D02*
X10Y70D01*
X2245Y70D02*
X2254Y70D01*
X1Y69D02*
X10Y69D01*
X2245Y69D02*
X2254Y69D01*
X1Y68D02*
X10Y68D01*
X2245Y68D02*
X2254Y68D01*
X1Y67D02*
X10Y67D01*
X2245Y67D02*
X2254Y67D01*
X1Y66D02*
X10Y66D01*
X2245Y66D02*
X2254Y66D01*
X1Y65D02*
X10Y65D01*
X2245Y65D02*
X2254Y65D01*
X1Y64D02*
X10Y64D01*
X2245Y64D02*
X2254Y64D01*
X1Y63D02*
X10Y63D01*
X2245Y63D02*
X2254Y63D01*
X1Y62D02*
X10Y62D01*
X2245Y62D02*
X2254Y62D01*
X1Y61D02*
X10Y61D01*
X2245Y61D02*
X2254Y61D01*
X1Y60D02*
X10Y60D01*
X2245Y60D02*
X2254Y60D01*
X1Y59D02*
X10Y59D01*
X2245Y59D02*
X2254Y59D01*
X1Y58D02*
X10Y58D01*
X2245Y58D02*
X2254Y58D01*
X1Y57D02*
X10Y57D01*
X2245Y57D02*
X2254Y57D01*
X1Y56D02*
X10Y56D01*
X2245Y56D02*
X2254Y56D01*
X1Y55D02*
X10Y55D01*
X2245Y55D02*
X2254Y55D01*
X1Y54D02*
X10Y54D01*
X2245Y54D02*
X2254Y54D01*
X1Y53D02*
X10Y53D01*
X2245Y53D02*
X2254Y53D01*
X1Y52D02*
X10Y52D01*
X2245Y52D02*
X2254Y52D01*
X1Y51D02*
X11Y51D01*
X2244Y51D02*
X2254Y51D01*
X1Y50D02*
X11Y50D01*
X2244Y50D02*
X2254Y50D01*
X1Y49D02*
X11Y49D01*
X2244Y49D02*
X2254Y49D01*
X1Y48D02*
X11Y48D01*
X2244Y48D02*
X2254Y48D01*
X1Y47D02*
X11Y47D01*
X2244Y47D02*
X2254Y47D01*
X2Y46D02*
X11Y46D01*
X2244Y46D02*
X2253Y46D01*
X2Y45D02*
X12Y45D01*
X2243Y45D02*
X2253Y45D01*
X2Y44D02*
X12Y44D01*
X2243Y44D02*
X2253Y44D01*
X3Y43D02*
X13Y43D01*
X2242Y43D02*
X2252Y43D01*
X3Y42D02*
X13Y42D01*
X2242Y42D02*
X2252Y42D01*
X3Y41D02*
X14Y41D01*
X2242Y41D02*
X2252Y41D01*
X4Y40D02*
X14Y40D01*
X2241Y40D02*
X2251Y40D01*
X4Y39D02*
X15Y39D01*
X2240Y39D02*
X2251Y39D01*
X5Y38D02*
X16Y38D01*
X2239Y38D02*
X2250Y38D01*
X5Y37D02*
X16Y37D01*
X2239Y37D02*
X2250Y37D01*
X6Y36D02*
X17Y36D01*
X2238Y36D02*
X2249Y36D01*
X6Y35D02*
X18Y35D01*
X2237Y35D02*
X2249Y35D01*
X7Y34D02*
X19Y34D01*
X2236Y34D02*
X2248Y34D01*
X8Y33D02*
X20Y33D01*
X2235Y33D02*
X2247Y33D01*
X8Y32D02*
X21Y32D01*
X2234Y32D02*
X2247Y32D01*
X9Y31D02*
X22Y31D01*
X2233Y31D02*
X2246Y31D01*
X10Y30D02*
X24Y30D01*
X2231Y30D02*
X2245Y30D01*
X11Y29D02*
X25Y29D01*
X2230Y29D02*
X2244Y29D01*
X12Y28D02*
X27Y28D01*
X2228Y28D02*
X2243Y28D01*
X13Y27D02*
X28Y27D01*
X2227Y27D02*
X2242Y27D01*
X14Y26D02*
X30Y26D01*
X2225Y26D02*
X2241Y26D01*
X15Y25D02*
X31Y25D01*
X2224Y25D02*
X2240Y25D01*
X16Y24D02*
X33Y24D01*
X2222Y24D02*
X2239Y24D01*
X17Y23D02*
X35Y23D01*
X2220Y23D02*
X2238Y23D01*
X18Y22D02*
X37Y22D01*
X2218Y22D02*
X2237Y22D01*
X20Y21D02*
X39Y21D01*
X2216Y21D02*
X2235Y21D01*
X21Y20D02*
X42Y20D01*
X2213Y20D02*
X2234Y20D01*
X22Y19D02*
X45Y19D01*
X2211Y19D02*
X2233Y19D01*
X24Y18D02*
X47Y18D01*
X2208Y18D02*
X2231Y18D01*
X26Y17D02*
X50Y17D01*
X2205Y17D02*
X2229Y17D01*
X27Y16D02*
X54Y16D01*
X2201Y16D02*
X2228Y16D01*
X29Y15D02*
X58Y15D01*
X2197Y15D02*
X2226Y15D01*
X31Y14D02*
X62Y14D01*
X2193Y14D02*
X2224Y14D01*
X33Y13D02*
X67Y13D01*
X2188Y13D02*
X2222Y13D01*
X35Y12D02*
X75Y12D01*
X2180Y12D02*
X2220Y12D01*
X38Y11D02*
X90Y11D01*
X2165Y11D02*
X2218Y11D01*
X40Y10D02*
X2215Y10D01*
X43Y9D02*
X2212Y9D01*
X46Y8D02*
X2209Y8D01*
X49Y7D02*
X2206Y7D01*
X52Y6D02*
X2203Y6D01*
X56Y5D02*
X2199Y5D01*
X60Y4D02*
X2195Y4D01*
X66Y3D02*
X2189Y3D01*
X72Y2D02*
X2183Y2D01*
X82Y1D02*
X2173Y1D01*
D02*
G04 End of Silk0*
M02*